<svg xmlns="http://www.w3.org/2000/svg" xmlns:xlink="http://www.w3.org/1999/xlink" width="400" height="240" viewBox="0 0 400 240">
    <defs>
        <filter id="3g3gvjetua" width="129.2%" height="183.3%" x="-10.4%" y="-29.8%" filterUnits="objectBoundingBox">
            <feOffset dx="5" dy="5" in="SourceAlpha" result="shadowOffsetOuter1"/>
            <feGaussianBlur in="shadowOffsetOuter1" result="shadowBlurOuter1" stdDeviation="5"/>
            <feColorMatrix in="shadowBlurOuter1" values="0 0 0 0 0.0669361522 0 0 0 0 0.0663638167 0 0 0 0 0.0994112319 0 0 0 0.04 0"/>
        </filter>
        <filter id="164l5a715c" width="129.2%" height="183.3%" x="-10.4%" y="-29.8%" filterUnits="objectBoundingBox">
            <feOffset dx="5" dy="5" in="SourceAlpha" result="shadowOffsetOuter1"/>
            <feGaussianBlur in="shadowOffsetOuter1" result="shadowBlurOuter1" stdDeviation="5"/>
            <feColorMatrix in="shadowBlurOuter1" values="0 0 0 0 0.0669361522 0 0 0 0 0.0663638167 0 0 0 0 0.0994112319 0 0 0 0.04 0"/>
        </filter>
        <filter id="5trmnf2l3e" width="129.2%" height="183.3%" x="-10.4%" y="-29.8%" filterUnits="objectBoundingBox">
            <feOffset dx="5" dy="5" in="SourceAlpha" result="shadowOffsetOuter1"/>
            <feGaussianBlur in="shadowOffsetOuter1" result="shadowBlurOuter1" stdDeviation="5"/>
            <feColorMatrix in="shadowBlurOuter1" values="0 0 0 0 0.0669361522 0 0 0 0 0.0663638167 0 0 0 0 0.0994112319 0 0 0 0.04 0"/>
        </filter>
        <filter id="az87pnscrg" width="197.2%" height="197.2%" x="-34.7%" y="-34.7%" filterUnits="objectBoundingBox">
            <feOffset dx="20" dy="20" in="SourceAlpha" result="shadowOffsetOuter1"/>
            <feGaussianBlur in="shadowOffsetOuter1" result="shadowBlurOuter1" stdDeviation="20"/>
            <feColorMatrix in="shadowBlurOuter1" values="0 0 0 0 0.0669361522 0 0 0 0 0.0663638167 0 0 0 0 0.0994112319 0 0 0 0.1 0"/>
        </filter>
        <rect id="rvik1x0l1b" width="120" height="42" x="42" y="37" rx="21"/>
        <rect id="0at1k0rf8d" width="120" height="42" x="42" y="99" rx="21"/>
        <rect id="m2d2vxg3wf" width="120" height="42" x="42" y="161" rx="21"/>
        <linearGradient id="67xm1nhk4i" x1="0%" x2="100%" y1="50%" y2="50%">
            <stop offset="0%" stop-color="#D8D8D8" stop-opacity="0"/>
            <stop offset="100%" stop-color="#D8D8D8"/>
        </linearGradient>
        <circle id="ymlv12uych" cx="301" cy="120" r="72"/>
    </defs>
    <g fill="none" fill-rule="evenodd">
        <g>
            <g transform="translate(-360.000000, -900.000000) translate(360.000000, 900.000000)">
                <rect width="400" height="240" fill="#F7F7F8" rx="4"/>
                <g>
                    <use fill="#000" filter="url(#3g3gvjetua)" xlink:href="#rvik1x0l1b"/>
                    <use fill="#FFF" xlink:href="#rvik1x0l1b"/>
                </g>
                <g>
                    <use fill="#000" filter="url(#164l5a715c)" xlink:href="#0at1k0rf8d"/>
                    <use fill="#FFF" xlink:href="#0at1k0rf8d"/>
                </g>
                <g>
                    <use fill="#000" filter="url(#5trmnf2l3e)" xlink:href="#m2d2vxg3wf"/>
                    <use fill="#FFF" xlink:href="#m2d2vxg3wf"/>
                </g>
                <path fill="#686868" fill-rule="nonzero" d="M74.754 62.444c.24 0 .496-.012.768-.036.272-.024.548-.078.828-.162.28-.084.562-.2.846-.348.284-.148.554-.35.81-.606l-.816-1.176c-.344.352-.726.59-1.146.714-.42.124-.83.186-1.23.186-.272 0-.532-.046-.78-.138-.248-.092-.466-.238-.654-.438s-.338-.46-.45-.78c-.112-.32-.168-.708-.168-1.164v-.888c0-.536.06-.976.18-1.32.12-.344.276-.616.468-.816.192-.2.412-.338.66-.414.248-.076.5-.114.756-.114.392 0 .76.046 1.104.138.344.092.692.286 1.044.582l.828-1.176c-.44-.352-.894-.6-1.362-.744-.468-.144-1.006-.216-1.614-.216-.504 0-.974.072-1.41.216-.436.144-.818.37-1.146.678-.328.308-.586.696-.774 1.164-.188.468-.282 1.026-.282 1.674v1.548c0 .648.096 1.2.288 1.656.192.456.45.832.774 1.128.324.296.7.512 1.128.648.428.136.878.204 1.35.204zm5.484-.132l.852-2.376h2.916l.84 2.376h1.668l-3.252-8.652h-1.38l-3.216 8.652h1.572zm3.324-3.66h-2.028l.588-1.764c.056-.152.102-.284.138-.396l.102-.318c.032-.1.062-.198.09-.294.028-.096.058-.204.09-.324l.186.606c.06.196.142.438.246.726l.588 1.764zm7.368 3.66v-7.356h2.532V53.66H86.85v1.296h2.544v7.356h1.536zm9.276 0V61.04h-4.128v-2.532h3.792V57.26h-3.792v-2.328h4.044V53.66h-5.568v8.652h5.652zm5.196.132c.256 0 .522-.018.798-.054.276-.036.546-.086.81-.15s.516-.146.756-.246.456-.214.648-.342V57.44h-3.336v1.284h1.812V60.8c-.216.088-.436.152-.66.192-.224.04-.476.06-.756.06-.352 0-.674-.044-.966-.132-.292-.088-.544-.234-.756-.438-.212-.204-.378-.468-.498-.792s-.18-.722-.18-1.194v-.888c0-.552.058-1.002.174-1.35.116-.348.276-.62.48-.816.204-.196.446-.332.726-.408.28-.076.588-.114.924-.114.36 0 .724.056 1.092.168.368.112.712.308 1.032.588l.828-1.176c-.448-.36-.924-.612-1.428-.756-.504-.144-1.012-.216-1.524-.216-.552 0-1.064.072-1.536.216-.472.144-.878.37-1.218.678-.34.308-.606.696-.798 1.164-.192.468-.288 1.026-.288 1.674v1.548c0 .648.098 1.2.294 1.656.196.456.468.832.816 1.128.348.296.756.512 1.224.648.468.136.978.204 1.53.204zm8.028 0c.496 0 .966-.068 1.41-.204.444-.136.832-.352 1.164-.648.332-.296.596-.682.792-1.158.196-.476.294-1.054.294-1.734v-1.428c0-.672-.098-1.244-.294-1.716-.196-.472-.462-.858-.798-1.158-.336-.3-.726-.52-1.17-.66-.444-.14-.91-.21-1.398-.21-.488 0-.954.07-1.398.21-.444.14-.834.36-1.17.66-.336.3-.602.686-.798 1.158-.196.472-.294 1.044-.294 1.716V58.7c0 .68.098 1.258.294 1.734.196.476.46.862.792 1.158.332.296.72.512 1.164.648.444.136.914.204 1.41.204zm0-1.404c-.288 0-.56-.038-.816-.114-.256-.076-.48-.21-.672-.402-.192-.192-.344-.452-.456-.78-.112-.328-.168-.74-.168-1.236v-1.044c0-.496.056-.908.168-1.236.112-.328.264-.588.456-.78.192-.192.416-.326.672-.402.256-.076.528-.114.816-.114.296 0 .572.038.828.114.256.076.48.21.672.402.192.192.342.452.45.78.108.328.162.74.162 1.236v1.044c0 .496-.054.908-.162 1.236-.108.328-.258.588-.45.78-.192.192-.416.326-.672.402-.256.076-.532.114-.828.114zm6.828 1.272v-3.468h1.764l1.452 3.468h1.668c-.288-.632-.57-1.258-.846-1.878-.276-.62-.558-1.246-.846-1.878.448-.2.784-.482 1.008-.846.224-.364.336-.774.336-1.23v-.444c0-.344-.062-.662-.186-.954-.124-.292-.304-.542-.54-.75-.236-.208-.528-.372-.876-.492s-.746-.18-1.194-.18h-3.276v8.652h1.536zm1.416-4.752h-1.416v-2.616h1.548c.528 0 .904.106 1.128.318.224.212.336.486.336.822v.36c0 .328-.118.596-.354.804-.236.208-.65.312-1.242.312zm8.652 4.752v-3.42l2.964-5.232h-1.68l-2.016 3.816-2.052-3.816h-1.716l2.964 5.232v3.42h1.536zM90.102 124.312c.672 0 1.244-.082 1.716-.246.472-.164.858-.402 1.158-.714.3-.312.518-.698.654-1.158.136-.46.204-.99.204-1.59v-1.236c0-1.2-.304-2.118-.912-2.754-.608-.636-1.556-.954-2.844-.954h-3.012v8.652h3.036zm-.228-1.296H88.59v-6.06h1.284c.8 0 1.402.184 1.806.552.404.368.606 1.008.606 1.92v1.116c0 .456-.054.842-.162 1.158-.108.316-.264.57-.468.762-.204.192-.456.332-.756.42-.3.088-.642.132-1.026.132zm6.408 1.296l.852-2.376h2.916l.84 2.376h1.668l-3.252-8.652h-1.38l-3.216 8.652h1.572zm3.324-3.66h-2.028l.588-1.764c.056-.152.102-.284.138-.396l.102-.318c.032-.1.062-.198.09-.294.028-.096.058-.204.09-.324l.186.606c.06.196.142.438.246.726l.588 1.764zm7.368 3.66v-7.356h2.532v-1.296h-6.612v1.296h2.544v7.356h1.536zm4.44 0l.852-2.376h2.916l.84 2.376h1.668l-3.252-8.652h-1.38l-3.216 8.652h1.572zm3.324-3.66h-2.028l.588-1.764c.056-.152.102-.284.138-.396l.102-.318c.032-.1.062-.198.09-.294.028-.096.058-.204.09-.324l.186.606c.06.196.142.438.246.726l.588 1.764zM72.684 186.312l.852-2.376h2.916l.84 2.376h1.668l-3.252-8.652h-1.38l-3.216 8.652h1.572zm3.324-3.66H73.98l.588-1.764c.056-.152.102-.284.138-.396l.102-.318c.032-.1.062-.198.09-.294.028-.096.058-.204.09-.324l.186.606c.06.196.142.438.246.726l.588 1.764zm5.676 3.66v-8.652h-1.536v8.652h1.536zm7.668.132c.416 0 .816-.042 1.2-.126.384-.084.724-.224 1.02-.42.296-.196.53-.456.702-.78.172-.324.258-.726.258-1.206v-.156c0-.296-.046-.57-.138-.822-.092-.252-.244-.482-.456-.69-.212-.208-.492-.394-.84-.558-.348-.164-.778-.302-1.29-.414-.256-.056-.498-.11-.726-.162-.228-.052-.426-.12-.594-.204-.168-.084-.302-.19-.402-.318-.1-.128-.15-.296-.15-.504v-.144c0-.12.032-.24.096-.36s.162-.232.294-.336c.132-.104.298-.188.498-.252s.436-.096.708-.096c.344 0 .668.034.972.102.304.068.632.214.984.438l.72-1.188c-.44-.28-.88-.47-1.32-.57-.44-.1-.9-.15-1.38-.15-.584 0-1.074.078-1.47.234-.396.156-.714.354-.954.594s-.412.502-.516.786c-.104.284-.156.558-.156.822v.156c0 .504.092.906.276 1.206.184.3.422.538.714.714.292.176.62.308.984.396.364.088.726.172 1.086.252.496.112.874.254 1.134.426.26.172.39.434.39.786v.132c0 .296-.124.542-.372.738-.248.196-.648.294-1.2.294-.52 0-.988-.084-1.404-.252-.416-.168-.756-.364-1.02-.588l-.744 1.224c.168.136.366.266.594.39.228.124.474.23.738.318s.546.158.846.21c.3.052.606.078.918.078zm8.472-.132v-3.42l2.964-5.232h-1.68l-2.016 3.816-2.052-3.816h-1.716l2.964 5.232v3.42h1.536zm6.816.132c.416 0 .816-.042 1.2-.126.384-.084.724-.224 1.02-.42.296-.196.53-.456.702-.78.172-.324.258-.726.258-1.206v-.156c0-.296-.046-.57-.138-.822-.092-.252-.244-.482-.456-.69-.212-.208-.492-.394-.84-.558-.348-.164-.778-.302-1.29-.414-.256-.056-.498-.11-.726-.162-.228-.052-.426-.12-.594-.204-.168-.084-.302-.19-.402-.318-.1-.128-.15-.296-.15-.504v-.144c0-.12.032-.24.096-.36s.162-.232.294-.336c.132-.104.298-.188.498-.252s.436-.096.708-.096c.344 0 .668.034.972.102.304.068.632.214.984.438l.72-1.188c-.44-.28-.88-.47-1.32-.57-.44-.1-.9-.15-1.38-.15-.584 0-1.074.078-1.47.234-.396.156-.714.354-.954.594s-.412.502-.516.786c-.104.284-.156.558-.156.822v.156c0 .504.092.906.276 1.206.184.3.422.538.714.714.292.176.62.308.984.396.364.088.726.172 1.086.252.496.112.874.254 1.134.426.26.172.39.434.39.786v.132c0 .296-.124.542-.372.738-.248.196-.648.294-1.2.294-.52 0-.988-.084-1.404-.252-.416-.168-.756-.364-1.02-.588l-.744 1.224c.168.136.366.266.594.39.228.124.474.23.738.318s.546.158.846.21c.3.052.606.078.918.078zm8.016-.132v-7.356h2.532v-1.296h-6.612v1.296h2.544v7.356h1.536zm9.276 0v-1.272h-4.128v-2.532h3.792v-1.248h-3.792v-2.328h4.044v-1.272h-5.568v8.652h5.652zm3.072 0v-7.308c.104.312.188.57.252.774.064.204.128.382.192.534l1.788 4.56h1.224l1.812-4.56.18-.498c.064-.18.14-.45.228-.81v7.308h1.452v-8.652h-2.208l-2.04 5.376-2.124-5.376h-2.184v8.652h1.428z"/>
                <circle cx="102" cy="89" r="14" fill="#D8D8D8"/>
                <path fill="#FFF" d="M103 83v5h5v2h-5v5h-2v-5h-5v-2h5v-5h2z"/>
                <circle cx="102" cy="151" r="14" fill="#D8D8D8"/>
                <path fill="#FFF" d="M103 145v5h5v2h-5v5h-2v-5h-5v-2h5v-5h2z"/>
                <g>
                    <use fill="#000" filter="url(#az87pnscrg)" xlink:href="#ymlv12uych"/>
                    <use fill="#FFF" xlink:href="#ymlv12uych"/>
                </g>
                <path fill="#FFCB7C" d="M276.942 158.395l-6.608 3.735c-.48.272-1.09.102-1.362-.379-.144-.253-.17-.556-.07-.83l2.21-6.15-5.251-5.65c-.376-.404-.353-1.037.051-1.413.182-.169.42-.264.669-.267l6.941-.086 2.502-5.78c.22-.506.808-.74 1.315-.52.233.101.42.287.52.52l2.502 5.78 6.941.086c.553.007.995.46.988 1.012-.003.248-.098.487-.268.668l-5.252 5.65 2.212 6.15c.187.52-.083 1.092-.603 1.28-.274.098-.577.072-.83-.071l-6.607-3.735zM300.942 158.395l-6.608 3.735c-.48.272-1.09.102-1.362-.379-.144-.253-.17-.556-.07-.83l2.21-6.15-5.251-5.65c-.376-.404-.353-1.037.051-1.413.182-.169.42-.264.669-.267l6.941-.086 2.502-5.78c.22-.506.808-.74 1.315-.52.233.101.42.287.52.52l2.502 5.78 6.941.086c.553.007.995.46.988 1.012-.003.248-.098.487-.268.668l-5.252 5.65 2.212 6.15c.187.52-.083 1.092-.603 1.28-.274.098-.577.072-.83-.071l-6.607-3.735zM324.942 158.395l-6.608 3.735c-.48.272-1.09.102-1.362-.379-.144-.253-.17-.556-.07-.83l2.21-6.15-5.251-5.65c-.376-.404-.353-1.037.051-1.413.182-.169.42-.264.669-.267l6.941-.086 2.502-5.78c.22-.506.808-.74 1.315-.52.233.101.42.287.52.52l2.502 5.78 6.941.086c.553.007.995.46.988 1.012-.003.248-.098.487-.268.668l-5.252 5.65 2.212 6.15c.187.52-.083 1.092-.603 1.28-.274.098-.577.072-.83-.071l-6.607-3.735z"/>
                <path fill="#D8D8D8" d="M299.154 105.846h3.692c12.235 0 22.154 9.919 22.154 22.154h-48c0-12.235 9.919-22.154 22.154-22.154z"/>
                <rect width="22.154" height="22.154" x="289.923" y="80" fill="#D8D8D8" rx="11.077"/>
                <ellipse cx="354.318" cy="70.694" fill="#FF1321" rx="14.318" ry="14"/>
                <path fill="#FFF" d="M358.543 67.764l1.632 1.539-7.342 6.926-.1-.093-.028.027-4.895-4.617 1.631-1.54 3.363 3.172 5.74-5.414z"/>
                <path fill="url(#67xm1nhk4i)" d="M205 108l20 13-20 13-.001-7H165v-12h39.999l.001-7z"/>
            </g>
        </g>
    </g>
</svg>
