<svg xmlns="http://www.w3.org/2000/svg" xmlns:xlink="http://www.w3.org/1999/xlink" width="220" height="140" viewBox="0 0 220 140">
    <defs>
        <filter id="pdeqinw1ia" width="150%" height="234.6%" x="-17.9%" y="-48.1%" filterUnits="objectBoundingBox">
            <feOffset dx="5" dy="5" in="SourceAlpha" result="shadowOffsetOuter1"/>
            <feGaussianBlur in="shadowOffsetOuter1" result="shadowBlurOuter1" stdDeviation="5"/>
            <feColorMatrix in="shadowBlurOuter1" values="0 0 0 0 0.0669361522 0 0 0 0 0.0663638167 0 0 0 0 0.0994112319 0 0 0 0.04 0"/>
        </filter>
        <filter id="pikwlsbqjc" width="150%" height="234.6%" x="-17.9%" y="-48.1%" filterUnits="objectBoundingBox">
            <feOffset dx="5" dy="5" in="SourceAlpha" result="shadowOffsetOuter1"/>
            <feGaussianBlur in="shadowOffsetOuter1" result="shadowBlurOuter1" stdDeviation="5"/>
            <feColorMatrix in="shadowBlurOuter1" values="0 0 0 0 0.0669361522 0 0 0 0 0.0663638167 0 0 0 0 0.0994112319 0 0 0 0.04 0"/>
        </filter>
        <filter id="610rg8xjfe" width="150%" height="234.6%" x="-17.9%" y="-48.1%" filterUnits="objectBoundingBox">
            <feOffset dx="5" dy="5" in="SourceAlpha" result="shadowOffsetOuter1"/>
            <feGaussianBlur in="shadowOffsetOuter1" result="shadowBlurOuter1" stdDeviation="5"/>
            <feColorMatrix in="shadowBlurOuter1" values="0 0 0 0 0.0669361522 0 0 0 0 0.0663638167 0 0 0 0 0.0994112319 0 0 0 0.04 0"/>
        </filter>
        <filter id="qybez6gz3g" width="294.4%" height="294.4%" x="-69.4%" y="-69.4%" filterUnits="objectBoundingBox">
            <feOffset dx="20" dy="20" in="SourceAlpha" result="shadowOffsetOuter1"/>
            <feGaussianBlur in="shadowOffsetOuter1" result="shadowBlurOuter1" stdDeviation="20"/>
            <feColorMatrix in="shadowBlurOuter1" values="0 0 0 0 0.0669361522 0 0 0 0 0.0663638167 0 0 0 0 0.0994112319 0 0 0 0.1 0"/>
        </filter>
        <rect id="gafhqexxsb" width="70" height="26" x="26" y="20" rx="13"/>
        <rect id="qyxyclp08d" width="70" height="26" x="26" y="56" rx="13"/>
        <rect id="qanssrbjnf" width="70" height="26" x="26" y="92" rx="13"/>
        <linearGradient id="p6goib1pui" x1="0%" x2="100%" y1="50%" y2="50%">
            <stop offset="0%" stop-color="#D8D8D8" stop-opacity="0"/>
            <stop offset="100%" stop-color="#D8D8D8"/>
        </linearGradient>
        <circle id="jgtrqast2h" cx="160.5" cy="69" r="36"/>
    </defs>
    <g fill="none" fill-rule="evenodd">
        <g>
            <g>
                <g transform="translate(-70.000000, -792.000000) translate(30.000000, 792.000000) translate(40.000000, 0.000000)">
                    <rect width="220" height="140" fill="#F7F7F8" rx="4"/>
                    <g>
                        <use fill="#000" filter="url(#pdeqinw1ia)" xlink:href="#gafhqexxsb"/>
                        <use fill="#FFF" xlink:href="#gafhqexxsb"/>
                    </g>
                    <g>
                        <use fill="#000" filter="url(#pikwlsbqjc)" xlink:href="#qyxyclp08d"/>
                        <use fill="#FFF" xlink:href="#qyxyclp08d"/>
                    </g>
                    <g>
                        <use fill="#000" filter="url(#610rg8xjfe)" xlink:href="#qanssrbjnf"/>
                        <use fill="#FFF" xlink:href="#qanssrbjnf"/>
                    </g>
                    <path fill="#686868" fill-rule="nonzero" d="M42.8 36.296c.16 0 .33-.008.512-.024.181-.016.365-.052.552-.108.187-.056.375-.133.564-.232.19-.099.37-.233.54-.404l-.544-.784c-.23.235-.484.393-.764.476-.28.083-.553.124-.82.124-.181 0-.355-.03-.52-.092-.165-.061-.31-.159-.436-.292-.125-.133-.225-.307-.3-.52-.075-.213-.112-.472-.112-.776v-.592c0-.357.04-.65.12-.88.08-.23.184-.41.312-.544.128-.133.275-.225.44-.276.165-.05.333-.076.504-.076.261 0 .507.03.736.092.23.061.461.19.696.388l.552-.784c-.293-.235-.596-.4-.908-.496-.312-.096-.67-.144-1.076-.144-.336 0-.65.048-.94.144-.29.096-.545.247-.764.452-.219.205-.39.464-.516.776-.125.312-.188.684-.188 1.116v1.032c0 .432.064.8.192 1.104.128.304.3.555.516.752.216.197.467.341.752.432.285.09.585.136.9.136zm3.656-.088l.568-1.584h1.944l.56 1.584h1.112l-2.168-5.768h-.92l-2.144 5.768h1.048zm2.216-2.44H47.32l.392-1.176c.037-.101.068-.19.092-.264l.068-.212.06-.196c.019-.064.039-.136.06-.216l.124.404c.04.13.095.292.164.484l.392 1.176zm4.912 2.44v-4.904h1.688v-.864h-4.408v.864h1.696v4.904h1.024zm6.184 0v-.848h-2.752v-1.688h2.528v-.832h-2.528v-1.552h2.696v-.848H56v5.768h3.768zm3.464.088c.17 0 .348-.012.532-.036.184-.024.364-.057.54-.1.176-.043.344-.097.504-.164.16-.067.304-.143.432-.228V32.96h-2.224v.856h1.208V35.2c-.144.059-.29.101-.44.128-.15.027-.317.04-.504.04-.235 0-.45-.03-.644-.088-.195-.059-.363-.156-.504-.292-.141-.136-.252-.312-.332-.528-.08-.216-.12-.481-.12-.796v-.592c0-.368.039-.668.116-.9.077-.232.184-.413.32-.544.136-.13.297-.221.484-.272.187-.05.392-.076.616-.076.24 0 .483.037.728.112.245.075.475.205.688.392l.552-.784c-.299-.24-.616-.408-.952-.504-.336-.096-.675-.144-1.016-.144-.368 0-.71.048-1.024.144-.315.096-.585.247-.812.452-.227.205-.404.464-.532.776s-.192.684-.192 1.116v1.032c0 .432.065.8.196 1.104.13.304.312.555.544.752.232.197.504.341.816.432.312.09.652.136 1.02.136zm5.352 0c.33 0 .644-.045.94-.136.296-.09.555-.235.776-.432.221-.197.397-.455.528-.772.13-.317.196-.703.196-1.156v-.952c0-.448-.065-.83-.196-1.144-.13-.315-.308-.572-.532-.772-.224-.2-.484-.347-.78-.44-.296-.093-.607-.14-.932-.14-.325 0-.636.047-.932.14-.296.093-.556.24-.78.44-.224.2-.401.457-.532.772-.13.315-.196.696-.196 1.144v.952c0 .453.065.839.196 1.156.13.317.307.575.528.772.221.197.48.341.776.432.296.09.61.136.94.136zm0-.936c-.192 0-.373-.025-.544-.076-.17-.05-.32-.14-.448-.268s-.23-.301-.304-.52c-.075-.219-.112-.493-.112-.824v-.696c0-.33.037-.605.112-.824.075-.219.176-.392.304-.52s.277-.217.448-.268c.17-.05.352-.076.544-.076.197 0 .381.025.552.076.17.05.32.14.448.268s.228.301.3.52c.072.219.108.493.108.824v.696c0 .33-.036.605-.108.824-.072.219-.172.392-.3.52s-.277.217-.448.268c-.17.05-.355.076-.552.076zm4.552.848v-2.312h1.176l.968 2.312h1.112c-.192-.421-.38-.839-.564-1.252-.184-.413-.372-.83-.564-1.252.299-.133.523-.321.672-.564.15-.243.224-.516.224-.82v-.296c0-.23-.041-.441-.124-.636-.083-.195-.203-.361-.36-.5-.157-.139-.352-.248-.584-.328-.232-.08-.497-.12-.796-.12h-2.184v5.768h1.024zm.944-3.168h-.944v-1.744h1.032c.352 0 .603.07.752.212.15.141.224.324.224.548v.24c0 .219-.079.397-.236.536-.157.139-.433.208-.828.208zm5.768 3.168v-2.28l1.976-3.488h-1.12l-1.344 2.544-1.368-2.544h-1.144l1.976 3.488v2.28h1.024zM52.672 72.208c.448 0 .83-.055 1.144-.164.315-.11.572-.268.772-.476.2-.208.345-.465.436-.772.09-.307.136-.66.136-1.06v-.824c0-.8-.203-1.412-.608-1.836-.405-.424-1.037-.636-1.896-.636h-2.008v5.768h2.024zm-.152-.864h-.856v-4.04h.856c.533 0 .935.123 1.204.368.27.245.404.672.404 1.28v.744c0 .304-.036.561-.108.772-.072.21-.176.38-.312.508s-.304.221-.504.28c-.2.059-.428.088-.684.088zm4.272.864l.568-1.584h1.944l.56 1.584h1.112l-2.168-5.768h-.92l-2.144 5.768h1.048zm2.216-2.44h-1.352l.392-1.176c.037-.101.068-.19.092-.264l.068-.212.06-.196c.019-.064.039-.136.06-.216l.124.404c.04.13.095.292.164.484l.392 1.176zm4.912 2.44v-4.904h1.688v-.864H61.2v.864h1.696v4.904h1.024zm2.96 0l.568-1.584h1.944l.56 1.584h1.112l-2.168-5.768h-.92l-2.144 5.768h1.048zm2.216-2.44h-1.352l.392-1.176c.037-.101.068-.19.092-.264l.068-.212.06-.196c.019-.064.039-.136.06-.216l.124.404c.04.13.095.292.164.484l.392 1.176zM41.192 108.208l.568-1.584h1.944l.56 1.584h1.112l-2.168-5.768h-.92l-2.144 5.768h1.048zm2.216-2.44h-1.352l.392-1.176c.037-.101.068-.19.092-.264l.068-.212.06-.196c.019-.064.039-.136.06-.216l.124.404c.04.13.095.292.164.484l.392 1.176zm3.784 2.44v-5.768h-1.024v5.768h1.024zm5.112.088c.277 0 .544-.028.8-.084.256-.056.483-.15.68-.28.197-.13.353-.304.468-.52.115-.216.172-.484.172-.804v-.104c0-.197-.03-.38-.092-.548-.061-.168-.163-.321-.304-.46s-.328-.263-.56-.372c-.232-.11-.519-.201-.86-.276-.17-.037-.332-.073-.484-.108-.152-.035-.284-.08-.396-.136-.112-.056-.201-.127-.268-.212-.067-.085-.1-.197-.1-.336v-.096c0-.08.021-.16.064-.24.043-.08.108-.155.196-.224.088-.07.199-.125.332-.168.133-.043.29-.064.472-.064.23 0 .445.023.648.068.203.045.421.143.656.292l.48-.792c-.293-.187-.587-.313-.88-.38-.293-.067-.6-.1-.92-.1-.39 0-.716.052-.98.156-.264.104-.476.236-.636.396-.16.16-.275.335-.344.524-.07.19-.104.372-.104.548v.104c0 .336.061.604.184.804.123.2.281.359.476.476.195.117.413.205.656.264.243.059.484.115.724.168.33.075.583.17.756.284.173.115.26.29.26.524v.088c0 .197-.083.361-.248.492-.165.13-.432.196-.8.196-.347 0-.659-.056-.936-.168-.277-.112-.504-.243-.68-.392l-.496.816c.112.09.244.177.396.26.152.083.316.153.492.212s.364.105.564.14c.2.035.404.052.612.052zm5.648-.088v-2.28l1.976-3.488h-1.12l-1.344 2.544-1.368-2.544h-1.144l1.976 3.488v2.28h1.024zm4.544.088c.277 0 .544-.028.8-.084.256-.056.483-.15.68-.28.197-.13.353-.304.468-.52.115-.216.172-.484.172-.804v-.104c0-.197-.03-.38-.092-.548-.061-.168-.163-.321-.304-.46s-.328-.263-.56-.372c-.232-.11-.519-.201-.86-.276-.17-.037-.332-.073-.484-.108-.152-.035-.284-.08-.396-.136-.112-.056-.201-.127-.268-.212-.067-.085-.1-.197-.1-.336v-.096c0-.08.021-.16.064-.24.043-.08.108-.155.196-.224.088-.07.199-.125.332-.168.133-.043.29-.064.472-.064.23 0 .445.023.648.068.203.045.421.143.656.292l.48-.792c-.293-.187-.587-.313-.88-.38-.293-.067-.6-.1-.92-.1-.39 0-.716.052-.98.156-.264.104-.476.236-.636.396-.16.16-.275.335-.344.524-.07.19-.104.372-.104.548v.104c0 .336.061.604.184.804.123.2.281.359.476.476.195.117.413.205.656.264.243.059.484.115.724.168.33.075.583.17.756.284.173.115.26.29.26.524v.088c0 .197-.083.361-.248.492-.165.13-.432.196-.8.196-.347 0-.659-.056-.936-.168-.277-.112-.504-.243-.68-.392l-.496.816c.112.09.244.177.396.26.152.083.316.153.492.212s.364.105.564.14c.2.035.404.052.612.052zm5.344-.088v-4.904h1.688v-.864H65.12v.864h1.696v4.904h1.024zm6.184 0v-.848h-2.752v-1.688H73.8v-.832h-2.528v-1.552h2.696v-.848h-3.712v5.768h3.768zm2.048 0v-4.872c.07.208.125.38.168.516.043.136.085.255.128.356l1.192 3.04h.816l1.208-3.04.12-.332c.043-.12.093-.3.152-.54v4.872h.968v-5.768h-1.472l-1.36 3.584-1.416-3.584H75.12v5.768h.952z"/>
                    <circle cx="61" cy="50" r="7" fill="#D8D8D8"/>
                    <path fill="#FFF" d="M61.5 47v2.5H64v1h-2.5V53h-1v-2.5H58v-1h2.5V47h1z"/>
                    <circle cx="61" cy="87" r="7" fill="#D8D8D8"/>
                    <path fill="#FFF" d="M61.5 84v2.5H64v1h-2.5V90h-1v-2.5H58v-1h2.5V84h1z"/>
                    <g>
                        <use fill="#000" filter="url(#qybez6gz3g)" xlink:href="#jgtrqast2h"/>
                        <use fill="#FFF" xlink:href="#jgtrqast2h"/>
                    </g>
                    <path fill="#FFCB7C" d="M146.47 89.776l-2.877 1.626c-.48.272-1.09.103-1.362-.378-.143-.254-.17-.557-.07-.83l.91-2.532-2.424-2.607c-.376-.404-.353-1.037.052-1.413.182-.17.42-.265.668-.268l3.11-.038 1.076-2.488c.22-.507.808-.74 1.315-.52.233.1.42.287.52.52l1.077 2.488 3.11.038c.552.007.994.46.987 1.012-.003.249-.098.487-.268.669l-2.423 2.607.91 2.531c.187.52-.083 1.093-.602 1.28-.274.098-.577.073-.83-.07l-2.878-1.627zM160.47 89.776l-2.877 1.626c-.48.272-1.09.103-1.362-.378-.143-.254-.17-.557-.07-.83l.91-2.532-2.424-2.607c-.376-.404-.353-1.037.052-1.413.182-.17.42-.265.668-.268l3.11-.038 1.076-2.488c.22-.507.808-.74 1.315-.52.233.1.42.287.52.52l1.077 2.488 3.11.038c.552.007.994.46.987 1.012-.003.249-.098.487-.268.669l-2.423 2.607.91 2.531c.187.52-.083 1.093-.602 1.28-.274.098-.577.073-.83-.07l-2.878-1.627zM174.47 89.776l-2.877 1.626c-.48.272-1.09.103-1.362-.378-.143-.254-.17-.557-.07-.83l.91-2.532-2.424-2.607c-.376-.404-.353-1.037.052-1.413.182-.17.42-.265.668-.268l3.11-.038 1.076-2.488c.22-.507.808-.74 1.315-.52.233.1.42.287.52.52l1.077 2.488 3.11.038c.552.007.994.46.987 1.012-.003.249-.098.487-.268.669l-2.423 2.607.91 2.531c.187.52-.083 1.093-.602 1.28-.274.098-.577.073-.83-.07l-2.878-1.627z"/>
                    <path fill="#D8D8D8" d="M159.5 62h2c6.627 0 12 5.373 12 12h-26c0-6.627 5.373-12 12-12z"/>
                    <rect width="12" height="12" x="154.5" y="48" fill="#D8D8D8" rx="6"/>
                    <ellipse cx="187.159" cy="44.347" fill="#FF1321" rx="7.159" ry="7"/>
                    <path fill="#FFF" d="M189.272 42.882l.816.77-3.672 3.462-.05-.047-.014.014-2.447-2.308.816-.77 1.68 1.586 2.87-2.707z"/>
                    <path fill="url(#p6goib1pui)" d="M115 63l10 6.5-10 6.5-.001-3.5H95v-6h19.999L115 63z"/>
                </g>
            </g>
        </g>
    </g>
</svg>
