<svg xmlns="http://www.w3.org/2000/svg" xmlns:xlink="http://www.w3.org/1999/xlink" width="220" height="140" viewBox="0 0 220 140">
    <defs>
        <rect id="jq411r7g0a" width="220" height="140" x="0" y="0" rx="4"/>
        <rect id="kotqywe2hd" width="87" height="30" x="93.5" y="86" rx="15"/>
        <rect id="3x9a8vzo8f" width="110" height="30" x="93.5" y="49" rx="15"/>
        <filter id="chhb9be0dc" width="140.2%" height="216.7%" x="-14.4%" y="-41.7%" filterUnits="objectBoundingBox">
            <feOffset dx="5" dy="5" in="SourceAlpha" result="shadowOffsetOuter1"/>
            <feGaussianBlur in="shadowOffsetOuter1" result="shadowBlurOuter1" stdDeviation="5"/>
            <feColorMatrix in="shadowBlurOuter1" values="0 0 0 0 0.0669361522 0 0 0 0 0.0663638167 0 0 0 0 0.0994112319 0 0 0 0.04 0"/>
        </filter>
        <filter id="cxwn5bkswe" width="131.8%" height="216.7%" x="-11.4%" y="-41.7%" filterUnits="objectBoundingBox">
            <feOffset dx="5" dy="5" in="SourceAlpha" result="shadowOffsetOuter1"/>
            <feGaussianBlur in="shadowOffsetOuter1" result="shadowBlurOuter1" stdDeviation="5"/>
            <feColorMatrix in="shadowBlurOuter1" values="0 0 0 0 0.0669361522 0 0 0 0 0.0663638167 0 0 0 0 0.0994112319 0 0 0 0.04 0"/>
        </filter>
    </defs>
    <g fill="none" fill-rule="evenodd">
        <g>
            <g>
                <g>
                    <g transform="translate(-70.000000, -1169.000000) translate(30.000000, 792.000000) translate(0.000000, 377.000000) translate(40.000000, 0.000000)">
                        <mask id="wef1pr23vb" fill="#fff">
                            <use xlink:href="#jq411r7g0a"/>
                        </mask>
                        <use fill="#F7F7F8" xlink:href="#jq411r7g0a"/>
                        <rect width="150" height="143" x="20" y="20" fill="#FFF" mask="url(#wef1pr23vb)" rx="2"/>
                        <rect width="56" height="5" x="28.5" y="86" fill="#F7F7F7" mask="url(#wef1pr23vb)" rx="2.5"/>
                        <rect width="44" height="5" x="28.5" y="113" fill="#F7F7F7" mask="url(#wef1pr23vb)" rx="2.5"/>
                        <rect width="44" height="5" x="28.5" y="126" fill="#F7F7F7" mask="url(#wef1pr23vb)" rx="2.5"/>
                        <path fill="#F7F7F7" d="M28.5 59H58.5V75H28.5zM65.5 59H95.5V75H65.5zM102.5 50H132.5V66H102.5z" mask="url(#wef1pr23vb)"/>
                        <rect width="68" height="5" x="28.5" y="99" fill="#F7F7F7" mask="url(#wef1pr23vb)" rx="2.5"/>
                        <path fill="#686868" fill-rule="nonzero" d="M36.17 46.44v-4.93h1.28v-1.1h-1.28v-3.27H34.9v9.3h1.27zm-5.21-2.43c.667 0 1.315-.007 1.945-.02.63-.013 1.188-.047 1.675-.1l-.09-1.01-.54.04c-.18.013-.357.023-.53.03v-3.97h.9v-1.02H28.9v1.02h.88v4.01h-.98v1.02h2.16zm1.22-1.02h-1.16v-4.01h1.16v4.01zm13.14-.06v-1.06h-5.08v-.96h4.9v-1.06h-4.9v-.96h4.98v-1.06h-6.23v5.1h6.33zm1.09 2.34V44.2h-8.52v1.07h8.52zm8.43 1.17v-9.3h-1.27v2.65h-2.48v1.1h2.48v5.55h1.27zm-5.59-2.46c.307 0 .617-.003.93-.01.313-.007.623-.018.93-.035.307-.017.6-.038.88-.065.28-.027.537-.06.77-.1l-.14-1.09c-.473.067-.983.117-1.53.15-.547.033-1.06.05-1.54.05h-.68v-4.99h-1.28v6.09h1.66zm14.76-.23v-6.61h-1.2v6.61h1.2zm-1.81-.22v-6.27h-1.19v1.85h-1.1v1.1h1.1v3.32h1.19zm-5.5-.65c.253-.227.487-.445.7-.655l.52-.515c.14-.147.248-.268.325-.365.077-.097.132-.188.165-.275.04.073.102.158.185.255s.202.215.355.355l.48.43c.187.167.357.317.51.45l.74-.81c-.393-.327-.763-.667-1.11-1.02-.12-.12-.218-.238-.295-.355-.077-.117-.137-.235-.18-.355-.043-.12-.072-.247-.085-.38-.013-.133-.02-.283-.02-.45v-1.56h-1.24v1.62c0 .167-.008.318-.025.455s-.048.268-.095.395-.11.25-.19.37-.18.243-.3.37c-.2.213-.405.42-.615.62-.21.2-.422.393-.635.58l.81.84zm7.45 3.46v-1.08h-5.03v-2h-1.27v3.08h6.3zm8.89.1v-9.3h-1.27v3.25h-1.53v1.08h1.53v4.97h1.27zm-5.69-2.29c.307 0 .617-.002.93-.005.313-.003.622-.012.925-.025.303-.013.595-.032.875-.055s.537-.055.77-.095l-.13-1.06c-.473.067-.983.112-1.53.135-.547.023-1.06.035-1.54.035h-.69V41.5h2.77v-1.07h-2.77v-1.5h3.09v-1.07H65.7v6.29h1.65z" mask="url(#wef1pr23vb)"/>
                        <g mask="url(#wef1pr23vb)">
                            <use fill="#000" filter="url(#chhb9be0dc)" xlink:href="#kotqywe2hd"/>
                            <use fill="#FFF" xlink:href="#kotqywe2hd"/>
                        </g>
                        <g mask="url(#wef1pr23vb)">
                            <use fill="#000" filter="url(#cxwn5bkswe)" xlink:href="#3x9a8vzo8f"/>
                            <use fill="#FFF" xlink:href="#3x9a8vzo8f"/>
                        </g>
                        <circle cx="108.5" cy="64" r="7" fill="#FF1321" mask="url(#wef1pr23vb)"/>
                        <path fill="#FFF" d="M110.867 62l.816.77-3.672 3.463-.05-.048-.014.015-2.447-2.31.816-.769 1.681 1.586 2.87-2.707z" mask="url(#wef1pr23vb)"/>
                        <path fill="#686868" fill-rule="nonzero" d="M126.136 102.16v-1.92h.976v-.88h-.976v-1.648h-1.008v4.448h1.008zm-2.096-.48v-3.624h-.992v1.064h-1.536v-1.064h-.992v3.624h3.52zm-.992-.84h-1.536v-.88h1.536v.88zm.832 4.536c.341 0 .652-.035.932-.104.28-.07.52-.167.72-.292.2-.125.355-.276.464-.452.11-.176.164-.37.164-.584v-.32c0-.213-.055-.408-.164-.584-.11-.176-.264-.327-.464-.452s-.44-.223-.72-.292c-.28-.07-.59-.104-.932-.104-.341 0-.652.035-.932.104-.28.07-.52.167-.72.292-.2.125-.355.276-.464.452-.11.176-.164.37-.164.584v.32c0 .213.055.408.164.584.11.176.264.327.464.452s.44.223.72.292c.28.07.59.104.932.104zm0-.824c-.203 0-.384-.02-.544-.06-.16-.04-.295-.092-.404-.156-.11-.064-.193-.136-.252-.216-.059-.08-.088-.16-.088-.24v-.192c0-.08.03-.16.088-.24.059-.08.143-.152.252-.216.11-.064.244-.116.404-.156.16-.04.341-.06.544-.06s.384.02.544.06c.16.04.295.092.404.156.11.064.193.136.252.216.059.08.088.16.088.24v.192c0 .08-.03.16-.088.24-.059.08-.143.152-.252.216-.11.064-.244.116-.404.156-.16.04-.341.06-.544.06zm9.488-3.752v-2.832h-4.896v2.832h4.896zm-1-.84h-2.896v-1.152h2.896v1.152zm-.832 3.568v-1.296h2.792v-.848h-6.816v.848h3.016v1.296h1.008zm1.984 1.544v-.856h-4.04v-1.312h-1.008v2.168h5.048zm7.624-6.016v-.816h-1.504v-.64h-1.008v.64h-1.544v.816h4.056zm1.616 3.6v-1.848h.984v-.88h-.984v-2.216h-1v4.944h1zm-5.96-.016c.608 0 1.152-.003 1.632-.008s.908-.013 1.284-.024c.376-.01.707-.025.992-.044.285-.019.537-.041.756-.068l-.072-.808c-.24.027-.5.048-.78.064s-.604.03-.972.04v-.344c.4-.059.705-.177.916-.356.21-.179.316-.39.316-.636v-.208c0-.293-.15-.537-.448-.732-.299-.195-.728-.292-1.288-.292s-.99.097-1.288.292c-.299.195-.448.439-.448.732v.208c0 .25.107.464.32.64.213.176.52.293.92.352v.368c-.267.005-.552.008-.856.008h-.984v.816zm2.336-1.912c-.256 0-.45-.035-.584-.104-.133-.07-.2-.152-.2-.248v-.048c0-.096.067-.179.2-.248.133-.07.328-.104.584-.104.256 0 .45.035.584.104.133.07.2.152.2.248v.048c0 .096-.067.179-.2.248-.133.07-.328.104-.584.104zm3.624 4.52v-2.256h-5v.824h3.968v1.432h1.032zm7.496-2.24v-5.296h-1.008v5.296h1.008zm-4.032-1.136c.299 0 .567-.047.804-.14.237-.093.439-.22.604-.38.165-.16.292-.344.38-.552.088-.208.132-.424.132-.648v-.448c0-.224-.044-.44-.132-.648-.088-.208-.215-.392-.38-.552-.165-.16-.367-.287-.604-.38-.237-.093-.505-.14-.804-.14-.299 0-.567.047-.804.14-.237.093-.439.22-.604.38-.165.16-.292.344-.38.552-.088.208-.132.424-.132.648v.448c0 .224.044.44.132.648.088.208.215.392.38.552.165.16.367.287.604.38.237.093.505.14.804.14zm0-.872c-.15 0-.284-.025-.404-.076-.12-.05-.221-.119-.304-.204-.083-.085-.147-.183-.192-.292-.045-.11-.068-.225-.068-.348v-.304c0-.117.023-.232.068-.344.045-.112.11-.21.192-.296.083-.085.184-.153.304-.204.12-.05.255-.076.404-.076.15 0 .284.025.404.076.12.05.221.119.304.204.083.085.147.184.192.296.045.112.068.227.068.344v.304c0 .123-.023.239-.068.348-.045.11-.11.207-.192.292-.083.085-.184.153-.304.204-.12.05-.255.076-.404.076zm4.152 4.072v-.864h-3.84v-1.632h-1.016v2.496h4.856zm8.944-1.792v-2.408h.984v-.88h-.984v-2.28h-1v5.568h1zm-5.96-.816c.608 0 1.152-.003 1.632-.008s.908-.013 1.284-.024c.376-.01.707-.025.992-.044.285-.019.537-.041.756-.068l-.072-.848c-.24.027-.503.048-.788.064-.285.016-.615.03-.988.04v-.632c.213-.037.405-.099.576-.184.17-.085.316-.187.436-.304.12-.117.213-.25.28-.396.067-.147.1-.303.1-.468v-.344c0-.192-.045-.373-.136-.544-.09-.17-.219-.319-.384-.444s-.365-.224-.6-.296c-.235-.072-.493-.108-.776-.108-.283 0-.541.036-.776.108-.235.072-.435.17-.6.296-.165.125-.293.273-.384.444-.09.17-.136.352-.136.544v.344c0 .165.033.321.1.468.067.147.16.279.28.396.12.117.267.219.44.304.173.085.367.147.58.184v.656c-.261.005-.541.008-.84.008h-.976v.856zm2.312-2.304c-.17 0-.316-.019-.436-.056-.12-.037-.217-.087-.292-.148-.075-.061-.13-.132-.164-.212-.035-.08-.052-.16-.052-.24v-.168c0-.08.017-.16.052-.24.035-.08.09-.15.164-.212.075-.061.172-.11.292-.148.12-.037.265-.056.436-.056.17 0 .316.019.436.056.12.037.217.087.292.148.075.061.13.132.164.212.035.08.052.16.052.24v.168c0 .08-.017.16-.052.24-.035.08-.09.15-.164.212-.075.061-.172.11-.292.148-.12.037-.265.056-.436.056zm3.848 4.936v-.864h-4.032V103h-1.016v2.096h5.048zm7.928-.88v-.84h-1.8v-1.088h1.016v-.848h-4.12v-.752h3.936V98.24h-4.968v.848h3.96v.752h-3.936v2.448h.976v1.088h-1.88v.84h6.816zm-2.792-.84h-1.152v-1.088h1.152v1.088zM126.416 66.008v-5.296h-1.008v5.296h1.008zm-4.032-1.136c.299 0 .567-.047.804-.14.237-.093.439-.22.604-.38.165-.16.292-.344.38-.552.088-.208.132-.424.132-.648v-.448c0-.224-.044-.44-.132-.648-.088-.208-.215-.392-.38-.552-.165-.16-.367-.287-.604-.38-.237-.093-.505-.14-.804-.14-.299 0-.567.047-.804.14-.237.093-.439.22-.604.38-.165.16-.292.344-.38.552-.088.208-.132.424-.132.648v.448c0 .224.044.44.132.648.088.208.215.392.38.552.165.16.367.287.604.38.237.093.505.14.804.14zm0-.872c-.15 0-.284-.025-.404-.076-.12-.05-.221-.119-.304-.204-.083-.085-.147-.183-.192-.292-.045-.11-.068-.225-.068-.348v-.304c0-.117.023-.232.068-.344.045-.112.11-.21.192-.296.083-.085.184-.153.304-.204.12-.05.255-.076.404-.076.15 0 .284.025.404.076.12.05.221.119.304.204.083.085.147.184.192.296.045.112.068.227.068.344v.304c0 .123-.023.239-.068.348-.045.11-.11.207-.192.292-.083.085-.184.153-.304.204-.12.05-.255.076-.404.076zm4.152 4.072v-.864h-3.84v-1.632h-1.016v2.496h4.856zm7.016-4.608v-.768h-.904v-1.04h.856v-.768h-5.168v.768h.856v1.04h-.904v.768h5.264zm-1.888-.768h-1.488v-1.04h1.488v1.04zm2.664 1.984v-.776h-6.816v.776h6.816zm-.736 3.536v-.76h-4.168v-.424h3.952v-1.904h-4.968v.76h3.992v.416h-3.952v1.912h5.144zm7.232-3.648v-.832h-4.12v-.52h3.952v-2.168h-4.976v.84h3.976v.52h-3.952v2.16h5.12zm-2.112 3.592v-2.192h2.896v-.848h-6.816v.848h2.904v2.192h1.016zm9.536-2.152v-5.296h-1.008v1.784h-1.2c-.027-.203-.09-.396-.188-.58-.099-.184-.23-.345-.392-.484-.163-.139-.356-.248-.58-.328-.224-.08-.472-.12-.744-.12-.299 0-.567.047-.804.14-.237.093-.439.22-.604.38-.165.16-.292.344-.38.552-.088.208-.132.424-.132.648v.448c0 .224.044.44.132.648.088.208.215.392.38.552.165.16.367.287.604.38.237.093.505.14.804.14.272 0 .52-.04.744-.12.224-.08.417-.19.58-.328.163-.139.293-.3.392-.484.099-.184.161-.377.188-.58h1.2v2.648h1.008zM144.136 64c-.15 0-.284-.025-.404-.076-.12-.05-.221-.119-.304-.204-.083-.085-.147-.183-.192-.292-.045-.11-.068-.225-.068-.348v-.304c0-.117.023-.232.068-.344.045-.112.11-.21.192-.296.083-.085.184-.153.304-.204.12-.05.255-.076.404-.076.15 0 .284.025.404.076.12.05.221.119.304.204.083.085.147.184.192.296.045.112.068.227.068.344v.304c0 .123-.023.239-.068.348-.045.11-.11.207-.192.292-.083.085-.184.153-.304.204-.12.05-.255.076-.404.076zm4.232 4.072v-.864h-3.84v-1.632h-1.016v2.496h4.856zm7.264.08v-7.44h-1.016v2.24h-1.464v.88h1.464v4.32h1.016zm-5.696-1.776c.23-.213.427-.401.592-.564.165-.163.323-.321.472-.476.133-.139.26-.279.38-.42.12-.141.193-.25.22-.324h.016c.027.07.093.167.2.292.107.125.237.265.392.42.15.155.31.316.48.484.17.168.347.337.528.508l.648-.68c-.208-.187-.413-.38-.616-.58-.203-.2-.39-.393-.56-.58-.123-.128-.22-.25-.292-.364-.072-.115-.13-.23-.172-.344-.043-.115-.07-.236-.084-.364-.013-.128-.02-.272-.02-.432V61.24h-1.032v1.712c0 .165-.01.315-.032.448-.021.133-.056.261-.104.384-.048.123-.11.243-.188.36-.077.117-.175.24-.292.368-.347.379-.747.77-1.2 1.176l.664.688zm14.872-.384v-5.28H163.8v1.568h-1.312v.864h1.312v2.848h1.008zm-5.6-.712c.25-.203.467-.381.648-.536.181-.155.363-.317.544-.488.123-.112.23-.217.324-.316.093-.099.148-.183.164-.252.032.07.096.147.192.232.096.085.213.184.352.296.187.155.368.299.544.432.176.133.341.256.496.368l.584-.704c-.192-.139-.387-.283-.584-.432-.197-.15-.392-.307-.584-.472-.107-.09-.193-.177-.26-.26-.067-.083-.119-.17-.156-.26-.037-.09-.064-.192-.08-.304-.016-.112-.024-.24-.024-.384v-1.16h-1.024v1.2c0 .272-.041.501-.124.688-.083.187-.22.373-.412.56-.187.176-.385.356-.596.54-.21.184-.42.356-.628.516l.624.736zm5.72 2.792v-.864h-3.84v-1.664h-1.016v2.528h4.856zm6.888-3.616V63h.976v-.88h-.976v-1.408h-1.008v3.744h1.008zm-2.088-.224v-3.304h-.984v.92h-1.552v-.92h-.984v3.304h3.52zm-.984-.824h-1.552v-.736h1.552v.736zm3.296 4.816v-.8h-3.896v-.544h3.672v-2.088h-4.688v.792h3.712v.536h-3.672v2.104h4.872zm9.12-1.944v-2.408h.984v-.88h-.984v-2.28h-1v5.568h1zm-5.96-.816c.608 0 1.152-.003 1.632-.008s.908-.013 1.284-.024c.376-.01.707-.025.992-.044.285-.019.537-.041.756-.068l-.072-.848c-.24.027-.503.048-.788.064-.285.016-.615.03-.988.04v-.632c.213-.037.405-.099.576-.184.17-.085.316-.187.436-.304.12-.117.213-.25.28-.396.067-.147.1-.303.1-.468v-.344c0-.192-.045-.373-.136-.544-.09-.17-.219-.319-.384-.444s-.365-.224-.6-.296c-.235-.072-.493-.108-.776-.108-.283 0-.541.036-.776.108-.235.072-.435.17-.6.296-.165.125-.293.273-.384.444-.09.17-.136.352-.136.544v.344c0 .165.033.321.1.468.067.147.16.279.28.396.12.117.267.219.44.304.173.085.367.147.58.184v.656c-.261.005-.541.008-.84.008h-.976v.856zm2.312-2.304c-.17 0-.316-.019-.436-.056-.12-.037-.217-.087-.292-.148-.075-.061-.13-.132-.164-.212-.035-.08-.052-.16-.052-.24v-.168c0-.08.017-.16.052-.24.035-.08.09-.15.164-.212.075-.061.172-.11.292-.148.12-.037.265-.056.436-.056.17 0 .316.019.436.056.12.037.217.087.292.148.075.061.13.132.164.212.035.08.052.16.052.24v.168c0 .08-.017.16-.052.24-.035.08-.09.15-.164.212-.075.061-.172.11-.292.148-.12.037-.265.056-.436.056zm3.848 4.936v-.864h-4.032V66h-1.016v2.096h5.048zm7.928-.88v-.84h-1.8v-1.088h1.016v-.848h-4.12v-.752h3.936V61.24h-4.968v.848h3.96v.752h-3.936v2.448h.976v1.088h-1.88v.84h6.816zm-2.792-.84h-1.152v-1.088h1.152v1.088z" mask="url(#wef1pr23vb)"/>
                        <g mask="url(#wef1pr23vb)">
                            <g transform="translate(101.500000, 94.000000)">
                                <circle cx="7" cy="7" r="7" fill="#141415"/>
                                <path fill="#FFF" d="M9.367 5l.816.77L6.51 9.233l-.05-.048-.014.015L4 6.89l.816-.769 1.681 1.586L9.367 5z"/>
                            </g>
                        </g>
                    </g>
                </g>
            </g>
        </g>
    </g>
</svg>
