<?xml version="1.0" encoding="UTF-8"?>
<svg width="220px" height="140px" viewBox="0 0 220 140" version="1.1" xmlns="http://www.w3.org/2000/svg" xmlns:xlink="http://www.w3.org/1999/xlink">
    <title>m_service_info_3</title>
    <defs>
        <rect id="path-1" x="0" y="0" width="220" height="140" rx="6"></rect>
        <rect id="path-3" x="29.5" y="-14" width="160" height="160" rx="4"></rect>
        <filter x="-7.8%" y="-7.8%" width="121.9%" height="121.9%" filterUnits="objectBoundingBox" id="filter-4">
            <feOffset dx="5" dy="5" in="SourceAlpha" result="shadowOffsetOuter1"></feOffset>
            <feGaussianBlur stdDeviation="5" in="shadowOffsetOuter1" result="shadowBlurOuter1"></feGaussianBlur>
            <feColorMatrix values="0 0 0 0 0.0669361522   0 0 0 0 0.0663638167   0 0 0 0 0.0994112319  0 0 0 0.03 0" type="matrix" in="shadowBlurOuter1"></feColorMatrix>
        </filter>
    </defs>
    <g id="m_service_info_3" stroke="none" stroke-width="1" fill="none" fill-rule="evenodd">
        <g id="service_info_3">
            <mask id="mask-2" fill="white">
                <use xlink:href="#path-1"></use>
            </mask>
            <use id="Mask" fill="#F7F7F8" xlink:href="#path-1"></use>
            <g id="Mask-Copy-8" mask="url(#mask-2)">
                <use fill="black" fill-opacity="1" filter="url(#filter-4)" xlink:href="#path-3"></use>
                <use fill="#FFFFFF" fill-rule="evenodd" xlink:href="#path-3"></use>
            </g>
            <circle id="Oval-Copy-10" fill="#D8C8B3" mask="url(#mask-2)" cx="174.5" cy="128" r="7"></circle>
            <rect id="Rectangle" fill="#FBFBFB" mask="url(#mask-2)" x="37.5" y="29" width="145" height="1"></rect>
            <rect id="Rectangle" fill="#FBFBFB" mask="url(#mask-2)" x="37.5" y="68" width="145" height="1"></rect>
            <rect id="Rectangle" fill="#FBFBFB" mask="url(#mask-2)" x="37.5" y="108" width="145" height="1"></rect>
            <circle id="Oval-Copy-20" fill="#FF1321" mask="url(#mask-2)" cx="175" cy="49" r="7"></circle>
            <path d="M172.233671,51.3333333 L171.5,47.7192734 L173.646251,49 L175,46.6666667 L176.353749,49 L178.5,47.7192734 L177.766329,51.3333333 L172.233671,51.3333333 Z" id="Combined-Shape-Copy" fill="#FFFFFF" mask="url(#mask-2)"></path>
            <circle id="Oval-Copy-20" fill="#FF8C00" mask="url(#mask-2)" cx="175" cy="9.66666667" r="7"></circle>
            <path d="M171.5,8.87260094 L172.884204,7 L177.115796,7 L178.5,8.87260094 L175,12.8333333 L171.5,8.87260094 Z" id="Combined-Shape" fill="#FFFFFF" mask="url(#mask-2)"></path>
            <rect id="Rectangle" fill="#F7F7F7" mask="url(#mask-2)" x="57" y="82" width="58" height="5" rx="2.5"></rect>
            <rect id="Rectangle-Copy-25" fill="#F7F7F7" mask="url(#mask-2)" x="57" y="123" width="58" height="5" rx="2.5"></rect>
            <rect id="Rectangle-Copy-21" fill="#F7F7F7" mask="url(#mask-2)" x="57" y="43" width="58" height="5" rx="2.5"></rect>
            <rect id="Rectangle-Copy-23" fill="#FBFBFB" mask="url(#mask-2)" x="57" y="2" width="58" height="5" rx="2.5"></rect>
            <rect id="Rectangle-Copy-20" fill="#F7F7F7" mask="url(#mask-2)" x="57" y="89" width="15" height="5" rx="2.5"></rect>
            <rect id="Rectangle-Copy-26" fill="#FBFBFB" mask="url(#mask-2)" x="57" y="130" width="15" height="5" rx="2.5"></rect>
            <rect id="Rectangle-Copy-22" fill="#F7F7F7" mask="url(#mask-2)" x="57" y="50" width="15" height="5" rx="2.5"></rect>
            <rect id="Rectangle-Copy-24" fill="#F7F7F7" mask="url(#mask-2)" x="57" y="9" width="15" height="5" rx="2.5"></rect>
            <circle id="Oval-Copy-20" fill="#FFC400" mask="url(#mask-2)" cx="175" cy="88" r="7"></circle>
            <polygon id="Star" fill="#FFFFFF" mask="url(#mask-2)" points="175 90 172.648859 91.236068 173.097887 88.618034 171.195774 86.763932 173.824429 86.381966 175 84 176.175571 86.381966 178.804226 86.763932 176.902113 88.618034 177.351141 91.236068"></polygon>
            <circle id="user_img-copy" fill="#D8D8D8" mask="url(#mask-2)" cx="45" cy="88" r="8"></circle>
            <circle id="user_img-copy-7" fill="#D8D8D8" mask="url(#mask-2)" cx="45" cy="129" r="8"></circle>
            <circle id="user_img-copy-2" fill="#D8D8D8" mask="url(#mask-2)" cx="45" cy="49" r="8"></circle>
            <circle id="user_img-copy-3" fill="#D8D8D8" mask="url(#mask-2)" cx="45" cy="8" r="8"></circle>
            <rect id="Rectangle" fill="#FFFFFF" mask="url(#mask-2)" transform="translate(174.535534, 128.035534) rotate(-45.000000) translate(-174.535534, -128.035534) " x="172.035534" y="125.535534" width="5" height="5"></rect>
        </g>
    </g>
</svg>