<svg xmlns="http://www.w3.org/2000/svg" width="1030" height="626" viewBox="0 0 1030 626">
    <g fill="none" fill-rule="evenodd">
        <g>
            <g>
                <g transform="translate(-522.000000, -1426.000000) translate(360.000000, 1144.000000) translate(162.000000, 282.000000)">
                    <path fill="#F5F5F5" fill-rule="nonzero" d="M976 45c29.8 0 54 24.2 54 54v473c0 29.8-24.2 54-54 54H54c-29.8 0-54-24.2-54-54V99c0-29.8 24.2-54 54-54h383v10H54c-24.1 0-43.6 19.3-44 43.3V572c0 24.1 19.3 43.6 43.3 44H976c24.1 0 43.6-19.3 44-43.3V99c0-24.1-19.3-43.6-43.3-44H594V45h382z"/>
                    <g fill="#CCC" fill-rule="nonzero">
                        <path d="M2 61H0v-3h2v3zm316-1.9h-2v-3h2v3zM2 55H0v-3h2v3zm316-1.9h-2v-3h2v3zM2 49H0v-3h2v3zm316-1.9h-2v-3h2v3zM2 43H0v-3h2v3zm316-1.9h-2v-3h2v3zM2 37H0v-3h2v3zm316-1.9h-2v-3h2v3zM2 31H0v-3h2v3zm316-1.9h-2v-3h2v3zM2 25H0v-3h2v3zm316-1.9h-2V21v-.8l2-.1v3zm-315.9-4l-2-.2c.1-1 .3-2.1.5-3.1l1.9.5c-.1.9-.3 1.9-.4 2.8zm313.6-1.7c-.2-.9-.4-1.9-.8-2.7l1.9-.7c.4 1 .6 2 .8 3l-1.9.4zM3.5 13.6l-1.8-.8c.4-1 .9-1.9 1.4-2.8l1.7 1c-.5.9-.9 1.7-1.3 2.6zM313.7 12c-.4-.8-1-1.6-1.5-2.4l1.6-1.2c.6.8 1.2 1.7 1.7 2.6l-1.8 1zM6.5 8.8L5 7.5c.7-.8 1.4-1.6 2.2-2.2l1.3 1.5c-.8.6-1.4 1.2-2 2zm303.8-1.3c-.7-.7-1.4-1.3-2.2-1.8l1.2-1.6c.8.6 1.7 1.3 2.4 2l-1.4 1.4zM10.7 5L9.6 3.3c.9-.6 1.8-1.1 2.8-1.5l.8 1.8c-.8.4-1.7.9-2.5 1.4zm295-.9c-.8-.4-1.7-.8-2.6-1.1l.6-1.9c1 .3 2 .8 2.9 1.2l-.9 1.8zM15.9 2.7L15.4.8c1-.3 2-.5 3.1-.6l.2 2c-.9.1-1.9.2-2.8.5zm284.5-.4c-.9-.2-1.9-.3-2.8-.3l.1-2c1 0 2.1.1 3.1.3l-.4 2zm-5.8-.3h-3V0h3v2zm-6 0h-3V0h3v2zm-6 0h-3V0h3v2zm-6 0h-3V0h3v2zm-6 0h-3V0h3v2zm-6 0h-3V0h3v2zm-6 0h-3V0h3v2zm-6 0h-3V0h3v2zm-6 0h-3V0h3v2zm-6 0h-3V0h3v2zm-6 0h-3V0h3v2zm-6 0h-3V0h3v2zm-6 0h-3V0h3v2zm-6 0h-3V0h3v2zm-6 0h-3V0h3v2zm-6 0h-3V0h3v2zm-6 0h-3V0h3v2zm-6 0h-3V0h3v2zm-6 0h-3V0h3v2zm-6 0h-3V0h3v2zm-6 0h-3V0h3v2zm-6 0h-3V0h3v2zm-6 0h-3V0h3v2zm-6 0h-3V0h3v2zm-6 0h-3V0h3v2zm-6 0h-3V0h3v2zm-6 0h-3V0h3v2zm-6 0h-3V0h3v2zm-6 0h-3V0h3v2zm-6 0h-3V0h3v2zm-6 0h-3V0h3v2zm-6 0h-3V0h3v2zm-6 0h-3V0h3v2zm-6 0h-3V0h3v2zm-6 0h-3V0h3v2zm-6 0h-3V0h3v2zm-6 0h-3V0h3v2zm-6 0h-3V0h3v2zm-6 0h-3V0h3v2zm-6 0h-3V0h3v2zm-6 0h-3V0h3v2zm-6 0h-3V0h3v2zm-6 0h-3V0h3v2zm-6 0h-3V0h3v2zm-6 0h-3V0h3v2zm-6 0h-3V0h3v2z" transform="translate(189.000000, 164.000000)"/>
                    </g>
                    <g fill="#CCC" fill-rule="nonzero">
                        <path d="M2 61H0v-3h2v3zm316-1.9h-2v-3h2v3zM2 55H0v-3h2v3zm316-1.9h-2v-3h2v3zM2 49H0v-3h2v3zm316-1.9h-2v-3h2v3zM2 43H0v-3h2v3zm316-1.9h-2v-3h2v3zM2 37H0v-3h2v3zm316-1.9h-2v-3h2v3zM2 31H0v-3h2v3zm316-1.9h-2v-3h2v3zM2 25H0v-3h2v3zm316-1.9h-2V21v-.8l2-.1v3zm-315.9-4l-2-.2c.1-1 .3-2.1.5-3.1l1.9.5c-.1.9-.3 1.9-.4 2.8zm313.6-1.7c-.2-.9-.4-1.9-.8-2.7l1.9-.7c.4 1 .6 2 .8 3l-1.9.4zM3.5 13.6l-1.8-.8c.4-1 .9-1.9 1.4-2.8l1.7 1c-.5.9-.9 1.7-1.3 2.6zM313.7 12l-1.5-2.4 1.6-1.2c.6.8 1.2 1.7 1.7 2.6l-1.8 1zM6.5 8.8L5 7.5c.7-.8 1.4-1.6 2.2-2.2l1.3 1.5c-.8.6-1.4 1.2-2 2zm303.8-1.3c-.7-.7-1.4-1.3-2.2-1.8l1.2-1.6c.8.6 1.7 1.3 2.4 2l-1.4 1.4zM10.7 5L9.6 3.3c.9-.6 1.8-1.1 2.8-1.5l.8 1.8c-.8.4-1.7.9-2.5 1.4zm295.1-.9c-.8-.4-1.7-.8-2.6-1.1l.6-1.9c1 .3 2 .8 2.9 1.2l-.9 1.8zM15.9 2.7L15.4.8c1-.3 2-.5 3.1-.6l.2 2c-.9.1-1.9.2-2.8.5zm284.5-.4c-.9-.2-1.9-.3-2.8-.3l.1-2c1 0 2.1.1 3.1.3l-.4 2zm-5.8-.3h-3V0h3v2zm-6 0h-3V0h3v2zm-6 0h-3V0h3v2zm-6 0h-3V0h3v2zm-6 0h-3V0h3v2zm-6 0h-3V0h3v2zm-6 0h-3V0h3v2zm-6 0h-3V0h3v2zm-6 0h-3V0h3v2zm-6 0h-3V0h3v2zm-6 0h-3V0h3v2zm-6 0h-3V0h3v2zm-6 0h-3V0h3v2zm-6 0h-3V0h3v2zm-6 0h-3V0h3v2zm-6 0h-3V0h3v2zm-6 0h-3V0h3v2zm-6 0h-3V0h3v2zm-6 0h-3V0h3v2zm-6 0h-3V0h3v2zm-6 0h-3V0h3v2zm-6 0h-3V0h3v2zm-6 0h-3V0h3v2zm-6 0h-3V0h3v2zm-6 0h-3V0h3v2zm-6 0h-3V0h3v2zm-6 0h-3V0h3v2zm-6 0h-3V0h3v2zm-6 0h-3V0h3v2zm-6 0h-3V0h3v2zm-6 0h-3V0h3v2zm-6 0h-3V0h3v2zm-6 0h-3V0h3v2zm-6 0h-3V0h3v2zm-6 0h-3V0h3v2zm-6 0h-3V0h3v2zm-6 0h-3V0h3v2zm-6 0h-3V0h3v2zm-6 0h-3V0h3v2zm-6 0h-3V0h3v2zm-6 0h-3V0h3v2zm-6 0h-3V0h3v2zm-6 0h-3V0h3v2zm-6 0h-3V0h3v2zm-6 0h-3V0h3v2zm-6 0h-3V0h3v2z" transform="translate(524.000000, 164.000000)"/>
                    </g>
                    <g fill="#CCC" fill-rule="nonzero">
                        <path d="M632 71h-2.4v-2h2.9l.1 2h-.6zm-5.4 0h-3v-2h3v2zm-6 0h-3v-2h3v2zm-6 0h-3v-2h3v2zm-6 0h-3v-2h3v2zm-6 0h-3v-2h3v2zm-6 0h-3v-2h3v2zm-6 0h-3v-2h3v2zm-6 0h-3v-2h3v2zm-6 0h-3v-2h3v2zm-6 0h-3v-2h3v2zm-6 0h-3v-2h3v2zm-6 0h-3v-2h3v2zm-6 0h-3v-2h3v2zm-6 0h-3v-2h3v2zm-6 0h-3v-2h3v2zm-6 0h-3v-2h3v2zm-6 0h-3v-2h3v2zm-6 0h-3v-2h3v2zm-6 0h-3v-2h3v2zm-6 0h-3v-2h3v2zm-6 0h-3v-2h3v2zm-6 0h-3v-2h3v2zm-6 0h-3v-2h3v2zm-6 0h-3v-2h3v2zm-6 0h-3v-2h3v2zm-6 0h-3v-2h3v2zm-6 0h-3v-2h3v2zm-6 0h-3v-2h3v2zm-6 0h-3v-2h3v2zm-6 0h-3v-2h3v2zm-6 0h-3v-2h3v2zm-6 0h-3v-2h3v2zm-6 0h-3v-2h3v2zm-6 0h-3v-2h3v2zm-6 0h-3v-2h3v2zm-6 0h-3v-2h3v2zm-6 0h-3v-2h3v2zm-6 0h-3v-2h3v2zm-6 0h-3v-2h3v2zm-6 0h-3v-2h3v2zm-6 0h-3v-2h3v2zm-6 0h-3v-2h3v2zm-6 0h-3v-2h3v2zm-6 0h-3v-2h3v2zm-6 0h-3v-2h3v2zm-6 0h-3v-2h3v2zm-6 0h-3v-2h3v2zm-6 0h-3v-2h3v2zm-6 0h-3v-2h3v2zm-6 0h-3v-2h3v2zm-6 0h-3v-2h3v2zm-6 0h-3v-2h3v2zm-6 0h-3v-2h3v2zm-6 0h-3v-2h3v2zm-6 0h-3v-2h3v2zm-6 0h-3v-2h3v2zm-6 0h-3v-2h3v2zm-6 0h-3v-2h3v2zm-6 0h-3v-2h3v2zm-6 0h-3v-2h3v2zm-6 0h-3v-2h3v2zm-6 0h-3v-2h3v2zm-6 0h-3v-2h3v2zm-6 0h-3v-2h3v2zm-6 0h-3v-2h3v2zm-6 0h-3v-2h3v2zm-6 0h-3v-2h3v2zm-6 0h-3v-2h3v2zm-6 0h-3v-2h3v2zm-6 0h-3v-2h3v2zm-6 0h-3v-2h3v2zm-6 0h-3v-2h3v2zm-6 0h-3v-2h3v2zm-6 0h-3v-2h3v2zm-6 0h-3v-2h3v2zm-6 0h-3v-2h3v2zm-6 0h-3v-2h3v2zm-6 0h-3v-2h3v2zm-6 0h-3v-2h3v2zm-6 0h-3v-2h3v2zm-6 0h-3v-2h3v2zm-6 0h-3v-2h3v2zm-6 0h-3v-2h3v2zm-6 0h-3v-2h3v2zm-6 0h-3v-2h3v2zm-6 0h-3v-2h3v2zm-6 0h-3v-2h3v2zm-6 0h-3v-2h3v2zm-6 0h-3v-2h3v2zm-6 0h-3v-2h3v2zm-6 0h-3v-2h3v2zm-6 0h-3v-2h3v2zm-6 0h-3v-2h3v2zm-6 0h-3v-2h3v2zm-6 0h-3v-2h3v2zm-6 0h-3v-2h3v2zm-6 0h-3v-2h3v2zm-6 0h-3v-2h3v2zm-6 0h-3v-2h3v2zm-6 0h-3v-2h3v2zm-6 0h-3v-2h3v2zm-6 0c-1 0-2.1-.1-3.1-.3l.3-2c.9.2 1.9.3 2.8.3v2zm615.1-.3l-.4-2c.9-.2 1.9-.4 2.8-.7l.6 1.9c-.9.3-1.9.6-3 .8zm-621.3-.8c-1-.3-2-.7-2.9-1.2l.9-1.8c.8.4 1.7.8 2.6 1.1l-.6 1.9zm627.3-1.3l-.9-1.8c.8-.4 1.7-.9 2.4-1.5l1.2 1.6c-.9.7-1.8 1.3-2.7 1.7zM8.8 67.1c-.9-.6-1.7-1.3-2.4-2l1.4-1.4c.7.7 1.4 1.3 2.2 1.8l-1.2 1.6zM646.7 65l-1.4-1.4c.7-.7 1.3-1.4 1.9-2.1l1.6 1.2c-.6.7-1.3 1.5-2.1 2.3zM4.3 62.7c-.6-.8-1.2-1.7-1.7-2.6l1.8-1c.5.8 1 1.6 1.6 2.4l-1.7 1.2zm646.2-2.8l-1.8-.9c.4-.8.8-1.7 1.2-2.6l1.9.7c-.4.9-.8 1.9-1.3 2.8zM1.3 57.2c-.4-1-.6-2-.9-3l2-.4c.2.9.4 1.8.8 2.7l-1.9.7zM652.6 54l-2-.4c.2-.9.3-1.9.3-2.8l2 .1c0 1-.1 2.1-.3 3.1zM0 51v-3h2v2.9L0 51zm653-3.1h-2v-3h2v3zM2 45H0v-3h2v3zm651-3.1h-2v-3h2v3zM2 39H0v-3h2v3zm651-3.1h-2v-3h2v3zM2 33H0v-3h2v3zm651-3.1h-2v-3h2v3zM2 27H0v-3h2v3zm651-3.1h-2v-3h2v3zM2 21H0v-3h2v3zm651-3.1h-2v-3h2v3zM2 15H0v-3h2v3zm651-3.1h-2v-3h2v3zM2 9H0V6h2v3zm651-3.1h-2v-3h2v3zM2 3H0V0h2v3z" transform="translate(189.000000, 465.000000)"/>
                    </g>
                    <g fill="#CCC" fill-rule="nonzero">
                        <path d="M2 57H0v-3h2v3zm0-6H0v-3h2v3zm0-6H0v-3h2v3zm0-6H0v-3h2v3zm0-6H0v-3h2v3zm0-6H0v-3h2v3zm0-6H0v-3h2v3zm0-6H0v-3h2v3zm0-6H0V6h2v3zm0-6H0V0h2v3z" transform="translate(514.500000, 475.500000)"/>
                    </g>
                    <circle cx="190" cy="344" r="130" fill="#F6F6F6"/>
                    <circle cx="840" cy="344" r="130" fill="#F6F6F6"/>
                    <circle cx="515" cy="344" r="130" fill="#F6F6F6"/>
                    <path fill="#000" fill-rule="nonzero" d="M157.6 282v-14.1h-2.8V282h2.8zm9.1 0v-11.7h4V268h-10.8v2.3h4V282h2.8zm24.3 1.7v-17.6h-2.5v5.5h-3.4v2h3.4v10.1h2.5zm-13.4-3.6c2-1 3.3-2.8 4-5.1.7 2.1 2 3.8 3.9 4.8l1.5-2c-2.9-1.3-4.2-4.5-4.2-7.8v-2.5h-2.5v2.5c0 3.3-1.3 6.7-4.3 8.1l1.6 2zm30.7 3.6v-17.6h-2.5v17.6h2.5zm-5-4.1v-12.1h-2.5v4.2h-3.6v-4.2h-2.5v12.1h8.6zm-2.5-2h-3.6v-3.9h3.6v3.9zm24.7-1.1l1.1-2.1c-4-.7-6.1-3.4-6.1-6v-1.3h-2.7v1.3c0 2.5-2.2 5.3-6.1 6l1.1 2.1c3-.6 5.3-2.3 6.4-4.5 1 2.2 3.3 3.9 6.3 4.5zm1.6 5v-2h-15.8v2h15.8zM130 325.8c.5-2.5.5-4.3.5-5.8v-1.2h-8.8v.9h7.7v.9c0 1.4-.1 3-.5 5.1l1.1.1zm1.8 2.5v-.9H126v-4.5h-1.1v4.5h-4.4v.9h11.3zm12.1-3.4v-7.4h-1.1v3.1h-1.7v-2.9H140v7.1h1.1v-3.2h1.7v3.3h1.1zm-9.9.1c3.2-1.3 4.8-3.6 4.8-6.6h-4.9v.9h3.7c-.2 2.1-1.7 3.8-4.2 4.8l.6.9zm9.9 5v-4.6h-8.4v.9h7.3v3.6h1.1v.1zm2.7 1.5l4.2-13.6h-.9l-4.2 13.6h.9zm15.8-1.5v-12.6h-1.1V330h1.1zm-2.5-.6v-11.7h-1.1v2.8h-1.9c-.4-1.3-1.2-2-2.3-2-1.6 0-2.7 1.7-2.7 4.4s1.1 4.4 2.7 4.4c1.1 0 1.9-.7 2.3-2h1.9v4.1h1.1zm-5.4-3.2c-1 0-1.6-1.3-1.6-3.3 0-2 .6-3.3 1.6-3.3s1.6 1.3 1.6 3.3c.1 2-.6 3.3-1.6 3.3zm4.3-1.9h-1.7c.1-.4.1-.9.1-1.4 0-.5 0-1-.1-1.4h1.7v2.8zm15.5.6V323h1.8v-.9h-1.8v-1.7h1.8v-1h-1.8v-1.9h-1.1v7.4h1.1zm-6.2-.7c1.9 0 3.3-1.2 3.3-3s-1.4-3-3.3-3-3.3 1.2-3.3 3 1.4 3 3.3 3zm0-1c-1.3 0-2.2-.8-2.2-2s.9-2 2.2-2c1.2 0 2.2.8 2.2 2s-.9 2-2.2 2zm6.2 6.8v-4.5h-8.2v.9h7v3.6h1.2zm16.1-3.1v-4.4h1.8v-1h-1.8v-4.1h-1.1v9.5h1.1zm-3.2-4.1c.3-1.7.3-2.9.3-3.7v-.7h-6.2v.9h5.1c0 .8 0 1.9-.3 3.3l1.1.2zm-6.6 2.1c2.2 0 5.2-.1 7.8-.5l-.1-.8c-1.3.2-2.7.3-4.1.3v-2.7h-1.1v2.7h-2.7l.2 1zm10.2 4.9v-.9h-7.2v-2.7h-1.1v3.7h8.3v-.1zm13 .2v-12.6h-1.1V330h1.1zm-8.6-3c2.2 0 4.1-.1 6.3-.5l-.1-.9c-2.2.4-4 .4-6.1.4v-2.9h4.6v-4.5h-5.8v.9h4.7v2.6h-4.6v4.8h1v.1zm24.6-2v-1h-1.9v-4.4h1.9v-.9h-9.3v.9h1.9v4.4h-1.9v.9h9.3v.1zm-3.1-1h-3.1v-4.4h3.1v4.4zm4.2 4.4v-1h-11.4v1h11.4zm12.9.1v-.9h-5.1v-2.4h4v-.9H225v-2h7.4v-3.8h-8.6v.9h7.5v2h-7.4v3.9h3.7v2.4h-5.1v.9h11.3v-.1zm10.8-2.3c.4-2.4.5-4.1.5-5.6v-1.8h-8.6v.9h7.5v.9c0 1.4-.1 3.2-.5 5.4l1.1.2zm2 2v-1h-11.4v1h11.4zm12.1-3.2v-7.5h-1.1v3.2H256v-3h-1.1v7.1h1.1v-3.2h1.7v3.4h1zm-9.2-.6c1.8 0 3.1-.1 4.7-.4l-.1-.9c-1.5.3-2.7.4-4.3.4v-1.8h3.6v-3.4h-4.7v.9h3.6v1.6h-3.6v3.6h.8zm9.2 5.5v-4.3h-8.2v4.3h8.2zm-1.1-1h-6v-2.5h6v2.5zM160 351.2c2.6 0 4.4-2.1 4.4-5.3 0-3.3-1.8-5.3-4.4-5.3-2.6 0-4.4 2-4.4 5.3.1 3.2 1.9 5.3 4.4 5.3zm0-1.2c-1.8 0-3.1-1.7-3.1-4.2 0-2.6 1.2-4.2 3.1-4.2 1.8 0 3.1 1.6 3.1 4.2s-1.2 4.2-3.1 4.2zm12.3 1v-1.1h-2.8c-.5 0-1.1.1-1.7.1 2.4-2.3 4-4.4 4-6.4 0-1.8-1.1-3-3-3-1.3 0-2.2.6-3 1.5l.7.7c.6-.7 1.3-1.2 2.1-1.2 1.3 0 1.9.9 1.9 2 0 1.8-1.5 3.8-4.7 6.6v.8h6.5zm5.9.2c2.6 0 4.4-2.1 4.4-5.3 0-3.3-1.8-5.3-4.4-5.3-2.6 0-4.4 2-4.4 5.3 0 3.2 1.8 5.3 4.4 5.3zm0-1.2c-1.8 0-3.1-1.7-3.1-4.2 0-2.6 1.2-4.2 3.1-4.2 1.8 0 3.1 1.6 3.1 4.2-.1 2.6-1.3 4.2-3.1 4.2zm19.4 2v-12.6h-1.1v4.3h-2.9v.9h2.9v7.4h1.1zm-9.6-2.6c1.4-.8 2.6-2.3 3.1-4.2.6 1.8 1.7 3.3 3.1 4l.7-.9c-1.8-.9-3.2-3.1-3.2-5.4v-2.3h-1.1v2.3c0 2.3-1.4 4.7-3.2 5.7l.6.8zm22.4 2.6v-12.6h-1.1V352h1.1zm-3.6-3v-8.5h-1.1v3.3H202v-3.3h-1.1v8.5h5.9zm-1.2-.9H202v-3.3h3.6v3.3zm17.7-1.4l.5-1c-2.2-.4-4.6-2.3-4.6-4.5v-1H218v1c0 2.1-2.4 4-4.6 4.5l.5 1c1.9-.4 3.9-1.8 4.6-3.6 1 1.9 2.9 3.2 4.8 3.6zm1.1 3.7v-1H213v1h11.4zM141 369.1v-.9h-5.1v-1.3c2.3-.1 3.8-1 3.8-2.5 0-1.6-1.7-2.5-4.4-2.5s-4.4.9-4.4 2.5c0 1.5 1.5 2.4 3.8 2.5v1.3h-5.1v.9H141zm-5.7-3.2c-2 0-3.2-.6-3.2-1.6s1.3-1.6 3.2-1.6c2 0 3.2.6 3.2 1.6s-1.2 1.6-3.2 1.6zm4.4 7.9v-.9h-7.5v-2.7h-1.1v3.6h8.6zm12.5.2v-6.6h2.1v-1h-2.1v-5h-1.1V374h1.1zm-8.2-3c2.4 0 4.1-.1 6-.4l-.1-1c-1.9.4-3.5.4-5.8.4v-2.9h4.5v-4.5H143v.9h4.6v2.6H143v4.8h1v.1zm21.7-.3v-9.2h-1.1v9.2h1.1zm-6.7-2.2c1.9 0 3.3-1.3 3.3-3.1s-1.4-3.1-3.3-3.1-3.3 1.3-3.3 3.1c0 1.9 1.4 3.1 3.3 3.1zm0-.9c-1.2 0-2.1-.9-2.1-2.1 0-1.2.9-2.1 2.1-2.1 1.2 0 2.2.9 2.2 2.1-.1 1.2-1 2.1-2.2 2.1zm7.1 6.2v-.9h-7.3v-3.1h-1.1v4h8.4zm15 .2v-6.6h2.1v-1h-2.1v-5H180V374h1.1zm-3.4-3.2v-8.1h-5.8v8.1h5.8zm-1.1-.9H173v-6.3h3.5v6.3h.1zM195 374v-12.6h-1.1V374h1.1zm-2.6-.6v-11.6h-1.1v4.6h-2c.3-1.1.5-2.3.5-3.5H185v.9h3.7c0 .7-.1 1.3-.3 2l-4 .3.2 1 3.5-.4c-.6 1.5-1.8 2.8-3.7 3.8l.7.8c2-1.1 3.2-2.5 3.9-4.1h2.3v6h1.1v.2zm15.1-4.1v-7.8h-1.1v7.8h1.1zM205 368l-.1-.9c-1.8.3-3.2.3-5.9.3v-1.6h4.5v-.9H199v-1.6h4.8v-.9h-6v6h1c2.9 0 4.4-.1 6.2-.4zm-1.7 6c2.6 0 4.2-.8 4.2-2.3 0-1.5-1.6-2.3-4.2-2.3s-4.2.8-4.2 2.3c0 1.5 1.6 2.3 4.2 2.3zm0-.9c-1.9 0-3.1-.5-3.1-1.4 0-.9 1.2-1.4 3.1-1.4 1.9 0 3.1.5 3.1 1.4 0 .9-1.2 1.4-3.1 1.4zm20.2.9v-12.6h-1.1v4.3h-2.9v.9h2.9v7.4h1.1zm-9.6-2.6c1.4-.8 2.6-2.3 3.1-4.2.6 1.8 1.7 3.3 3.1 4l.7-.9c-1.8-.9-3.2-3.1-3.2-5.4v-2.3h-1.1v2.3c0 2.3-1.4 4.7-3.2 5.7l.6.8zm22.5 2.6v-12.6h-1.1V374h1.1zm-3.7-3v-8.5h-1.1v3.3H228v-3.3h-1.1v8.5h5.8zm-1.1-.9H228v-3.3h3.6v3.3zm17.7-1.4l.5-1c-2.2-.4-4.6-2.3-4.6-4.5v-1H244v1c0 2.1-2.4 4-4.6 4.5l.5 1c1.9-.4 3.9-1.8 4.6-3.6.9 1.9 2.9 3.2 4.8 3.6zm1 3.7v-1H239v1h11.3zm-102.9 18.7v-.9h-5.1v-1.3c2.3-.1 3.8-1 3.8-2.5 0-1.6-1.7-2.5-4.4-2.5s-4.4.9-4.4 2.5c0 1.5 1.5 2.4 3.9 2.5v1.3h-5.1v.9h11.3zm-5.6-3.2c-2 0-3.2-.6-3.2-1.6s1.3-1.6 3.2-1.6c2 0 3.2.6 3.2 1.6s-1.3 1.6-3.2 1.6zm4.4 7.9v-.9h-7.5v-2.7h-1.1v3.6h8.6zm12.4.2v-6.6h2.1v-1h-2.1v-5h-1.1V396h1.1zm-8.1-3c2.4 0 4.1-.1 6-.4l-.1-1c-1.9.4-3.5.4-5.8.4v-2.9h4.5v-4.5h-5.7v.9h4.6v2.6h-4.5v4.8h1v.1zm21.6-.3v-9.2H171v9.2h1.1zm-6.7-2.2c1.9 0 3.3-1.3 3.3-3.1s-1.4-3.1-3.3-3.1-3.3 1.3-3.3 3.1c0 1.9 1.4 3.1 3.3 3.1zm0-.9c-1.2 0-2.1-.9-2.1-2.1 0-1.2.9-2.1 2.1-2.1 1.2 0 2.2.9 2.2 2.1 0 1.2-1 2.1-2.2 2.1zm7.1 6.2v-.9h-7.3v-3.1h-1.1v4h8.4zm14.9-4.1c.4-2.4.4-4 .4-5.6v-1.4H179v.9h7.7v.4c0 1.6 0 3.2-.4 5.4l1.1.3zm1.8 2.6v-.9h-4.3v-4.2h-1.1v4.2h-2v-4.2h-1.1v4.2h-2.8v.9h11.3zm7.2-5.7c2.7 0 4.4-.9 4.4-2.4s-1.7-2.4-4.4-2.4-4.4.9-4.4 2.4 1.7 2.4 4.4 2.4zm0-.9c-2 0-3.2-.6-3.2-1.5s1.2-1.5 3.2-1.5 3.2.6 3.2 1.5-1.2 1.5-3.2 1.5zm4.3 8.3v-4h-1.6v-1.6h3v-.9h-11.4v.9h3v1.6H192v.9h7.5v3.1h1.2zm-2.7-4h-3.1v-1.6h3.1v1.6zm19.1 4v-12.6H216v4.3h-3v.9h2.9v7.4h1.2zm-9.6-2.6c1.4-.8 2.6-2.3 3.1-4.2.6 1.8 1.7 3.3 3.1 4l.7-.9c-1.8-.9-3.2-3.1-3.2-5.4v-2.3H210v2.3c0 2.3-1.4 4.7-3.2 5.7l.7.8zm22.4 2.6v-12.6h-1.1V396h1.1zm-3.6-3v-8.5h-1.1v3.3h-3.6v-3.3h-1.1v8.5h5.8zm-1.2-.9h-3.6v-3.3h3.6v3.3zm17.7-1.4l.5-1c-2.2-.4-4.6-2.3-4.6-4.5v-1h-1.2v1c0 2.1-2.4 4-4.6 4.5l.5 1c1.9-.4 3.9-1.8 4.6-3.6 1 1.9 2.9 3.2 4.8 3.6zm1.1 3.7v-1h-11.4v1h11.4zm-75.4 16.9V406h-1.1v1.7h-6.2V406H160v5.3h8.5zm-1.2-.9h-6.2v-1.8h6.2v1.8zm-4.8 7.6v-4.3h3.3v4.3h1.1v-4.3h2.9v-.9h-11.4v.9h2.9v4.3h1.2zm19.2 0v-12.5h-1.1V418h1.1zm-8.5-3c2.4 0 4.1-.1 6-.4l-.1-.9c-1.9.3-3.5.4-5.8.4v-3h4.5v-.9h-4.5v-2.6h5v-.9h-6.1v8.4h1v-.1zm21.5-2.6l.5-1c-2.2-.4-4.6-2.1-4.6-4.2v-1h-1.2v1c0 2-2.4 3.8-4.6 4.2l.5 1c2-.4 3.9-1.6 4.8-3.4.7 1.7 2.7 3 4.6 3.4zm1 4v-.9h-3.1v-2.8h-1.1v2.8h-2.9v-2.8h-1.1v2.8h-3.1v.9h11.3zm11.8-3.2v-7.7h-1.1v7.7h1.1zm-2.3-1.4l-.1-.8c-.6.1-1.2.1-1.8.2v-3.7h1.2v-.9h-6.7v.9h1.2v3.8h-1.6l.1 1c2.1 0 5.1-.1 7.7-.5zm-5.1-.5v-3.8h2v3.7c-.6.1-1.3.1-2 .1zm3.2 6.7c2.6 0 4.2-.8 4.2-2.3 0-1.5-1.6-2.3-4.2-2.3s-4.2.8-4.2 2.3c0 1.5 1.6 2.3 4.2 2.3zm0-.9c-1.9 0-3.1-.5-3.1-1.4 0-.9 1.1-1.4 3.1-1.4s3.1.5 3.1 1.4c0 .9-1.1 1.4-3.1 1.4zm18.1-5.2v-.9h-5.1v-1.2h3.6V406h-8.4v3.8h3.6v1.2H210v.9h11.4zm-2.6-3.1h-6.2v-2h6.2v2zm1.5 9.1v-.9h-7.8v-1.2h7.4V413h-8.5v.9h7.4v1.1h-7.4v3h8.9v-.1zM483.9 274.4v-7.6h-2.5v1.9h-7.2v-1.9h-2.5v7.6h12.2zm-2.4-2h-7.2v-1.7h7.2v1.7zm-5.5 11.3v-5.6h3.7v5.6h2.5v-5.6h3.5v-2H470v2h3.5v5.6h2.5zm26 0v-17.5h-2.5v17.5h2.5zm-12.1-4c3.1 0 5.6-.1 8.3-.5l-.2-2c-2.4.4-4.5.5-7.1.5v-3.2h5.6v-2h-5.6v-2.9h6.3v-2h-8.9v12.1h1.6zm33 3.9V275h2.5v-2.1h-2.5v-6.7h-2.5v17.5h2.5v-.1zm-12.5-3.6c2-1 3.3-2.8 4-5 .7 2.1 2 3.8 3.8 4.7l1.5-2c-2.8-1.4-4-4.6-4-7.7v-2.5h-2.5v2.5c0 3.2-1.3 6.6-4.3 8l1.5 2zm30.9-4.5v-9.4h-2.5v3.9H536c-.5-1.9-2.3-3.1-4.5-3.1-2.6 0-4.6 1.7-4.6 4.2 0 2.4 2 4.2 4.6 4.2 2.3 0 4-1.3 4.5-3.2h2.8v3.5h2.5v-.1zm-9.8-2.4c-1.3 0-2.2-.8-2.2-2.1s.9-2.1 2.2-2.1c1.3 0 2.2.8 2.2 2.1.1 1.3-.9 2.1-2.2 2.1zm9.8 10.3v-7.1h-2.5v1.7h-6.6v-1.7h-2.5v7.1h11.6zm-2.4-2h-6.6v-1.6h6.6v1.6zm19 2.2v-8.8h2.5v-2.1h-2.5V266h-2.5v17.5h2.5v.1zm-12.7-3.3c2-.9 3.4-2.9 4.2-5.1.8 2.1 2.1 3.8 4.1 4.7l1.4-2c-2.9-1.3-4.3-4.4-4.3-7.1v-1h3.5v-2.1h-9.6v2.1h3.6v1c0 2.9-1.4 6.2-4.3 7.5l1.4 2zM500.3 320.1v-12.6h-1.1v12.6h1.1zm-6.7-2.9c1.9 0 3.2-1.7 3.2-4.4s-1.3-4.4-3.2-4.4c-1.9 0-3.2 1.7-3.2 4.4s1.4 4.4 3.2 4.4zm0-1c-1.2 0-2.1-1.3-2.1-3.4 0-2 .9-3.3 2.1-3.3 1.2 0 2.1 1.3 2.1 3.3 0 2.1-.8 3.4-2.1 3.4zm19.5 3.9v-12.6H512v12.6h1.1zm-3.7-3.2v-8.2h-5.8v8.2h5.8zm-1.2-.9h-3.5v-6.3h3.5v6.3zm18.9-1.4v-.9h-2.8v-1.8c1-.4 1.5-1 1.5-1.9 0-1.5-1.7-2.3-4.4-2.3s-4.4.9-4.4 2.3c0 .9.5 1.5 1.5 1.9v1.8h-2.8v.9h11.4zm-5.7-3.1c-2 0-3.2-.5-3.2-1.4 0-.9 1.2-1.4 3.2-1.4s3.2.5 3.2 1.4c0 .8-1.2 1.4-3.2 1.4zm1.8 2.2h-3.5v-1.5c.5.1 1.1.1 1.7.1.6 0 1.2-.1 1.8-.1v1.5zm-1.8 6.3c2.7 0 4.3-.8 4.3-2.2 0-1.4-1.6-2.2-4.3-2.2-2.7 0-4.3.8-4.3 2.2 0 1.4 1.6 2.2 4.3 2.2zm0-.9c-2 0-3.1-.5-3.1-1.3s1.2-1.3 3.1-1.3c2 0 3.1.5 3.1 1.3s-1.1 1.3-3.1 1.3zm17.5-5.1v-6.5h-1.1v6.5h1.1zm-9.6-.1c1.5-.5 2.6-1.7 3.2-3.1.6 1.3 1.7 2.4 3.2 2.9l.6-.9c-1.9-.6-3.2-2.2-3.2-3.9v-1H532v1c0 1.8-1.3 3.5-3.2 4.2l.5.8zm10 6v-.9H532v-1.3h7v-3h-8.1v.9h7v1.2h-7v3.1h8.4zM507.1 342v-12.6H506V342h1.1zm-2.7-.6v-11.6h-1.1v3.9h-2.8v1h2.8v6.8h1.1v-.1zm-6.6-2.5c1.5 0 2.9-.1 4.5-.4l-.2-1c-1.5.3-2.7.4-4.1.4v-7h-1v8h.8zm21.8-3v-6.4h-1.1v6.4h1.1zm-6.8-.4c1.9 0 3.2-1.1 3.2-2.8 0-1.7-1.4-2.8-3.2-2.8-1.9 0-3.2 1.1-3.2 2.8 0 1.7 1.4 2.8 3.2 2.8zm0-.9c-1.2 0-2.1-.8-2.1-1.8 0-1.1.9-1.9 2.1-1.9 1.2 0 2.1.8 2.1 1.9.1 1-.8 1.8-2.1 1.8zm7.2 7.3v-.9h-7.4v-1.4h7v-3h-8.1v.9h7v1.3h-7v3.2h8.5v-.1zm11.9-5.5v-1.7h1.8v-1h-1.8v-1.6h1.8v-.9h-1.8v-1.7h-1.1v6.9h1.1zm-9.2-.1c1.5-.6 2.6-1.7 3.1-3.1.6 1.3 1.6 2.3 3 2.8l.6-.9c-1.8-.6-3.1-2.2-3.1-3.9V330h-1.1v1.2c0 1.9-1.2 3.5-3.1 4.2l.6.9zm9.2 5.6V337h-1.1v1.5h-5.6V337H524v4.9h7.9zm-1.1-1h-5.6v-1.6h5.6v1.6zm-59 23.1v-12.5h-1.1V364h1.1zm-10.2-3.1c2.3 0 5.3 0 8-.5l-.1-.8c-.7.1-1.3.2-2 .2v-6h1.4v-.9h-7.1v.9h1.4v6.2h-1.7l.1.9zm2.7-1v-6.2h2.1v6.1c-.7.1-1.4.1-2.1.1zm20-2.5V352h-1.1v1.7H477V352h-1.1v5.4h8.4zm-1.2-.9h-6.2v-1.8h6.2v1.8zm-2.5 7.5v-4.2h5.2v-.9h-11.4v.9h5.1v4.2h1.1zm16.4-3.1v-4.4h1.8v-1H497v-4.1h-1.1v9.5h1.1zm-3.2-4.1c.3-1.7.3-2.9.3-3.7v-.7h-6.2v.9h5.1c0 .8 0 1.9-.3 3.3l1.1.2zm-6.5 2.1c2.2 0 5.2-.1 7.8-.5l-.1-.8c-1.3.2-2.7.3-4.1.3v-2.7h-1.1v2.7h-2.7l.2 1zm10.1 4.9v-.9h-7.2v-2.7h-1.1v3.7h8.3v-.1zm13 .2v-12.6h-1.1V364h1.1zm-8.5-3c2.2 0 4.1-.1 6.3-.5l-.1-.9c-2.2.4-4 .4-6.1.4v-2.9h4.6v-4.5h-5.8v.9h4.7v2.6h-4.6v4.8h1v.1zm11.4 4.5l4.2-13.6h-.9l-4.2 13.6h.9zm14.8-1.5v-6.6h2.1v-1h-2.1v-5H527V364h1.1zm-3.4-3.2v-8.1H519v8.1h5.7zm-1.1-.9h-3.5v-6.3h3.5v6.3zM541 364v-6.5h2.1v-1H541v-5.1h-1.1V364h1.1zm-9.1-2.6c1.4-.8 2.6-2.3 3.1-4.2.6 1.7 1.7 3.2 3 3.9l.7-.9c-1.8-.9-3.2-3.2-3.2-5.4v-2.3h-1.1v2.3c0 2.3-1.4 4.7-3.2 5.6l.7 1zm22.6 2.6v-12.5h-1.1V364h1.1zm-9.6-2.4c1.4-.7 2.7-2.3 3.2-4.1.6 1.7 1.8 3.2 3.3 3.8l.6-.9c-1.8-.8-3.4-3-3.4-5.1v-1.6h3v-1h-7v1h2.9v1.6c0 2.2-1.5 4.5-3.3 5.4l.7.9zm22-3.2v-1.7h1.8v-1h-1.8v-1.6h1.8v-.9h-1.8v-1.7h-1.1v6.9h1.1zm-9.2-.1c1.5-.6 2.6-1.7 3.1-3.1.6 1.3 1.6 2.3 3 2.8l.6-.9c-1.8-.6-3.1-2.2-3.1-3.9V352h-1.1v1.2c0 1.9-1.2 3.5-3.1 4.2l.6.9zm9.2 5.6V359h-1.1v1.5h-5.6V359H559v4.9h7.9zm-1.2-1h-5.6v-1.6h5.6v1.6zM485.2 386v-6.3h2v-1h-2v-5.3h-1.1V386h1.1zm-2.1-10.1v-.9h-3.2v-1.5h-1.1v1.5h-3.2v.9h7.5zm.3 7.3l-.1-.9c-1.1.2-2.2.3-3.4.3v-1.3c1.4-.2 2.4-1 2.4-2.3 0-1.4-1.2-2.3-3-2.3s-3 .9-3 2.3c0 1.2 1 2.1 2.4 2.3v1.4h-3.4l.2 1c2.2 0 5.2-.1 7.9-.5zm-4-2.8c-1.1 0-1.9-.6-1.9-1.4 0-.9.8-1.4 1.9-1.4 1.1 0 1.9.6 1.9 1.4-.1.8-.8 1.4-1.9 1.4zm18.8.7v-3.4h1.9v-1h-1.9v-3.2H497v7.6h1.2zm-9.3-.3c1.5-.5 2.6-1.7 3.2-3.1.5 1.2 1.6 2.2 3 2.7l.5-.9c-1.8-.6-3-2.1-3-3.7v-.5h2.8v-.9h-6.7v.9h2.8v.5c0 1.8-1.3 3.4-3.1 4.1l.5.9zm5.3 5.2c2.5 0 4.1-.9 4.1-2.3 0-1.5-1.6-2.3-4.1-2.3-2.6 0-4.1.9-4.1 2.3-.1 1.5 1.5 2.3 4.1 2.3zm0-.9c-1.9 0-3-.5-3-1.4 0-.9 1.1-1.4 3-1.4 1.8 0 3 .5 3 1.4-.1.9-1.2 1.4-3 1.4zm17.3-6.7v-.9h-1.8v-2.6h1.9v-.9h-9.2v.9h1.9v2.6h-1.8v.9h9zm-3-1h-3.1v-2.6h3.1v2.6zm2.8 8.5V382h-3.7v-1.5h5.1v-.9h-11.4v.9h5.1v1.5h-3.7v3.9h8.6zm-1.2-1h-6.3v-2.1h6.3v2.1zm17-2.2v-4.5h1.9v-1h-1.9v-3.8H526v9.3h1.1zm-2-2.3l-.1-.9c-.6.1-1.2.1-1.8.2v-4.1h1.2v-.9h-6.7v.9h1.2v4.3h-1.6l.1 1c2.2 0 5.2-.1 7.7-.5zm-5-.5v-4.3h2v4.2c-.7 0-1.4 0-2 .1zm7.5 5.9v-.9h-7.2v-3h-1.1v3.9h8.3zm13.3.2v-12.5h-1.1v5h-1.7v-4.7H537v11.6h1.1v-6h1.7v6.6h1.1zm-5.5-3.3V375h-4.8v7.7h4.8zm-1.1-.9h-2.6v-5.9h2.6v5.9zm18.5-1.4v-1.7h1.8v-1h-1.8v-1.6h1.8v-.9h-1.8v-1.7h-1.1v6.9h1.1zm-9.2-.1c1.5-.6 2.6-1.7 3.1-3.1.6 1.3 1.6 2.3 3 2.8l.6-.9c-1.8-.6-3.1-2.2-3.1-3.9V374h-1.1v1.2c0 1.9-1.2 3.5-3.1 4.2l.6.9zm9.2 5.6V381h-1.1v1.5H546V381h-1.1v4.9h7.9zm-1.1-1H546v-1.6h5.6v1.6h.1zm-81.5 23.2v-12.6H469v12.6h1.2zm-3.8-3.2v-8.2h-5.8v8.2h5.8zm-1.1-.9h-3.5v-6.3h3.5v6.3zm18.8-1.4v-.9h-2.8v-1.8c1-.4 1.5-1 1.5-1.9 0-1.5-1.7-2.3-4.4-2.3s-4.4.9-4.4 2.3c0 .9.5 1.5 1.5 1.9v1.8h-2.8v.9h11.4zm-5.6-3.1c-2 0-3.2-.5-3.2-1.4 0-.9 1.2-1.4 3.2-1.4s3.2.5 3.2 1.4c0 .8-1.2 1.4-3.2 1.4zm1.7 2.2h-3.5v-1.5c.5.1 1.1.1 1.7.1.6 0 1.2-.1 1.8-.1v1.5zm-1.7 6.3c2.7 0 4.3-.8 4.3-2.2 0-1.4-1.6-2.2-4.3-2.2-2.7 0-4.3.8-4.3 2.2 0 1.4 1.6 2.2 4.3 2.2zm0-.9c-2 0-3.1-.5-3.1-1.3s1.2-1.3 3.1-1.3c2 0 3.1.5 3.1 1.3s-1.2 1.3-3.1 1.3zm17.9.9v-12.6h-1.1v5.1h-1.7v-4.8h-1.1v11.7h1.1v-5.9h1.7v6.5h1.1zm-10.2-2.6c1.3-.8 2.2-2.1 2.6-3.8.4 1.5 1.3 2.7 2.5 3.4l.7-.9c-1.8-.9-2.7-3-2.7-5.2v-1h2.3v-.9h-5.8v.9h2.4v1c0 2.5-.9 4.7-2.7 5.7l.7.8zm23.7 1.1v-.9h-3.1v-2.4h2v-.9h-7.7v-2h7.4v-3.8h-8.6v.9h7.5v1.9H500v3.9h1.8v2.4h-3.2v.9h11.3zm-4.2-1h-2.9v-2.4h2.9v2.4zm20.3 1v-1h-5.1v-3.2h3.8v-.9h-7.5v-3.9h7.4v-.9H516v5.8h3.7v3.2h-5.1v1H526v-.1zm1.8 3l4.2-13.6h-.9l-4.2 13.6h.9zm15.5-6.9l.5-1c-2.2-.4-4.6-2.2-4.6-4.3v-1H538v1c0 2.1-2.4 3.9-4.6 4.3l.5 1c1.9-.4 3.9-1.7 4.7-3.5.8 1.8 2.8 3.1 4.7 3.5zm1 3.8v-.9h-5.2v-3.1H538v3.1h-5.1v.9h11.4zm12.2 1.6v-12.5h-1.1v5h-1.7v-4.7h-1.1v11.6h1.1v-6h1.7v6.6h1.1zm-5.5-3.3V397h-4.8v7.7h4.8zm-1-.9h-2.6v-5.9h2.6v5.9zm18.4-1.4v-1.7h1.8v-1h-1.8v-1.6h1.8v-.9h-1.8v-1.7h-1.1v6.9h1.1zm-9.1-.1c1.5-.6 2.6-1.7 3.1-3.1.6 1.3 1.6 2.3 3 2.8l.6-.9c-1.8-.6-3.1-2.2-3.1-3.9V396h-1.1v1.2c0 1.9-1.2 3.5-3.1 4.2l.6.9zm9.1 5.6V403h-1.1v1.5h-5.6V403h-1.1v4.9h7.8zm-1.1-1h-5.6v-1.6h5.6v1.6zm-67 23.2v-12.6h-1.1v12.6h1.1zm-3.8-3.2v-8.2h-5.8v8.2h5.8zm-1.1-.9h-3.5v-6.3h3.5v6.3zm18.8-1.4v-.9h-2.8v-1.8c1-.4 1.5-1 1.5-1.9 0-1.5-1.7-2.3-4.4-2.3s-4.4.9-4.4 2.3c0 .9.5 1.5 1.5 1.9v1.8h-2.8v.9h11.4zm-5.7-3.1c-2 0-3.2-.5-3.2-1.4 0-.9 1.2-1.4 3.2-1.4s3.2.5 3.2 1.4c.1.8-1.2 1.4-3.2 1.4zm1.8 2.2h-3.5v-1.5c.5.1 1.1.1 1.7.1.6 0 1.2-.1 1.8-.1v1.5zm-1.8 6.3c2.7 0 4.3-.8 4.3-2.2 0-1.4-1.6-2.2-4.3-2.2-2.7 0-4.3.8-4.3 2.2 0 1.4 1.6 2.2 4.3 2.2zm0-.9c-2 0-3.1-.5-3.1-1.3s1.2-1.3 3.1-1.3c2 0 3.1.5 3.1 1.3s-1.1 1.3-3.1 1.3zm14.7-9.4v-.9h-3.1v-1.4H519v1.4h-3.1v.9h7.3zm2.3 5.6v-3.4h1.9v-1h-1.9v-3.5h-1.1v7.8h1.1v.1zm-6-.4c1.8 0 3-.9 3-2.3s-1.2-2.3-3-2.3-3 .9-3 2.3 1.2 2.3 3 2.3zm0-.9c-1.1 0-1.9-.5-1.9-1.4 0-.9.8-1.4 1.9-1.4 1.1 0 1.9.5 1.9 1.4 0 .9-.8 1.4-1.9 1.4zm6 6v-4h-8.1v.9h7v3.1h1.1zm13.4-3v-9.6h-1.1v7.4h-2.5v.9h2.5v1.3h1.1zm-6.3-4.6c1.8 0 3.1-.9 3.1-2.2 0-1.3-1.3-2.2-3.1-2.2s-3.1.9-3.1 2.2c0 1.3 1.3 2.2 3.1 2.2zm0-.9c-1.2 0-2-.5-2-1.3s.8-1.3 2-1.3 2 .5 2 1.3-.8 1.3-2 1.3zm.7 5.1v-2.5c1.1-.1 2.3-.2 3.4-.4l-.1-.8c-2.7.3-5.8.4-8.1.4l.2 1c1 0 2.2 0 3.5-.1v2.4h1.1zm5.9 3.2v-.9h-7.7v-2.7h-1.1v3.7h8.8v-.1zM837.5 277.7c.6-3.4.7-5.8.7-7.8v-2.2h-12.7v2h10.2c0 2 0 4.5-.7 7.8l2.5.2zm2.2 3.8v-2H832v-6h-2.5v6h-5.6v2h15.8zm16.5-5.1v-10.2h-2.4v4h-1.5v-3.7H850v9.9h2.3v-4.1h1.5v4.2h2.4v-.1zm-13.9.1c4.6-1.8 6.6-4.7 6.6-9.1H842v2h4.3c-.3 2.4-1.9 4.1-5.2 5.3l1.2 1.8zm13.9 7.2v-6.6h-12.1v2h9.6v4.6h2.5zM823.7 320.1v-12.6h-1.1v12.6h1.1zm-9.6-2.7c1.5-.8 2.7-2.3 3.2-4.2.6 1.8 1.8 3.3 3.2 4l.7-.9c-1.9-.8-3.4-3.1-3.4-5.4v-2.3h-1.1v2.3c0 2.4-1.5 4.8-3.4 5.7l.8.8zm22.5-5.5l.4-.9c-2.3-.3-4.5-1.5-4.5-3v-.5h-1.2v.5c0 1.5-2.2 2.8-4.5 3l.4.9c2-.3 3.9-1.1 4.7-2.5.9 1.4 2.8 2.2 4.7 2.5zm0 8v-.9h-7.8v-1.2h7.4v-2.9h-3.7v-1.2h5.1v-.9h-11.4v.9h5.1v1.2h-3.7v.9h7.4v1.1h-7.4v3h9zm15.2-4.1c.5-2.5.5-4.3.5-5.8v-1.2h-8.8v.9h7.7v.3c0 1.5 0 3.3-.5 5.7l1.1.1zm1.9 2.5v-.9h-5.8v-4.5h-1.1v4.5h-4.4v.9h11.3zm12.1-3.4v-7.4h-1.1v3.1H863v-2.9h-1.1v7.1h1.1v-3.2h1.7v3.3h1.1zm-10 .1c3.2-1.3 4.8-3.6 4.8-6.6h-4.9v.9h3.7c-.2 2.1-1.7 3.8-4.2 4.8l.6.9zm10 5v-4.6h-8.4v.9h7.3v3.6h1.1v.1zm-36.2 16.4v-1.7h1.8v-1h-1.8v-1.6h1.8v-.9h-1.8v-1.7h-1.1v6.9h1.1zm-9.2-.1c1.5-.6 2.6-1.7 3.1-3.1.6 1.3 1.6 2.3 3 2.8l.6-.9c-1.8-.6-3.1-2.2-3.1-3.9V330h-1.1v1.2c0 1.9-1.2 3.5-3.1 4.2l.6.9zm9.2 5.6V337h-1.1v1.5h-5.6V337h-1.1v4.9h7.8zm-1.1-1h-5.6v-1.6h5.6v1.6zm15.3-9v-.9h-3.2v-1.5h-1.1v1.5h-3.2v.9h7.5zm2.3 10.1v-12.5H845V342h1.1zm-1.9-2.8l-.1-.9c-1.1.2-2.4.2-3.6.3v-1.3c1.5-.2 2.4-1 2.4-2.3 0-1.4-1.2-2.3-3-2.3s-3 .9-3 2.3c0 1.3 1 2.1 2.4 2.3v1.3c-1.2 0-2.4.1-3.5.1l.2 1c2.4 0 5.4-.1 8.2-.5zm-4.2-2.8c-1.1 0-1.9-.6-1.9-1.4 0-.9.8-1.4 1.9-1.4 1.1 0 1.9.6 1.9 1.4 0 .8-.7 1.4-1.9 1.4zm19 2.6v-9.6h-1.1v7.4h-2.5v.9h2.5v1.3h1.1zm-6.2-4.6c1.8 0 3.1-.9 3.1-2.2 0-1.3-1.3-2.2-3.1-2.2s-3.1.9-3.1 2.2c0 1.3 1.2 2.2 3.1 2.2zm0-.9c-1.2 0-2-.5-2-1.3s.8-1.3 2-1.3 2 .5 2 1.3-.8 1.3-2 1.3zm.7 5.1v-2.5c1.1-.1 2.3-.2 3.4-.4l-.1-.8c-2.7.3-5.8.4-8.1.4l.2 1c1 0 2.2 0 3.5-.1v2.4h1.1zm5.8 3.2v-.9h-7.7v-2.7h-1.1v3.7h8.8v-.1zm-35.5 16.6l.5-1c-2.2-.4-4.6-2.1-4.6-4.2v-1h-1.2v1c0 2-2.4 3.8-4.6 4.2l.5 1c2-.4 3.9-1.6 4.8-3.4.7 1.7 2.7 3 4.6 3.4zm1 4v-.9h-3.1v-2.8h-1.1v2.8h-2.9v-2.8h-1.1v2.8h-3.1v.9h11.3zm11.8-3.2v-7.7h-1.1v7.7h1.1zm-2.3-1.4l-.1-.8c-.6.1-1.2.1-1.8.2v-3.7h1.2v-.9h-6.7v.9h1.2v3.8h-1.6l.1 1c2.2 0 5.1-.1 7.7-.5zm-5.1-.5v-3.8h2v3.7c-.6.1-1.3.1-2 .1zm3.3 6.7c2.6 0 4.2-.8 4.2-2.3 0-1.5-1.6-2.3-4.2-2.3s-4.2.8-4.2 2.3c-.1 1.5 1.5 2.3 4.2 2.3zm0-.9c-1.9 0-3.1-.5-3.1-1.4 0-.9 1.1-1.4 3.1-1.4 1.9 0 3.1.5 3.1 1.4-.1.9-1.2 1.4-3.1 1.4zm19.3-3.3c.5-2.5.5-4.3.5-5.8v-1.2h-8.8v.9h7.7v.3c0 1.5 0 3.3-.5 5.7l1.1.1zm1.9 2.5v-.9h-5.8v-4.5h-1.1v4.5h-4.4v.9h11.3zm12.1-3.4v-7.4h-1.1v3.1H863v-2.9h-1.1v7.1h1.1v-3.2h1.7v3.3h1.1zm-10 .1c3.2-1.3 4.8-3.6 4.8-6.6h-4.9v.9h3.7c-.2 2.1-1.7 3.8-4.2 4.8l.6.9zm10 5v-4.6h-8.4v.9h7.3v3.6h1.1v.1zm-34 15.2l.5-.9c-2.3-.3-4.5-1.9-4.5-3.6v-.7h-1.2v.7c0 1.8-2.2 3.3-4.5 3.6l.5.9c2-.3 3.9-1.4 4.6-2.9.7 1.5 2.6 2.6 4.6 2.9zm-4.1 6.8v-4.5h5.1v-1h-11.3v1h5.1v4.5h1.1zm16.3-5v-3.3h1.9v-1H844v-3.2h-1.1v7.5h1.1zm-9.2 0c3.6-1.1 5.9-3.4 5.9-6.6h-5.8v.9h4.5c-.2 2.2-2.1 3.9-5.1 4.8l.5.9zm5.3 5c2.5 0 4.1-.9 4.1-2.4s-1.6-2.4-4.1-2.4c-2.5 0-4.1.9-4.1 2.4s1.6 2.4 4.1 2.4zm0-.9c-1.8 0-3-.6-3-1.5 0-1 1.1-1.5 3-1.5 1.8 0 3 .6 3 1.5s-1.2 1.5-3 1.5zm17.7-3.9v-7.7h-1.1v3.4h-1.6v-3.1H854v7.1h1.1v-3h1.6v3.4h1.1v-.1zm-10-.6c1.2-.5 2.1-1.6 2.6-2.8.4 1.1 1.3 2 2.5 2.4l.6-.9c-1.6-.6-2.5-2-2.5-3.4v-1.7h-1.1v1.7c0 1.4-1 3-2.6 3.8l.5.9zm5.8 5.4c2.6 0 4.2-.8 4.2-2.3 0-1.5-1.6-2.3-4.2-2.3s-4.2.8-4.2 2.3c0 1.5 1.7 2.3 4.2 2.3zm0-.9c-1.9 0-3.1-.5-3.1-1.4 0-.9 1.2-1.4 3.1-1.4 1.9 0 3.1.5 3.1 1.4 0 .9-1.2 1.4-3.1 1.4zm-57.2 23v-12.6h-1.1v12.6h1.1zm-3.8-3.2v-8.2h-5.8v8.2h5.8zm-1.1-.9H788v-6.3h3.5v6.3zm18.8-1.4v-.9h-2.8v-1.8c1-.4 1.5-1 1.5-1.9 0-1.5-1.7-2.3-4.4-2.3s-4.4.9-4.4 2.3c0 .9.5 1.5 1.5 1.9v1.8H799v.9h11.3zm-5.7-3.1c-2 0-3.2-.5-3.2-1.4 0-.9 1.2-1.4 3.2-1.4s3.2.5 3.2 1.4c.1.8-1.2 1.4-3.2 1.4zm1.8 2.2h-3.5v-1.5c.5.1 1.1.1 1.7.1.6 0 1.2-.1 1.8-.1v1.5zm-1.8 6.3c2.7 0 4.3-.8 4.3-2.2 0-1.4-1.6-2.2-4.3-2.2-2.7 0-4.3.8-4.3 2.2 0 1.4 1.6 2.2 4.3 2.2zm0-.9c-2 0-3.1-.5-3.1-1.3s1.2-1.3 3.1-1.3c2 0 3.1.5 3.1 1.3s-1.1 1.3-3.1 1.3zm17.6-4.9v-6.7H821v3h-2.6c-.2-1.5-1.5-2.4-3.2-2.4-1.9 0-3.2 1.2-3.2 2.9s1.4 2.9 3.2 2.9c1.7 0 3-1 3.2-2.5h2.5v2.8h1.3zm-6.9-1.3c-1.2 0-2.1-.8-2.1-2 0-1.1.9-1.9 2.1-1.9 1.2 0 2.1.8 2.1 1.9 0 1.2-.9 2-2.1 2zm6.9 7v-5H821v1.6h-5.8v-1.6h-1.1v5h8.1zm-1.2-1h-5.8v-1.6h5.8v1.6zm17.2 1.1v-12.6H837V408h1.2zm-9.3-6.3c1.5-.4 2.6-1.2 3.1-2.3.5 1 1.6 1.8 3.1 2.1l.5-.9c-1.8-.4-3-1.5-3-2.7h2.8v-.9h-2.8v-1.4h-1.1v1.4h-2.8v.9h2.8c0 1.3-1.2 2.5-3 2.9l.4.9zm3.7 6v-4.3c1.2-.1 2.4-.2 3.6-.4l-.1-.9c-2.7.4-5.9.4-8.3.4l.2 1c1.1 0 2.2 0 3.5-.1v4.2h1.1v.1zm18.5-5.5v-6.7h-1.2v3h-2.6c-.2-1.5-1.5-2.4-3.2-2.4-1.9 0-3.2 1.2-3.2 2.9s1.4 2.9 3.2 2.9c1.7 0 3-1 3.2-2.5h2.5v2.8h1.3zm-6.9-1.3c-1.2 0-2.1-.8-2.1-2 0-1.1.9-1.9 2.1-1.9 1.2 0 2.1.8 2.1 1.9 0 1.2-.9 2-2.1 2zm6.9 7v-5H850v1.6h-5.8v-1.6h-1.1v5h8zm-1.2-1h-5.8v-1.6h5.8v1.6zM867 401l.4-.9c-2.2-.3-4.2-1.5-4.2-3.1h3.9v-.9h-9.3v.9h3.9c0 1.5-2 2.8-4.3 3.1l.4.9c2-.3 3.9-1.3 4.6-2.8.7 1.5 2.6 2.5 4.6 2.8zm-3.9 4.4v-2.5h5v-.9h-11.4v.9h5.2v2.5h1.2zm3.8 2.4v-.9h-7.5v-2.6h-1.1v3.6h8.6v-.1zm13 .2v-12.6h-1.1V408h1.1zm-3.6-3v-8.5h-1.1v3.3h-3.6v-3.3h-1.1v8.5h5.8zm-1.2-.9h-3.6v-3.3h3.6v3.3zm18-.9v-7.7H892v3.4h-1.6v-3.1h-1.1v7.1h1.1v-3h1.6v3.4h1.1v-.1zm-10-.6c1.2-.5 2.1-1.6 2.6-2.8.4 1.1 1.3 2 2.5 2.4l.6-.9c-1.6-.6-2.5-2-2.5-3.4v-1.7h-1.1v1.7c0 1.4-1 3-2.6 3.8l.5.9zm5.9 5.4c2.6 0 4.2-.8 4.2-2.3 0-1.5-1.6-2.3-4.2-2.3s-4.2.8-4.2 2.3c0 1.5 1.6 2.3 4.2 2.3zm0-.9c-1.9 0-3.1-.5-3.1-1.4 0-.9 1.2-1.4 3.1-1.4 1.9 0 3.1.5 3.1 1.4-.1.9-1.2 1.4-3.1 1.4zM817.6 430v-12.6h-1.1V430h1.1zm-2.4-.6v-11.7h-1.1v2.8h-1.9c-.4-1.3-1.2-2-2.3-2-1.6 0-2.7 1.7-2.7 4.4s1 4.4 2.7 4.4c1.1 0 1.9-.7 2.3-2h1.9v4.1h1.1zm-5.4-3.2c-1 0-1.6-1.3-1.6-3.3 0-2 .6-3.3 1.6-3.3s1.6 1.3 1.6 3.3c0 2-.6 3.3-1.6 3.3zm4.3-1.9h-1.7c.1-.4.1-.9.1-1.4 0-.5 0-1-.1-1.4h1.7v2.8zm16 5.7v-12.6H829V430h1.1zm-3.6-3v-8.5h-1.1v3.3h-3.6v-3.3h-1.1v8.5h5.8zm-1.2-.9h-3.6v-3.3h3.6v3.3zm11.2-1.2c1.5-.5 2.6-1.5 3.1-2.9.6 1.2 1.7 2.1 3.1 2.5l.5-.9c-1.8-.5-3.1-1.9-3.1-3.5v-.3h2.8v-.8h-2.8v-1.6H839v1.6h-2.8v.9h2.8v.3c0 1.7-1.3 3.2-3.1 3.8l.6.9zm9.1.3v-3.5h1.9v-1h-1.9v-3.2h-1.1v7.7h1.1zm-4 4.8c2.6 0 4.1-.8 4.1-2.3 0-1.5-1.6-2.3-4.1-2.3-2.6 0-4.1.8-4.1 2.3 0 1.5 1.5 2.3 4.1 2.3zm0-.9c-1.9 0-3-.5-3-1.4 0-.9 1.1-1.4 3-1.4 1.8 0 3 .5 3 1.4 0 .9-1.1 1.4-3 1.4zm17.5-4.9v-6.7h-1.2v3h-2.6c-.2-1.5-1.5-2.4-3.2-2.4-1.9 0-3.2 1.2-3.2 2.9s1.4 2.9 3.2 2.9c1.7 0 3-1 3.2-2.5h2.5v2.8h1.3zm-6.9-1.3c-1.2 0-2.1-.8-2.1-2 0-1.1.9-1.9 2.1-1.9 1.2 0 2.1.8 2.1 1.9 0 1.2-.9 2-2.1 2zm6.9 7v-5H858v1.6h-5.8v-1.6h-1.1v5h8zm-1.2-1h-5.8v-1.6h5.8v1.6zm13.4 1.1v-6.5h2.1v-1h-2.1v-5.1h-1.1V430h1.1zm-9.2-2.4c1.4-.7 2.6-2.3 3.2-4.2.6 1.7 1.8 3.1 3.2 3.9l.7-.9c-1.8-.9-3.2-3.1-3.2-5.1v-1.6h2.8v-1H862v1h2.9v1.6c0 2.1-1.5 4.5-3.3 5.4l.5.9zM470 511h91c13.8 0 25 11.2 25 25s-11.2 25-25 25h-91c-13.8 0-25-11.2-25-25s11.2-25 25-25z"/>
                    <path fill="#FFF" fill-rule="nonzero" d="M483.8 534.9c.4-1.3.4-2.5.4-3.5V530h-9.8v1.9h7.4c0 .8-.1 1.7-.4 2.8l2.4.2zm1.8 2.5v-1.9h-5.8v-2.3h-2.4v2.3H473v1.9h12.6zm-6.4 6.1c3 0 5-1 5-2.7 0-1.7-2-2.7-5-2.7s-5 1-5 2.7c0 1.6 1.9 2.7 5 2.7zm0-1.9c-1.7 0-2.6-.3-2.6-.9 0-.6.9-.9 2.6-.9 1.7 0 2.6.3 2.6.9 0 .7-.9.9-2.6.9zm19.3 1.9v-14.1h-2.4v14.1h2.4zm-4.1-3.3v-9.8H492v3.3h-2.3v-3.3h-2.4v9.8h7.1zm-2.4-1.9h-2.3v-2.8h2.3v2.8zm20.5 5.2v-14.1H510v4.2h-2.4v1.9h2.4v8h2.5zm-10.8-2.8c1.5-.7 2.5-2 3.1-3.6.6 1.5 1.5 2.7 3 3.4l1.4-1.9c-2.5-1.1-3.2-3.7-3.2-6.4v-1.8h-2.4v1.8c0 2.7-.8 5.4-3.3 6.6l1.4 1.9zm27.4-2.9l1-2c-3.6-.6-4.8-2.8-4.8-4.7v-1h-2.6v1c0 1.8-1.3 4.1-4.8 4.7l1 2c2.5-.5 4.2-1.8 5.1-3.4.9 1.6 2.6 2.9 5.1 3.4zm1.4 4v-2h-12.7v2h12.7zm13.8.2v-2h-5.2v-2h3.9v-1.9h-7.5V535h7.1v-1.8h-7.1v-1.1h7.5v-1.9h-10v7.8h3.7v2h-5.1v1.9h12.7v.1zm13 1.5v-14.2h-2.4v4.9h-2c-.3-2.5-1.8-4-3.6-4-2.1 0-3.7 2-3.7 5.1 0 3.2 1.6 5.1 3.7 5.1 2 0 3.4-1.6 3.7-4.3h1.9v7.3h2.4v.1zm-8-5.3c-.9 0-1.4-.9-1.4-2.9s.5-2.9 1.4-2.9c.9 0 1.4.9 1.4 2.9s-.6 2.9-1.4 2.9z"/>
                    <path fill="#007DFF" d="M303 139h91c13.8 0 25 11.2 25 25s-11.2 25-25 25h-91c-13.8 0-25-11.2-25-25s11.2-25 25-25z"/>
                    <path fill="#007DFF" fill-rule="nonzero" d="M623 139h120c13.8 0 25 11.2 25 25s-11.2 25-25 25H623c-13.8 0-25-11.2-25-25s11.2-25 25-25z"/>
                    <path fill="#FFF" fill-rule="nonzero" d="M320.6 162.9c.4-1.3.4-2.5.4-3.5V158h-9.8v1.9h7.4c0 .8-.1 1.7-.4 2.8l2.4.2zm1.8 2.5v-1.9h-5.8v-2.3h-2.4v2.3h-4.4v1.9h12.6zm-6.4 6.1c3 0 5-1 5-2.7 0-1.7-2-2.7-5-2.7s-5 1-5 2.7c0 1.6 2 2.7 5 2.7zm0-1.9c-1.7 0-2.6-.3-2.6-.9 0-.6.9-.9 2.6-.9 1.7 0 2.6.3 2.6.9 0 .7-.9.9-2.6.9zm19.3 1.9v-14.1h-2.4v14.1h2.4zm-4.1-3.3v-9.8h-2.4v3.3h-2.3v-3.3h-2.4v9.8h7.1zm-2.4-1.9h-2.3v-2.8h2.3v2.8zm20.5 5.2v-14.1h-2.4v4.2h-2.4v1.9h2.4v8h2.4zm-10.8-2.8c1.5-.7 2.5-2 3.1-3.6.6 1.5 1.5 2.7 3 3.4l1.4-1.9c-2.5-1.1-3.2-3.7-3.2-6.4v-1.8h-2.4v1.8c0 2.7-.8 5.4-3.3 6.6l1.4 1.9zm21.5 1.5c1.5 0 2.7-.6 3.6-1.7l-1.4-1.7c-.5.6-1.2 1-2.1 1-1.6 0-2.6-1.3-2.6-3.5s1.2-3.5 2.6-3.5c.8 0 1.4.4 1.9.9l1.4-1.7c-.8-.8-1.9-1.5-3.4-1.5-2.8 0-5.3 2.1-5.3 5.8.1 4 2.5 5.9 5.3 5.9zm8-.2v-3.9h1.3l2.1 3.9h3l-2.5-4.4c1.2-.5 1.9-1.6 1.9-3.2 0-2.7-2-3.5-4.4-3.5h-4.1V170h2.7zm1.2-6H368v-3h1.2c1.3 0 2 .3 2 1.4 0 1-.7 1.6-2 1.6zm9.1 6v-3.8c0-1.1-.2-2.8-.3-3.9h.1l.9 2.7 1.5 4.1h1.5l1.5-4.1.9-2.7h.1c-.1 1.1-.3 2.8-.3 3.9v3.8h2.4v-11.2h-2.9l-1.7 4.8c-.2.6-.4 1.4-.6 2h-.1c-.2-.7-.4-1.4-.6-2l-1.8-4.8H376V170h2.3zM635.8 162.9c.4-1.5.4-2.7.4-3.8V158h-9.8v1.9h7.4c0 .8-.1 1.7-.4 2.8l2.4.2zm1.8 2.5v-1.9h-5.8v-2.3h-2.4v2.3H625v1.9h12.6zm-6.4 6.1c3 0 5-1 5-2.7 0-1.7-2-2.7-5-2.7s-5 1-5 2.7c-.1 1.6 1.9 2.7 5 2.7zm0-1.9c-1.7 0-2.6-.3-2.6-.9 0-.6.9-.9 2.6-.9 1.7 0 2.6.3 2.6.9 0 .7-.9.9-2.6.9zm19.3 1.9v-14.1H648v14.1h2.5zm-4.1-3.3v-9.8H644v3.3h-2.3v-3.3h-2.4v9.8h7.1zm-2.4-1.9h-2.3v-2.8h2.3v2.8zm20.4 5.2v-14.1H662v4.2h-2.4v1.9h2.4v8h2.4zm-10.7-2.8c1.5-.7 2.5-2 3.1-3.6.6 1.5 1.5 2.7 3 3.4l1.4-1.9c-2.5-1.1-3.2-3.7-3.2-6.4v-1.8h-2.4v1.8c0 2.7-.8 5.4-3.3 6.6l1.4 1.9zm28.2 2.7v-14.1h-2.3v14.1h2.3zm-2.9-.6v-13.3h-2.2v2.7h-1.3c-.5-1.3-1.4-2.1-2.6-2.1-1.9 0-3.1 1.9-3.1 5.2 0 3.3 1.2 5.2 3.1 5.2 1.2 0 2.1-.8 2.6-2.1h1.3v4.2h2.2v.2zm-6.1-4.4c-.6 0-.9-.9-.9-2.9 0-2.1.3-2.9.9-2.9.6 0 .9.9.9 2.9s-.3 2.9-.9 2.9zm3.9-1.7h-.8c0-.4.1-.8.1-1.2 0-.4 0-.8-.1-1.2h.8v2.4zm17.9.9V164h1.7v-1.9h-1.7V161h1.7v-2h-1.7v-1.7h-2.4v8.3h2.4zm-7.3-.5c2.2 0 3.9-1.5 3.9-3.5s-1.7-3.5-3.9-3.5-3.9 1.5-3.9 3.5 1.7 3.5 3.9 3.5zm0-2c-.9 0-1.5-.5-1.5-1.5s.7-1.5 1.5-1.5c.9 0 1.5.5 1.5 1.5.1 1-.6 1.5-1.5 1.5zm7.3 8.3v-5.3h-9.5v1.9h7.1v3.4h2.4zm18 .1v-14.1h-2.4v4.2h-2.4v1.9h2.4v8h2.4zm-10.7-2.8c1.5-.7 2.5-2 3.1-3.6.6 1.5 1.5 2.7 3 3.4l1.4-1.9c-2.5-1.1-3.2-3.7-3.2-6.4v-1.8h-2.4v1.8c0 2.7-.8 5.4-3.3 6.6l1.4 1.9zm24.3 2.8v-14.1h-2.4v14.1h2.4zm-4-3.3v-9.8h-2.4v3.3h-2.3v-3.3h-2.4v9.8h7.1zm-2.4-1.9h-2.3v-2.8h2.3v2.8zm19.9-.5l1-2c-3.6-.6-4.8-2.8-4.8-4.7v-1h-2.6v1c0 1.8-1.3 4.1-4.8 4.7l1 2c2.5-.5 4.2-1.8 5.1-3.4.8 1.6 2.5 2.9 5.1 3.4zm1.3 4v-1.9h-12.7v1.9h12.7z"/>
                    <path fill="#000" fill-rule="nonzero" d="M480.2 54c1.9 0 3.4.6 4.6 1.8 1.2 1.2 1.8 2.8 1.8 4.8v3.7c0 1.9-.6 3.5-1.8 4.8-1.2 1.2-2.7 1.8-4.6 1.8h-27.3c-1.9 0-3.4-.6-4.6-1.8-1.2-1.2-1.8-2.8-1.8-4.8v-3.7c0-1.9.6-3.5 1.8-4.8 1.2-1.2 2.7-1.8 4.6-1.8h27.3zM537 28v43h-11V28h11zm48 0v43h-11.1V51.8h-6.5v-8.3h6.5V28H585zm-81.3 1v13h6.7V29h9.3v41.5H494V29h9.7zm60.4 0l4.5 41.5h-10.2L554.8 37h-.9l-3.6 33.5H540l4.5-41.5h19.6zm-88.7 31.3h-17.7c-.4 0-.7.1-1 .4-.3.3-.4.6-.4 1v1.1c0 .4.1.8.4 1 .2.2.6.4 1 .4h17.7c.4 0 .8-.1 1-.4.2-.2.4-.6.4-1v-1.1c0-.4-.1-.8-.4-1-.3-.3-.6-.4-1-.4zm35.1-10.5h-6.7v12.9h6.7V49.8zm-41.6-11.5v5.6H487v7.6h-41v-7.6h12.4v-5.6h10.5zm17-10.3v6.8c0 1 0 1.9-.1 2.7l-.5 4.3h-10.5l.5-4.4c.1-.6.1-1.3.1-2h-28.2V28h38.7zM454.6 8.3c.3-1 .3-1.9.3-2.7V4.4h-7.7v1.2h6.1c0 .7 0 1.5-.3 2.5l1.6.2zm1.4 1.9V8.9h-4.7V7h-1.6v1.9H446v1.2h10v.1zm-5 4.8c2.4 0 3.9-.8 3.9-2.1s-1.5-2.1-3.9-2.1-3.9.8-3.9 2.1 1.5 2.1 3.9 2.1zm0-1.2c-1.5 0-2.3-.3-2.3-.9 0-.6.9-.9 2.3-.9 1.5 0 2.4.3 2.4.9 0 .6-.9.9-2.4.9zm16.6 1.2V4h-1.5v4.3h-1v-4h-1.5v10.3h1.5v-5h1V15h1.5zm-8.4-2.5c1.4 0 2.6 0 3.9-.3L463 11c-1.1.2-2 .3-3 .3V6.5h2.5V5.3h-4.1v7.3h.8v-.1zm19.7-2.3V7.6h1.5V6.3h-1.5V4h-1.6v6.2h1.6zm-7.4-.5c1.6 0 3.3-.1 5.1-.5l-.2-1.3c-1.5.3-2.9.4-4.2.4V4.5h-1.6v5.2h.9zm7.4 5.2v-4.2h-7.2v4.2h7.2zm-1.6-1.2h-4.1V12h4.1v1.7zm14.1 1.4V4h-1.6v11.1h1.6zm-5.7-4.9c1.7 0 3-1.1 3-2.7s-1.3-2.7-3-2.7-3 1.1-3 2.7c0 1.5 1.3 2.7 3 2.7zm0-1.4c-.9 0-1.5-.5-1.5-1.4 0-.9.6-1.4 1.5-1.4s1.5.5 1.5 1.4c0 .9-.6 1.4-1.5 1.4zm3.6 3.5l-.1-1.1c-2.3.3-5 .4-7 .4l.2 1.3c2-.1 4.5-.1 6.9-.6zm17.8 2.8V4h-1.6v11.1h1.6zm-3.2-2.6V4.9h-1.6v2.7H500V4.9h-1.6v7.6h5.5zm-1.5-1.3h-2.3V8.8h2.3v2.4zm16.8 3.8V4h-1.6v11h1.6zm-8.4-2c1.3-.6 2.2-1.8 2.7-3.2.5 1.3 1.4 2.4 2.7 3l.9-1.2c-1.8-.8-2.7-2.7-2.7-4.5v-.8h2.3V5h-6.2v1.3h2.3V7c0 1.9-.9 3.9-2.7 4.7l.7 1.3zm20.5 2V4h-1.6v11h1.6zm-7.7-2.7c1.7 0 3.5-.1 5.4-.5l-.2-1.3c-1.6.3-3.2.4-4.6.5V5h-1.6v7.3h1zm19.5-1.8l.7-1.3c-2.5-.4-3.9-2.1-3.9-3.8v-.8h-1.7v.8c0 1.6-1.4 3.3-3.9 3.8l.7 1.3c1.9-.4 3.3-1.5 4-2.9.7 1.5 2.1 2.5 4.1 2.9zm1 3.2v-1.3h-10v1.3h10zm15 1.4V4h-1.6v3.5h-2.1v1.3h2.1v6.3h1.6zm-8.4-2.3c1.2-.6 2.1-1.8 2.5-3.2.5 1.3 1.3 2.4 2.5 3l.9-1.3c-1.8-.8-2.6-2.8-2.6-4.9V4.8h-1.6v1.6c0 2.1-.8 4.2-2.7 5.1l1 1.3zm20.3 2.3V4h-1.6v11.1h1.6zm-3.1-2.6V4.9h-1.6v2.7H564V4.9h-1.6v7.6h5.5zm-1.6-1.3H564V8.8h2.3v2.4zm16.6-.7l.7-1.3c-2.5-.4-3.9-2.1-3.9-3.8v-.8H578v.8c0 1.6-1.4 3.3-3.9 3.8l.7 1.3c1.9-.4 3.3-1.5 4-2.9.8 1.5 2.2 2.5 4.1 2.9zm1 3.2v-1.3h-10v1.3h10z"/>
                </g>
            </g>
        </g>
    </g>
</svg>
