<svg xmlns="http://www.w3.org/2000/svg" width="120" height="18" viewBox="0 0 120 18">
    <g fill="none" fill-rule="evenodd">
        <g fill="#000">
            <g>
                <g>
                    <g>
                        <path d="M38 0v18h-4.594V0H38zm21 0v18h-4.687V9.98h-2.744V6.51h2.744V0H59zm61 0v18h-4.541v-7.817h-2.045V6.714h2.045V0H120zm-10.76.204c1.01 0 1.866.361 2.568 1.082.702.721 1.06 1.578 1.074 2.571v10.49c-.014.993-.372 1.85-1.074 2.571-.702.722-1.558 1.082-2.567 1.082h-3.58c-1.036 0-1.909-.354-2.618-1.061-.709-.707-1.056-1.572-1.043-2.592V3.857c-.013-1.02.334-1.884 1.043-2.592.71-.707 1.582-1.06 2.618-1.06h3.58zM14.167 10.9c.775 0 1.407.258 1.899.774s.738 1.18.738 1.992v1.57c0 .811-.246 1.475-.738 1.991S14.941 18 14.166 18H2.834c-.775 0-1.407-.258-1.899-.774s-.738-1.18-.738-1.992v-1.569c0-.812.246-1.476.738-1.992s1.124-.774 1.899-.774h11.332zm9.91-10.49v5.448h2.814V.408h3.91v17.388H20V.408h4.076zm26.1 0l1.9 17.387h-4.307l-1.541-14.02h-.38l-1.541 14.02H40L41.9.408h8.275zM79 13.587V17H62v-3.412h17zm13.684-1.457v1.597H99V17H82v-3.272h6.316V12.13h4.368zm-80.505 1.39H4.821c-.17 0-.309.055-.414.165-.105.11-.157.255-.157.433v.475c0 .179.05.32.148.423.098.103.239.155.423.155h7.358c.184 0 .325-.052.423-.155.099-.103.148-.244.148-.423v-.475c0-.178-.053-.323-.157-.433-.106-.11-.244-.165-.414-.165zm95.794-10.052h-1.002c-.287 0-.515.086-.685.256-.171.17-.256.397-.256.683v9.388c0 .286.085.514.256.684.17.17.398.255.685.255h1.002c.286 0 .514-.085.685-.255.17-.17.256-.398.256-.684V4.408c0-.286-.085-.513-.256-.683-.17-.17-.399-.256-.685-.256zM26.89 9.122h-2.814v5.409h2.814V9.122zM98.33 4.17v2.893h-11.51V8.54h11.707v2.993H82.453V4.17H98.33zM74.631 0l4.074 10.54h-4.467L71.444 3.31h-1.909l-2.793 7.228h-4.466L66.348 0h8.283zM9.503 4.294v2.352H17v3.18H0v-3.18h5.135V4.294h4.368zM16.527 0v2.849c0 .426-.019.805-.059 1.135L16.252 5.8h-4.368l.217-1.859c.026-.26.045-.543.059-.846H.453V0h16.074zm82 0v3.073H82.454V0h16.075z" transform="translate(-808.000000, -3078.000000) translate(361.000000, 2778.000000) translate(432.000000, 264.000000) translate(15.000000, 36.000000)"/>
                    </g>
                </g>
            </g>
        </g>
    </g>
</svg>
