<svg xmlns="http://www.w3.org/2000/svg" width="149" height="38" viewBox="0 0 149 38">
    <defs>
        <linearGradient id="xa348ntoga" x1="-.006%" x2="100.01%" y1="49.998%" y2="49.998%">
            <stop offset="0%" stop-color="#009FE8"/>
            <stop offset="50%" stop-color="#574B9C"/>
            <stop offset="100%" stop-color="#E3007F"/>
        </linearGradient>
        <linearGradient id="ksq6vvfzmb" x1="-.003%" x2="100.007%" y1="49.997%" y2="49.997%">
            <stop offset="0%" stop-color="#009FE8"/>
            <stop offset="50%" stop-color="#574B9C"/>
            <stop offset="100%" stop-color="#E3007F"/>
        </linearGradient>
        <linearGradient id="dp97mo2igc" x1="-.002%" x2="100%" y1="50%" y2="50%">
            <stop offset="0%" stop-color="#DCE1E4"/>
            <stop offset="100%" stop-color="#838D94"/>
        </linearGradient>
    </defs>
    <g fill="none" fill-rule="evenodd">
        <g fill-rule="nonzero">
            <g>
                <g>
                    <path fill="url(#xa348ntoga)" d="M1.43 26.213c-.221 0-.444-.056-.646-.166-.414-.23-.666-.664-.666-1.134V13.93c0-.457.242-.88.636-1.113L21.396.44c.408-.243.913-.25 1.323-.02.414.23.667.663.667 1.133v10.98c0 .457-.242.88-.636 1.114L2.107 26.027c-.208.123-.44.186-.676.186zm1.314-11.55v7.944L20.76 11.8V3.857L2.744 14.663z" transform="translate(-360 -10) translate(360 10)"/>
                    <path fill="url(#ksq6vvfzmb)" d="M12.536 37.977c-.222 0-.444-.057-.646-.167-.414-.23-.667-.663-.667-1.133v-10.98c0-.457.243-.88.637-1.114l20.1-12.106c.404-.244.912-.25 1.323-.017.414.23.667.663.667 1.133v10.98c0 .457-.243.88-.637 1.114l-20.1 12.106c-.205.12-.441.184-.677.184zM13.85 26.43v7.943l17.475-10.54V15.89L13.849 26.43z" transform="translate(-360 -10) translate(360 10)"/>
                    <path fill="url(#dp97mo2igc)" d="M25.554 30.173c-.27 0-.535-.08-.76-.24L10.53 19.9c-.347-.243-.552-.64-.552-1.06V8.06c0-.487.272-.933.71-1.157.438-.223.963-.186 1.363.097l14.264 10.033c.346.244.552.64.552 1.06V28.87c0 .487-.276.933-.71 1.157-.192.096-.398.146-.603.146zm-12.95-12.006l11.634 8.186v-7.586L12.604 10.58v7.587z" transform="translate(-360 -10) translate(360 10)"/>
                </g>
                <g fill="#444F57">
                    <path d="M10.503 14.687L7.693 14.687 7.693 8.66 2.82 8.66 2.82 14.683.01 14.683.01.29 2.82.29 2.82 6.173 7.693 6.173 7.693.29 10.503.29zM27.383 14.687L17.9 14.687 17.9.29 27.383.29 27.383 2.797 20.713 2.797 20.713 6.173 26.393 6.173 26.393 8.68 20.713 8.68 20.713 12.177 27.383 12.177zM45.073 14.687H41.82l-2.81-5.74h-2.02v5.74h-2.81V.29h5.64c1.43 0 2.573.43 3.437 1.293.823.824 1.233 1.86 1.233 3.114 0 .943-.263 1.756-.79 2.443-.473.62-1.083 1.063-1.84 1.333l3.213 6.214zm-3.396-10c0-.577-.187-1.037-.557-1.377-.37-.343-.867-.513-1.487-.513h-2.646v3.78h2.646c.607 0 1.1-.174 1.477-.524.38-.346.567-.803.567-1.366zM62.34 14.687h-3.253l-2.81-5.74h-2.02v5.74h-2.81V.29h5.64c1.43 0 2.573.43 3.436 1.293.824.824 1.234 1.86 1.234 3.114 0 .943-.264 1.756-.79 2.443-.474.62-1.084 1.063-1.84 1.333l3.213 6.214zm-3.397-10c0-.577-.186-1.037-.556-1.377-.37-.343-.867-.513-1.487-.513h-2.647v3.78H56.9c.607 0 1.1-.174 1.477-.524.376-.346.566-.803.566-1.366zM78.19 14.687L68.707 14.687 68.707.29 78.19.29 78.19 2.797 71.52 2.797 71.52 6.173 77.2 6.173 77.2 8.68 71.52 8.68 71.52 12.177 78.19 12.177zM96 14.687L93.493 14.687 87.793 5.853 87.793 14.687 84.983 14.687 84.983.29 87.49.29 93.19 9.103 93.19.29 96 .29z" transform="translate(-360 -10) translate(360 10) translate(52 11)"/>
                </g>
            </g>
        </g>
    </g>
</svg>
