<svg xmlns="http://www.w3.org/2000/svg" width="340" height="675" viewBox="0 0 340 675">
    <g fill="none" fill-rule="evenodd">
        <g>
            <g>
                <g transform="translate(-10.000000, -1394.000000) translate(10.000000, 1110.000000) translate(0.000000, 284.000000) translate(0.000000, 3.000000)">
                    <path fill="#F5F5F5" fill-rule="nonzero" d="M310 29.4c16.6 0 30 13.4 30 30v582c0 16.6-13.4 30-30 30H30c-16.6 0-30-13.4-30-30v-582c0-16.6 13.4-30 30-30h280zm0 6H30C16.9 35.4 6.2 45.9 6 59v582.4c0 13.1 10.5 23.8 23.6 24H310c13.1 0 23.8-10.5 24-23.6V59.4c0-13.1-10.5-23.8-23.6-24h-.4z"/>
                    <g fill="#CCC" fill-rule="nonzero">
                        <path d="M192 13.6v3h-2v-3h2zm0 6v3h-2v-3h2zm0 6v3h-2v-3h2zm0 6v3h-2v-3h2zm0 6v3h-2v-3h2zm0-27.1l-2 .1c0-.9-.2-1.8-.5-2.6l1.9-.7c.3 1 .5 2.1.6 3.2zm-2.2-6.1l-1.6 1.2c-.5-.7-1.2-1.4-1.9-1.9l1.2-1.6c.9.6 1.6 1.4 2.3 2.3zM184.5.6l-.6 1.9c-.9-.3-1.7-.4-2.6-.5l.1-2c1 0 2.1.2 3.1.6zm-6.2-.6v2h-3V0h3zm-6 0v2h-3V0h3zm-6 0v2h-3V0h3zm-6 0v2h-3V0h3zm-6 0v2h-3V0h3zm-6 0v2h-3V0h3zm-6 0v2h-3V0h3zm-6 0v2h-3V0h3zm-6 0v2h-3V0h3zm-6 0v2h-3V0h3zm-6 0v2h-3V0h3zm-6 0v2h-3V0h3zm-6 0v2h-3V0h3zm-6 0v2h-3V0h3zm-6 0v2h-3V0h3zm-6 0v2h-3V0h3zm-6 0v2h-3V0h3zm-6 0v2h-3V0h3zm-6 0v2h-3V0h3zm-6 0v2h-3V0h3zm-6 0v2h-3V0h3zm-6 0v2h-3V0h3zm-6 0v2h-3V0h3zm-6 0v2h-3V0h3zm-6 0v2h-3V0h3zm-6 0v2h-3V0h3zm-6 0v2h-3V0h3zm-6 0v2h-3V0h3zm-5.9 2c-.9.1-1.8.3-2.6.6L7.1.7c1-.4 2.1-.6 3.2-.7l.1 2zm-5 2c-.7.6-1.3 1.2-1.8 2L1.9 4.9c.6-.9 1.4-1.7 2.2-2.4L5.4 4zm-3 4.3c-.3.9-.4 1.8-.4 2.7H0c0-1.1.2-2.2.5-3.2l1.9.5zM2 14v3H0v-3h2zm0 6v3H0v-3h2zm0 6v3H0v-3h2zm0 6v3H0v-3h2zm0 6v3H0v-3h2z" transform="translate(280.000000, 260.900000) rotate(90.000000) translate(-280.000000, -260.900000) translate(184.000000, 240.400000)"/>
                    </g>
                    <g fill="#CCC" fill-rule="nonzero">
                        <path d="M0 41v-3h2v3H0zm0-6v-3h2v3H0zm0-6v-3h2v3H0zm0-6v-3h2v3H0zm0-6v-3h2v3H0zm0-6c0-1.1.2-2.2.5-3.2l1.9.6c-.3.9-.4 1.8-.4 2.7H0V11zm1.9-6.2c.6-.9 1.4-1.7 2.2-2.4L5.3 4c-.7.6-1.3 1.2-1.8 2L1.9 4.8zM7 .7C8 .3 9.1.1 10.2 0l.1 2c-.9.1-1.8.3-2.6.6L7 .7zM13.3 2V0h3v2h-3zm6 0V0h3v2h-3zm6 0V0h3v2h-3zm6 0V0h3v2h-3zm6 0V0h3v2h-3zm6 0V0h3v2h-3zm6 0V0h3v2h-3zm6 0V0h3v2h-3zm6 0V0h3v2h-3zm6 0V0h3v2h-3zm6 0V0h3v2h-3zm6 0V0h3v2h-3zm6 0V0h3v2h-3zm6 0V0h3v2h-3zm6 0V0h3v2h-3zm6 0V0h3v2h-3zm6 0V0h3v2h-3zm6 0V0h3v2h-3zm6 0V0h3v2h-3zm6 0V0h3v2h-3zm6 0V0h3v2h-3zm6 0V0h3v2h-3zm6 0V0h3v2h-3zm6 0V0h3v2h-3zm6 0V0h3v2h-3zm6 0V0h3v2h-3zm6 0V0h3v2h-3zm6 0V0h3v2h-3zm6 0V0h3v2h-3zm6 0V0h3v2h-3zm6 0V0h3v2h-3zm6 0V0h3v2h-3zm6 0V0h3v2h-3zm6 0V0h3v2h-3zm6 0V0h3v2h-3zm6 0V0h3v2h-3zm6 0V0h3v2h-3zm6 0V0h3v2h-3zm6 0V0h3v2h-3zm6 0V0h3v2h-3zm6 0V0h3v2h-3zm6 0V0h3v2h-3zm6 0V0h3v2h-3zm6 0V0h3v2h-3zm6 0V0h3v2h-3zm6 0V0h3v2h-3zm6 0V0h3v2h-3zm6 0V0h3v2h-3zm6 0V0h3v2h-3zm6 0V0h3v2h-3zm6 0V0h3v2h-3zm6 0V0h3v2h-3zm6 0V0h3v2h-3zm6 0V0h3v2h-3zm6 0V0h3v2h-3zm6 0V0h3v2h-3zm6 0V0h3v2h-3zm6 0V0h3v2h-3zm6 0V0h3v2h-3zm6 0V0h3v2h-3zm6 0V0h3v2h-3zm6 0V0h1.7c.5 0 .9 0 1.4.1l-.3 2c-.4 0-.8-.1-1.2-.1h-1.6zm5.4.8l.8-1.8c1 .5 1.9 1.1 2.8 1.8L387 4.3c-.7-.6-1.4-1.1-2.3-1.5zm4 3.6l1.7-1c.6.9 1 2 1.3 3l-1.9.5c-.3-.9-.6-1.8-1.1-2.5zm1.3 32.2v-3h2v3h-2zm0-6v-3h2v3h-2zm0-6v-3h2v3h-2zm0-6v-3h2v3h-2zm0-6v-3h2v3h-2z" transform="translate(63.000000, 360.900000) rotate(-90.000000) translate(-63.000000, -360.900000) translate(-133.000000, 340.400000)"/>
                    </g>
                    <g fill="#CCC" fill-rule="nonzero">
                        <path d="M192 13.6v3h-2v-3h2zm0 6v3h-2v-3h2zm0 6v3h-2v-3h2zm0 6v3h-2v-3h2zm0 6v3h-2v-3h2zm0-27.1l-2 .1c0-.9-.2-1.8-.5-2.6l1.9-.7c.3 1 .5 2.1.6 3.2zm-2.2-6.1l-1.6 1.2c-.5-.7-1.2-1.4-1.9-1.9l1.2-1.6c.9.6 1.6 1.4 2.3 2.3zM184.5.6l-.6 1.9c-.9-.3-1.7-.4-2.6-.5l.1-2c1 0 2.1.2 3.1.6zm-6.2-.6v2h-3V0h3zm-6 0v2h-3V0h3zm-6 0v2h-3V0h3zm-6 0v2h-3V0h3zm-6 0v2h-3V0h3zm-6 0v2h-3V0h3zm-6 0v2h-3V0h3zm-6 0v2h-3V0h3zm-6 0v2h-3V0h3zm-6 0v2h-3V0h3zm-6 0v2h-3V0h3zm-6 0v2h-3V0h3zm-6 0v2h-3V0h3zm-6 0v2h-3V0h3zm-6 0v2h-3V0h3zm-6 0v2h-3V0h3zm-6 0v2h-3V0h3zm-6 0v2h-3V0h3zm-6 0v2h-3V0h3zm-6 0v2h-3V0h3zm-6 0v2h-3V0h3zm-6 0v2h-3V0h3zm-6 0v2h-3V0h3zm-6 0v2h-3V0h3zm-6 0v2h-3V0h3zm-6 0v2h-3V0h3zm-6 0v2h-3V0h3zm-6 0v2h-3V0h3zm-5.9 2c-.9.1-1.8.3-2.6.6L7.1.7c1-.4 2.1-.6 3.2-.7l.1 2zm-5 2c-.7.6-1.3 1.2-1.8 2L1.9 4.9c.6-.9 1.4-1.7 2.2-2.4L5.4 4zm-3 4.3c-.3.9-.4 1.8-.4 2.7H0c0-1.1.2-2.2.5-3.2l1.9.5zM2 14v3H0v-3h2zm0 6v3H0v-3h2zm0 6v3H0v-3h2zm0 6v3H0v-3h2zm0 6v3H0v-3h2z" transform="translate(280.000000, 470.900000) rotate(90.000000) translate(-280.000000, -470.900000) translate(184.000000, 450.400000)"/>
                    </g>
                    <path fill="#007DFF" d="M298 225.4c16.6 0 30 13.4 30 30s-13.4 30-30 30-30-13.4-30-30 13.4-30 30-30zM298 442.4c16.6 0 30 13.4 30 30s-13.4 30-30 30-30-13.4-30-30 13.4-30 30-30z"/>
                    <path fill="#FFF" fill-rule="nonzero" d="M291.6 246.2c.3-1 .3-1.9.3-2.7v-.8h-7v1.1h5.6c0 .7 0 1.4-.3 2.3l1.4.1zm1.3 1.7v-1.1h-4.3V245h-1.5v1.8h-3.4v1.1h9.2zm-4.6 4.4c2.2 0 3.6-.7 3.6-1.9s-1.4-1.9-3.6-1.9-3.6.7-3.6 1.9 1.4 1.9 3.6 1.9zm0-1c-1.4 0-2.1-.3-2.1-.8 0-.6.8-.8 2.1-.8 1.4 0 2.2.3 2.2.8s-.8.8-2.2.8zm14 1.1v-10.2h-1.5v10.2h1.5zm-2.9-2.4v-7H298v2.5h-2.1V243h-1.4v7h4.9zm-1.4-1.2h-2.1v-2.2h2.1v2.2zm14.5 3.6v-10.2H311v3.2h-1.9v1.2h1.9v5.8h1.5zm-7.7-2.1c1.1-.6 1.9-1.6 2.3-2.9.4 1.2 1.2 2.2 2.3 2.8l.9-1.2c-1.7-.7-2.4-2.6-2.4-4.5V243h-1.5v1.5c0 1.9-.8 3.9-2.5 4.7l.9 1.1zm-14 18.3c1.1 0 1.9-.4 2.6-1.2l-.9-1c-.4.5-1 .8-1.7.8-1.3 0-2.1-1.1-2.1-2.8 0-1.7.9-2.8 2.2-2.8.6 0 1.1.3 1.5.7l.9-1c-.5-.6-1.4-1-2.4-1-2.1 0-3.8 1.6-3.8 4.3-.1 2.5 1.6 4 3.7 4zm5.5-.2v-3.1h1.1l1.7 3.1h1.8l-1.9-3.3c.9-.4 1.6-1.1 1.6-2.3 0-1.9-1.4-2.5-3.1-2.5h-2.8v8.1h1.6zm1.1-4.4h-1.1v-2.5h1.1c1 0 1.6.3 1.6 1.2 0 .9-.6 1.3-1.6 1.3zm6.2 4.4V265c0-.8-.1-1.9-.2-2.7l.6 1.9 1.3 3.4h.9l1.3-3.4.7-1.9c-.1.8-.2 1.9-.2 2.7v3.4h1.5v-8.1h-1.8l-1.4 3.8c-.2.5-.3 1-.5 1.6h-.1c-.2-.5-.3-1.1-.5-1.6l-1.4-3.8H302v8.1h1.6zM291.6 463.2c.3-1 .3-1.9.3-2.7v-.8h-7v1.1h5.6c0 .7 0 1.4-.3 2.3l1.4.1zm1.3 1.7v-1.1h-4.3V462h-1.5v1.8h-3.4v1.1h9.2zm-4.6 4.4c2.2 0 3.6-.7 3.6-1.9s-1.4-1.9-3.6-1.9-3.6.7-3.6 1.9 1.4 1.9 3.6 1.9zm0-1c-1.4 0-2.1-.3-2.1-.8s.8-.8 2.1-.8c1.4 0 2.2.3 2.2.8s-.8.8-2.2.8zm14 1.1v-10.2h-1.5v10.2h1.5zm-2.9-2.4v-7H298v2.5h-2.1V460h-1.4v7h4.9zm-1.4-1.2h-2.1v-2.2h2.1v2.2zm14.5 3.6v-10.2H311v3.2h-1.9v1.2h1.9v5.8h1.5zm-7.7-2.1c1.1-.6 1.9-1.6 2.3-2.9.4 1.2 1.2 2.2 2.3 2.8l.9-1.2c-1.7-.7-2.4-2.6-2.4-4.5V460h-1.5v1.5c0 1.9-.8 3.9-2.5 4.7l.9 1.1zm-20.5 15.9v-8.3h-1.1v8.3h1.1zm-1.7-.4V475h-1.1v1.7h-1c-.3-.8-.8-1.2-1.5-1.2-1.1 0-1.8 1.1-1.8 3s.7 3 1.8 3c.7 0 1.2-.5 1.5-1.3h.9v2.6h1.2zm-3.6-2.4c-.5 0-.7-.6-.7-1.9 0-1.3.3-1.9.7-1.9.5 0 .7.6.7 1.9.1 1.2-.2 1.9-.7 1.9zm2.5-1.1h-.7v-.8c0-.3 0-.6-.1-.8h.7v1.6h.1zm10.5.5v-1h1.1v-1H292v-.8h1.1v-1H292v-1.1h-1.2v4.9h1.2zm-4.2-.4c1.3 0 2.2-.8 2.2-2s-1-2-2.2-2c-1.3 0-2.2.9-2.2 2-.1 1.1.9 2 2.2 2zm0-1c-.6 0-1.1-.4-1.1-1s.5-1 1.1-1c.6 0 1.1.4 1.1 1-.1.6-.5 1-1.1 1zm4.2 4.8v-3.1h-5.5v1h4.3v2.1h1.2zm10.7 0v-8.3h-1.2v2.6h-1.6v1h1.6v4.8h1.2v-.1zm-6.3-1.7c.9-.5 1.5-1.3 1.9-2.4.3 1 .9 1.8 1.9 2.2l.7-.9c-1.4-.6-2-2.1-2-3.7v-1.2h-1.2v1.2c0 1.6-.6 3.2-2 3.8l.7 1zm14.5 1.7v-8.3h-1.2v8.3h1.2zm-2.4-1.9v-5.7h-1.2v2h-1.7v-2h-1.2v5.7h4.1zm-1.1-1h-1.7v-1.8h1.7v1.8zm11.7-.5l.5-1c-1.9-.3-2.9-1.6-2.9-2.8v-.6h-1.3v.6c0 1.2-1 2.5-2.9 2.8l.5 1c1.4-.3 2.5-1.1 3-2.1.6 1 1.6 1.8 3.1 2.1zm.7 2.4v-1h-7.5v1h7.5z"/>
                    <path fill="#000" fill-rule="nonzero" d="M146.3 38c1.3 0 2.3.4 3.1 1.2.8.8 1.2 1.9 1.2 3.2v2.5c0 1.3-.4 2.4-1.2 3.2-.8.8-1.9 1.2-3.1 1.2h-18.7c-1.3 0-2.3-.4-3.1-1.2-.8-.8-1.2-1.9-1.2-3.2v-2.5c0-1.3.4-2.4 1.2-3.2.8-.8 1.9-1.2 3.1-1.2h18.7zM185 20.4v29h-7.4v-29h7.4zm32 0v29h-7.4V36.5h-4.3v-5.6h4.3V20.4h7.4zm-54.4.7v8.8h4.5v-8.8h6.3v28H156v-28h6.6zm40.5 0l3 28h-6.8l-2.4-22.6h-.6l-2.4 22.6H187l3-28h13.1zm-60 21.1H131c-.3 0-.5.1-.7.3-.2.2-.3.4-.3.7v.8c0 .3.1.5.2.7.2.2.4.2.7.2H143c.3 0 .5-.1.7-.2.2-.2.2-.4.2-.7v-.8c0-.3-.1-.5-.3-.7 0-.2-.3-.3-.5-.3zm24-7.1h-4.5v8.7h4.5v-8.7zm-28.4-7.8v3.8H151v5.1h-28v-5.1h8.5v-3.8h7.2zm11.5-6.9V25c0 .7 0 1.3-.1 1.8l-.4 2.9h-7.2l.4-3c0-.4.1-.9.1-1.4h-19.3v-5h26.5v.1zM119.7 3.7c.3-1 .3-1.7.3-2.5V.5h-6.4v1h5.1c0 .6 0 1.2-.2 2.1l1.2.1zm1.3 1.5v-1h-3.9V2.6h-1.3v1.6h-3.1v1h8.3zm-4.2 4.1c2 0 3.3-.7 3.3-1.7 0-1.1-1.3-1.7-3.3-1.7-2 0-3.3.7-3.3 1.7s1.3 1.7 3.3 1.7zm0-1c-1.2 0-2-.2-2-.7 0-.5.7-.8 2-.8 1.2 0 2 .2 2 .8-.1.4-.8.7-2 .7zm13.8 1V0h-1.2v3.5h-.8V.2h-1.2v8.6h1.2V4.6h.8v4.6h1.2v.1zm-7-2.1c1.2 0 2.2 0 3.3-.2l-.1-1.1c-.9.2-1.7.2-2.5.2V2.2h2.1V1.1H123v6.1h.6zm16.4-2V3.1h1.2V2H140V.1h-1.3v5.2l1.3-.1zm-6.1-.4c1.3 0 2.7-.1 4.2-.4l-.2-1.1c-1.2.2-2.4.3-3.5.4V.5h-1.3v4.3h.8zm6.1 4.4V5.7h-6v3.5h6zm-1.3-1.1h-3.4V6.7h3.4v1.4zm11.7 1.2V0h-1.3v9.2h1.3v.1zm-4.7-4.1c1.4 0 2.5-.9 2.5-2.3 0-1.3-1.1-2.3-2.5-2.3s-2.5.9-2.5 2.3 1.1 2.3 2.5 2.3zm0-1.1c-.7 0-1.2-.4-1.2-1.1 0-.7.5-1.1 1.2-1.1s1.2.4 1.2 1.1c0 .7-.5 1.1-1.2 1.1zm3 2.9l-.1-.9c-1.9.3-4.2.3-5.8.3l.2 1c1.5 0 3.7 0 5.7-.4zm14.8 2.3V0h-1.3v9.2h1.3v.1zm-2.6-2.2V.8h-1.3V3h-1.9V.8h-1.3v6.3h4.5zm-1.3-1h-1.9v-2h1.9v2zm13.9 3.2V.1h-1.3v9.2h1.3zm-6.9-1.8c1.1-.5 1.8-1.5 2.2-2.7.4 1.1 1.1 2 2.2 2.5l.7-1c-1.5-.6-2.3-2.2-2.3-3.7V2h1.9V.9h-5.2V2h1.9v.5c0 1.6-.8 3.3-2.3 3.9l.9 1.1zm17 1.8V0h-1.3v9.2h1.3v.1zM177.2 7c1.4 0 2.9-.1 4.5-.4l-.1-1.1c-1.4.3-2.7.4-3.9.4v-5h-1.3V7h.8zm16.3-1.5l.5-1.1c-2.1-.4-3.2-1.8-3.2-3.1V.6h-1.4v.7c0 1.3-1.1 2.8-3.2 3.1l.6 1.1c1.6-.3 2.8-1.2 3.4-2.4.5 1.2 1.7 2.1 3.3 2.4zm.8 2.6V7H186v1.1h8.3zm12.5 1.2V0h-1.3v2.9h-1.8V4h1.8v5.3h1.3zm-7-1.9c1-.5 1.7-1.5 2.1-2.7.4 1.1 1.1 2 2.1 2.5l.8-1.1c-1.5-.7-2.2-2.4-2.2-4.1V.8h-1.3v1.3c0 1.8-.7 3.5-2.3 4.3l.8 1zm17 1.9V0h-1.3v9.2h1.3v.1zm-2.7-2.2V.8h-1.3V3h-1.9V.8h-1.3v6.3h4.5zm-1.3-1h-1.9v-2h1.9v2zm13.9-.6l.6-1.1c-2.1-.4-3.2-1.8-3.2-3.1V.6h-1.4v.7c0 1.3-1.1 2.8-3.2 3.1l.6 1.1c1.6-.3 2.8-1.2 3.4-2.4.4 1.2 1.6 2.1 3.2 2.4zm.8 2.6V7h-8.3v1.1h8.3z"/>
                    <g stroke="#CCC" stroke-dasharray="3" stroke-width="2">
                        <path d="M14.5 0.5L0 0.5" transform="translate(68.500000, 368.900000)"/>
                    </g>
                    <path fill="#000" fill-rule="nonzero" d="M42 339.4c16.6 0 30 13.4 30 30s-13.4 30-30 30-30-13.4-30-30 13.4-30 30-30z"/>
                    <path fill="#FFF" fill-rule="nonzero" d="M35.6 360.2c.3-1 .3-1.9.3-2.7v-.8h-7v1.1h5.6c0 .7 0 1.4-.3 2.3l1.4.1zm1.3 1.7v-1.1h-4.3V359h-1.5v1.8h-3.4v1.1h9.2zm-4.6 4.4c2.2 0 3.6-.7 3.6-1.9s-1.4-1.9-3.6-1.9-3.6.7-3.6 1.9 1.4 1.9 3.6 1.9zm0-1c-1.4 0-2.1-.3-2.1-.8s.8-.8 2.1-.8c1.4 0 2.2.3 2.2.8s-.8.8-2.2.8zm14 1.1v-10.2h-1.5v10.2h1.5zm-2.9-2.4v-7H42v2.5h-2.1V357h-1.4v7h4.9zm-1.4-1.2h-2.1v-2.2H42v2.2zm14.5 3.6v-10.2H55v3.2h-1.9v1.2H55v5.8h1.5zm-7.7-2.1c1.1-.6 1.9-1.6 2.3-2.9.4 1.2 1.2 2.2 2.3 2.8l.9-1.2c-1.7-.7-2.4-2.6-2.4-4.5V357h-1.5v1.5c0 1.9-.8 3.9-2.5 4.7l.9 1.1zM36 379.2l.6-1.2c-2.3-.4-3.5-2-3.5-3.5v-.7h-1.6v.7c0 1.5-1.3 3.1-3.5 3.5l.6 1.2c1.8-.3 3-1.3 3.7-2.6.7 1.3 2 2.2 3.7 2.6zm1 2.9v-1.2h-9.2v1.2H37zm10.1.1V381h-3.9v-1.6h2.9v-1.1h-5.6v-1.1h5.3v-1.1h-5.3v-1H46v-1.2h-7v5.5h2.8v1.7h-3.9v1.2h9.2v-.1zm9.4 1.2v-10.2H55v3.7h-1.7c-.2-1.8-1.2-2.9-2.6-2.9-1.5 0-2.6 1.4-2.6 3.6s1.1 3.6 2.6 3.6c1.4 0 2.4-1.2 2.6-3.1H55v5.3h1.5zm-5.7-3.6c-.7 0-1.2-.8-1.2-2.3 0-1.5.5-2.3 1.2-2.3s1.2.8 1.2 2.3c0 1.5-.4 2.3-1.2 2.3z"/>
                    <circle cx="170" cy="166.4" r="87" fill="#F6F6F6"/>
                    <circle cx="170" cy="360.4" r="87" fill="#F6F6F6"/>
                    <circle cx="170" cy="554.4" r="87" fill="#F6F6F6"/>
                    <path fill="#000" fill-rule="nonzero" d="M145.8 122.4V112h-2.1v10.4h2.1zm6.7 0v-8.6h2.9v-1.7h-7.9v1.7h2.9v8.6h2.1zm18 1.2v-12.9h-1.8v4h-2.5v1.5h2.5v7.4h1.8zm-9.9-2.6c1.4-.7 2.4-2.1 3-3.7.5 1.6 1.5 2.8 2.9 3.5l1.1-1.5c-2.1-1-3.1-3.3-3.1-5.8v-1.9h-1.9v1.9c0 2.4-1 5-3.2 6l1.2 1.5zm22.6 2.6v-12.9h-1.8v12.9h1.8zm-3.7-3v-8.9h-1.8v3.1H175v-3.1h-1.8v8.9h6.3zm-1.8-1.4H175v-2.9h2.7v2.9zm18.2-.9l.8-1.5c-2.9-.5-4.5-2.5-4.5-4.4v-.9h-2v.9c0 1.8-1.6 3.9-4.5 4.4l.8 1.5c2.2-.4 3.9-1.7 4.7-3.3.8 1.6 2.4 2.9 4.7 3.3zm1.2 3.7v-1.5h-11.7v1.5h11.7zM147.1 311.8v-5.6h-1.8v1.4H140v-1.4h-1.8v5.6h8.9zm-1.8-1.5H140V309h5.3v1.3zm-4 8.3v-4.1h2.8v4.1h1.9v-4.1h2.6V313h-11.7v1.5h2.6v4.1h1.8zm19.1 0v-12.9h-1.9v12.9h1.9zm-8.9-2.9c2.3 0 4.1-.1 6.1-.4l-.2-1.5c-1.8.3-3.3.3-5.2.4v-2.4h4.1v-1.4h-4.1v-2.1h4.7v-1.5h-6.5v8.9h1.1zm24.3 2.9v-6.4h1.9v-1.5h-1.9v-5H174v12.9h1.8zm-9.2-2.6c1.5-.7 2.4-2.1 3-3.7.5 1.5 1.4 2.8 2.8 3.5l1.1-1.5c-2.1-1-3-3.4-3-5.7v-1.9h-1.9v1.9c0 2.4-1 4.9-3.1 5.9l1.1 1.5zm22.8-3.4v-6.9h-1.8v2.8h-2.1c-.4-1.4-1.7-2.3-3.3-2.3-1.9 0-3.4 1.3-3.4 3.1s1.5 3.1 3.4 3.1c1.7 0 3-1 3.3-2.4h2v2.6h1.9zm-7.2-1.7c-.9 0-1.6-.6-1.6-1.5s.7-1.5 1.6-1.5c1 0 1.6.6 1.6 1.5s-.7 1.5-1.6 1.5zm7.2 7.5v-5.2h-1.8v1.2h-4.9v-1.2h-1.8v5.2h8.5zm-1.8-1.4h-4.9v-1.2h4.9v1.2zm14 1.6v-6.5h1.9v-1.5h-1.9v-4.9h-1.8v12.9h1.8zm-9.3-2.4c1.5-.7 2.5-2.1 3.1-3.8.6 1.5 1.6 2.8 3 3.5l1-1.5c-2.1-1-3.1-3.3-3.1-5.2v-.7h2.6V307h-7.1v1.5h2.7v.7c0 2.1-1.1 4.5-3.2 5.5l1 1.5zM167.8 507.2c.5-2.5.5-4.2.5-5.7v-1.7H159v1.5h7.5c0 1.5 0 3.3-.5 5.7l1.8.2zm1.7 2.9v-1.5h-5.7v-4.4H162v4.4h-4.1v1.5h11.6zm12.2-3.9v-7.5h-1.8v3h-1.1v-2.8h-1.7v7.3h1.7v-3h1.1v3.1h1.8v-.1zm-10.3.1c3.4-1.3 4.9-3.5 4.9-6.7h-5.1v1.5h3.2c-.3 1.7-1.4 3-3.8 3.9l.8 1.3zm10.3 5.3v-4.8h-8.9v1.5h7.1v3.4h1.8v-.1zM127.6 155.1c.3-1.6.3-2.7.3-3.7v-1.3h-6.3v.7h5.5v.7c0 1 0 2.1-.3 3.6h.8zm1.3 1.8v-.7h-4.1V153h-.8v3.2h-3.2v.7h8.1zm8.7-2.4v-5.3h-.8v2.2h-1.2v-2.1h-.8v5.1h.8v-2.3h1.2v2.4h.8zm-7.1 0c2.3-1 3.4-2.6 3.4-4.7h-3.5v.7h2.7c-.1 1.5-1.2 2.7-3 3.4l.4.6zm7.1 3.6v-3.3h-6v.7h5.2v2.6h.8zm1.9 1.1l3-9.7h-.7l-3 9.7h.7zm11.3-1.1v-9h-.8v9h.8zm-1.8-.4v-8.3h-.8v2h-1.4c-.3-.9-.9-1.4-1.7-1.4-1.2 0-1.9 1.2-1.9 3.1 0 1.9.8 3.1 1.9 3.1.8 0 1.4-.5 1.7-1.4h1.4v2.9h.8zm-3.8-2.3c-.7 0-1.2-.9-1.2-2.4 0-1.4.5-2.4 1.2-2.4s1.2.9 1.2 2.4c-.1 1.5-.5 2.4-1.2 2.4zm3-1.3H147c.1-.3.1-.6.1-1s0-.7-.1-1h1.2v2zm11.1.4v-1.4h1.3v-.7h-1.3v-1.2h1.3v-.7h-1.3v-1.4h-.8v5.3l.8.1zm-4.4-.5c1.4 0 2.3-.9 2.3-2.1 0-1.3-1-2.1-2.3-2.1-1.4 0-2.3.9-2.3 2.1-.1 1.2.9 2.1 2.3 2.1zm0-.7c-.9 0-1.5-.6-1.5-1.4 0-.8.6-1.4 1.5-1.4s1.5.6 1.5 1.4c0 .8-.6 1.4-1.5 1.4zm4.4 4.8v-3.2h-5.8v.7h5v2.6h.8v-.1zm11.5-2.2v-3.2h1.3v-.7h-1.3v-2.9h-.8v6.8h.8zm-2.3-2.9c.2-1.2.2-2.1.2-2.7v-.5h-4.5v.7h3.7c0 .6 0 1.3-.2 2.4l.8.1zm-4.7 1.5c1.6 0 3.7-.1 5.6-.4l-.1-.6c-.9.1-1.9.2-2.9.2v-1.9h-.8v1.9h-1.9l.1.8zm7.3 3.4v-.7H166v-2h-.8v2.6l5.9.1zm9.3.3v-9h-.8v9h.8zm-6.2-2.2c1.5 0 2.9-.1 4.5-.3l-.1-.7c-1.6.2-2.9.3-4.4.3v-2.1h3.3V150h-4.2v.7h3.3v1.9h-3.3v3.4h.9zm17.6-1.5v-.7h-1.4v-3.1h1.4v-.7h-6.7v.7h1.4v3.1h-1.4v.7h6.7zm-2.2-.7h-2.2v-3.1h2.2v3.1zm3 3.2v-.7h-8.1v.7h8.1zm9.2 0v-.6h-3.7v-1.7h2.9v-.7h-5.5v-1.4h5.3v-2.7h-6.1v.7h5.3v1.4h-5.3v2.8h2.6v1.7h-3.7v.7h8.2v-.2zm7.7-1.6c.4-1.9.4-3.2.4-4.4v-.9h-6.2v.7h5.3v.2c0 1.1 0 2.5-.4 4.3l.9.1zm1.4 1.4v-.7h-8.1v.7h8.1zm8.7-2.3v-5.4h-.8v2.3h-1.2v-2.1h-.8v5.1h.8v-2.3h1.2v2.4h.8zm-6.6-.4c1.3 0 2.2-.1 3.4-.3l-.1-.7c-1.1.2-1.9.3-3.1.3v-1.3h2.6v-2.4h-3.4v.7h2.6v1.2h-2.6v2.6h.6v-.1zm6.6 3.9v-3.1h-5.9v3.1h5.9zm-.8-.6h-4.3v-1.8h4.3v1.8zm-69.7 15.1c1.8 0 3.1-1.5 3.1-3.8s-1.3-3.8-3.1-3.8-3.1 1.4-3.1 3.8 1.3 3.8 3.1 3.8zm0-.8c-1.3 0-2.2-1.2-2.2-3s.9-3 2.2-3c1.3 0 2.2 1.1 2.2 3 0 1.8-.9 3-2.2 3zm8.8.7v-.8h-2c-.4 0-.8 0-1.2.1 1.7-1.6 2.9-3.1 2.9-4.6 0-1.3-.8-2.2-2.1-2.2-.9 0-1.6.4-2.2 1.1l.5.5c.4-.5.9-.9 1.5-.9.9 0 1.3.6 1.3 1.4 0 1.3-1.1 2.7-3.4 4.7v.5h4.7v.2zm4.2.1c1.8 0 3.1-1.5 3.1-3.8s-1.3-3.8-3.1-3.8-3.1 1.4-3.1 3.8c-.1 2.4 1.2 3.8 3.1 3.8zm0-.8c-1.3 0-2.2-1.2-2.2-3s.9-3 2.2-3c1.3 0 2.2 1.1 2.2 3-.1 1.8-.9 3-2.2 3zm13.8 1.5v-9h-.8v3H173v.7h2.1v5.3h.8zm-6.9-2c1-.5 1.8-1.7 2.2-3 .4 1.3 1.2 2.3 2.2 2.8l.5-.6c-1.3-.6-2.3-2.2-2.3-3.9v-1.6h-.8v1.6c0 1.7-1 3.4-2.3 4l.5.7zm16.1 2v-9h-.8v9h.8zm-2.6-2.2v-6.1h-.8v2.4h-2.6v-2.4h-.8v6.1h4.2zm-.8-.7h-2.6v-2.4h2.6v2.4zm12.6-.9l.4-.7c-1.6-.3-3.3-1.7-3.3-3.2v-.7h-.9v.7c0 1.5-1.7 2.9-3.3 3.2l.4.7c1.4-.3 2.8-1.3 3.3-2.6.6 1.3 2 2.2 3.4 2.6zm.8 2.5v-.7H187v.7h8.1zm-59.6 12.7v-.7h-3.6v-.9c1.7-.1 2.7-.7 2.7-1.8s-1.2-1.8-3.1-1.8c-1.9 0-3.2.7-3.2 1.8 0 1 1.1 1.7 2.8 1.8v.9h-3.6v.7h8zm-4.1-2.3c-1.4 0-2.3-.4-2.3-1.1 0-.7.9-1.1 2.3-1.1s2.3.4 2.3 1.1c.1.7-.8 1.1-2.3 1.1zm3.2 5.6v-.7h-5.4v-1.9h-.8v2.6h6.2zm8.9.3v-4.8h1.5v-.7h-1.5v-3.6h-.8v9h.8v.1zm-5.8-2.2c1.7 0 2.9-.1 4.3-.3l-.1-.7c-1.3.3-2.5.3-4.1.3v-2.1h3.2V180h-4.1v.7h3.2v1.9H137v3.4h.7zm15.4-.3v-6.6h-.8v6.6h.8zm-4.8-1.5c1.3 0 2.3-.9 2.3-2.2 0-1.3-1-2.2-2.3-2.2-1.3 0-2.3.9-2.3 2.2 0 1.3 1 2.2 2.3 2.2zm0-.7c-.9 0-1.5-.6-1.5-1.5s.7-1.5 1.5-1.5c.9 0 1.6.6 1.6 1.5s-.7 1.5-1.6 1.5zm5.1 4.4v-.7h-5.2V185h-.8v2.9h6zm10.7.2v-4.7h1.5v-.7h-1.5v-3.6h-.8v9h.8zm-2.4-2.2v-5.8h-4.1v5.8h4.1zm-.8-.7h-2.5v-4.5h2.5v4.5zm13.2 2.9v-9h-.8v9h.8zm-1.9-.4v-8.3h-.8v3.3H170c.2-.8.4-1.6.4-2.5H167v.7h2.6c0 .5-.1 1-.2 1.4l-2.9.2.1.7 2.5-.2c-.4 1.1-1.3 2-2.6 2.7l.5.6c1.4-.8 2.3-1.8 2.8-2.9h1.7v4.3h.7zm10.8-3v-5.6h-.8v5.6h.8zm-1.8-.9l-.1-.6c-1.2.2-2.3.2-4.2.2v-1.2h3.2v-.6H177v-1.1h3.5v-.7h-4.3v4.3h.7c1.9 0 3-.1 4.3-.3zm-1.2 4.3c1.9 0 3-.6 3-1.6 0-1.1-1.1-1.6-3-1.6s-3 .6-3 1.6 1.1 1.6 3 1.6zm0-.6c-1.4 0-2.2-.4-2.2-1s.8-1 2.2-1c1.4 0 2.2.4 2.2 1s-.8 1-2.2 1zm14.5.7v-9h-.8v3h-2.1v.7h2.1v5.3h.8zm-6.9-2c1-.5 1.8-1.7 2.2-3 .4 1.3 1.2 2.3 2.2 2.8l.5-.6c-1.3-.6-2.3-2.2-2.3-3.9v-1.6h-.8v1.6c0 1.7-1 3.4-2.3 4l.5.7zm16 2v-9h-.8v9h.8zM201 186v-6.1h-.8v2.4h-2.6v-2.4h-.8v6.1h4.2zm-.8-.7h-2.6v-2.4h2.6v2.4zm12.6-.9l.4-.7c-1.6-.3-3.3-1.7-3.3-3.2v-.7h-.9v.7c0 1.5-1.7 2.9-3.3 3.2l.4.7c1.4-.3 2.8-1.3 3.3-2.6.7 1.3 2.1 2.2 3.4 2.6zm.8 2.5v-.7h-8.1v.7h8.1zm-73.5 12.7v-.7h-3.6v-.9c1.7-.1 2.7-.7 2.7-1.8s-1.2-1.8-3.1-1.8c-1.9 0-3.2.7-3.2 1.8 0 1 1.1 1.7 2.8 1.8v.9H132v.7h8.1zm-4-2.3c-1.4 0-2.3-.4-2.3-1.1 0-.7.9-1.1 2.3-1.1s2.3.4 2.3 1.1c0 .7-1 1.1-2.3 1.1zm3.1 5.6v-.7h-5.3v-1.9h-.9v2.6h6.2zm8.9.3v-4.8h1.5v-.7h-1.5v-3.6h-.8v9h.8v.1zm-5.8-2.2c1.7 0 2.9-.1 4.3-.3l-.1-.7c-1.3.3-2.5.3-4.1.3v-2.1h3.2V195h-4.1v.7h3.2v1.9h-3.2v3.4h.8zm15.5-.3v-6.6h-.8v6.6h.8zm-4.9-1.5c1.3 0 2.4-.9 2.4-2.2 0-1.3-1-2.2-2.4-2.2-1.3 0-2.3.9-2.3 2.2 0 1.3 1 2.2 2.3 2.2zm0-.7c-.9 0-1.5-.6-1.5-1.5s.7-1.5 1.5-1.5c.9 0 1.6.6 1.6 1.5s-.7 1.5-1.6 1.5zm5.1 4.4v-.7h-5.2V200h-.8v2.9h6zm10.7-2.9c.3-1.7.3-2.8.3-4v-1h-6.3v.7h5.5v.3c0 1.1 0 2.3-.3 3.9l.8.1zm1.2 1.9v-.7h-3.1v-3h-.8v3h-1.4v-3h-.8v3h-2v.7h8.1zm5.2-4.1c1.9 0 3.1-.6 3.1-1.7s-1.2-1.7-3.1-1.7c-1.9 0-3.2.6-3.2 1.7s1.2 1.7 3.2 1.7zm0-.6c-1.4 0-2.3-.4-2.3-1.1 0-.7.9-1.1 2.3-1.1s2.3.4 2.3 1.1c0 .7-.9 1.1-2.3 1.1zm3 6v-2.9H177v-1.1h2.1v-.7H171v.7h2.1v1.1h-1.2v.7h5.4v2.2h.8zm-1.9-2.9H174v-1.1h2.2v1.1zm13.7 2.9v-9h-.9v3h-2v.7h2.1v5.3h.8zm-6.9-2c1-.5 1.8-1.7 2.2-3 .4 1.3 1.2 2.3 2.2 2.8l.5-.6c-1.3-.6-2.3-2.2-2.3-3.9v-1.6h-.8v1.6c0 1.7-1 3.4-2.3 4l.5.7zm16 2v-9h-.8v9h.8zm-2.6-2.2v-6.1h-.8v2.4H193v-2.4h-.8v6.1h4.2zm-.8-.7H193v-2.4h2.6v2.4zm12.6-.9l.4-.7c-1.6-.3-3.3-1.7-3.3-3.2v-.7h-.9v.7c0 1.5-1.7 2.9-3.3 3.2l.4.7c1.3-.3 2.8-1.3 3.3-2.6.7 1.3 2.1 2.2 3.4 2.6zm.8 2.5v-.7h-8.1v.7h8.1zm-53.9 11.4v-3.8h-.8v1.2h-4.4v-1.2h-.8v3.8h6zm-.8-.6h-4.4v-1.3h4.4v1.3zm-3.4 5.4V215h2.4v3.1h.8V215h2.1v-.6H148v.7h2.1v3.1h.8v-.1zm13.7 0v-9h-.8v9h.8zm-6.1-2.1c1.7 0 2.9-.1 4.3-.3l-.1-.7c-1.3.2-2.5.3-4.1.3v-2.2h3.2v-.7h-3.2v-1.9h3.5v-.7h-4.3v6h.7v.2zm15.4-1.9l.3-.7c-1.6-.3-3.3-1.5-3.3-3v-.7h-.9v.7c0 1.5-1.7 2.7-3.3 3l.3.7c1.4-.3 2.8-1.2 3.4-2.4.7 1.2 2.1 2.1 3.5 2.4zm.7 2.9v-.7h-2.2v-2h-.8v2h-2.1v-2h-.8v2h-2.2v.7h8.1zm8.4-2.3v-5.5h-.8v5.5h.8zm-1.7-1l-.1-.6c-.4.1-.9.1-1.3.1v-2.6h.9v-.7H176v.7h.9v2.7h-1.1l.1.7c1.5 0 3.6 0 5.4-.3zm-3.6-.4v-2.7h1.5v2.7h-1.5zm2.3 4.8c1.9 0 3-.6 3-1.6 0-1.1-1.1-1.6-3-1.6s-3 .6-3 1.6 1.2 1.6 3 1.6zm0-.6c-1.4 0-2.2-.4-2.2-1s.8-1 2.2-1c1.4 0 2.2.4 2.2 1s-.8 1-2.2 1zm12.9-3.7v-.7h-3.7v-.9h2.6v-2.7h-6v2.7h2.6v.9h-3.6v.7h8.1zm-1.8-2.3h-4.4v-1.4h4.4v1.4zm1.1 6.5v-.6h-5.5v-.9h5.3v-2h-6.1v.6h5.3v.8h-5.3v2.1h6.3zM160 341.2v-9h-.8v9h.8zm-4.8-2.1c1.3 0 2.3-1.2 2.3-3.1 0-1.9-.9-3.1-2.3-3.1s-2.3 1.2-2.3 3.1c0 1.9 1 3.1 2.3 3.1zm0-.7c-.9 0-1.5-.9-1.5-2.4 0-1.4.6-2.4 1.5-2.4s1.5.9 1.5 2.4c0 1.4-.6 2.4-1.5 2.4zm14 2.8v-9h-.8v9h.8zm-2.7-2.3v-5.8h-4.1v5.8h4.1zm-.8-.7h-2.5v-4.5h2.5v4.5zm13.4-.9v-.7h-2v-1.3c.7-.3 1.1-.7 1.1-1.3 0-1.1-1.2-1.7-3.1-1.7-1.9 0-3.2.6-3.2 1.7 0 .6.4 1.1 1.1 1.4v1.3h-2v.7h8.1v-.1zm-4-2.3c-1.4 0-2.3-.4-2.3-1s.9-1 2.3-1 2.3.4 2.3 1-.9 1-2.3 1zm1.2 1.6h-2.5v-1c.4.1.8.1 1.2.1.5 0 .9 0 1.2-.1v1h.1zm-1.2 4.5c1.9 0 3.1-.6 3.1-1.6s-1.1-1.6-3.1-1.6c-1.9 0-3.1.6-3.1 1.6 0 1.1 1.2 1.6 3.1 1.6zm0-.6c-1.4 0-2.2-.4-2.2-1s.8-1 2.2-1c1.4 0 2.2.4 2.2 1 0 .7-.8 1-2.2 1zm12.5-3.7v-4.6h-.8v4.6h.8zm-6.9-.1c1.1-.4 1.9-1.2 2.3-2.2.4.9 1.2 1.7 2.3 2.1l.4-.6c-1.3-.4-2.3-1.6-2.3-2.8v-.8h-.8v.7c0 1.3-.9 2.5-2.3 3l.4.6zm7.2 4.3v-.6h-5.3v-1h5v-2.2h-5.8v.6h5v.9h-5v2.2h6.1v.1zm-23 15.1v-9h-.8v9h.8zm-2-.4v-8.3h-.8v2.8h-2v.7h2v4.8h.8zm-4.7-1.8c1.1 0 2.1-.1 3.2-.3l-.1-.7c-1 .2-1.9.3-2.9.3v-5h-.8v5.7h.6zm15.6-2.1v-4.6h-.8v4.6h.8zm-4.9-.3c1.3 0 2.3-.8 2.3-2s-1-2-2.3-2c-1.3 0-2.3.8-2.3 2s1 2 2.3 2zm0-.7c-.9 0-1.5-.6-1.5-1.3 0-.8.7-1.3 1.5-1.3.9 0 1.5.5 1.5 1.3.1.8-.6 1.3-1.5 1.3zm5.2 5.2v-.6h-5.3v-1h5v-2.2H168v.6h5v.9h-5v2.2h6.1v.1zm8.5-3.9v-1.2h1.3v-.7h-1.3v-1.1h1.3v-.7h-1.3v-1.2h-.8v4.9h.8zm-6.6 0c1.1-.4 1.9-1.2 2.2-2.2.4.9 1.2 1.6 2.2 2l.4-.6c-1.3-.5-2.2-1.6-2.2-2.8v-.9h-.8v.9c0 1.3-.9 2.5-2.2 3l.4.6zm6.6 3.9v-3.5h-.8v1.1h-4v-1.1h-.8v3.5h5.6zm-.8-.6h-4v-1.1h4v1.1zm-42.2 15.7v-9h-.8v9h.8zm-7.2-2.2c1.6 0 3.8 0 5.7-.3l-.1-.6c-.5.1-1 .1-1.5.1v-4.3h1v-.7h-5.1v.7h1v4.4h-1.2l.2.7zm1.9-.7v-4.4h1.5v4.4h-1.5zm14.3-1.8v-3.9h-.8v1.2h-4.4v-1.2h-.8v3.9h6zm-.8-.7h-4.4v-1.3h4.4v1.3zm-1.9 5.5v-3h3.7v-.7h-8.1v.7h3.6v3h.8zm11.7-2.3v-3.2h1.3v-.7h-1.3v-2.9h-.8v6.8h.8zm-2.2-2.9c.2-1.1.2-1.9.2-2.5v-.6h-4.5v.7h3.7c0 .6 0 1.3-.2 2.4h.8zm-4.7 1.5c1.6 0 3.7-.1 5.6-.4l-.1-.6c-.9.1-1.9.2-2.9.2v-1.9h-.8v1.9h-1.9l.1.8zm7.2 3.4v-.7h-5.1v-2h-.8v2.6h5.9v.1zm9.3.3v-9h-.8v9h.8zm-6.1-2.2c1.5 0 2.9-.1 4.5-.3l-.1-.7c-1.6.2-2.9.3-4.4.3v-2.1h3.3V363h-4.2v.7h3.3v1.9h-3.3v3.4h.9zm8.2 3.2l3-9.7h-.7l-3 9.7h.7zm10.6-1.1v-4.7h1.5v-.7h-1.5v-3.6h-.8v9h.8zm-2.4-2.2v-5.8h-4.1v5.8h4.1zm-.8-.7h-2.5v-4.5h2.5v4.5zm12.4 2.9v-4.6h1.5v-.7h-1.5v-3.6h-.8v9l.8-.1zm-6.5-1.9c1-.5 1.8-1.7 2.2-3 .4 1.2 1.2 2.3 2.2 2.8l.5-.6c-1.3-.6-2.3-2.3-2.3-3.8V363h-.8v1.6c0 1.6-1 3.4-2.3 4l.5.6zm16.1 1.9v-9h-.8v9h.8zm-6.8-1.7c1-.5 1.9-1.6 2.3-3 .4 1.2 1.3 2.3 2.4 2.7l.5-.7c-1.3-.6-2.4-2.1-2.4-3.6v-1.1h2.1v-.7h-5v.7h2.1v1.1c0 1.5-1.1 3.2-2.4 3.8l.4.8zm15.7-2.3v-1.2h1.3v-.7h-1.3v-1.1h1.3v-.7h-1.3v-1.2h-.8v4.9h.8zm-6.6 0c1.1-.4 1.9-1.2 2.2-2.2.4.9 1.2 1.6 2.1 2l.4-.6c-1.3-.5-2.2-1.6-2.2-2.8v-.9h-.8v.9c0 1.3-.9 2.5-2.2 3l.5.6zm6.6 3.9v-3.5h-.8v1.1h-4v-1.1h-.8v3.5h5.6zm-.9-.6h-4v-1.1h4v1.1zm-57.5 15.7v-4.5h1.4v-.7h-1.4v-3.8h-.8v9h.8zm-1.5-7.2v-.7h-2.3v-1.1h-.8v1.1h-2.3v.7h5.4zm.2 5.2l-.1-.6c-.8.1-1.6.2-2.4.2v-1c1-.1 1.7-.8 1.7-1.6 0-1-.9-1.7-2.1-1.7-1.2 0-2.1.6-2.1 1.7 0 .9.7 1.5 1.7 1.6v1h-2.4l.1.7c1.6 0 3.7 0 5.6-.3zm-2.8-2c-.8 0-1.3-.4-1.3-1s.5-1 1.3-1 1.3.4 1.3 1-.5 1-1.3 1zm13.4.5v-2.5h1.3v-.7h-1.3v-2.3h-.8v5.4h.8v.1zm-6.6-.2c1.1-.4 1.9-1.2 2.3-2.2.4.9 1.2 1.6 2.2 1.9l.4-.6c-1.3-.4-2.2-1.5-2.2-2.7v-.4h2v-.7h-4.8v.7h2v.4c0 1.3-.9 2.4-2.2 2.9l.3.7zm3.7 3.7c1.8 0 3-.6 3-1.7 0-1-1.1-1.6-3-1.6-1.8 0-3 .6-3 1.6.1 1.1 1.2 1.7 3 1.7zm0-.6c-1.3 0-2.1-.4-2.1-1s.8-1 2.1-1 2.1.4 2.1 1c.1.6-.8 1-2.1 1zm12.4-4.8v-.7h-1.3v-1.9h1.4v-.7h-6.6v.7h1.4v1.9h-1.3v.7h6.4zm-2.1-.7h-2.2v-1.9h2.2v1.9zm1.9 6v-2.8h-2.7v-1.1h3.6v-.7h-8.1v.7h3.6v1.1h-2.6v2.8h6.2zm-.8-.6h-4.5v-1.5h4.5v1.5zm12.1-1.6v-3.2h1.3v-.7h-1.3v-2.7h-.8v6.6h.8zm-6.8-1.4c1.6 0 3.6 0 5.4-.3l-.1-.6c-.4.1-.9.1-1.3.1v-3h.9v-.7h-4.8v.7h.9v3.1h-1.1l.1.7zm1.8-.7v-3.1h1.4v3c-.4.1-.9.1-1.4.1zm5.4 4.2v-.7h-5.2v-2.1h-.8v2.8h6zm9.5.2v-9h-.8v3.6H187v-3.3h-.8v8.3h.8v-4.3h1.2v4.7h.8zm-3.9-2.4v-5.5h-3.4v5.5h3.4zm-.8-.6h-1.9v-4.2h1.9v4.2zm13.2-1v-1.2h1.3v-.7h-1.3v-1.1h1.3v-.7h-1.3v-1.2h-.8v4.9h.8zm-6.6 0c1.1-.4 1.9-1.2 2.2-2.2.4.9 1.2 1.6 2.2 2l.4-.6c-1.3-.5-2.2-1.6-2.2-2.8v-.9h-.8v.9c0 1.3-.9 2.5-2.2 3l.4.6zm6.6 3.9v-3.5h-.8v1.1h-4v-1.1h-.8v3.5h5.6zm-.8-.6h-4v-1.1h4v1.1zm-58.2 15.8v-9h-.8v9h.8zm-2.7-2.3v-5.8h-4.1v5.8h4.1zm-.8-.7h-2.5v-4.5h2.5v4.5zm13.5-.9v-.7h-2v-1.3c.7-.3 1.1-.7 1.1-1.3 0-1.1-1.2-1.7-3.2-1.7-1.9 0-3.1.6-3.1 1.7 0 .6.4 1.1 1.1 1.4v1.3h-2v.7h8.1v-.1zm-4.1-2.3c-1.4 0-2.3-.4-2.3-1s.9-1 2.3-1 2.3.4 2.3 1-.9 1-2.3 1zm1.2 1.6h-2.5v-1c.4.1.8.1 1.2.1.5 0 .9 0 1.2-.1v1h.1zm-1.2 4.5c1.9 0 3.1-.6 3.1-1.6s-1.1-1.6-3.1-1.6c-1.9 0-3.1.6-3.1 1.6 0 1.1 1.2 1.6 3.1 1.6zm0-.6c-1.4 0-2.2-.4-2.2-1s.8-1 2.2-1c1.4 0 2.2.4 2.2 1 0 .7-.8 1-2.2 1zm12.8.6v-9h-.8v3.6h-1.2v-3.3h-.8v8.3h.8v-4.2h1.2v4.7l.8-.1zm-7.2-1.8c.9-.5 1.6-1.5 1.9-2.7.3 1.1.9 1.9 1.8 2.4l.5-.6c-1.3-.7-1.9-2.1-1.9-3.8v-.7h1.6v-.7h-4.2v.7h1.7v.7c0 1.8-.7 3.3-1.9 4.1l.5.6zm16.9.7v-.6h-2.2v-1.7h1.4v-.7h-5.5v-1.4h5.3v-2.7h-6.1v.7h5.3v1.4h-5.3v2.8h1.3v1.7h-2.3v.7h8.1v-.2zm-3-.6h-2.1v-1.7h2.1v1.7zm14.4.6v-.7h-3.7V397h2.7v-.6H172v-2.8h5.3v-.7h-6.1v4.1h2.6v2.3h-3.7v.7h8.2zm1.3 2.2l3-9.7h-.6l-3 9.7h.6zm11.1-5l.4-.7c-1.6-.3-3.3-1.6-3.3-3.1v-.7h-.9v.7c0 1.5-1.7 2.8-3.3 3.1l.3.7c1.4-.3 2.8-1.2 3.4-2.5.6 1.3 2 2.2 3.4 2.5zm.7 2.8v-.7h-3.7v-2.2h-.8v2.2h-3.6v.7h8.1zm8.7 1.1v-9h-.8v3.6h-1.2v-3.3h-.8v8.3h.8v-4.3h1.2v4.7h.8zm-3.9-2.4v-5.5h-3.4v5.5h3.4zm-.7-.6h-1.9v-4.2h1.9v4.2zm13.2-1v-1.2h1.3v-.7h-1.3v-1.1h1.3v-.7h-1.3v-1.2h-.8v4.9h.8zm-6.6 0c1.1-.4 1.9-1.2 2.2-2.2.4.9 1.2 1.6 2.2 2l.4-.6c-1.3-.5-2.2-1.6-2.2-2.8v-.9h-.8v.9c0 1.3-.9 2.5-2.2 3l.4.6zm6.6 3.9v-3.5h-.8v1.1h-4v-1.1h-.9v3.5h5.7zm-.8-.6h-4v-1.1h4v1.1zM160 416.2v-9h-.8v9h.8zm-2.7-2.3v-5.8h-4.1v5.8h4.1zm-.8-.7H154v-4.5h2.5v4.5zm13.4-.9v-.7h-2v-1.3c.7-.3 1.1-.7 1.1-1.3 0-1.1-1.2-1.7-3.1-1.7-1.9 0-3.2.6-3.2 1.7 0 .6.4 1.1 1.1 1.4v1.3h-2v.7h8.1v-.1zm-4-2.3c-1.4 0-2.3-.4-2.3-1s.9-1 2.3-1 2.3.4 2.3 1-.9 1-2.3 1zm1.2 1.6h-2.5v-1c.4.1.8.1 1.2.1.5 0 .9 0 1.2-.1v1h.1zm-1.2 4.5c1.9 0 3.1-.6 3.1-1.6s-1.1-1.6-3.1-1.6c-1.9 0-3.1.6-3.1 1.6 0 1.1 1.2 1.6 3.1 1.6zm0-.6c-1.4 0-2.2-.4-2.2-1s.8-1 2.2-1c1.4 0 2.2.4 2.2 1 0 .7-.8 1-2.2 1zm10.5-6.7v-.7h-2.2v-1h-.8v1h-2.2v.7h5.2zm1.6 4v-2.5h1.3v-.7H178v-2.5h-.8v5.6h.8v.1zm-4.3-.3c1.3 0 2.2-.6 2.2-1.6s-.9-1.6-2.2-1.6c-1.3 0-2.1.6-2.1 1.6s.8 1.6 2.1 1.6zm0-.6c-.8 0-1.4-.4-1.4-1s.5-1 1.4-1c.8 0 1.4.4 1.4 1s-.6 1-1.4 1zm4.3 4.3v-2.9h-5.8v.7h5v2.2h.8zm9.6-2.2v-6.8h-.8v5.3H185v.6h1.8v.9h.8zm-4.5-3.3c1.3 0 2.2-.6 2.2-1.6 0-.9-.9-1.6-2.2-1.6-1.3 0-2.2.6-2.2 1.6 0 .9.9 1.6 2.2 1.6zm0-.7c-.9 0-1.4-.4-1.4-1s.6-1 1.4-1c.8 0 1.4.4 1.4 1 0 .7-.6 1-1.4 1zm.5 3.7v-1.8c.8-.1 1.6-.1 2.4-.3l-.1-.6c-1.9.2-4.1.3-5.8.3l.1.7c.7 0 1.6 0 2.5-.1v1.7l.9.1zm4.2 2.2v-.7h-5.5v-1.9h-.8v2.6h6.3zM158.1 536.2v-9h-.8v9h.8zm-6.9-1.9c1.1-.5 1.9-1.7 2.3-3 .4 1.3 1.3 2.3 2.3 2.8l.5-.7c-1.3-.6-2.4-2.2-2.4-3.9v-1.6h-.8v1.6c0 1.7-1.1 3.4-2.4 4.1l.5.7zm16.2-4l.3-.6c-1.6-.2-3.2-1.1-3.2-2.1v-.3h-.8v.3c0 1.1-1.6 2-3.2 2.1l.3.6c1.4-.2 2.8-.8 3.3-1.8.5 1 1.8 1.6 3.3 1.8zm-.1 5.7v-.6h-5.5v-.9h5.3v-2h-2.6v-.9h3.7v-.7H160v.7h3.6v.9h-2.7v.6h5.3v.8H161v2.1h6.3zm10.9-2.9c.3-1.8.3-3 .3-4.2v-.9h-6.3v.7h5.5v.2c0 1.1 0 2.3-.3 4.1l.8.1zm1.3 1.8v-.7h-4.1V531h-.8v3.2h-3.1v.7h8zm8.7-2.5v-5.3h-.8v2.2h-1.2v-2.1h-.8v5.1h.8V530h1.2v2.3l.8.1zm-7.1.2c2.3-1 3.4-2.6 3.4-4.7H181v.7h2.7c-.1 1.5-1.2 2.7-3 3.5l.4.5zm7.1 3.5v-3.3h-6v.7h5.2v2.6h.8zm-25.9 11v-1.2h1.3v-.7h-1.3v-1.1h1.3v-.7h-1.3v-1.2h-.8v4.9h.8zm-6.5 0c1.1-.4 1.9-1.2 2.2-2.2.4.9 1.2 1.7 2.1 2l.4-.6c-1.3-.5-2.2-1.6-2.2-2.8v-.9h-.8v.9c0 1.3-.9 2.5-2.2 3l.5.6zm6.5 3.9v-3.5h-.8v1.1h-4v-1.1h-.8v3.5h5.6zm-.8-.6h-4v-1.1h4v1.1zm11-6.5v-.7h-2.3v-1.1h-.8v1.1h-2.3v.7h5.4zm1.6 7.2v-9h-.8v9h.8zm-1.3-2l-.1-.6c-.8.1-1.7.2-2.5.2v-.9c1.1-.1 1.7-.8 1.7-1.6 0-1-.9-1.7-2.1-1.7-1.2 0-2.2.7-2.2 1.7 0 .9.7 1.5 1.8 1.6v1h-2.5l.1.7c1.6-.1 3.8-.1 5.8-.4zm-3-2c-.8 0-1.4-.4-1.4-1s.6-1 1.4-1c.8 0 1.4.4 1.4 1s-.6 1-1.4 1zm13.6 1.9v-6.8h-.8v5.3h-1.8v.6h1.8v.9h.8zm-4.5-3.3c1.3 0 2.2-.6 2.2-1.6 0-.9-.9-1.6-2.2-1.6-1.3 0-2.2.6-2.2 1.6s.9 1.6 2.2 1.6zm0-.6c-.9 0-1.4-.4-1.4-1s.6-1 1.4-1c.8 0 1.4.4 1.4 1s-.6 1-1.4 1zm.5 3.6v-1.8c.8 0 1.6-.1 2.4-.3l-.1-.6c-1.9.2-4.1.3-5.8.3l.1.7h2.5v1.7h.9zm4.2 2.2v-.7h-5.5v-1.9h-.8v2.6h6.3zm-25.4 11.2l.3-.7c-1.6-.3-3.3-1.5-3.3-3v-.7h-.9v.7c0 1.5-1.7 2.7-3.3 3l.3.7c1.4-.3 2.8-1.2 3.4-2.4.7 1.2 2.1 2.1 3.5 2.4zm.7 2.9v-.7h-2.2v-2h-.8v2h-2.1v-2h-.8v2h-2.2v.7h8.1zm8.4-2.3v-5.5h-.8v5.5h.8zm-1.6-1l-.1-.6c-.4.1-.9.1-1.3.1v-2.6h.9v-.7h-4.8v.7h.9v2.7h-1.1l.1.7c1.4 0 3.6 0 5.4-.3zm-3.6-.4v-2.7h1.5v2.7h-1.5zm2.3 4.8c1.9 0 3-.6 3-1.6s-1.2-1.6-3-1.6-3 .6-3 1.6 1.1 1.6 3 1.6zm0-.6c-1.4 0-2.2-.4-2.2-1s.8-1 2.2-1c1.4 0 2.2.4 2.2 1s-.9 1-2.2 1zm13.8-2.4c.3-1.8.3-3 .3-4.2v-.9h-6.3v.7h5.5v.2c0 1.1 0 2.3-.3 4.1l.8.1zm1.3 1.8v-.7h-4.1V561h-.8v3.2h-3.1v.7h8zm8.7-2.5v-5.3h-.8v2.2h-1.2v-2.1h-.8v5.1h.8V560h1.2v2.3l.8.1zm-7.1.2c2.3-1 3.4-2.6 3.4-4.7H181v.7h2.7c-.1 1.5-1.2 2.7-3 3.5l.4.5zm7.1 3.5v-3.3h-6v.7h5.2v2.6h.8zm-24.3 10.1l.3-.7c-1.6-.2-3.2-1.3-3.2-2.6v-.5h-.9v.5c0 1.3-1.6 2.4-3.2 2.6l.3.7c1.4-.2 2.8-1 3.3-2.1.6 1.1 2 1.9 3.4 2.1zm-3 5V578h3.7v-.7h-8.1v.7h3.6v3.2h.8zm11.8-3.7v-2.4h1.3v-.7h-1.3v-2.3h-.8v5.4h.8zm-6.7.1c2.6-.8 4.2-2.4 4.2-4.7h-4.1v.7h3.2c-.1 1.6-1.5 2.8-3.6 3.4l.3.6zm3.8 3.5c1.8 0 2.9-.7 2.9-1.7 0-1.1-1.1-1.7-2.9-1.7-1.8 0-2.9.7-2.9 1.7 0 1.1 1.2 1.7 2.9 1.7zm0-.6c-1.3 0-2.1-.4-2.1-1.1 0-.7.8-1.1 2.1-1.1s2.1.4 2.1 1.1c.1.7-.8 1.1-2.1 1.1zm12.7-2.8v-5.5h-.8v2.4h-1.1v-2.2h-.8v5.1h.8v-2.2h1.1v2.5l.8-.1zm-7.2-.4c.9-.4 1.5-1.1 1.8-2 .3.8.9 1.4 1.8 1.7l.4-.6c-1.2-.4-1.8-1.4-1.8-2.4v-1.2h-.8v1.2c0 1-.7 2.2-1.9 2.7l.5.6zm4.2 3.8c1.9 0 3-.6 3-1.6s-1.1-1.6-3-1.6c-1.8 0-3 .6-3 1.6s1.2 1.6 3 1.6zm0-.6c-1.3 0-2.2-.4-2.2-1s.8-1 2.2-1c1.4 0 2.2.3 2.2 1s-.8 1-2.2 1zm-40.9 15.7v-9h-.8v9h.8zm-2.7-2.3v-5.8h-4.1v5.8h4.1zm-.8-.7h-2.5v-4.5h2.5v4.5zm13.5-.9v-.7h-2v-1.3c.7-.3 1.1-.7 1.1-1.3 0-1-1.2-1.7-3.1-1.7-1.9 0-3.1.6-3.1 1.7 0 .6.4 1.1 1.1 1.4v1.3h-2v.7h8v-.1zm-4.1-2.3c-1.4 0-2.3-.4-2.3-1s.9-1 2.3-1 2.3.4 2.3 1-.9 1-2.3 1zm1.3 1.6h-2.5v-1.1c.4.1.8.1 1.2.1.5 0 .9 0 1.2-.1v1.1h.1zm-1.3 4.5c1.9 0 3.1-.6 3.1-1.6s-1.1-1.6-3.1-1.6c-1.9 0-3.1.6-3.1 1.6 0 1.1 1.2 1.6 3.1 1.6zm0-.6c-1.4 0-2.2-.3-2.2-1s.8-1 2.2-1c1.4 0 2.2.4 2.2 1s-.8 1-2.2 1zM157 592v-4.8h-.8v2.1h-1.8c-.2-1-1.1-1.7-2.3-1.7-1.3 0-2.3.8-2.3 2.1 0 1.2 1 2.1 2.3 2.1 1.2 0 2.1-.7 2.3-1.8h1.8v2h.8zm-4.9-.9c-.9 0-1.5-.6-1.5-1.4 0-.8.6-1.4 1.5-1.4s1.5.6 1.5 1.4c0 .8-.6 1.4-1.5 1.4zm4.9 4.9v-3.6h-.8v1.1h-4.1v-1.1h-.8v3.6h5.7zm-.8-.6h-4.1v-1.2h4.1v1.2zm12.3.8v-9h-.8v9h.8zm-6.7-4.6c1.1-.3 1.9-.9 2.2-1.7.4.7 1.2 1.3 2.2 1.5l.3-.6c-1.3-.3-2.1-1.1-2.1-2h2v-.7h-2v-1h-.8v1h-2v.7h2c0 1-.9 1.8-2.2 2.1l.4.7zm2.7 4.3v-3.1c.9 0 1.7-.1 2.6-.3l-.1-.6c-2 .3-4.2.3-5.9.3l.1.7h2.5v3h.8zm13.2-3.9v-4.8h-.8v2.1H175c-.2-1-1.1-1.7-2.3-1.7-1.3 0-2.3.8-2.3 2.1 0 1.2 1 2.1 2.3 2.1 1.2 0 2.1-.7 2.3-1.8h1.8v2h.9zm-5-.9c-.9 0-1.5-.6-1.5-1.4 0-.8.6-1.4 1.5-1.4s1.5.6 1.5 1.4c0 .8-.6 1.4-1.5 1.4zm5 4.9v-3.6h-.8v1.1h-4.1v-1.1h-.8v3.6h5.7zm-.8-.6h-4.1v-1.2h4.1v1.2zm12.2-4.3l.3-.7c-1.6-.2-3-1.1-3-2.2h2.8v-.7h-6.6v.7h2.8c0 1.1-1.4 2-3 2.2l.3.7c1.4-.2 2.8-.9 3.3-2 .3 1.1 1.6 1.8 3.1 2zm-2.8 3.2v-1.9h3.6v-.7h-8.1v.7h3.7v1.8h.8v.1zm2.7 1.6v-.7h-5.4v-1.8h-.8v2.5h6.2zm9.3.3v-9h-.8v9h.8zm-2.6-2.2v-6h-.8v2.4h-2.6V588h-.8v6h4.2zm-.8-.7h-2.6v-2.4h2.6v2.4zm12.8-.6v-5.5h-.8v2.4h-1.1v-2.2h-.8v5.1h.8v-2.2h1.1v2.5l.8-.1zm-7.1-.4c.9-.4 1.5-1.1 1.8-2 .3.8.9 1.4 1.8 1.7l.4-.6c-1.1-.4-1.8-1.4-1.8-2.4v-1.2h-.8v1.2c0 1-.7 2.2-1.9 2.7l.5.6zm4.1 3.8c1.8 0 3-.6 3-1.6s-1.2-1.6-3-1.6-3 .6-3 1.6 1.2 1.6 3 1.6zm0-.6c-1.3 0-2.2-.4-2.2-1s.8-1 2.2-1c1.4 0 2.2.3 2.2 1s-.8 1-2.2 1zm-50.9 15.6v-9h-.8v9h.8zm-1.8-.4v-8.3h-.8v2h-1.4c-.3-.9-.9-1.4-1.7-1.4-1.2 0-1.9 1.2-1.9 3.1 0 1.9.8 3.1 1.9 3.1.8 0 1.3-.5 1.7-1.4h1.4v3l.8-.1zm-3.8-2.3c-.7 0-1.2-.9-1.2-2.4s.5-2.4 1.2-2.4 1.2.9 1.2 2.4-.5 2.4-1.2 2.4zm3.1-1.3H150c.1-.3.1-.6.1-1s0-.7-.1-1h1.2v2h.1zm11.4 4.1v-9h-.8v9h.8zm-2.6-2.2v-6h-.8v2.4h-2.6V603h-.8v6h4.2zm-.8-.7h-2.6v-2.4h2.6v2.4zm7.9-.9c1.1-.4 1.9-1.1 2.2-2 .4.9 1.2 1.5 2.2 1.8l.4-.6c-1.3-.4-2.2-1.4-2.2-2.5v-.2h2v-.7h-2v-1.1h-.8v1.1h-2v.7h2v.2c0 1.2-.9 2.3-2.2 2.7l.4.6zm6.6.3v-2.5h1.3v-.7h-1.3v-2.3h-.8v5.5h.8zm-2.9 3.4c1.8 0 2.9-.6 2.9-1.6s-1.1-1.6-2.9-1.6c-1.9 0-3 .6-3 1.6.1 1 1.2 1.6 3 1.6zm0-.6c-1.3 0-2.1-.4-2.1-1s.8-1 2.1-1 2.1.4 2.1 1-.8 1-2.1 1zm12.5-3.5v-4.8h-.8v2.1h-1.8c-.2-1-1.1-1.7-2.3-1.7-1.3 0-2.3.8-2.3 2.1 0 1.2 1 2.1 2.3 2.1 1.2 0 2.1-.7 2.3-1.8h1.8v2h.8zm-4.9-.9c-.9 0-1.5-.6-1.5-1.4 0-.8.6-1.4 1.5-1.4s1.5.6 1.5 1.4c0 .8-.6 1.4-1.5 1.4zm4.9 4.9v-3.6h-.8v1.1h-4.1v-1.1h-.8v3.6h5.7zm-.8-.6h-4.1v-1.2h4.1v1.2zm9.5.7v-4.7h1.5v-.7h-1.5v-3.6h-.8v9h.8zm-6.6-1.7c1-.5 1.9-1.7 2.3-3 .4 1.2 1.2 2.2 2.2 2.8l.5-.7c-1.3-.6-2.3-2.2-2.3-3.6v-1.1h2v-.7h-4.9v.7h2.1v1.1c0 1.5-1.1 3.2-2.4 3.9l.5.6z"/>
                </g>
            </g>
        </g>
    </g>
</svg>
