<svg xmlns="http://www.w3.org/2000/svg" width="78" height="24" viewBox="0 0 78 24">
    <g fill="none" fill-rule="evenodd">
        <g fill="#007DFF">
            <g>
                <g>
                    <path d="M19.393 14.532c1.06 0 1.927.344 2.6 1.032.673.688 1.01 1.573 1.01 2.656v2.092c0 1.083-.337 1.968-1.01 2.656-.673.688-1.54 1.032-2.6 1.032H3.88c-1.06 0-1.926-.344-2.599-1.032C.606 22.28.27 21.395.27 20.312V18.22c0-1.083.336-1.968 1.01-2.656.673-.688 1.54-1.032 2.6-1.032h15.513zM50.91 0v24h-6.125V0h6.125zm26.909 0v24h-6.1V13.307h-3.571V8.68h3.57V0h6.1zM32.343.545V7.81h3.752V.545h5.214v23.183h-14.4V.545h5.434zm33.99 0l2.473 23.183h-5.604L61.196 5.034H60.7l-2.005 18.694H53.09L55.563.545h10.77zm-49.66 17.482H6.6c-.233 0-.422.074-.565.22-.144.148-.216.34-.216.579v.633c0 .238.068.427.202.564.135.138.328.206.58.206h10.073c.251 0 .444-.068.58-.206.134-.137.201-.326.201-.564v-.633c0-.238-.072-.431-.215-.578-.144-.147-.333-.22-.566-.22zm19.422-5.864h-3.752v7.211h3.752v-7.21zM13.01 5.725v3.137h10.263V13.1H0V8.86h7.03V5.726h5.98zM22.626 0v3.798c0 .57-.027 1.074-.081 1.514l-.296 2.422h-5.98l.296-2.477c.036-.348.063-.725.081-1.129H.62V0h22.006z" transform="translate(-141.000000, -1294.000000) translate(30.000000, 1256.000000) translate(111.000000, 38.000000)"/>
                </g>
            </g>
        </g>
    </g>
</svg>
