<svg xmlns="http://www.w3.org/2000/svg" width="186" height="69" viewBox="0 0 186 69">
    <defs>
        <linearGradient id="vzs3x3ma1a" x1="0%" x2="100%" y1="46.223%" y2="53.777%">
            <stop offset="0%" stop-color="#FF2B45"/>
            <stop offset="100%" stop-color="#FF6813"/>
        </linearGradient>
    </defs>
    <g fill="none" fill-rule="evenodd">
        <g>
            <g>
                <g>
                    <path fill="#FFF" d="M5.594 0c.235 0 .47.015.703.044l174.812 22.193c2.795.355 4.891 2.738 4.891 5.562v35.595c0 3.096-2.505 5.606-5.594 5.606-.245 0-.49-.016-.732-.048L8.186 46.276c-.473-.063-.945.12-1.253.486l-4.465 5.31c-.498.591-1.38.666-1.97.167C.181 51.973 0 51.581 0 51.168V5.606C0 2.51 2.505 0 5.594 0z" transform="translate(-1177.000000, -406.000000) translate(980.000000, 330.000000) translate(197.000000, 76.000000) translate(93.000000, 34.500000) scale(-1, 1) translate(-93.000000, -34.500000)"/>
                    <path fill="url(#vzs3x3ma1a)" d="M135.987 31.67l2.908-8.155 2.726 7.439-5.634.716zm16.924 7.5l-10.46-23.95-6.892.877-10.388 26.446 7.555-.961 1.472-4.268 9.071-1.153 1.356 3.908 8.286-.899zm15.218-8.26l9.66-18.343.02-1.567-19.2 2.441-.086 6.457 8.86-1.127-8.612 16.385-1.999 3.661 21.142-2.705.086-6.457-9.871 1.256zM17.675 50.96l-3.83.486.06-4.576 3.83-.488c1.528-.194 2.513.621 2.495 1.958-.018 1.358-1.028 2.425-2.555 2.62zm-3.642-13.59l3.562-.453c1.475-.188 2.372.582 2.355 1.888-.017 1.306-.938 2.307-2.413 2.494l-3.563.453.059-4.382zm9.316 5.284c1.97-1.414 3.278-3.6 3.307-5.848.05-3.719-3.225-6.02-7.763-5.443l-11.559 1.47L7 58l11.795-1.5c4.724-.6 8.344-4.145 8.398-8.222.036-2.747-1.447-4.806-3.844-5.624zm83.988-3.751l-2.944.374.165-12.468 2.944-.375c3.79-.482 6.283 1.677 6.233 5.41-.05 3.714-2.609 6.577-6.398 7.059zm.582-18.86l-10.357 1.316-.335 25.168 10.357-1.317c7.727-.983 13.281-6.94 13.379-14.284.098-7.354-5.296-11.869-13.044-10.883zM57.158 42.125l2.907-8.156 2.726 7.44-5.633.716zm-19.198-1.58l-3.221.41.073-5.466 3.22-.41c1.97-.25 3.09.757 3.07 2.33-.022 1.574-1.172 2.884-3.142 3.135zM95.896 21.57l-.334 25.168-5.83.74-9.986-12.364-.182 13.658-6.005.763-7.764.987-1.356-3.908-9.07 1.154-1.472 4.267-4.76.605-7.87 1.001-4.05-7.173-2.556.326-.102 7.7-7.05.897.334-25.168 11.092-1.41c5.517-.702 9.468 2.435 9.398 7.697-.041 3.088-1.609 5.814-4.157 7.624l3.374 5.785 9.178-23.369 6.892-.876 9.14 21.941.306-23.142 6.172-.785 9.65 11.955.176-13.204 6.832-.869zM159 23v3.929L151 28v-3.929L159 23z" transform="translate(-1177.000000, -406.000000) translate(980.000000, 330.000000) translate(197.000000, 76.000000)"/>
                </g>
            </g>
        </g>
    </g>
</svg>
