<svg xmlns="http://www.w3.org/2000/svg" width="108" height="40" viewBox="0 0 108 40">
    <defs>
        <linearGradient id="u0mdsqq6xa" x1="0%" x2="100%" y1="43.239%" y2="56.761%">
            <stop offset="0%" stop-color="#FF2B45"/>
            <stop offset="100%" stop-color="#FF6813"/>
        </linearGradient>
    </defs>
    <g fill="none" fill-rule="evenodd">
        <g>
            <g>
                <g>
                    <path fill="url(#u0mdsqq6xa)" d="M3.2 0c.134 0 .269.008.402.025l100 12.584c1.6.201 2.798 1.552 2.798 3.154v20.183c0 1.756-1.433 3.179-3.2 3.179-.14 0-.28-.01-.419-.027L4.683 26.24c-.271-.036-.541.068-.717.275l-2.554 3.01c-.285.336-.79.38-1.128.096-.18-.15-.284-.373-.284-.607V3.179C0 1.423 1.433 0 3.2 0z" transform="translate(-126.000000, -1576.000000) translate(126.660000, 1576.000000) translate(0.000000, 0.428086) translate(53.200000, 19.562467) scale(-1, 1) translate(-53.200000, -19.562467)"/>
                    <path fill="#FFF" d="M77.758 17.605l1.656-4.587 1.553 4.184-3.21.403zm9.642 4.219l-5.96-13.47-3.927.492-5.918 14.874 4.305-.54.838-2.4 5.169-.65.772 2.199 4.721-.505zm8.67-4.646l5.505-10.317.012-.881-10.94 1.373-.05 3.631 5.049-.633-4.907 9.215-1.139 2.059 12.046-1.522.049-3.63-5.624.705zM10.349 28.454l-2.182.274.034-2.574 2.182-.274c.87-.11 1.432.349 1.422 1.1-.01.764-.586 1.365-1.456 1.474zm-2.076-7.643l2.03-.255c.84-.105 1.352.327 1.342 1.062-.01.735-.535 1.297-1.375 1.403l-2.03.254.033-2.464zm5.309 2.972c1.122-.795 1.867-2.025 1.884-3.29.029-2.09-1.838-3.385-4.423-3.06l-6.586.826-.19 14.155 6.72-.844c2.691-.338 4.754-2.331 4.785-4.624.02-1.545-.825-2.703-2.19-3.163zm47.853-2.11l-1.678.21.095-7.012 1.677-.21c2.16-.272 3.58.942 3.551 3.042-.028 2.089-1.486 3.7-3.645 3.97zm.331-10.607l-5.9.74-.192 14.155 5.902-.74c4.402-.554 7.567-3.904 7.622-8.034.056-4.137-3.017-6.676-7.432-6.121zm-28.921 12.42l1.656-4.588 1.553 4.184-3.21.403zm-10.939-.89l-1.835.23.042-3.073 1.834-.23c1.123-.141 1.761.425 1.75 1.31-.013.885-.668 1.622-1.79 1.763zm29.018-2.756l-5.5-6.723-3.515.44-.175 13.017-5.208-12.34-3.926.492-5.23 13.144-1.922-3.254c1.452-1.018 2.345-2.552 2.369-4.288.04-2.96-2.212-4.724-5.355-4.33l-6.32.794-.19 14.155 4.017-.504.058-4.331 1.456-.183 2.308 4.034 4.483-.563 2.712-.34.84-2.4 5.167-.65.773 2.199 4.423-.555 3.422-.43.103-7.681 5.69 6.954 3.322-.417.19-14.155-3.892.489-.1 7.426z" transform="translate(-126.000000, -1576.000000) translate(126.660000, 1576.000000) translate(0.000000, 0.428086)"/>
                    <path fill="#FFF" d="M86.2 15.665L91 15.069 91 12.883 86.2 13.479z" transform="translate(-126.000000, -1576.000000) translate(126.660000, 1576.000000) translate(0.000000, 0.428086)"/>
                </g>
            </g>
        </g>
    </g>
</svg>
