<svg xmlns="http://www.w3.org/2000/svg" xmlns:xlink="http://www.w3.org/1999/xlink" width="400" height="240" viewBox="0 0 400 240">
    <defs>
        <rect id="4gyqugxlqa" width="400" height="240" x="0" y="0" rx="4"/>
        <rect id="wxda835bid" width="164" height="46" x="216" y="114" rx="23"/>
        <rect id="lg5q7o1s8f" width="135.206" height="46" x="216" y="169" rx="23"/>
        <filter id="jmgsbywzqc" width="121.3%" height="176.1%" x="-7.6%" y="-27.2%" filterUnits="objectBoundingBox">
            <feOffset dx="5" dy="5" in="SourceAlpha" result="shadowOffsetOuter1"/>
            <feGaussianBlur in="shadowOffsetOuter1" result="shadowBlurOuter1" stdDeviation="5"/>
            <feColorMatrix in="shadowBlurOuter1" values="0 0 0 0 0.0669361522 0 0 0 0 0.0663638167 0 0 0 0 0.0994112319 0 0 0 0.04 0"/>
        </filter>
        <filter id="ts2km78k3e" width="125.9%" height="176.1%" x="-9.2%" y="-27.2%" filterUnits="objectBoundingBox">
            <feOffset dx="5" dy="5" in="SourceAlpha" result="shadowOffsetOuter1"/>
            <feGaussianBlur in="shadowOffsetOuter1" result="shadowBlurOuter1" stdDeviation="5"/>
            <feColorMatrix in="shadowBlurOuter1" values="0 0 0 0 0.0669361522 0 0 0 0 0.0663638167 0 0 0 0 0.0994112319 0 0 0 0.04 0"/>
        </filter>
    </defs>
    <g fill="none" fill-rule="evenodd">
        <g>
            <g transform="translate(-360.000000, -1190.000000) translate(360.000000, 1190.000000)">
                <mask id="szs4pltnpb" fill="#fff">
                    <use xlink:href="#4gyqugxlqa"/>
                </mask>
                <use fill="#F7F7F8" xlink:href="#4gyqugxlqa"/>
                <rect width="281" height="286" x="20" y="22" fill="#FFF" mask="url(#szs4pltnpb)" rx="2"/>
                <rect width="112" height="10" x="37" y="141" fill="#F7F7F7" mask="url(#szs4pltnpb)" rx="5"/>
                <rect width="88" height="10" x="37" y="195" fill="#F7F7F7" mask="url(#szs4pltnpb)" rx="5"/>
                <rect width="88" height="10" x="37" y="221" fill="#F7F7F7" mask="url(#szs4pltnpb)" rx="5"/>
                <path fill="#F7F7F7" d="M37 83H110.125V122H37zM126.125 83H199.25V122H126.125zM215.25 83H288.375V122H215.25z" mask="url(#szs4pltnpb)"/>
                <rect width="136" height="10" x="37" y="167" fill="#F7F7F7" mask="url(#szs4pltnpb)" rx="5"/>
                <path fill="#686868" fill-rule="nonzero" d="M52.272 64.304v-7.888h2.048v-1.76h-2.048v-5.232H50.24v14.88h2.032zm-8.336-3.888c1.067 0 2.104-.01 3.112-.032 1.008-.021 1.901-.075 2.68-.16l-.144-1.616-.864.064c-.288.021-.57.037-.848.048v-6.352h1.44v-1.632H40.64v1.632h1.408v6.416H40.48v1.632h3.456zm1.952-1.632h-1.856v-6.416h1.856v6.416zm21.024-.096v-1.696h-8.128v-1.536h7.84V53.76h-7.84v-1.536h7.968v-1.696h-9.968v8.16h10.128zm1.744 3.744V60.72H55.024v1.712h13.632zm13.488 1.872v-14.88h-2.032v4.24h-3.968v1.76h3.968v8.88h2.032zM73.2 60.368c.49 0 .987-.005 1.488-.016.501-.01.997-.03 1.488-.056.49-.027.96-.061 1.408-.104.448-.043.859-.096 1.232-.16l-.224-1.744c-.757.107-1.573.187-2.448.24-.875.053-1.696.08-2.464.08h-1.088v-7.984h-2.048v9.744H73.2zM96.816 60V49.424h-1.92V60h1.92zm-2.896-.352V49.616h-1.904v2.96h-1.76v1.76h1.76v5.312h1.904zm-8.8-1.04c.405-.363.779-.712 1.12-1.048.341-.336.619-.61.832-.824.224-.235.397-.43.52-.584.123-.155.21-.301.264-.44h.016c.053.117.147.253.28.408.133.155.323.344.568.568l.768.688c.299.267.57.507.816.72l1.184-1.296c-.63-.523-1.221-1.067-1.776-1.632-.192-.192-.35-.381-.472-.568-.123-.187-.219-.376-.288-.568-.07-.192-.115-.395-.136-.608-.021-.213-.032-.453-.032-.72v-2.496H86.8V52.8c0 .267-.013.51-.04.728-.027.219-.077.43-.152.632-.075.203-.176.4-.304.592-.128.192-.288.39-.48.592-.32.341-.648.672-.984.992-.336.32-.675.63-1.016.928l1.296 1.344zm11.92 5.536v-1.728h-8.048v-3.2H86.96v4.928h10.08zm14.224.16v-14.88h-2.032v5.2h-2.448v1.728h2.448v7.952h2.032zm-9.104-3.664c.49 0 .987-.003 1.488-.008s.995-.019 1.48-.04.952-.05 1.4-.088c.448-.037.859-.088 1.232-.152l-.208-1.696c-.757.107-1.573.179-2.448.216-.875.037-1.696.056-2.464.056h-1.104V56.4h4.432v-1.712h-4.432v-2.4h4.944v-1.712h-6.96V60.64h2.64z" mask="url(#szs4pltnpb)"/>
                <g mask="url(#szs4pltnpb)">
                    <use fill="#000" filter="url(#jmgsbywzqc)" xlink:href="#wxda835bid"/>
                    <use fill="#FFF" xlink:href="#wxda835bid"/>
                </g>
                <g mask="url(#szs4pltnpb)">
                    <use fill="#000" filter="url(#ts2km78k3e)" xlink:href="#lg5q7o1s8f"/>
                    <use fill="#FFF" xlink:href="#lg5q7o1s8f"/>
                </g>
                <circle cx="239" cy="137" r="14" fill="#FF1321" mask="url(#szs4pltnpb)"/>
                <circle cx="239" cy="192" r="14" fill="#141415" mask="url(#szs4pltnpb)"/>
                <path fill="#FFF" d="M243.734 133l1.631 1.54-7.342 6.925-.1-.093-.028.027-4.895-4.617 1.632-1.54 3.362 3.172 5.74-5.414zM243.734 188l1.631 1.54-7.342 6.925-.1-.093-.028.027-4.895-4.617 1.632-1.54 3.362 3.172 5.74-5.414z" mask="url(#szs4pltnpb)"/>
                <path fill="#686868" fill-rule="nonzero" d="M268.624 138.512v-7.944h-1.512v7.944h1.512zm-6.048-1.704c.448 0 .85-.07 1.206-.21.356-.14.658-.33.906-.57.248-.24.438-.516.57-.828.132-.312.198-.636.198-.972v-.672c0-.336-.066-.66-.198-.972-.132-.312-.322-.588-.57-.828-.248-.24-.55-.43-.906-.57-.356-.14-.758-.21-1.206-.21-.448 0-.85.07-1.206.21-.356.14-.658.33-.906.57-.248.24-.438.516-.57.828-.132.312-.198.636-.198.972v.672c0 .336.066.66.198.972.132.312.322.588.57.828.248.24.55.43.906.57.356.14.758.21 1.206.21zm0-1.308c-.224 0-.426-.038-.606-.114-.18-.076-.332-.178-.456-.306s-.22-.274-.288-.438c-.068-.164-.102-.338-.102-.522v-.456c0-.176.034-.348.102-.516.068-.168.164-.316.288-.444.124-.128.276-.23.456-.306.18-.076.382-.114.606-.114.224 0 .426.038.606.114.18.076.332.178.456.306s.22.276.288.444c.068.168.102.34.102.516v.456c0 .184-.034.358-.102.522-.068.164-.164.31-.288.438-.124.128-.276.23-.456.306-.18.076-.382.114-.606.114zm6.228 6.108v-1.296h-5.76v-2.448h-1.524v3.744h7.284zm10.524-6.912v-1.152h-1.356v-1.56h1.284v-1.152h-7.752v1.152h1.284v1.56h-1.356v1.152h7.896zm-2.832-1.152h-2.232v-1.56h2.232v1.56zm3.996 2.976v-1.164h-10.224v1.164h10.224zm-1.104 5.304v-1.14h-6.252v-.636h5.928v-2.856h-7.452v1.14h5.988v.624h-5.928v2.868h7.716zm10.848-5.472v-1.248h-6.18v-.78h5.928v-3.252h-7.464v1.26h5.964v.78h-5.928v3.24h7.68zm-3.168 5.388v-3.288h4.344v-1.272h-10.224v1.272h4.356v3.288h1.524zm14.304-3.228v-7.944h-1.512v2.676h-1.8c-.04-.304-.134-.594-.282-.87-.148-.276-.344-.518-.588-.726-.244-.208-.534-.372-.87-.492-.336-.12-.708-.18-1.116-.18-.448 0-.85.07-1.206.21-.356.14-.658.33-.906.57-.248.24-.438.516-.57.828-.132.312-.198.636-.198.972v.672c0 .336.066.66.198.972.132.312.322.588.57.828.248.24.55.43.906.57.356.14.758.21 1.206.21.408 0 .78-.06 1.116-.18.336-.12.626-.284.87-.492.244-.208.44-.45.588-.726.148-.276.242-.566.282-.87h1.8v3.972h1.512zm-6.168-3.012c-.224 0-.426-.038-.606-.114-.18-.076-.332-.178-.456-.306s-.22-.274-.288-.438c-.068-.164-.102-.338-.102-.522v-.456c0-.176.034-.348.102-.516.068-.168.164-.316.288-.444.124-.128.276-.23.456-.306.18-.076.382-.114.606-.114.224 0 .426.038.606.114.18.076.332.178.456.306s.22.276.288.444c.068.168.102.34.102.516v.456c0 .184-.034.358-.102.522-.068.164-.164.31-.288.438-.124.128-.276.23-.456.306-.18.076-.382.114-.606.114zm6.348 6.108v-1.296h-5.76v-2.448h-1.524v3.744h7.284zm10.896.12v-11.16h-1.524v3.36h-2.196v1.32h2.196v6.48h1.524zm-8.544-2.664c.344-.32.64-.602.888-.846s.484-.482.708-.714c.2-.208.39-.418.57-.63.18-.212.29-.374.33-.486h.024c.04.104.14.25.3.438.16.188.356.398.588.63.224.232.464.474.72.726.256.252.52.506.792.762l.972-1.02c-.312-.28-.62-.57-.924-.87-.304-.3-.584-.59-.84-.87-.184-.192-.33-.374-.438-.546-.108-.172-.194-.344-.258-.516-.064-.172-.106-.354-.126-.546-.02-.192-.03-.408-.03-.648v-2.568h-1.548v2.568c0 .248-.016.472-.048.672-.032.2-.084.392-.156.576-.072.184-.166.364-.282.54-.116.176-.262.36-.438.552-.52.568-1.12 1.156-1.8 1.764l.996 1.032zm22.308-.576v-7.92H324.7v2.352h-1.968v1.296h1.968v4.272h1.512zm-8.4-1.068c.376-.304.7-.572.972-.804.272-.232.544-.476.816-.732.184-.168.346-.326.486-.474.14-.148.222-.274.246-.378h.012c.04.104.132.22.276.348.144.128.32.276.528.444.28.232.552.448.816.648.264.2.512.384.744.552l.876-1.056c-.288-.208-.58-.424-.876-.648-.296-.224-.588-.46-.876-.708-.16-.136-.29-.266-.39-.39-.1-.124-.178-.254-.234-.39-.056-.136-.096-.288-.12-.456-.024-.168-.036-.36-.036-.576v-1.74h-1.536v1.8c0 .408-.062.752-.186 1.032s-.33.56-.618.84c-.28.264-.578.534-.894.81-.316.276-.63.534-.942.774l.936 1.104zm8.58 4.188v-1.296h-5.76v-2.496h-1.524v3.792h7.284zm10.332-5.424V134h1.464v-1.32h-1.464v-2.112h-1.512v5.616h1.512zm-3.132-.336v-4.956h-1.476v1.38h-2.328v-1.38h-1.476v4.956h5.28zm-1.476-1.236h-2.328v-1.104h2.328v1.104zm4.944 7.224v-1.2h-5.844v-.816h5.508v-3.132h-7.032v1.188h5.568v.804h-5.508v3.156h7.308zm13.68-2.916v-3.612h1.476v-1.32h-1.476v-3.42h-1.5v8.352h1.5zm-8.94-1.224c.912 0 1.728-.004 2.448-.012s1.362-.02 1.926-.036c.564-.016 1.06-.038 1.488-.066.428-.028.806-.062 1.134-.102l-.108-1.272c-.36.04-.754.072-1.182.096-.428.024-.922.044-1.482.06v-.948c.32-.056.608-.148.864-.276.256-.128.474-.28.654-.456.18-.176.32-.374.42-.594.1-.22.15-.454.15-.702v-.516c0-.288-.068-.56-.204-.816-.136-.256-.328-.478-.576-.666-.248-.188-.548-.336-.9-.444-.352-.108-.74-.162-1.164-.162-.424 0-.812.054-1.164.162-.352.108-.652.256-.9.444s-.44.41-.576.666c-.136.256-.204.528-.204.816v.516c0 .248.05.482.15.702.1.22.24.418.42.594s.4.328.66.456.55.22.87.276v.984c-.392.008-.812.012-1.26.012H341.8v1.284zm3.468-3.456c-.256 0-.474-.028-.654-.084-.18-.056-.326-.13-.438-.222-.112-.092-.194-.198-.246-.318-.052-.12-.078-.24-.078-.36v-.252c0-.12.026-.24.078-.36.052-.12.134-.226.246-.318.112-.092.258-.166.438-.222.18-.056.398-.084.654-.084s.474.028.654.084c.18.056.326.13.438.222.112.092.194.198.246.318.052.12.078.24.078.36v.252c0 .12-.026.24-.078.36-.052.12-.134.226-.246.318-.112.092-.258.166-.438.222-.18.056-.398.084-.654.084zm5.772 7.404v-1.296h-6.048V138.5h-1.524v3.144h7.572zm11.892-1.32v-1.26h-2.7v-1.632h1.524v-1.272h-6.18v-1.128h5.904v-3.672h-7.452v1.272h5.94v1.128h-5.904v3.672h1.464v1.632h-2.82v1.26h10.224zm-4.188-1.26h-1.728v-1.632h1.728v1.632zM268.204 192.24v-2.88h1.464v-1.32h-1.464v-2.472h-1.512v6.672h1.512zm-3.144-.72v-5.436h-1.488v1.596h-2.304v-1.596h-1.488v5.436h5.28zm-1.488-1.26h-2.304v-1.32h2.304v1.32zm1.248 6.804c.512 0 .978-.052 1.398-.156.42-.104.78-.25 1.08-.438.3-.188.532-.414.696-.678.164-.264.246-.556.246-.876v-.48c0-.32-.082-.612-.246-.876-.164-.264-.396-.49-.696-.678-.3-.188-.66-.334-1.08-.438-.42-.104-.886-.156-1.398-.156-.512 0-.978.052-1.398.156-.42.104-.78.25-1.08.438-.3.188-.532.414-.696.678-.164.264-.246.556-.246.876v.48c0 .32.082.612.246.876.164.264.396.49.696.678.3.188.66.334 1.08.438.42.104.886.156 1.398.156zm0-1.236c-.304 0-.576-.03-.816-.09s-.442-.138-.606-.234c-.164-.096-.29-.204-.378-.324-.088-.12-.132-.24-.132-.36v-.288c0-.12.044-.24.132-.36.088-.12.214-.228.378-.324s.366-.174.606-.234c.24-.06.512-.09.816-.09.304 0 .576.03.816.09s.442.138.606.234c.164.096.29.204.378.324.088.12.132.24.132.36v.288c0 .12-.044.24-.132.36-.088.12-.214.228-.378.324s-.366.174-.606.234c-.24.06-.512.09-.816.09zm14.232-5.628v-4.248h-7.344v4.248h7.344zm-1.5-1.26h-4.344v-1.728h4.344v1.728zm-1.248 5.352v-1.944h4.188v-1.272h-10.224v1.272h4.524v1.944h1.512zm2.976 2.316v-1.284h-6.06v-1.968h-1.512v3.252h7.572zm11.436-9.024v-1.224h-2.256v-.96h-1.512v.96h-2.316v1.224h6.084zm2.424 5.4v-2.772h1.476v-1.32h-1.476v-3.324h-1.5v7.416h1.5zm-8.94-.024c.912 0 1.728-.004 2.448-.012s1.362-.02 1.926-.036c.564-.016 1.06-.038 1.488-.066.428-.028.806-.062 1.134-.102l-.108-1.212c-.36.04-.75.072-1.17.096-.42.024-.906.044-1.458.06v-.516c.6-.088 1.058-.266 1.374-.534.316-.268.474-.586.474-.954v-.312c0-.44-.224-.806-.672-1.098-.448-.292-1.092-.438-1.932-.438-.84 0-1.484.146-1.932.438-.448.292-.672.658-.672 1.098v.312c0 .376.16.696.48.96.32.264.78.44 1.38.528v.552c-.4.008-.828.012-1.284.012H284.2v1.224zm3.504-2.868c-.384 0-.676-.052-.876-.156-.2-.104-.3-.228-.3-.372v-.072c0-.144.1-.268.3-.372.2-.104.492-.156.876-.156s.676.052.876.156c.2.104.3.228.3.372v.072c0 .144-.1.268-.3.372-.2.104-.492.156-.876.156zm5.436 6.78v-3.384h-7.5v1.236h5.952v2.148h1.548zm11.244-3.36v-7.944h-1.512v7.944h1.512zm-6.048-1.704c.448 0 .85-.07 1.206-.21.356-.14.658-.33.906-.57.248-.24.438-.516.57-.828.132-.312.198-.636.198-.972v-.672c0-.336-.066-.66-.198-.972-.132-.312-.322-.588-.57-.828-.248-.24-.55-.43-.906-.57-.356-.14-.758-.21-1.206-.21-.448 0-.85.07-1.206.21-.356.14-.658.33-.906.57-.248.24-.438.516-.57.828-.132.312-.198.636-.198.972v.672c0 .336.066.66.198.972.132.312.322.588.57.828.248.24.55.43.906.57.356.14.758.21 1.206.21zm0-1.308c-.224 0-.426-.038-.606-.114-.18-.076-.332-.178-.456-.306s-.22-.274-.288-.438c-.068-.164-.102-.338-.102-.522v-.456c0-.176.034-.348.102-.516.068-.168.164-.316.288-.444.124-.128.276-.23.456-.306.18-.076.382-.114.606-.114.224 0 .426.038.606.114.18.076.332.178.456.306s.22.276.288.444c.068.168.102.34.102.516v.456c0 .184-.034.358-.102.522-.068.164-.164.31-.288.438-.124.128-.276.23-.456.306-.18.076-.382.114-.606.114zm6.228 6.108v-1.296h-5.76v-2.448h-1.524v3.744h7.284zm13.416-2.688v-3.612h1.476v-1.32h-1.476v-3.42h-1.5v8.352h1.5zm-8.94-1.224c.912 0 1.728-.004 2.448-.012s1.362-.02 1.926-.036c.564-.016 1.06-.038 1.488-.066.428-.028.806-.062 1.134-.102l-.108-1.272c-.36.04-.754.072-1.182.096-.428.024-.922.044-1.482.06v-.948c.32-.056.608-.148.864-.276.256-.128.474-.28.654-.456.18-.176.32-.374.42-.594.1-.22.15-.454.15-.702v-.516c0-.288-.068-.56-.204-.816-.136-.256-.328-.478-.576-.666-.248-.188-.548-.336-.9-.444-.352-.108-.74-.162-1.164-.162-.424 0-.812.054-1.164.162-.352.108-.652.256-.9.444s-.44.41-.576.666c-.136.256-.204.528-.204.816v.516c0 .248.05.482.15.702.1.22.24.418.42.594s.4.328.66.456.55.22.87.276v.984c-.392.008-.812.012-1.26.012h-1.464v1.284zm3.468-3.456c-.256 0-.474-.028-.654-.084-.18-.056-.326-.13-.438-.222-.112-.092-.194-.198-.246-.318-.052-.12-.078-.24-.078-.36v-.252c0-.12.026-.24.078-.36.052-.12.134-.226.246-.318.112-.092.258-.166.438-.222.18-.056.398-.084.654-.084s.474.028.654.084c.18.056.326.13.438.222.112.092.194.198.246.318.052.12.078.24.078.36v.252c0 .12-.026.24-.078.36-.052.12-.134.226-.246.318-.112.092-.258.166-.438.222-.18.056-.398.084-.654.084zm5.772 7.404v-1.296h-6.048V193.5h-1.524v3.144h7.572zm11.892-1.32v-1.26h-2.7v-1.632h1.524v-1.272h-6.18v-1.128h5.904v-3.672h-7.452v1.272h5.94v1.128h-5.904v3.672h1.464v1.632h-2.82v1.26h10.224zm-4.188-1.26h-1.728v-1.632h1.728v1.632z" mask="url(#szs4pltnpb)"/>
            </g>
        </g>
    </g>
</svg>
