<svg xmlns="http://www.w3.org/2000/svg" xmlns:xlink="http://www.w3.org/1999/xlink" width="32" height="32" viewBox="0 0 32 32">
    <defs>
        <circle id="lu5gluexoa" cx="13" cy="13" r="13"/>
    </defs>
    <g fill="none" fill-rule="evenodd">
        <g>
            <g>
                <g>
                    <g>
                        <g transform="translate(-1405.000000, -2807.000000) translate(361.000000, 2778.000000) translate(432.000000, 0.000000) translate(612.000000, 29.000000) translate(3.000000, 2.999994)">
                            <mask id="1xnm5wy61b" fill="#fff">
                                <use xlink:href="#lu5gluexoa"/>
                            </mask>
                            <use fill="#EDF7FF" xlink:href="#lu5gluexoa"/>
                            <path fill="#79A7CA" fill-rule="nonzero" d="M13-1c1.582 0 3.098.109 4.5.308l.64.098C22.762.172 26 1.94 26 4c0 2.06-3.237 3.828-7.86 4.594l-.64.098c-1.402.2-2.918.308-4.5.308-1.582 0-3.098-.109-4.5-.308l-.64-.098C3.238 7.828 0 6.06 0 4 0 1.94 3.237.172 7.86-.594l.64-.098C9.902-.892 11.418-1 13-1zm0 1c-.595 0-1.18.016-1.75.048l-.68.044C9.9.143 9.249.215 8.624.305L8.007.4 7.41.507l-.578.117c-.19.041-.376.084-.558.128l-.536.137c-.175.047-.346.096-.513.146l-.49.154C2.432 1.954 1 2.991 1 4s1.43 2.046 3.736 2.81l.489.155c.167.05.338.099.513.146l.536.137c.182.044.368.087.558.128l.578.117.597.107.616.095c.625.09 1.276.162 1.948.213l.678.044C11.82 7.984 12.405 8 13 8s1.18-.016 1.75-.048l.68-.044c.671-.051 1.322-.123 1.947-.213l.616-.095.597-.107.578-.117c.19-.041.376-.084.558-.128l.536-.137c.175-.047.346-.096.513-.146l.49-.154C23.568 6.046 25 5.009 25 4s-1.43-2.046-3.736-2.81l-.489-.155c-.167-.05-.338-.099-.513-.146l-.536-.137c-.182-.044-.368-.087-.558-.128L18.59.507 17.993.4l-.616-.095C16.752.215 16.1.143 15.429.092l-.678-.044c-.457-.025-.923-.04-1.395-.046L13 0zM13 17c1.582 0 3.098.109 4.5.308l.64.098C22.762 18.172 26 19.94 26 22c0 2.06-3.237 3.828-7.86 4.594l-.64.098c-1.402.2-2.918.308-4.5.308-1.582 0-3.098-.109-4.5-.308l-.64-.098C3.238 25.828 0 24.06 0 22c0-2.06 3.237-3.828 7.86-4.594l.64-.098c1.294-.184 2.685-.29 4.136-.306L13 17zm0 1c-.595 0-1.18.016-1.75.047l-.68.045c-.671.051-1.322.123-1.947.213l-.616.095-.597.107-.578.117c-.19.041-.376.084-.558.128l-.536.137c-.175.047-.346.096-.513.146l-.49.154C2.432 19.954 1 20.991 1 22s1.43 2.046 3.736 2.81l.489.155c.167.05.338.099.513.146l.536.137c.182.044.368.087.558.128l.578.117.597.107.616.095c.625.09 1.276.162 1.948.213l.678.044c.571.032 1.156.048 1.751.048s1.18-.016 1.75-.048l.68-.044c.671-.051 1.322-.123 1.947-.213l.616-.095.597-.107.578-.117c.19-.041.376-.084.558-.128l.536-.137c.175-.047.346-.096.513-.146l.49-.154C23.568 24.046 25 23.009 25 22s-1.43-2.046-3.736-2.81l-.489-.155c-.167-.05-.338-.099-.513-.146l-.536-.137c-.182-.044-.368-.087-.558-.128l-.578-.117-.597-.107-.616-.095c-.625-.09-1.276-.162-1.948-.213l-.678-.045c-.457-.024-.923-.04-1.395-.045L13 18z" mask="url(#1xnm5wy61b)"/>
                        </g>
                        <path fill="#79A7CA" fill-rule="nonzero" d="M16 3c7.18 0 13 5.82 13 13s-5.82 13-13 13S3 23.18 3 16 8.82 3 16 3zm0 1C9.373 4 4 9.373 4 16s5.373 12 12 12 12-5.373 12-12S22.627 4 16 4z" transform="translate(-1405.000000, -2807.000000) translate(361.000000, 2778.000000) translate(432.000000, 0.000000) translate(612.000000, 29.000000)"/>
                        <path fill="#79A7CA" fill-rule="nonzero" d="M16 3c3.314 0 6 5.82 6 13s-2.686 13-6 13-6-5.82-6-13 2.686-13 6-13zm0 1c-2.55 0-5 5.308-5 12s2.45 12 5 12 5-5.308 5-12-2.45-12-5-12z" transform="translate(-1405.000000, -2807.000000) translate(361.000000, 2778.000000) translate(432.000000, 0.000000) translate(612.000000, 29.000000)"/>
                        <path fill="#79A7CA" d="M15.5 4H16.5V28H15.5z" transform="translate(-1405.000000, -2807.000000) translate(361.000000, 2778.000000) translate(432.000000, 0.000000) translate(612.000000, 29.000000)"/>
                        <path fill="#79A7CA" d="M4 15.5H28V16.5H4z" transform="translate(-1405.000000, -2807.000000) translate(361.000000, 2778.000000) translate(432.000000, 0.000000) translate(612.000000, 29.000000)"/>
                    </g>
                </g>
            </g>
        </g>
    </g>
</svg>
