<?xml version="1.0" encoding="utf-8"?>
<!-- Generator: Adobe Illustrator 25.3.1, SVG Export Plug-In . SVG Version: 6.00 Build 0)  -->
<svg version="1.1" id="레이어_1" xmlns="http://www.w3.org/2000/svg" xmlns:xlink="http://www.w3.org/1999/xlink" x="0px"
	 y="0px" viewBox="0 0 60 60" style="enable-background:new 0 0 60 60;" xml:space="preserve">
<style type="text/css">
	.st0{fill-rule:evenodd;clip-rule:evenodd;fill:#007DFF;}
	.st1{filter:url(#Adobe_OpacityMaskFilter);}
	.st2{fill-rule:evenodd;clip-rule:evenodd;fill:#FFFFFF;}
	.st3{mask:url(#mask-2_1_);}
	.st4{fill-rule:evenodd;clip-rule:evenodd;fill:#227EFF;}
	.st5{filter:url(#Adobe_OpacityMaskFilter_1_);}
	.st6{mask:url(#mask-4_2_);}
	.st7{fill:#FFFFFF;}
	.st8{clip-path:url(#SVGID_2_);enable-background:new    ;}
	.st9{clip-path:url(#SVGID_4_);}
	.st10{clip-path:url(#SVGID_6_);enable-background:new    ;}
	.st11{clip-path:url(#SVGID_8_);}
	.st12{clip-path:url(#SVGID_12_);enable-background:new    ;}
	.st13{clip-path:url(#SVGID_14_);}
	.st14{clip-path:url(#SVGID_16_);}
	.st15{clip-path:url(#SVGID_18_);fill:#E9E9E9;}
	.st16{clip-path:url(#SVGID_20_);}
	.st17{clip-path:url(#SVGID_22_);fill:#FFFFFF;}
	.st18{clip-path:url(#SVGID_24_);}
	.st19{clip-path:url(#SVGID_26_);fill:#E9E9E9;}
	.st20{clip-path:url(#SVGID_28_);}
	.st21{clip-path:url(#SVGID_30_);fill:#E9E9E9;}
	.st22{clip-path:url(#SVGID_32_);}
	.st23{clip-path:url(#SVGID_34_);fill:#004CB4;}
	.st24{clip-path:url(#SVGID_36_);}
	.st25{clip-path:url(#SVGID_38_);fill:#004CB4;}
</style>
<g id="logo_gongapp">
	<g id="Mask">
		<path id="path-1_1_" class="st0" d="M7,0h46c3.9,0,7,3.1,7,7v46c0,3.9-3.1,7-7,7H7c-3.9,0-7-3.1-7-7V7C0,3.1,3.1,0,7,0z"/>
	</g>
	<defs>
		<filter id="Adobe_OpacityMaskFilter" filterUnits="userSpaceOnUse" x="-5" y="-5" width="70" height="70">
			<feColorMatrix  type="matrix" values="1 0 0 0 0  0 1 0 0 0  0 0 1 0 0  0 0 0 1 0"/>
		</filter>
	</defs>
	<mask maskUnits="userSpaceOnUse" x="-5" y="-5" width="70" height="70" id="mask-2_1_">
		<g class="st1">
			<path id="path-1_2_" class="st2" d="M7,0h46c3.9,0,7,3.1,7,7v46c0,3.9-3.1,7-7,7H7c-3.9,0-7-3.1-7-7V7C0,3.1,3.1,0,7,0z"/>
		</g>
	</mask>
	<g id="calendar-_x2B_-안드로이드-가이드-_x2B_-공비서-Mask" class="st3">
		<g transform="translate(-5.000000, -5.000000)">
			<g id="Mask_1_">
				<rect id="path-3_1_" class="st4" width="70" height="70"/>
			</g>
			<defs>
				<filter id="Adobe_OpacityMaskFilter_1_" filterUnits="userSpaceOnUse" x="20.8" y="22.6" width="28.4" height="14.9">
					<feColorMatrix  type="matrix" values="1 0 0 0 0  0 1 0 0 0  0 0 1 0 0  0 0 0 1 0"/>
				</filter>
			</defs>
			<mask maskUnits="userSpaceOnUse" x="20.8" y="22.6" width="28.4" height="14.9" id="mask-4_2_">
				<g class="st5">
					<rect id="path-3_3_" class="st2" width="70" height="70"/>
				</g>
			</mask>
			<g id="공비서" class="st6">
				<g transform="translate(20.781250, 22.604167)">
					<path id="공비서예약" class="st7" d="M18.5,8.8V0h-2.2v8.8H18.5z M15,8.7V0.2h-1.9v2.7h-1.4V0.2h-2v8.5H15z M13.2,7.1
						h-1.4V4.4h1.4V7.1z M28.4,8.8V0h-2.2v3.2h-1.3v1.7h1.3v3.9H28.4z M7.1,5.3l0.2,0c0.3,0,0.6,0.2,0.8,0.4
						c0.2,0.2,0.3,0.5,0.4,0.8l0,0.2v0.8l0,0.2c0,0.3-0.2,0.6-0.4,0.8C7.9,8.6,7.6,8.7,7.3,8.8l-0.2,0H1.4l-0.2,0
						c-0.3,0-0.6-0.2-0.8-0.4S0.1,7.9,0.1,7.6l0-0.2V6.7l0-0.2c0-0.3,0.2-0.6,0.4-0.8s0.5-0.3,0.8-0.4l0.2,0H7.1z M24.3,0.2l0.9,8.5
						h-2l-0.7-6.8h-0.2l-0.7,6.8h-2l0.9-8.5H24.3z M6.1,6.6H2.4l-0.1,0c-0.1,0-0.1,0-0.1,0.1S2.1,6.8,2.1,6.8l0,0.1v0.2l0,0.1
						c0,0,0,0.1,0.1,0.1c0,0,0.1,0.1,0.1,0.1l0.1,0h3.7c0.1,0,0.2,0,0.2-0.1c0,0,0.1-0.1,0.1-0.1l0-0.1V6.9l0-0.1
						c0-0.1,0-0.1-0.1-0.1C6.3,6.6,6.2,6.6,6.1,6.6z M4.8,2.1v1.1h3.8v1.5H0V3.3h2.6V2.1H4.8z M8.4,0.1v1.4l0,0.2c0,0.1,0,0.2,0,0.4
						l0,0L8.2,2.9H6L6.1,2l0-0.2l0,0l0-0.2H0.2V0.1H8.4z"/>
					<path id="예약서비스" class="st7" d="M7.5,14.9v-4.1H7v4.1H7.5z M6.6,14.7v-3.8H6.2v0.9H5.6c-0.1-0.4-0.4-0.6-0.8-0.6
						c-0.5,0-0.9,0.6-0.9,1.5c0,0.9,0.4,1.5,0.9,1.5c0.3,0,0.6-0.2,0.8-0.6h0.6v1.3H6.6z M4.9,13.6c-0.3,0-0.5-0.4-0.5-1
						s0.2-1,0.5-1s0.5,0.4,0.5,1S5.2,13.6,4.9,13.6z M6.2,13.1H5.7c0-0.1,0-0.3,0-0.4s0-0.3,0-0.4h0.5V13.1z M11.4,13.3v-0.6h0.6
						v-0.4h-0.6v-0.5h0.6v-0.4h-0.6v-0.6h-0.5v2.4H11.4z M9.3,13c0.6,0,1.1-0.4,1.1-1s-0.5-1-1.1-1c-0.6,0-1.1,0.4-1.1,1
						S8.7,13,9.3,13z M9.3,12.7c-0.4,0-0.6-0.2-0.6-0.6s0.3-0.6,0.6-0.6c0.4,0,0.6,0.2,0.6,0.6S9.7,12.7,9.3,12.7z M11.4,14.9v-1.5
						H8.6v0.4h2.2v1.1H11.4z M15.8,14.9v-4.1h-0.5v1.3h-0.9v0.4h0.9v2.4H15.8z M12.6,14.1c0.5-0.2,0.8-0.7,1-1.3
						c0.2,0.5,0.5,1,1,1.2l0.3-0.4c-0.6-0.3-1-1-1-1.8v-0.7h-0.5v0.7c0,0.8-0.4,1.6-1,1.9L12.6,14.1z M19.9,14.9v-4.1h-0.5v4.1H19.9
						z M18.7,14v-2.8h-0.5v1h-1v-1h-0.5V14H18.7z M18.3,13.6h-1v-1h1V13.6z M24.1,13.2l0.2-0.4c-0.8-0.1-1.5-0.8-1.5-1.4v-0.3h-0.5
						v0.3c0,0.6-0.7,1.3-1.5,1.4l0.2,0.4c0.7-0.1,1.2-0.6,1.5-1.1C22.8,12.7,23.4,13.1,24.1,13.2z M24.5,14.4V14h-3.7v0.4H24.5z"/>
				</g>
			</g>
		</g>
	</g>
</g>
<g>
	<defs>
		<path id="SVGID_1_" d="M7,0h46c3.9,0,7,3.1,7,7v46c0,3.9-3.1,7-7,7H7c-3.9,0-7-3.1-7-7V7C0,3.1,3.1,0,7,0z"/>
	</defs>
	<clipPath id="SVGID_2_">
		<use xlink:href="#SVGID_1_"  style="overflow:visible;"/>
	</clipPath>
	<g class="st8">
		<g>
			<defs>
				<rect id="SVGID_3_" x="-5" y="-5" width="70" height="70"/>
			</defs>
			<clipPath id="SVGID_4_">
				<use xlink:href="#SVGID_3_"  style="overflow:visible;"/>
			</clipPath>
			<g class="st9">
				<defs>
					<rect id="SVGID_5_" x="3" y="34" width="54" height="26"/>
				</defs>
				<clipPath id="SVGID_6_">
					<use xlink:href="#SVGID_5_"  style="overflow:visible;"/>
				</clipPath>
				<g class="st10">
					<g>
						<defs>
							<rect id="SVGID_7_" x="-11" y="-33" width="82" height="172"/>
						</defs>
						<clipPath id="SVGID_8_">
							<use xlink:href="#SVGID_7_"  style="overflow:visible;"/>
						</clipPath>
						<g class="st11">
							<defs>
								<rect id="SVGID_9_" x="3" y="55" width="54" height="5"/>
							</defs>
							<clipPath id="SVGID_10_">
								<use xlink:href="#SVGID_9_"  style="overflow:visible;"/>
							</clipPath>
							<g style="clip-path:url(#SVGID_10_);">
								
									<image style="overflow:visible;" width="54" height="5" xlink:href="A38C2619585AB7D5.png"  transform="matrix(1 0 0 1 3 55)">
								</image>
							</g>
						</g>
						<g class="st11">
							<defs>
								<rect id="SVGID_11_" x="3" y="34" width="54" height="26"/>
							</defs>
							<clipPath id="SVGID_12_">
								<use xlink:href="#SVGID_11_"  style="overflow:visible;"/>
							</clipPath>
							<g class="st12">
								<g>
									<defs>
										<rect id="SVGID_13_" x="12" y="34" width="36" height="38"/>
									</defs>
									<clipPath id="SVGID_14_">
										<use xlink:href="#SVGID_13_"  style="overflow:visible;"/>
									</clipPath>
									<g class="st13">
										<defs>
											<path id="SVGID_15_" d="M38.7,71.2H14.9c-1.3,0-2.4-1.1-2.4-2.4V39.6c0-1.3,1.1-2.4,2.4-2.4h30.3c1.3,0,2.4,1.1,2.4,2.4
												v29.2c0,0.6-1.5-1.3-1.9-0.9l-5.2,1.3C40,69.8,39.4,71.2,38.7,71.2z"/>
										</defs>
										<clipPath id="SVGID_16_">
											<use xlink:href="#SVGID_15_"  style="overflow:visible;"/>
										</clipPath>
										<g class="st14">
											<defs>
												<rect id="SVGID_17_" x="-20" y="-33" width="100" height="160"/>
											</defs>
											<clipPath id="SVGID_18_">
												<use xlink:href="#SVGID_17_"  style="overflow:visible;"/>
											</clipPath>
											<rect x="11.5" y="36.3" class="st15" width="37" height="35.9"/>
										</g>
									</g>
									<g class="st13">
										<defs>
											<path id="SVGID_19_" d="M47.5,39.6v6h-35v-6c0-1.3,1.1-2.3,2.4-2.3h30.3C46.4,37.3,47.5,38.3,47.5,39.6z"/>
										</defs>
										<clipPath id="SVGID_20_">
											<use xlink:href="#SVGID_19_"  style="overflow:visible;"/>
										</clipPath>
										<g class="st16">
											<defs>
												<rect id="SVGID_21_" x="-20" y="-33" width="100" height="160"/>
											</defs>
											<clipPath id="SVGID_22_">
												<use xlink:href="#SVGID_21_"  style="overflow:visible;"/>
											</clipPath>
											<rect x="11.5" y="36.3" class="st17" width="37" height="10.3"/>
										</g>
									</g>
									<g class="st13">
										<defs>
											<path id="SVGID_23_" d="M19.3,41.5c-0.4,0-0.8,0-1.2,0c-1,0-1.8-0.8-1.8-1.8v-2.4h1.2v2.4c0,0.3,0.3,0.6,0.6,0.6
												C18.5,40.3,19.7,41.5,19.3,41.5z"/>
										</defs>
										<clipPath id="SVGID_24_">
											<use xlink:href="#SVGID_23_"  style="overflow:visible;"/>
										</clipPath>
										<g class="st18">
											<defs>
												<rect id="SVGID_25_" x="-20" y="-33" width="100" height="160"/>
											</defs>
											<clipPath id="SVGID_26_">
												<use xlink:href="#SVGID_25_"  style="overflow:visible;"/>
											</clipPath>
											<rect x="15.4" y="36.3" class="st19" width="5.3" height="6.2"/>
										</g>
									</g>
									<g class="st13">
										<defs>
											<path id="SVGID_27_" d="M40.8,41.5c0,0-0.8,0-1.2,0c-1,0-1.8-0.8-1.8-1.8v-2.4H39v2.4c0,0.3,0.3,0.6,0.6,0.6
												C39.9,40.3,40.8,41.1,40.8,41.5z"/>
										</defs>
										<clipPath id="SVGID_28_">
											<use xlink:href="#SVGID_27_"  style="overflow:visible;"/>
										</clipPath>
										<g class="st20">
											<defs>
												<rect id="SVGID_29_" x="-20" y="-33" width="100" height="160"/>
											</defs>
											<clipPath id="SVGID_30_">
												<use xlink:href="#SVGID_29_"  style="overflow:visible;"/>
											</clipPath>
											<rect x="36.8" y="36.3" class="st21" width="4.9" height="6.2"/>
										</g>
									</g>
									<g class="st13">
										<defs>
											<path id="SVGID_31_" d="M20.1,37.3v-1.5c0-0.3-0.3-0.6-0.6-0.6h-0.3c-0.3,0-0.6,0.3-0.6,0.6v3.8c0,0.3,0.3,0.6,0.6,0.6
												c0.3,0,0.6,0.3,0.6,0.6c0,0.3-0.3,0.6-0.6,0.6c-1,0-1.8-0.8-1.8-1.8v-3.8c0-1,0.8-1.8,1.8-1.8h0.3c1,0,1.8,0.8,1.8,1.8
												v1.5H20.1z"/>
										</defs>
										<clipPath id="SVGID_32_">
											<use xlink:href="#SVGID_31_"  style="overflow:visible;"/>
										</clipPath>
										<g class="st22">
											<defs>
												<rect id="SVGID_33_" x="-20" y="-33" width="100" height="160"/>
											</defs>
											<clipPath id="SVGID_34_">
												<use xlink:href="#SVGID_33_"  style="overflow:visible;"/>
											</clipPath>
											<rect x="16.5" y="33" class="st23" width="5.8" height="9.3"/>
										</g>
									</g>
									<g class="st13">
										<defs>
											<path id="SVGID_35_" d="M41.4,37.3v-1.5c0-0.3-0.3-0.6-0.6-0.6h-0.3c-0.3,0-0.6,0.3-0.6,0.6v3.8c0,0.3,0.3,0.6,0.6,0.6
												c0.3,0,0.6,0.3,0.6,0.6c0,0.3-0.3,0.6-0.6,0.6c-1,0-1.8-0.8-1.8-1.8v-3.8c0-1,0.8-1.8,1.8-1.8h0.3c1,0,1.8,0.8,1.8,1.8
												v1.5H41.4z"/>
										</defs>
										<clipPath id="SVGID_36_">
											<use xlink:href="#SVGID_35_"  style="overflow:visible;"/>
										</clipPath>
										<g class="st24">
											<defs>
												<rect id="SVGID_37_" x="-20" y="-33" width="100" height="160"/>
											</defs>
											<clipPath id="SVGID_38_">
												<use xlink:href="#SVGID_37_"  style="overflow:visible;"/>
											</clipPath>
											<rect x="37.7" y="33" class="st25" width="5.8" height="9.3"/>
										</g>
									</g>
								</g>
							</g>
						</g>
					</g>
				</g>
			</g>
		</g>
	</g>
</g>
</svg>
