<svg xmlns="http://www.w3.org/2000/svg" width="129" height="41" viewBox="0 0 129 41">
    <g fill="none" fill-rule="evenodd">
        <g fill="#D1D1D1">
            <g>
                <path d="M258.5 114.22c1.775 0 3.227.573 4.355 1.72 1.13 1.147 1.693 2.622 1.693 4.427v3.487c0 1.804-.564 3.279-1.693 4.426-1.128 1.146-2.58 1.72-4.356 1.72h-25.998c-1.776 0-3.228-.574-4.356-1.72-1.129-1.147-1.694-2.622-1.694-4.426v-3.487c0-1.805.565-3.28 1.694-4.426 1.128-1.148 2.58-1.721 4.356-1.721h25.998zM311 89v40h-10.208V89H311zm44 0v40h-10.114v-17.822h-5.921v-7.711h5.921V89H355zm-74.942.908v12.108h6.252V89.908H295v38.639h-24v-38.64h9.058zm55.9 0l4.1 38.638h-9.293L327.44 97.39h-.82l-3.325 31.156H314l4.1-38.638h17.857zm-82.017 30.138H237.06c-.391 0-.708.122-.948.367-.241.245-.361.567-.361.963v1.055c0 .398.113.712.339.94.225.23.549.345.97.345h16.882c.42 0 .744-.115.97-.345.226-.228.339-.542.339-.94v-1.055c0-.396-.12-.718-.361-.963s-.558-.367-.948-.367zm32.37-10.774h-6.253v12.018h6.252v-12.018zm-38.51-9.73v5.228H265v7.064h-39v-7.064h11.781v-5.228h10.02zM263.916 90v6.33c0 .949-.045 1.79-.135 2.523l-.497 4.037h-10.02l.496-4.13c.06-.58.105-1.206.135-1.88H227.04V90h36.877z" transform="translate(-586.000000, -419.000000) translate(360.000000, 330.000000)"/>
            </g>
        </g>
    </g>
</svg>
