<svg xmlns="http://www.w3.org/2000/svg" xmlns:xlink="http://www.w3.org/1999/xlink" width="326" height="186" viewBox="0 0 326 186">
    <defs>
        <linearGradient id="yhr04om7ja" x1="35.535%" x2="53.669%" y1="33.866%" y2="65.42%">
            <stop offset="0%" stop-color="#7772B6"/>
            <stop offset="100%" stop-color="#7671B6"/>
        </linearGradient>
        <linearGradient id="szigh9qq1b" x1="-10.057%" x2="109.092%" y1="113.945%" y2="-11.098%">
            <stop offset="0%" stop-color="#36C7FB"/>
            <stop offset="100%" stop-color="#E41A8C"/>
        </linearGradient>
        <linearGradient id="btqhvublxe" x1="50%" x2="50%" y1="0%" y2="100%">
            <stop offset="0%" stop-color="#7772B6"/>
            <stop offset="100%" stop-color="#7671B6" stop-opacity="0"/>
        </linearGradient>
        <filter id="zryr7jlfvc" width="121.4%" height="155.4%" x="-8%" y="-13.8%" filterUnits="objectBoundingBox">
            <feOffset dx="2" dy="4" in="SourceAlpha" result="shadowOffsetOuter1"/>
            <feGaussianBlur in="shadowOffsetOuter1" result="shadowBlurOuter1" stdDeviation="2"/>
            <feColorMatrix in="shadowBlurOuter1" values="0 0 0 0 0 0 0 0 0 0 0 0 0 0 0 0 0 0 0.09 0"/>
        </filter>
        <filter id="tzmdazsjnf" width="119.8%" height="155.4%" x="-7.4%" y="-13.8%" filterUnits="objectBoundingBox">
            <feOffset dx="2" dy="4" in="SourceAlpha" result="shadowOffsetOuter1"/>
            <feGaussianBlur in="shadowOffsetOuter1" result="shadowBlurOuter1" stdDeviation="2"/>
            <feColorMatrix in="shadowBlurOuter1" values="0 0 0 0 0 0 0 0 0 0 0 0 0 0 0 0 0 0 0.09 0"/>
        </filter>
        <path id="gef4ork67d" d="M62.638 0c6.88 0 12.458 5.578 12.458 12.458 0 6.881-5.578 12.459-12.458 12.459l-23-.001-1.934 3.988-1.934-3.988h-23C5.89 24.916.312 19.339.312 12.458.312 5.578 5.89 0 12.771 0h49.867z"/>
        <path id="hwchnprrxg" d="M68.542.635C75.422.635 81 6.212 81 13.093c0 6.88-5.578 12.458-12.458 12.458H19.116l-1.936 3.987-1.938-3.987h-2.554c-6.88 0-12.459-5.577-12.459-12.458C.229 6.213 5.807.635 12.688.635h55.854z"/>
    </defs>
    <g fill="none" fill-rule="evenodd">
        <g>
            <g transform="translate(-20 -910) translate(20 910)">
                <path fill="url(#yhr04om7ja)" fill-rule="nonzero" d="M32.924 148.846c45.043 1.61 86.486-7.564 124.328-27.522 37.843-19.957 68.067-43.455 90.672-70.493v108.637h-215c.16 0 .16-3.54 0-10.622z" opacity=".1"/>
                <path fill="#7772B6" fill-rule="nonzero" d="M33.914 150.994l-1 .009.018 2 1-.01-.018-2v.001zm.045 5l-1 .009.018 2 1-.01-.018-2v.001zm52.784-9.982h-1v2h1v-2zm0 5h-1v2h1v-2zm0 5h-1v2h1v-2zm52.82-25.947h-1v2h1v-2zm0 5h-1v2h1v-2zm0 5h-1v2h1v-2zm0 5h-1v2h1v-2zm0 5h-1v2h1v-2zm0 5h-1v2h1v-2zm52.824-53.904h-1v2h1v-2zm0 5h-1v2h1v-2zm0 5h-1v2h1v-2zm0 5h-1v2h1v-2zm0 5h-1v2h1v-2zm0 5h-1v2h1v-2zm0 5h-1v2h1v-2zm0 5h-1v2h1v-2zm0 5h-1v2h1v-2zm0 5h-1v2h1v-2zm0 5h-1v2h1v-2zm0 5h-1v2h1v-2zm55.814-101.844h-1v2h1v-2zm0 5h-1v2h1v-2zm0 5h-1v2h1v-2zm0 5h-1v2h1v-2zm0 5h-1v2h1v-2zm0 5h-1v2h1v-2zm0 5h-1v2h1v-2zm0 5h-1v2h1v-2zm0 5h-1v2h1v-2zm0 5h-1v2h1v-2zm0 5h-1v2h1v-2zm0 5h-1v2h1v-2zm0 5h-1v2h1v-2zm0 5h-1v2h1v-2zm0 5h-1v2h1v-2zm0 5h-1v2h1v-2zm0 5h-1v2h1v-2zm0 5h-1v2h1v-2zm0 5h-1v2h1v-2zm0 5h-1v2h1v-2zm0 5h-1v2h1v-2z"/>
                <path stroke="#CBC8D9" stroke-linecap="square" d="M5.997 159L302 159"/>
                <path fill="#444F57" fill-rule="nonzero" d="M240.61 185.26v-1.06h-3.43l2.12-2.14c.34-.34.598-.688.775-1.045.177-.357.265-.732.265-1.125v-.1c0-.247-.045-.482-.135-.705-.09-.223-.23-.42-.42-.59-.19-.17-.432-.305-.725-.405-.293-.1-.643-.15-1.05-.15-.367 0-.685.05-.955.15-.27.1-.503.225-.7.375-.197.15-.36.315-.49.495s-.238.347-.325.5l.96.63c.12-.207.242-.377.365-.51s.248-.237.375-.31c.127-.073.255-.123.385-.15.13-.027.262-.04.395-.04.373 0 .638.078.795.235.157.157.235.332.235.525v.08c0 .1-.007.203-.02.31-.013.107-.05.223-.11.35-.06.127-.15.27-.27.43-.12.16-.283.347-.49.56l-2.65 2.73v.96h5.1zm3.73.11c.873 0 1.527-.27 1.96-.81.433-.54.65-1.323.65-2.35v-1.12c0-1.013-.227-1.792-.68-2.335-.453-.543-1.107-.815-1.96-.815-.847 0-1.502.272-1.965.815-.463.543-.695 1.322-.695 2.335v1.12c0 1.013.233 1.793.7 2.34.467.547 1.13.82 1.99.82zm0-1.21c-.167 0-.333-.023-.5-.07-.167-.047-.317-.14-.45-.28s-.242-.337-.325-.59c-.083-.253-.125-.587-.125-1v-1.14c0-.407.04-.737.12-.99.08-.253.185-.45.315-.59.13-.14.277-.233.44-.28.163-.047.328-.07.495-.07.173 0 .342.023.505.07.163.047.307.138.43.275s.223.332.3.585c.077.253.115.587.115 1v1.14c0 .42-.037.757-.11 1.01-.073.253-.17.448-.29.585-.12.137-.26.228-.42.275-.16.047-.327.07-.5.07zm8.67 1.1v-1.06h-3.43l2.12-2.14c.34-.34.598-.688.775-1.045.177-.357.265-.732.265-1.125v-.1c0-.247-.045-.482-.135-.705-.09-.223-.23-.42-.42-.59-.19-.17-.432-.305-.725-.405-.293-.1-.643-.15-1.05-.15-.367 0-.685.05-.955.15-.27.1-.503.225-.7.375-.197.15-.36.315-.49.495s-.238.347-.325.5l.96.63c.12-.207.242-.377.365-.51s.248-.237.375-.31c.127-.073.255-.123.385-.15.13-.027.262-.04.395-.04.373 0 .638.078.795.235.157.157.235.332.235.525v.08c0 .1-.007.203-.02.31-.013.107-.05.223-.11.35-.06.127-.15.27-.27.43-.12.16-.283.347-.49.56l-2.65 2.73v.96h5.1zm3.73.11c.873 0 1.527-.27 1.96-.81.433-.54.65-1.323.65-2.35v-1.12c0-1.013-.227-1.792-.68-2.335-.453-.543-1.107-.815-1.96-.815-.847 0-1.502.272-1.965.815-.463.543-.695 1.322-.695 2.335v1.12c0 1.013.233 1.793.7 2.34.467.547 1.13.82 1.99.82zm0-1.21c-.167 0-.333-.023-.5-.07-.167-.047-.317-.14-.45-.28s-.242-.337-.325-.59c-.083-.253-.125-.587-.125-1v-1.14c0-.407.04-.737.12-.99.08-.253.185-.45.315-.59.13-.14.277-.233.44-.28.163-.047.328-.07.495-.07.173 0 .342.023.505.07.163.047.307.138.43.275s.223.332.3.585c.077.253.115.587.115 1v1.14c0 .42-.037.757-.11 1.01-.073.253-.17.448-.29.585-.12.137-.26.228-.42.275-.16.047-.327.07-.5.07zm-233.13 1.1v-1.06h-3.43l2.12-2.14c.34-.34.598-.688.775-1.045.177-.357.265-.732.265-1.125v-.1c0-.247-.045-.482-.135-.705-.09-.223-.23-.42-.42-.59-.19-.17-.432-.305-.725-.405-.293-.1-.643-.15-1.05-.15-.367 0-.685.05-.955.15-.27.1-.503.225-.7.375-.197.15-.36.315-.49.495s-.238.347-.325.5l.96.63c.12-.207.242-.377.365-.51s.248-.237.375-.31c.127-.073.255-.123.385-.15.13-.027.262-.04.395-.04.373 0 .638.078.795.235.157.157.235.332.235.525v.08c0 .1-.007.203-.02.31-.013.107-.05.223-.11.35-.06.127-.15.27-.27.43-.12.16-.283.347-.49.56l-2.65 2.73v.96h5.1zm3.73.11c.873 0 1.527-.27 1.96-.81.433-.54.65-1.323.65-2.35v-1.12c0-1.013-.227-1.792-.68-2.335-.453-.543-1.107-.815-1.96-.815-.847 0-1.502.272-1.965.815-.463.543-.695 1.322-.695 2.335v1.12c0 1.013.233 1.793.7 2.34.467.547 1.13.82 1.99.82zm0-1.21c-.167 0-.333-.023-.5-.07-.167-.047-.317-.14-.45-.28s-.242-.337-.325-.59c-.083-.253-.125-.587-.125-1v-1.14c0-.407.04-.737.12-.99.08-.253.185-.45.315-.59.13-.14.277-.233.44-.28.163-.047.328-.07.495-.07.173 0 .342.023.505.07.163.047.307.138.43.275s.223.332.3.585c.077.253.115.587.115 1v1.14c0 .42-.037.757-.11 1.01-.073.253-.17.448-.29.585-.12.137-.26.228-.42.275-.16.047-.327.07-.5.07zm7.72 1.1v-7.21h-1.13l-2.41 1.34.62 1.04 1.64-.94v5.77h1.28zm4.7.11c.4 0 .758-.06 1.075-.18.317-.12.585-.285.805-.495.22-.21.388-.46.505-.75.117-.29.175-.602.175-.935v-.2c0-.347-.052-.663-.155-.95-.103-.287-.252-.532-.445-.735-.193-.203-.43-.36-.71-.47-.28-.11-.593-.165-.94-.165-.313 0-.618.053-.915.16-.297.107-.532.263-.705.47.02-.387.077-.708.17-.965.093-.257.208-.463.345-.62.137-.157.29-.268.46-.335.17-.067.348-.1.535-.1.3 0 .573.033.82.1s.483.167.71.3l.47-1.06c-.273-.18-.58-.308-.92-.385-.34-.077-.673-.115-1-.115-.393 0-.763.055-1.11.165-.347.11-.65.31-.91.6s-.465.69-.615 1.2c-.15.51-.225 1.162-.225 1.955v.46c0 .46.048.878.145 1.255.097.377.248.698.455.965.207.267.473.472.8.615.327.143.72.215 1.18.215zm-.03-1.16c-.413 0-.727-.108-.94-.325-.213-.217-.32-.522-.32-.915v-.15c0-.167.025-.323.075-.47.05-.147.128-.275.235-.385.107-.11.242-.197.405-.26.163-.063.362-.095.595-.095.44 0 .763.102.97.305.207.203.31.515.31.935v.11c0 .4-.112.708-.335.925-.223.217-.555.325-.995.325z"/>
                <path fill="#9794B5" fill-rule="nonzero" d="M56.592 120c5.662 0 10.252 4.59 10.252 10.252 0 5.661-4.59 10.251-10.252 10.251H35.51l-1.642 3.355-1.644-3.355H10.252C4.59 140.503 0 135.913 0 130.252 0 124.59 4.59 120 10.252 120h46.34z"/>
                <path fill="#FBFBFB" fill-rule="nonzero" d="M14.684 131.712v-5.392h-1.056v1.024h-1.64c-.36-.368-.856-.584-1.432-.584-1.088 0-1.936.808-1.936 1.904 0 1.104.848 1.912 1.936 1.912.576 0 1.088-.224 1.448-.6h1.624v1.736h1.056zm-4.128-2.056c-.536 0-.936-.376-.936-.992 0-.608.4-.984.936-.984.544 0 .944.376.944.984 0 .616-.4.992-.944.992zm3.072-.52h-1.184c.04-.144.056-.312.056-.472 0-.168-.024-.328-.056-.48h1.184v.952zm1.224 4.424v-.84h-3.968v-1.536H9.828v2.376h5.024zm7.352.12v-7.368h-1v2.816h-.616v-2.696h-.984v6.92h.984v-3.376h.616v3.704h1zm-3.208-1.832v-4.776h-2.904v4.776h2.904zm-.976-.824h-.944v-3.12h.944v3.12zm11.304-1.76l.296-.776c-1.48-.064-2.2-.416-2.408-.832h2.048v-.76h-2.168v-.584h-1.056v.584h-2.152v.76h2.032c-.2.416-.92.768-2.4.832l.288.776c1.376-.072 2.304-.408 2.76-.952.464.544 1.392.88 2.76.952zm-.04 4.368v-.76H25.06v-.384h4.032v-1.824H27.1v-.44h2.792v-.776H23.26v.776h2.784v.44h-2.04v.76h4.048v.352h-4.04v1.856h5.272zm7.008-.632v-.952H35.18v-4.968h-.872c-.376.232-.784.384-1.376.496v.728h1.072v3.744h-1.272V133h3.56zm1.792.112c.424 0 .736-.336.736-.768s-.312-.768-.736-.768c-.416 0-.728.336-.728.768s.312.768.728.768zm3.656 0c1.2 0 1.992-.688 1.992-1.584 0-.808-.448-1.288-.992-1.584v-.04c.392-.28.76-.768.76-1.352 0-.944-.672-1.576-1.72-1.576-1.032 0-1.784.608-1.784 1.56 0 .632.328 1.08.784 1.408v.04c-.552.296-1.016.784-1.016 1.544 0 .928.848 1.584 1.976 1.584zm.376-3.496c-.624-.248-1.08-.52-1.08-1.08 0-.472.32-.736.72-.736.496 0 .784.344.784.824 0 .352-.136.688-.424.992zm-.344 2.664c-.552 0-.992-.344-.992-.88 0-.44.224-.84.544-1.096.768.312 1.312.568 1.312 1.184 0 .512-.368.792-.864.792zm8.832-1.592v-4.368h-1.056v1.784H48.38c-.2-.824-.96-1.4-1.904-1.4-1.088 0-1.936.768-1.936 1.824 0 1.064.848 1.832 1.936 1.832.944 0 1.704-.568 1.904-1.408h1.168v1.736h1.056zm-4.128-1.232c-.528 0-.928-.344-.928-.928 0-.584.4-.92.928-.92.536 0 .944.336.944.92 0 .584-.408.928-.944.928zm4.128 4.24v-2.68h-5.016v.832h3.96v1.848h1.056zm7.4-1.792v-5.584h-1.056v4.28h-1.384v.72h1.384v.584h1.056zm-3.856-2.704c1.072 0 1.832-.528 1.832-1.312s-.76-1.32-1.832-1.32c-1.08 0-1.84.536-1.84 1.32s.76 1.312 1.84 1.312zm0-.768c-.496 0-.84-.184-.84-.544 0-.36.344-.552.84-.552.488 0 .832.192.832.552 0 .36-.344.544-.832.544zm4.016 5.128v-.84h-4.408v-1.008h1.016v-1.392c.592-.04 1.184-.104 1.76-.208l-.072-.752c-1.552.2-3.344.216-4.688.224l.136.84c.552 0 1.168-.008 1.816-.04v.984H52.7v2.192h5.464z"/>
                <path fill="url(#szigh9qq1b)" fill-rule="nonzero" d="M247.203 74.75c11.56 0 20.93-9.37 20.93-20.93 0-11.559-9.37-20.93-20.93-20.93s-20.93 9.371-20.93 20.93c0 11.56 9.37 20.93 20.93 20.93z"/>
                <g transform="translate(211)">
                    <use fill="#000" filter="url(#zryr7jlfvc)" xlink:href="#gef4ork67d"/>
                    <use fill="#FFF" xlink:href="#gef4ork67d"/>
                </g>
                <path fill="#000" fill-rule="nonzero" d="M227.532 13.609V8.217h-1.056v1.024h-1.64c-.36-.368-.856-.584-1.432-.584-1.088 0-1.936.808-1.936 1.904 0 1.104.848 1.912 1.936 1.912.576 0 1.088-.224 1.448-.6h1.624v1.736h1.056zm-4.128-2.056c-.536 0-.936-.376-.936-.992 0-.608.4-.984.936-.984.544 0 .944.376.944.984 0 .616-.4.992-.944.992zm3.072-.52h-1.184c.04-.144.056-.312.056-.472 0-.168-.024-.328-.056-.48h1.184v.952zm1.224 4.424v-.84h-3.968v-1.536h-1.056v2.376h5.024zm7.352.12V8.209h-1v2.816h-.616V8.329h-.984v6.92h.984v-3.376h.616v3.704h1zm-3.208-1.832V8.969h-2.904v4.776h2.904zm-.976-.824h-.944v-3.12h.944v3.12zm11.304-1.76l.296-.776c-1.48-.064-2.2-.416-2.408-.832h2.048v-.76h-2.168v-.584h-1.056v.584h-2.152v.76h2.032c-.2.416-.92.768-2.4.832l.288.776c1.376-.072 2.304-.408 2.76-.952.464.544 1.392.88 2.76.952zm-.04 4.368v-.76h-4.224v-.384h4.032v-1.824h-1.992v-.44h2.792v-.776h-6.632v.776h2.784v.44h-2.04v.76h4.048v.352h-4.04v1.856h5.272zm6.576-.632v-1.536h.704v-.896h-.704V8.977H247.3l-2.208 3.584v.8h2.52v1.536h1.096zm-1.096-2.432h-1.376l.92-1.472c.168-.32.328-.648.472-.96h.032c-.016.344-.048.88-.048 1.224v1.208zm5.808 2.432v-1.536h.704v-.896h-.704V8.977h-1.408l-2.208 3.584v.8h2.52v1.536h1.096zm-1.096-2.432h-1.376l.92-1.472c.168-.32.328-.648.472-.96h.032c-.016.344-.048.88-.048 1.224v1.208zm3.32 2.544c.424 0 .736-.336.736-.768s-.312-.768-.736-.768c-.416 0-.728.336-.728.768s.312.768.728.768zm3.512 0c1.096 0 2.072-.76 2.072-2.08 0-1.288-.832-1.88-1.824-1.88-.272 0-.48.056-.712.168l.112-1.256h2.152v-.984h-3.168l-.16 2.872.536.352c.344-.224.536-.312.888-.312.6 0 1 .384 1 1.072 0 .696-.432 1.088-1.048 1.088-.552 0-.968-.272-1.304-.6l-.544.752c.44.44 1.064.808 2 .808zm9.008-2.424V8.217h-1.056v1.784h-1.168c-.2-.824-.96-1.4-1.904-1.4-1.088 0-1.936.768-1.936 1.824 0 1.064.848 1.832 1.936 1.832.944 0 1.704-.568 1.904-1.408h1.168v1.736h1.056zm-4.128-1.232c-.528 0-.928-.344-.928-.928 0-.584.4-.92.928-.92.536 0 .944.336.944.92 0 .584-.408.928-.944.928zm4.128 4.24v-2.68h-5.016v.832h3.96v1.848h1.056zm7.4-1.792V8.217h-1.056v4.28h-1.384v.72h1.384v.584h1.056zm-3.856-2.704c1.072 0 1.832-.528 1.832-1.312s-.76-1.32-1.832-1.32c-1.08 0-1.84.536-1.84 1.32s.76 1.312 1.84 1.312zm0-.768c-.496 0-.84-.184-.84-.544 0-.36.344-.552.84-.552.488 0 .832.192.832.552 0 .36-.344.544-.832.544zm4.016 5.128v-.84h-4.408v-1.008h1.016v-1.392c.592-.04 1.184-.104 1.76-.208l-.072-.752c-1.552.2-3.344.216-4.688.224l.136.84c.552 0 1.168-.008 1.816-.04v.984h-1.024v2.192h5.464z"/>
                <path fill="#444F57" fill-rule="nonzero" d="M27.763 58.584V32.628h-4.068l-8.676 4.824 2.232 3.744 5.904-3.384v20.772h4.608zm23.58 0v-3.816H38.995l7.632-7.704c1.224-1.224 2.154-2.478 2.79-3.762.636-1.284.954-2.634.954-4.05v-.36c0-.888-.162-1.734-.486-2.538-.324-.804-.828-1.512-1.512-2.124-.684-.612-1.554-1.098-2.61-1.458-1.056-.36-2.316-.54-3.78-.54-1.32 0-2.466.18-3.438.54-.972.36-1.812.81-2.52 1.35s-1.296 1.134-1.764 1.782c-.468.648-.858 1.248-1.17 1.8l3.456 2.268c.432-.744.87-1.356 1.314-1.836.444-.48.894-.852 1.35-1.116.456-.264.918-.444 1.386-.54.468-.096.942-.144 1.422-.144 1.344 0 2.298.282 2.862.846.564.564.846 1.194.846 1.89v.288c0 .36-.024.732-.072 1.116-.048.384-.18.804-.396 1.26-.216.456-.54.972-.972 1.548-.432.576-1.02 1.248-1.764 2.016l-9.54 9.828v3.456h18.36zm9.936.396c1.584 0 2.97-.21 4.158-.63 1.188-.42 2.172-.978 2.952-1.674.78-.696 1.362-1.5 1.746-2.412.384-.912.576-1.86.576-2.844v-.54c0-1.488-.408-2.76-1.224-3.816-.816-1.056-2.088-1.74-3.816-2.052.744-.288 1.356-.66 1.836-1.116.48-.456.864-.954 1.152-1.494.288-.54.486-1.104.594-1.692.108-.588.162-1.134.162-1.638v-.36c0-.96-.192-1.842-.576-2.646-.384-.804-.924-1.488-1.62-2.052-.696-.564-1.536-1.002-2.52-1.314-.984-.312-2.088-.468-3.312-.468-1.872 0-3.408.342-4.608 1.026-1.2.684-2.232 1.59-3.096 2.718l3.132 2.448c.576-.624 1.206-1.14 1.89-1.548.684-.408 1.578-.612 2.682-.612 1.08 0 1.938.222 2.574.666.636.444.954 1.158.954 2.142v.288c0 .552-.054 1.062-.162 1.53-.108.468-.306.864-.594 1.188-.288.324-.69.576-1.206.756-.516.18-1.182.27-1.998.27h-3.096v3.96h3.492c1.656 0 2.856.294 3.6.882.744.588 1.116 1.518 1.116 2.79v.468c0 1.152-.384 2.052-1.152 2.7-.768.648-1.968.972-3.6.972-.528 0-1.02-.036-1.476-.108-.456-.072-.924-.198-1.404-.378-.48-.18-.978-.426-1.494-.738s-1.086-.696-1.71-1.152l-2.268 3.6c1.224.984 2.538 1.71 3.942 2.178 1.404.468 2.862.702 4.374.702zM79.71 45.912c1.896 0 3.396-.558 4.5-1.674 1.104-1.116 1.656-2.622 1.656-4.518v-1.404c0-1.896-.552-3.402-1.656-4.518-1.104-1.116-2.604-1.674-4.5-1.674s-3.396.558-4.5 1.674c-1.104 1.116-1.656 2.622-1.656 4.518v1.404c0 1.896.552 3.402 1.656 4.518 1.104 1.116 2.604 1.674 4.5 1.674zm2.592 12.636l15.48-25.92h-4.14l-15.516 25.92h4.176zM79.71 42.852c-1.008 0-1.692-.288-2.052-.864-.36-.576-.54-1.356-.54-2.34v-1.26c0-.96.18-1.734.54-2.322.36-.588 1.044-.882 2.052-.882s1.692.294 2.052.882c.36.588.54 1.362.54 2.322v1.26c0 .984-.18 1.764-.54 2.34-.36.576-1.044.864-2.052.864zm16.524 16.02c1.896 0 3.396-.558 4.5-1.674 1.104-1.116 1.656-2.622 1.656-4.518v-1.404c0-1.896-.552-3.402-1.656-4.518-1.104-1.116-2.604-1.674-4.5-1.674s-3.396.558-4.5 1.674c-1.104 1.116-1.656 2.622-1.656 4.518v1.404c0 1.896.552 3.402 1.656 4.518 1.104 1.116 2.604 1.674 4.5 1.674zm0-3.06c-1.008 0-1.692-.288-2.052-.864-.36-.576-.54-1.356-.54-2.34v-1.26c0-.96.18-1.734.54-2.322.36-.588 1.044-.882 2.052-.882s1.692.294 2.052.882c.36.588.54 1.362.54 2.322v1.26c0 .984-.18 1.764-.54 2.34-.36.576-1.044.864-2.052.864z"/>
                <path fill="url(#btqhvublxe)" fill-rule="nonzero" d="M115 37L122 45 118 45 118 60 111 60 111 45 108 45z"/>
                <path fill="#444F57" fill-rule="nonzero" d="M19.785 21.17v-3.972h-.75v.69h-.756v.642h.756v.726h-.756v.642h.756v1.272h.75zm-3.114-.852c.22 0 .42-.035.597-.105.178-.07.33-.165.453-.285.124-.12.22-.258.285-.414.066-.156.1-.318.1-.486v-.336c0-.168-.034-.33-.1-.486-.066-.156-.16-.294-.285-.414-.124-.12-.275-.215-.453-.285-.178-.07-.377-.105-.597-.105-.22 0-.419.035-.597.105-.178.07-.329.165-.453.285-.124.12-.219.258-.285.414-.066.156-.099.318-.099.486v.336c0 .168.033.33.1.486.065.156.16.294.284.414.124.12.275.215.453.285.178.07.377.105.597.105zm0-.654c-.112 0-.213-.02-.303-.057-.09-.038-.166-.09-.228-.153-.062-.064-.109-.137-.14-.22-.033-.081-.049-.168-.049-.26v-.228c0-.088.016-.174.048-.258.032-.084.08-.158.141-.222.062-.064.138-.115.228-.153.09-.038.191-.057.303-.057.112 0 .213.019.303.057.09.038.166.089.228.153s.11.138.141.222c.032.084.048.17.048.258v.228c0 .092-.016.179-.048.26-.032.083-.079.156-.14.22-.063.064-.139.115-.229.153-.09.038-.19.057-.303.057zm3.204 3.054v-.648h-2.88v-1.224h-.762v1.872h3.642zm5.364-2.16v-3.36h-.75v.804h-.636v-.492h-3.09v.606h.498v1.632h-.534v.606c.256 0 .53-.002.82-.006.29-.004.581-.01.875-.018.294-.008.58-.02.858-.036.278-.016.535-.034.771-.054l-.048-.588c-.12.008-.236.015-.348.02l-.336.022v-1.578h.48v.498h.69v.342h-.69v.612h.69v.99h.75zm-3.252-.816v-1.626h.606v1.608l-.606.018zm1.524 3.204c.248 0 .478-.024.69-.072.212-.048.396-.117.552-.207.156-.09.28-.201.37-.333.09-.132.134-.282.134-.45v-.24c0-.168-.045-.318-.135-.45-.09-.132-.213-.243-.369-.333-.156-.09-.34-.16-.552-.207-.212-.048-.442-.072-.69-.072-.248 0-.478.024-.69.072-.212.048-.396.117-.552.207-.156.09-.279.2-.369.333-.09.132-.135.282-.135.45v.24c0 .168.045.318.135.45.09.132.213.243.37.333.155.09.34.159.551.207.212.048.442.072.69.072zm0-.618c-.132 0-.258-.013-.378-.04-.12-.025-.226-.06-.318-.104s-.166-.096-.222-.156c-.056-.06-.084-.124-.084-.192v-.144c0-.068.028-.132.084-.192.056-.06.13-.112.222-.156s.198-.08.318-.105c.12-.026.246-.04.378-.04s.258.014.378.04c.12.026.226.06.318.105.092.044.166.096.222.156.056.06.084.124.084.192v.144c0 .068-.028.132-.084.192-.056.06-.13.112-.222.156s-.198.079-.318.105c-.12.026-.246.039-.378.039zm5.04-.93v-1.266h.654v1.266h.75v-1.266h1.224v-.636h-.87c.02-.1.037-.206.051-.318.014-.112.026-.22.036-.324.01-.104.018-.202.024-.294.006-.092.01-.172.01-.24v-.888h-3.697v.642h2.94v.288c0 .152-.01.33-.03.537-.02.206-.052.405-.096.597h-3.48v.636h1.734v1.266h.75zm2.022 1.32v-.642h-3.102V20.96h-.744v1.758h3.846zm7.086-2.214v-3.306h-.756v1.128h-.984v.642h.984v1.536h.756zm-4.218-.036c.168-.128.327-.253.477-.375.15-.122.295-.243.435-.363.124-.108.212-.192.264-.252.052-.06.088-.114.108-.162.02.048.071.107.153.177.082.07.175.145.28.225.111.088.231.179.36.273.127.094.261.189.401.285l.42-.528c-.152-.104-.305-.212-.459-.324-.154-.112-.289-.216-.405-.312-.08-.064-.146-.127-.198-.19-.052-.061-.093-.126-.123-.194s-.05-.141-.06-.22c-.01-.077-.015-.166-.015-.266v-.816h-.768v.84c0 .196-.037.368-.11.516-.075.148-.174.278-.298.39-.144.132-.288.256-.432.372-.144.116-.304.238-.48.366l.45.558zm2.49 2.478c.248 0 .478-.024.69-.072.212-.048.396-.12.552-.213.156-.094.28-.207.37-.34.09-.131.134-.281.134-.45v-.263c0-.168-.045-.318-.135-.45-.09-.132-.213-.245-.369-.34-.156-.093-.34-.164-.552-.212-.212-.048-.442-.072-.69-.072-.248 0-.478.024-.69.072-.212.048-.396.119-.552.213-.156.094-.279.207-.369.339-.09.132-.135.282-.135.45v.264c0 .168.045.318.135.45.09.132.213.245.37.339.155.094.34.165.551.213.212.048.442.072.69.072zm0-.618c-.132 0-.258-.014-.378-.042-.12-.028-.226-.065-.318-.111s-.166-.1-.222-.162c-.056-.062-.084-.127-.084-.195v-.156c0-.068.028-.133.084-.195.056-.062.13-.116.222-.162s.198-.083.318-.111c.12-.028.246-.042.378-.042s.258.014.378.042c.12.028.226.065.318.11.092.047.166.1.222.163.056.062.084.127.084.195v.156c0 .068-.028.133-.084.195-.056.062-.13.116-.222.162s-.198.083-.318.11c-.12.029-.246.043-.378.043zm6.984-1.818v-1.38h.732v-.66h-.732v-1.272h-.756v3.312h.756zm-3.99-.018c.152-.104.295-.207.43-.31.133-.101.264-.204.392-.308.14-.108.25-.201.33-.28.08-.077.126-.134.138-.17.016.032.062.08.138.147.076.066.178.145.306.237.224.164.47.334.738.51l.402-.534c-.152-.096-.3-.194-.444-.294-.144-.1-.28-.198-.408-.294-.08-.06-.145-.118-.195-.174-.05-.056-.09-.111-.12-.165-.03-.054-.05-.112-.06-.174-.01-.062-.015-.13-.015-.201v-.306h1.038v-.642h-2.88v.642h1.086v.306c0 .148-.029.279-.087.393-.058.114-.139.217-.243.309-.128.112-.277.234-.447.366-.17.132-.35.262-.543.39l.444.552zm2.292 2.454c.256 0 .49-.026.702-.078.212-.052.393-.126.543-.222.15-.096.266-.21.348-.342.082-.132.123-.278.123-.438v-.252c0-.16-.04-.306-.123-.438-.082-.132-.198-.246-.348-.342-.15-.096-.33-.17-.543-.222-.212-.052-.446-.078-.702-.078-.26 0-.495.026-.705.078-.21.052-.39.126-.54.222-.15.096-.266.21-.348.342-.082.132-.123.278-.123.438v.252c0 .16.041.306.123.438.082.132.198.246.348.342.15.096.33.17.54.222.21.052.445.078.705.078zm0-.618c-.152 0-.288-.016-.408-.048s-.222-.073-.306-.123c-.084-.05-.148-.105-.192-.165-.044-.06-.066-.118-.066-.174v-.156c0-.056.022-.114.066-.174.044-.06.108-.115.192-.165s.186-.091.306-.123.256-.048.408-.048c.152 0 .288.016.408.048s.222.073.306.123c.084.05.148.105.192.165.044.06.066.118.066.174v.156c0 .056-.022.114-.066.174-.044.06-.108.115-.192.165s-.186.09-.306.123c-.12.032-.256.048-.408.048zm7.194-2.85v-.57h-3.018v-.252h2.922v-1.362h-3.672v.57h2.94v.246h-2.922v1.368h3.75zm.096 3.354v-.57h-3.126v-.264h2.964v-1.374h-.624v-.318h1.338v-.57h-5.112v.57h1.338v.318h-.666v.57h2.994v.258H44.65v1.38h3.858-.001zm-1.53-2.208h-.948v-.318h.948v.318z"/>
                <path fill="#6A64AF" fill-rule="nonzero" d="M248.1 50.784l-3.064 3.537c-22.272 25.713-51.519 48.159-87.735 67.345-36.597 19.387-76.233 29.015-118.891 28.882l-4.483-.014.563-1.078 1.454-.672 7.065-.276-.029.015.501-.006c39.987-.61 77.247-9.958 111.794-28.045l1.09-.574c33.889-17.953 61.616-38.758 83.187-62.417l2.93-3.24.765-.421.24-.906 4.612-2.13z"/>
                <circle cx="190.99" cy="101.664" r="2.49" fill="#FFF" fill-rule="nonzero" stroke="#6A64AF"/>
                <circle cx="85.99" cy="146.515" r="2.49" fill="#FFF" fill-rule="nonzero" stroke="#6A64AF"/>
                <circle cx="33.92" cy="150.498" r="2.49" fill="#FFF" fill-rule="nonzero" stroke="#6A64AF"/>
                <circle cx="138.99" cy="130.565" r="2.49" fill="#FFF" fill-rule="nonzero" stroke="#6A64AF"/>
                <circle cx="246.485" cy="53.322" r="4.485" fill="#FFF" fill-rule="nonzero"/>
                <path fill="#9794B5" fill-rule="nonzero" d="M238.246 99.668h16.917c2.209 0 4 1.79 4 4v55.8h-24.917v-55.8c0-2.21 1.79-4 4-4z"/>
                <g transform="translate(239 109)">
                    <use fill="#000" filter="url(#tzmdazsjnf)" xlink:href="#hwchnprrxg"/>
                    <use fill="#FFF" xlink:href="#hwchnprrxg"/>
                </g>
                <path fill="#000" fill-rule="nonzero" d="M254.391 122.1v-1.655h.96v-.856h-.96v-1.752h-1.064v4.264h1.064v-.001zm-1.536-.615l-.104-.84c-.8.168-1.536.224-2.872.232v-1.696h2.256v-.84h-3.304v3.384h.624c1.648 0 2.496-.048 3.4-.24zm-.896 3.736c1.528 0 2.496-.56 2.496-1.496 0-.936-.968-1.496-2.496-1.496-1.512 0-2.488.56-2.488 1.496 0 .936.976 1.496 2.488 1.496zm0-.84c-.928 0-1.448-.216-1.448-.656 0-.448.52-.656 1.448-.656.936 0 1.456.208 1.456.656 0 .44-.52.656-1.456.656zm10.112.824v-7.368h-1.064v7.368h1.064zm-5.568-1.24c2.616-1.264 3.376-3.104 3.376-5.36h-3.536v.84h2.456c-.152 1.632-.968 2.784-2.848 3.688l.552.832zm7.52-2.896c1.24-.2 2.144-.768 2.608-1.52.464.744 1.36 1.304 2.592 1.496l.4-.824c-1.624-.224-2.456-1.144-2.456-1.952v-.232h-1.088v.232c0 .832-.824 1.744-2.448 1.968l.392.832zm3.224 2.488V122.3h2.72v-.832h-6.68v.832h2.904v1.256h1.056v.001zm1.976 1.528v-.84h-4.104v-1.312h-1.056v2.152h5.16zm7.536.144v-7.392h-1.056v7.392h1.056zm-3.96-1.608c1.112 0 1.936-1.016 1.936-2.64 0-1.616-.824-2.624-1.936-2.624s-1.936 1.008-1.936 2.624c0 1.624.824 2.64 1.936 2.64zm0-.96c-.544 0-.92-.584-.92-1.68 0-1.088.376-1.672.92-1.672s.92.584.92 1.672c0 1.096-.376 1.68-.92 1.68zm11.336-.488v-4.32h-1.064v4.32h1.064zm-4.016-.32c1.144 0 2.008-.752 2.008-1.8s-.864-1.808-2.008-1.808c-1.128 0-2 .76-2 1.808s.872 1.8 2 1.8zm0-.888c-.552 0-.968-.344-.968-.912 0-.576.416-.912.968-.912.56 0 .976.336.976.912 0 .568-.416.912-.976.912zm4.016 4.256v-2.712h-5.024v.84h3.96v1.872h1.064zm6.928-.696v-.952h-1.112v-4.968h-.872c-.376.232-.784.384-1.376.496v.728h1.072v3.744h-1.272v.952h3.56zm3.024.112c1.008 0 1.856-.76 1.856-1.976 0-1.272-.704-1.864-1.696-1.864-.384 0-.896.24-1.216.632.048-1.48.608-1.992 1.288-1.992.344 0 .704.192.912.432l.624-.704c-.36-.368-.888-.672-1.608-.672-1.192 0-2.288.944-2.288 3.152 0 2.088 1 2.992 2.128 2.992zm-.024-.888c-.496 0-.896-.416-1.008-1.496.296-.456.648-.624.968-.624.512 0 .84.328.84 1.032 0 .72-.36 1.088-.8 1.088zm8.712-1.536v-4.368h-1.056v1.784h-1.168c-.2-.824-.96-1.4-1.904-1.4-1.088 0-1.936.768-1.936 1.824 0 1.064.848 1.832 1.936 1.832.944 0 1.704-.568 1.904-1.408h1.168v1.736h1.056zm-4.128-1.232c-.528 0-.928-.344-.928-.928 0-.584.4-.92.928-.92.536 0 .944.336.944.92 0 .584-.408.928-.944.928zm4.128 4.24v-2.68h-5.016v.832h3.96v1.848h1.056zm7.4-1.792v-5.584h-1.056v4.28h-1.384v.72h1.384v.584h1.056zm-3.856-2.704c1.072 0 1.832-.528 1.832-1.312s-.76-1.32-1.832-1.32c-1.08 0-1.84.536-1.84 1.32s.76 1.312 1.84 1.312zm0-.768c-.496 0-.84-.184-.84-.544 0-.36.344-.552.84-.552.488 0 .832.192.832.552 0 .36-.344.544-.832.544zm4.016 5.128v-.84h-4.408v-1.008h1.016v-1.392c.592-.04 1.184-.104 1.76-.208l-.072-.752c-1.552.2-3.344.216-4.688.224l.136.84c.552 0 1.168-.008 1.816-.04v.984h-1.024v2.192h5.464z"/>
            </g>
        </g>
    </g>
</svg>
