<svg width="476" height="140" xmlns="http://www.w3.org/2000/svg">
    <defs>
        <linearGradient x1="0%" y1="50%" x2="100%" y2="50%" id="a">
            <stop stop-color="#DEDDED" stop-opacity="0" offset="0%"/>
            <stop stop-color="#DEDDED" offset="100%"/>
        </linearGradient>
        <linearGradient x1="-10.057%" y1="113.945%" x2="109.092%" y2="-11.098%" id="b">
            <stop stop-color="#36C7FB" offset="0%"/>
            <stop stop-color="#E41A8C" offset="100%"/>
        </linearGradient>
    </defs>
    <g fill="none" fill-rule="evenodd">
        <path d="M270.112 52 296 70l-25.888 18-.001-9.5H180v-18h90.111V52z" fill="url(#a)" opacity=".9" transform="matrix(1 0 0 -1 0 140)"/>
        <circle fill="#F6F6F8" cx="70" cy="70" r="70"/>
        <path d="M406 140c38.66 0 70-31.34 70-70S444.66 0 406 0s-70 31.34-70 70 31.34 70 70 70z" fill="url(#b)" opacity=".8"/>
        <path d="M35.746 75.368c1.344 0 2.45-.532 3.304-1.526l-1.092-1.288c-.56.602-1.26 1.022-2.142 1.022-1.638 0-2.702-1.358-2.702-3.612 0-2.226 1.176-3.57 2.744-3.57.784 0 1.386.364 1.904.868l1.092-1.316c-.672-.7-1.722-1.33-3.038-1.33-2.618 0-4.816 2.002-4.816 5.418 0 3.458 2.128 5.334 4.746 5.334zm8.078 0c1.96 0 3.766-1.512 3.766-4.102 0-2.618-1.806-4.13-3.766-4.13s-3.766 1.512-3.766 4.13c0 2.59 1.806 4.102 3.766 4.102zm0-1.68c-1.064 0-1.666-.952-1.666-2.422 0-1.484.602-2.45 1.666-2.45s1.666.966 1.666 2.45c0 1.47-.602 2.422-1.666 2.422zm8.89-1.792v-1.47h-3.822v1.47h3.822zm5.432 3.276.798-3.416c.168-.728.28-1.456.434-2.282h.07c.154.826.28 1.54.448 2.282l.826 3.416h2.422l1.932-7.84h-1.904l-.854 3.878c-.154.756-.252 1.512-.392 2.282h-.07c-.168-.77-.308-1.526-.49-2.282l-.98-3.878h-1.834l-.938 3.878c-.196.742-.336 1.512-.49 2.282h-.056c-.14-.77-.238-1.526-.392-2.282l-.854-3.878h-2.058l2.03 7.84h2.352zm11.704.196c1.96 0 3.766-1.512 3.766-4.102 0-2.618-1.806-4.13-3.766-4.13s-3.766 1.512-3.766 4.13c0 2.59 1.806 4.102 3.766 4.102zm0-1.68c-1.064 0-1.666-.952-1.666-2.422 0-1.484.602-2.45 1.666-2.45s1.666.966 1.666 2.45c0 1.47-.602 2.422-1.666 2.422zm7.532 1.484v-4.676c.448-1.134 1.19-1.54 1.806-1.54.322 0 .546.042.812.126l.364-1.778c-.238-.098-.49-.168-.924-.168-.812 0-1.652.56-2.226 1.582h-.056l-.14-1.386h-1.68v7.84h2.044zm6.062 0v-1.96l1.134-1.288 1.904 3.248h2.226l-2.968-4.634 2.716-3.206h-2.24L83.5 70.72h-.056V64h-2.002v11.172h2.002zm9.87.196c.98 0 1.974-.336 2.744-.868l-.7-1.26c-.56.35-1.12.546-1.764.546-1.162 0-2.002-.672-2.17-1.96h4.83c.056-.182.098-.56.098-.938 0-2.17-1.12-3.752-3.276-3.752-1.876 0-3.654 1.582-3.654 4.13 0 2.576 1.708 4.102 3.892 4.102zm1.274-4.9h-3.192c.154-1.148.882-1.736 1.708-1.736 1.008 0 1.484.672 1.484 1.736zm5.502 4.704v-4.676c.448-1.134 1.19-1.54 1.806-1.54.322 0 .546.042.812.126l.364-1.778c-.238-.098-.49-.168-.924-.168-.812 0-1.652.56-2.226 1.582h-.056l-.14-1.386h-1.68v7.84h2.044zm6.3.196c2.044 0 3.122-1.106 3.122-2.478 0-1.456-1.148-1.974-2.184-2.366-.826-.308-1.596-.518-1.596-1.092 0-.448.336-.756 1.036-.756.588 0 1.134.28 1.694.672l.924-1.246c-.658-.49-1.526-.966-2.674-.966-1.764 0-2.912.994-2.912 2.408 0 1.302 1.148 1.904 2.142 2.282.826.322 1.638.588 1.638 1.176 0 .49-.35.826-1.134.826-.728 0-1.4-.308-2.1-.854l-.938 1.288c.77.644 1.932 1.106 2.982 1.106z" fill="#000" fill-rule="nonzero"/>
        <path d="M397.502 76.195c1.344 0 2.45-.532 3.304-1.526l-1.092-1.288c-.56.602-1.26 1.022-2.142 1.022-1.638 0-2.702-1.358-2.702-3.611 0-2.226 1.176-3.57 2.744-3.57.784 0 1.386.364 1.904.868l1.092-1.315c-.672-.7-1.722-1.33-3.038-1.33-2.618 0-4.816 2.001-4.816 5.417 0 3.457 2.128 5.333 4.746 5.333zm11.48-.196v-1.736h-4.438v-2.771h3.64v-1.736h-3.64v-2.394h4.284v-1.721h-6.356v10.358h6.51zm6.216.196c2.744 0 4.634-2.058 4.634-5.417 0-3.36-1.89-5.333-4.634-5.333-2.744 0-4.634 1.96-4.634 5.333 0 3.36 1.89 5.417 4.634 5.417zm0-1.792c-1.54 0-2.52-1.414-2.52-3.625 0-2.226.98-3.555 2.52-3.555s2.52 1.33 2.52 3.555c0 2.211-.98 3.625-2.52 3.625z" fill="#FFF" fill-rule="nonzero"/>
        <path d="M216.228 51.999c3.052 0 5.012-1.736 5.012-5.221 0-3.5-1.96-5.137-5.124-5.137h-2.842v10.358h2.954zm-.238-1.666h-.644v-7.04h.644c1.932 0 3.136.951 3.136 3.485 0 2.52-1.204 3.555-3.136 3.555zm8.148-7.432c.7 0 1.218-.476 1.218-1.12 0-.672-.518-1.12-1.218-1.12-.714 0-1.232.448-1.232 1.12 0 .644.518 1.12 1.232 1.12zm1.008 9.098V44.16h-2.044V52h2.044zm4.256 0v-4.675c.448-1.134 1.19-1.54 1.806-1.54.322 0 .546.042.812.126l.364-1.778c-.238-.098-.49-.168-.924-.168-.812 0-1.652.56-2.226 1.582h-.056l-.14-1.386h-1.68V52h2.044zm7.462.196c.98 0 1.974-.336 2.744-.868l-.7-1.26c-.56.35-1.12.546-1.764.546-1.162 0-2.002-.672-2.17-1.96h4.83c.056-.181.098-.56.098-.937 0-2.17-1.12-3.752-3.276-3.752-1.876 0-3.654 1.582-3.654 4.13 0 2.575 1.708 4.1 3.892 4.1zm1.274-4.9h-3.192c.154-1.147.882-1.735 1.708-1.735 1.008 0 1.484.672 1.484 1.736zm6.79 4.9c.868 0 1.82-.294 2.562-.952l-.812-1.358c-.434.364-.966.63-1.526.63-1.134 0-1.946-.952-1.946-2.421 0-1.484.812-2.45 2.002-2.45.448 0 .812.182 1.204.518l.98-1.33c-.574-.49-1.316-.868-2.282-.868-2.128 0-4.004 1.512-4.004 4.13 0 2.59 1.652 4.1 3.822 4.1zm6.916 0c.686 0 1.232-.154 1.652-.294l-.336-1.498c-.21.084-.518.168-.77.168-.7 0-1.064-.42-1.064-1.316v-3.471h1.932V44.16h-1.932v-2.1h-1.722l-.238 2.1-1.204.098v1.526h1.106v3.471c0 1.764.714 2.94 2.576 2.94z" fill="#9C99C3" fill-rule="nonzero"/>
    </g>
</svg>
