<svg width="587" height="482" xmlns="http://www.w3.org/2000/svg">
    <defs>
        <linearGradient x1="-3.712%" y1="148.86%" x2="108.164%" y2="-20.888%" id="a">
            <stop stop-color="#36C7FB" offset="0%"/>
            <stop stop-color="#E41A8C" offset="100%"/>
        </linearGradient>
        <linearGradient x1="0%" y1="50%" x2="100%" y2="50%" id="b">
            <stop stop-color="#DEDDED" stop-opacity="0" offset="0%"/>
            <stop stop-color="#DEDDED" offset="100%"/>
        </linearGradient>
    </defs>
    <g fill="none" fill-rule="evenodd">
        <path d="M347.003 72.933c93.64 0 169.552 75.91 169.552 169.552 0 93.64-75.911 169.552-169.552 169.552M40.431 72.444h252.654" stroke="#918DBC" stroke-width="2" stroke-linecap="round" stroke-linejoin="round"/>
        <path fill="#918DBC" d="m207.017 67.458 8.635 4.985-8.635 4.987zM215.652 407.54l-8.635 4.984 8.635 4.987zM470.712 119.516l2.581 9.63-9.632-2.58zM476.818 359.6l-9.631 2.582 2.58-9.632z"/>
        <path stroke="#918DBC" stroke-width="2" stroke-linecap="round" stroke-linejoin="round" d="M54.783 412.525h238.302"/>
        <path d="M347 342c38.66 0 70 31.34 70 70s-31.34 70-70 70-70-31.34-70-70 31.34-70 70-70zm-277 0c38.66 0 70 31.34 70 70s-31.34 70-70 70-70-31.34-70-70 31.34-70 70-70zm447-170c38.66 0 70 31.34 70 70s-31.34 70-70 70-70-31.34-70-70 31.34-70 70-70zM347 0c38.66 0 70 31.34 70 70s-31.34 70-70 70-70-31.34-70-70 31.34-70 70-70z" fill="#FFF"/>
        <path d="M417 70c0 38.66-31.34 70-70 70s-70-31.34-70-70 31.34-70 70-70 70 31.34 70 70M587 242c0 38.66-31.34 70-70 70s-70-31.34-70-70 31.34-70 70-70 70 31.34 70 70M417 412c0 38.66-31.34 70-70 70s-70-31.34-70-70 31.34-70 70-70 70 31.34 70 70" fill="#F6F6F8"/>
        <path d="M140 412c0 38.66-31.34 70-70 70S0 450.66 0 412s31.34-70 70-70 70 31.34 70 70" fill="url(#a)" opacity=".8"/>
        <path d="M140 70c0 38.66-31.34 70-70 70S0 108.66 0 70 31.34 0 70 0s70 31.34 70 70" stroke="#918DBC" fill="#9C99C3"/>
        <path d="m102.5 223.247 26 18-26 18-.001-9.5H12v-18h90.499l.001-8.5z" fill="url(#b)" opacity=".9" transform="scale(-1 1) rotate(-90 0 311.497)"/>
        <g fill="#000">
            <path d="M236.298 226.387c0-6.004-2.643-9.591-6.8-9.591-4.152 0-6.794 3.587-6.794 9.591 0 5.965 2.642 9.78 6.795 9.78 4.156 0 6.799-3.815 6.799-9.78m-19.298 0c0-9.1 5.098-14.387 12.499-14.387 7.403 0 12.501 5.324 12.501 14.387 0 9.062-5.098 14.613-12.501 14.613-7.401 0-12.499-5.551-12.499-14.613M247 212h5.683v12.146h.115L262.205 212h6.259l-8.677 11.01L270 240h-6.259l-7.333-12.563-3.725 4.692V240H247zM278.733 224.979h3.717c3.68 0 5.694-1.514 5.694-4.503 0-3.027-2.014-4.049-5.694-4.049h-3.717v8.552zM288.608 240l-5.886-10.594h-3.989V240H273v-28h9.992c6.005 0 10.768 2.043 10.768 8.476 0 4.2-2.17 6.81-5.46 8.059L295 240h-6.392z"/>
        </g>
        <path d="m341.303 264.907 1.182-1.594c.884.676 1.731 1.057 2.649 1.057.99 0 1.43-.415 1.43-1.023 0-.727-1.024-1.056-2.065-1.454-1.253-.469-2.702-1.213-2.702-2.825 0-1.749 1.449-2.98 3.672-2.98 1.449 0 2.543.59 3.372 1.197l-1.165 1.54c-.705-.484-1.394-.83-2.136-.83-.883 0-1.306.38-1.306.935 0 .71.97.97 2.013 1.351 1.306.485 2.753 1.126 2.753 2.928 0 1.698-1.359 3.067-3.937 3.067-1.323 0-2.79-.573-3.76-1.369zm-6.105-2.27v-4.296h-1.394v-1.889l1.518-.12.3-2.6h2.172v2.6h2.436v2.009h-2.436v4.296c0 1.109.459 1.63 1.342 1.63.318 0 .706-.105.97-.208l.424 1.852c-.529.175-1.217.365-2.083.365-2.347 0-3.249-1.456-3.249-3.639zm-5.928.676v-11.105h2.578v11.226c0 .573.282.763.53.763.105 0 .176 0 .352-.035l.318 1.888c-.3.122-.741.226-1.341.226-1.802 0-2.437-1.161-2.437-2.963zm-11.346-.918v-6.064h2.595v5.735c0 1.506.424 2.027 1.377 2.027.813 0 1.342-.347 2.013-1.213v-6.549h2.595v9.701h-2.119l-.194-1.385h-.07c-.848.987-1.8 1.63-3.16 1.63-2.12 0-3.037-1.457-3.037-3.882zm-9.564 2.512 1.182-1.594c.884.676 1.731 1.057 2.649 1.057.99 0 1.43-.415 1.43-1.023 0-.727-1.024-1.056-2.066-1.454-1.253-.469-2.7-1.213-2.7-2.825 0-1.749 1.447-2.98 3.671-2.98 1.448 0 2.543.59 3.372 1.197l-1.165 1.54c-.706-.484-1.394-.83-2.136-.83-.883 0-1.306.38-1.306.935 0 .71.97.97 2.013 1.351 1.306.485 2.753 1.126 2.753 2.928 0 1.698-1.359 3.067-3.937 3.067-1.323 0-2.79-.573-3.76-1.369zm-3.42-4.695c0-1.317-.6-2.148-1.87-2.148-1.042 0-1.96.727-2.155 2.148h4.025zm-6.514.987c0-3.152 2.242-5.11 4.608-5.11 2.72 0 4.131 1.958 4.131 4.643 0 .467-.053.936-.124 1.161h-6.09c.211 1.593 1.271 2.425 2.736 2.425.812 0 1.52-.242 2.225-.676l.882 1.56c-.97.657-2.224 1.074-3.46 1.074-2.754 0-4.908-1.888-4.908-5.077zm-8.591-2.044h1.694c1.678 0 2.596-.693 2.596-2.06 0-1.387-.918-1.855-2.596-1.855h-1.694v3.915zm4.501 6.877-2.683-4.85h-1.818v4.85h-2.613v-12.819h4.554c2.737 0 4.909.935 4.909 3.881 0 1.922-.988 3.118-2.49 3.69l3.055 5.248h-2.914zm-21.955 3.708.477-1.958c.176.052.46.122.69.122 1.005 0 1.57-.624 1.852-1.472l.177-.573-3.849-9.528h2.614l1.57 4.505c.3.866.549 1.801.83 2.736h.09c.229-.9.476-1.835.705-2.736l1.359-4.505h2.49l-3.514 9.997c-.864 2.287-1.924 3.603-4.13 3.603-.583 0-.972-.07-1.36-.19zm-3.86-9.528c0-1.317-.6-2.148-1.871-2.148-1.041 0-1.96.727-2.155 2.148h4.027zm-6.514.987c0-3.152 2.241-5.11 4.607-5.11 2.72 0 4.131 1.958 4.131 4.643 0 .467-.053.936-.123 1.161h-6.091c.212 1.593 1.272 2.425 2.736 2.425.812 0 1.52-.242 2.225-.676l.883 1.56c-.971.657-2.225 1.074-3.46 1.074-2.755 0-4.908-1.888-4.908-5.077zm-11.275-7.986h2.613v5.56h.053l4.325-5.56h2.877l-3.99 5.041 4.696 7.778h-2.876l-3.372-5.75-1.713 2.148v3.602h-2.613v-12.819zm-8.572 7c0-1.318-.601-2.15-1.872-2.15-1.041 0-1.96.728-2.154 2.15h4.026zm-6.515.986c0-3.152 2.242-5.11 4.608-5.11 2.719 0 4.13 1.958 4.13 4.643 0 .467-.053.936-.123 1.161h-6.091c.212 1.593 1.272 2.425 2.737 2.425.813 0 1.519-.242 2.224-.676l.883 1.56a6.32 6.32 0 0 1-3.46 1.074c-2.755 0-4.908-1.888-4.908-5.077zm-10.693-4.868h2.612l1.448 4.833c.247.954.53 1.958.794 2.946h.089c.247-.988.53-1.992.794-2.946l1.448-4.833h2.49l-3.302 9.701h-3l-3.373-9.7zm-4.216 9.701h2.577v-9.7h-2.577v9.7zm-.249-12.646c0-.83.654-1.386 1.554-1.386.883 0 1.536.555 1.536 1.386 0 .797-.653 1.387-1.536 1.387-.9 0-1.554-.59-1.554-1.387zm-6.792 9.251v-4.296H212.3v-1.889l1.519-.12.3-2.6h2.17v2.6h2.437v2.009h-2.436v4.296c0 1.109.46 1.63 1.342 1.63.318 0 .706-.105.97-.208l.424 1.852c-.53.175-1.217.365-2.082.365-2.349 0-3.249-1.456-3.249-3.639zm-10.288-1.438c0-3.239 2.366-5.11 5.05-5.11 1.217 0 2.154.467 2.877 1.075l-1.235 1.644c-.495-.415-.954-.64-1.519-.64-1.5 0-2.525 1.196-2.525 3.031 0 1.82 1.025 2.998 2.455 2.998.705 0 1.376-.329 1.924-.78l1.024 1.68c-.935.814-2.137 1.18-3.23 1.18-2.737 0-4.821-1.872-4.821-5.078zm-3.736-.987c0-1.317-.6-2.148-1.872-2.148-1.042 0-1.96.727-2.153 2.148h4.025zm-6.515.987c0-3.152 2.241-5.11 4.607-5.11 2.72 0 4.131 1.958 4.131 4.643 0 .467-.053.936-.123 1.161h-6.09c.212 1.593 1.27 2.425 2.735 2.425.813 0 1.52-.242 2.225-.676l.883 1.56a6.32 6.32 0 0 1-3.46 1.074c-2.755 0-4.908-1.888-4.908-5.077zm-4.993-7.813c0-.83.653-1.386 1.553-1.386.882 0 1.554.555 1.554 1.386 0 .797-.672 1.387-1.554 1.387-.9 0-1.553-.59-1.553-1.387zm-2.119 16.354.459-1.888c.265.086.53.138.812.138.848 0 1.095-.554 1.095-1.645v-10.014h2.596v9.945c0 2.08-.813 3.724-3.303 3.724-.759 0-1.27-.121-1.659-.26zm-2.519-8.68c0-1.852-.6-2.875-1.96-2.875-.67 0-1.27.33-1.959 1.006v4.26c.618.538 1.271.729 1.8.729 1.202 0 2.12-1.006 2.12-3.12zm-4.183 3.95h-.053l-.23 1.022h-2.03v-13.824h2.577v3.483l-.052 1.56c.776-.695 1.764-1.162 2.736-1.162 2.436 0 3.902 1.958 3.902 4.92 0 3.344-2.031 5.267-4.202 5.267-.884 0-1.836-.451-2.648-1.265zm-7.32-5.438c0-2.756-1.236-4.4-3.178-4.4-1.941 0-3.178 1.644-3.178 4.4 0 2.737 1.237 4.487 3.178 4.487 1.942 0 3.178-1.75 3.178-4.487zm-9.022 0c0-4.176 2.384-6.601 5.844-6.601 3.46 0 5.844 2.442 5.844 6.6 0 4.157-2.384 6.705-5.844 6.705-3.46 0-5.844-2.548-5.844-6.704z" fill="#C7C7C7"/>
        <g fill="#000">
            <path d="M345.024 69.902c-2.577-.384-4.418-1.585-5.362-3.169-.945 1.584-2.802 2.785-5.378 3.17l-.8-1.697c3.36-.465 5.041-2.369 5.041-4.098v-.705h2.257v.705c0 1.712 1.697 3.633 5.042 4.098l-.8 1.696zm1.28 2.801h-5.65v5.026h-2.113v-5.026h-5.554v-1.712h13.317v1.712zM360.015 62.987v8.644h-2.111v-2.082h-2.355v-1.68h2.355v-1.361h-2.355v-1.68h2.355v-1.841h2.111zm-7.795 12.901h5.715v-1.969h-5.715v1.969zm-2.08 1.649h9.875v-5.266h-9.875v5.266zm5.281-6.563c-1.648.273-3.089.305-6.034.305h-1.137v-4.674h4.354v-1.297h-4.368v-1.68h6.45v4.546h-4.339v1.408c2.241-.016 3.474-.064 4.899-.304l.175 1.696zM515.152 247.638v1.665h-10.004v-4.16h7.587v-.834h-7.604v-1.664h9.717v4.065h-7.588v.928h7.892zm-5.538-9.49c-.897 2.191-2.978 3.584-6.21 4.29l-.705-1.698c3.345-.657 4.85-2.065 5.106-3.793h-4.257v-1.682h6.578c0 .448-.032.881-.096 1.297h2.705v-1.857h2.113v7.395h-2.113v-1.105h-3.266v-1.584h3.266v-1.264h-3.12zM527.455 238.26v-3.554h2.112v8.772h-2.112v-3.507h-2.209v-1.712h2.209zm.063 8.37c0-.832-1.007-1.232-2.928-1.232-1.937 0-2.946.4-2.946 1.232 0 .833 1.009 1.233 2.946 1.233 1.921 0 2.928-.4 2.928-1.233zm2.114 0c0 1.793-1.92 2.833-5.042 2.833-3.138 0-5.058-1.04-5.058-2.833 0-1.792 1.92-2.833 5.058-2.833 3.122 0 5.042 1.04 5.042 2.833zm-4.53-3.554c-1.601-.528-2.705-1.567-3.345-2.864-.641 1.489-1.809 2.69-3.522 3.266l-1.072-1.666c2.337-.817 3.409-2.689 3.473-4.53h-2.897v-1.697h7.924v1.697h-2.865c.063 1.681 1.088 3.41 3.328 4.146l-1.024 1.648zM343.087 413.602h2.113v-7.427h-2.113v7.427zm2.498 5.555v1.633h-10.181v-4.05h7.716v-.864h-7.731v-1.617h9.827v3.986h-7.715v.912h8.084zm-4.578-5.731c-1.681-.496-2.818-1.52-3.474-2.8-.673 1.392-1.872 2.512-3.601 3.041l-1.025-1.649c2.449-.753 3.522-2.609 3.522-4.402v-1.105h2.144v1.105c0 1.745 1.057 3.458 3.442 4.162l-1.008 1.648zM357.167 414.915h-1.97v-8.483h1.97v3.362h1.088v-3.634h2.002v9.22h-2.002v-3.874h-1.088v3.409zm1.057 3.313c0-.767-.993-1.104-2.961-1.104-1.97 0-2.961.337-2.961 1.104 0 .769.992 1.105 2.96 1.105 1.969 0 2.962-.336 2.962-1.105zm2.113 0c0 1.713-1.905 2.674-5.074 2.674-3.17 0-5.075-.961-5.075-2.674 0-1.711 1.905-2.688 5.075-2.688 3.169 0 5.074.977 5.074 2.688zm-9.108-4.817c.784 0 1.296-.385 1.296-1.072 0-.69-.512-1.057-1.296-1.057-.785 0-1.313.368-1.313 1.057 0 .687.528 1.072 1.313 1.072zm0 1.504c-1.873 0-3.185-1.056-3.185-2.576 0-1.522 1.312-2.562 3.185-2.562 1.856 0 3.168 1.04 3.168 2.562 0 1.52-1.312 2.576-3.168 2.576zm3.569-5.618h-7.187v-1.632h2.545v-1.345h2.08v1.345h2.562v1.632z"/>
        </g>
        <path d="M59.188 413.918h2.129v-14.742h-2.129v14.742zm-6.466-5.155c.544 0 1.087-.032 1.648-.047v-6.499h-1.648v6.546zm3.681-.175a23.583 23.583 0 0 0 1.84-.176l.129 1.52c-3.106.529-6.499.592-9.141.609l-.223-1.73h1.665v-6.594h-1.282v-1.697h8.276v1.697h-1.264v6.371zM75.684 407.643H65.311v-7.267h10.261v1.712h-8.148v3.874h8.26v1.681zm-11.924 4.498h13.349v-1.729h-13.35v1.73zM91.045 399.16v8.867h-2.001v-3.57h-1.152v3.522h-1.97v-8.563h1.97v3.346h1.152v-3.602h2zm-10.068 6.418h1.905v-1.792h-1.905v1.792zm-.08 3.138h10.148v5.202h-2.112v-3.522h-8.035v-1.68zm3.938-1.49h-5.843v-7.122h1.985v2.065h1.905v-2.065h1.953v7.123zM67.386 431.561h1.148V419.01h-1.148v12.551zm-4.932-5.631c1.135 0 1.92-.56 1.92-1.428 0-.882-.785-1.443-1.92-1.443-1.148 0-1.933.561-1.933 1.443 0 .868.785 1.428 1.933 1.428zm3.811-4.467H58.63v-.925h3.25v-1.528h1.148v1.528h3.237v.925zm-3.237 6.653c1.192-.057 2.41-.141 3.559-.294l.084.854c-2.802.462-5.827.504-8.139.504l-.168-.966c1.065 0 2.27-.014 3.516-.056v-1.345c-1.485-.182-2.451-1.051-2.451-2.311 0-1.415 1.232-2.326 3.025-2.326s3.012.911 3.012 2.326c0 1.247-.952 2.115-2.438 2.298v1.316zM80.04 421.196H72.38v-.938h8.81v1.247c0 1.554 0 3.277-.475 5.812l-1.15-.126c.477-2.409.477-4.174.477-5.686v-.309zm2.508 7.662v.939h-11.36v-.939H75.6v-4.496h1.148v4.496h5.799zM131 70c0 33.137-26.863 60-60 60s-60-26.863-60-60 26.863-60 60-60 60 26.863 60 60" fill="#FFF"/>
        <g fill="#000">
            <path d="M39.056 77.086h2.369V65.241h-2.369zM49.57 74.445v-3.938c-.544-.497-1.104-.672-1.665-.672-1.008 0-1.856.96-1.856 2.753 0 1.857.672 2.785 1.856 2.785.625 0 1.152-.256 1.665-.928m-5.938-1.825c0-2.929 1.824-4.722 3.761-4.722 1.008 0 1.633.384 2.273.977l-.096-1.409v-3.154h2.353v12.774h-1.905l-.192-.929h-.048c-.656.641-1.553 1.152-2.48 1.152-2.226 0-3.666-1.76-3.666-4.689M59.794 71.708c0-1.217-.545-1.985-1.697-1.985-.944 0-1.777.673-1.952 1.985h3.649zm-5.906.912c0-2.913 2.033-4.722 4.177-4.722 2.465 0 3.746 1.809 3.746 4.289 0 .433-.048.866-.113 1.074h-5.521c.19 1.472 1.152 2.24 2.48 2.24.737 0 1.377-.224 2.018-.624l.8 1.44a5.649 5.649 0 0 1-3.138.993c-2.496 0-4.45-1.745-4.45-4.69zM68.225 74.589v-1.81c-2.177.289-2.912.88-2.912 1.682 0 .704.495 1.009 1.183 1.009.672 0 1.169-.32 1.73-.881m-5.154.064c0-1.92 1.551-2.93 5.153-3.313-.03-.881-.415-1.553-1.52-1.553-.832 0-1.632.368-2.465.849l-.849-1.553c1.057-.656 2.339-1.184 3.746-1.184 2.273 0 3.442 1.36 3.442 3.953v5.234h-1.921l-.177-.96h-.046c-.786.672-1.683 1.184-2.706 1.184-1.602 0-2.657-1.136-2.657-2.657M73.008 73.948v-3.969h-1.265v-1.745l1.377-.112.272-2.401h1.969v2.401h2.209v1.857h-2.21v3.969c0 1.024.417 1.505 1.217 1.505.288 0 .64-.096.88-.193l.385 1.713c-.48.161-1.105.336-1.89.336-2.128 0-2.944-1.343-2.944-3.361M79.391 77.086h2.338v-8.964h-2.338v8.964zm-.223-11.685c0-.768.593-1.28 1.409-1.28.8 0 1.393.512 1.393 1.28 0 .736-.593 1.28-1.393 1.28-.816 0-1.409-.544-1.409-1.28zM89.905 72.62c0-1.696-.687-2.801-1.904-2.801-1.217 0-1.905 1.105-1.905 2.8 0 1.682.688 2.77 1.905 2.77s1.904-1.088 1.904-2.77m-6.21 0c0-2.992 2.064-4.721 4.306-4.721 2.24 0 4.305 1.729 4.305 4.722 0 2.96-2.065 4.689-4.305 4.689-2.242 0-4.307-1.728-4.307-4.69M94.271 68.122h1.921l.16 1.185h.064c.784-.77 1.696-1.41 2.913-1.41 1.937 0 2.77 1.346 2.77 3.603v5.586h-2.354v-5.298c0-1.377-.384-1.873-1.264-1.873-.736 0-1.2.353-1.873 1.009v6.162h-2.337v-8.964z"/>
        </g>
    </g>
</svg>
