<?xml version="1.0" encoding="UTF-8"?>
<svg width="1200px" height="145px" viewBox="0 0 1200 145" version="1.1" xmlns="http://www.w3.org/2000/svg" xmlns:xlink="http://www.w3.org/1999/xlink">
    <title>img_feedback</title>
    <defs>
        <linearGradient x1="0%" y1="50%" x2="100%" y2="50%" id="linearGradient-1">
            <stop stop-color="#DEDDED" stop-opacity="0" offset="0%"></stop>
            <stop stop-color="#DEDDED" offset="100%"></stop>
        </linearGradient>
        <linearGradient x1="-10.0566406%" y1="113.945313%" x2="109.091797%" y2="-11.0976563%" id="linearGradient-2">
            <stop stop-color="#36C7FB" offset="0%"></stop>
            <stop stop-color="#E41A8C" offset="100%"></stop>
        </linearGradient>
    </defs>
    <g id="제플린" stroke="none" stroke-width="1" fill="none" fill-rule="evenodd">
        <g id="Herren_03Culture" transform="translate(-360.000000, -2772.000000)">
            <g id="04" transform="translate(360.000000, 2601.000000)">
                <g id="img_feedback" transform="translate(0.000000, 171.000000)">
                    <path id="Line-Copy-3" d="M165.673205,66.494057 L166.651292,68.2385755 L165.779033,68.7276193 L157.099,73.594 L165.279903,73.6053515 L300.970822,73.7948232 L301.970821,73.7962196 L301.968028,75.7962176 L300.968029,75.7948213 L165.277111,75.6053496 L157.097,75.594 L165.762616,80.4844567 L166.633506,80.9759345 L165.650551,82.7177147 L164.779661,82.2262369 L152.789098,75.4594874 L151.240849,74.5857491 L152.791532,73.716338 L164.800945,66.9831007 L165.673205,66.494057 Z" fill="#9C99C3" fill-rule="nonzero"></path>
                    <path id="Line-Copy-6" d="M462.378371,66.8742941 L463.249361,67.3655947 L475.2413,74.1299046 L476.789727,75.0033278 L475.239221,75.8730544 L463.231177,82.6087349 L462.359017,83.0979561 L461.380575,81.3536366 L462.252735,80.8644154 L470.931,75.996 L462.750574,75.9865813 L387.998807,75.8974104 L386.998808,75.8962175 L387.001194,73.8962189 L388.001193,73.8974118 L462.752959,73.9865828 L470.933,73.996 L462.266759,69.1075748 L461.395769,68.6162743 L462.378371,66.8742941 Z" fill="#9C99C3" fill-rule="nonzero"></path>
                    <circle id="Oval-Copy-5" fill="#F6F6F8" cx="70" cy="75" r="70"></circle>
                    <circle id="Oval-Copy-8" fill="#F6F6F8" cx="557" cy="75" r="70"></circle>
                    <path d="M766.5,57 L792.5,75 L766.5,93 L766.5,83.5 L676,83.5 L676,65.5 L766.5,65.5 L766.5,57 Z" id="arrow" fill="url(#linearGradient-1)" opacity="0.900000036" transform="translate(734.250000, 75.000000) scale(-1, 1) rotate(-180.000000) translate(-734.250000, -75.000000) "></path>
                    <path d="M913,140 C951.659932,140 983,108.659932 983,70 C983,31.3400675 951.659932,0 913,0 C874.340068,0 843,31.3400675 843,70 C843,108.659932 874.340068,140 913,140 Z" id="Oval-Copy-5" fill="url(#linearGradient-2)" opacity="0.800000012"></path>
                    <path d="M1130,140 C1168.65993,140 1200,108.659932 1200,70 C1200,31.3400675 1168.65993,0 1130,0 C1091.34007,0 1060,31.3400675 1060,70 C1060,108.659932 1091.34007,140 1130,140 Z" id="Oval-Copy-9" fill="url(#linearGradient-2)" opacity="0.800000012"></path>
                    <path d="M903.782191,67.246 L903.782191,54.31 L901.934191,54.31 L901.934191,58.762 L898.784191,58.762 L898.784191,60.246 L901.934191,60.246 L901.934191,67.246 L903.782191,67.246 Z M900.240191,63.746 L900.058191,62.248 C898.588191,62.5 897.258191,62.598 895.410191,62.612 L895.410191,56.928 L899.400191,56.928 L899.400191,55.458 L893.562191,55.458 L893.562191,64.124 L894.612191,64.124 C896.964191,64.124 898.504191,64.068 900.240191,63.746 Z M919.616191,58.874 L920.190191,57.502 C917.866191,57.362 916.606191,56.732 916.228191,56.032 L919.630191,56.032 L919.630191,54.632 L910.082191,54.632 L910.082191,56.032 L913.456191,56.032 C913.078191,56.732 911.818191,57.362 909.508191,57.502 L910.082191,58.874 C912.560191,58.706 914.170191,57.922 914.842191,56.802 C915.514191,57.922 917.138191,58.706 919.616191,58.874 Z M920.708191,60.778 L920.708191,59.336 L915.752191,59.336 L915.752191,58.16 L913.904191,58.16 L913.904191,59.336 L909.018191,59.336 L909.018191,60.778 L920.708191,60.778 Z M919.602191,63.466 L919.602191,62.094 L915.752191,62.094 L915.752191,61.184 L913.904191,61.184 L913.904191,62.094 L910.068191,62.094 L910.068191,63.466 L919.602191,63.466 Z M914.814191,67.246 C917.320191,67.246 918.762191,66.658 918.762191,65.552 C918.762191,64.446 917.320191,63.844 914.814191,63.844 C912.336191,63.844 910.894191,64.446 910.894191,65.552 C910.894191,66.658 912.336191,67.246 914.814191,67.246 Z M914.814191,66.028 C913.470191,66.028 912.798191,65.888 912.798191,65.552 C912.798191,65.202 913.470191,65.062 914.814191,65.062 C916.172191,65.062 916.858191,65.202 916.858191,65.552 C916.858191,65.888 916.172191,66.028 914.814191,66.028 Z M927.722191,60.008 C930.536191,60.008 932.398191,58.986 932.398191,57.348 C932.398191,55.71 930.536191,54.688 927.722191,54.688 C924.922191,54.688 923.060191,55.71 923.060191,57.348 C923.060191,58.986 924.922191,60.008 927.722191,60.008 Z M927.722191,58.538 C926.000191,58.538 924.964191,58.146 924.964191,57.348 C924.964191,56.564 926.000191,56.144 927.722191,56.144 C929.458191,56.144 930.494191,56.564 930.494191,57.348 C930.494191,58.146 929.458191,58.538 927.722191,58.538 Z M933.546191,62.36 L933.546191,60.89 L921.898191,60.89 L921.898191,62.36 L933.546191,62.36 Z M932.244191,66.98 L932.244191,65.51 L925.160191,65.51 L925.160191,63.228 L923.312191,63.228 L923.312191,66.98 L932.244191,66.98 Z M905.371191,87.232 L905.371191,74.296 L903.523191,74.296 L903.523191,78.342 L901.045191,78.342 L901.045191,79.826 L903.523191,79.826 L903.523191,87.232 L905.371191,87.232 Z M895.515191,84.614 C896.957191,83.886 897.923191,82.542 898.483191,80.89 C899.015191,82.444 899.953191,83.704 901.367191,84.39 L902.459191,82.92 C900.331191,81.968 899.393191,79.602 899.393191,77.166 L899.393191,75.304 L897.531191,75.304 L897.531191,77.166 C897.531191,79.616 896.551191,82.122 894.367191,83.13 L895.515191,84.614 Z M918.111191,87.232 L918.111191,74.296 L916.263191,74.296 L916.263191,87.232 L918.111191,87.232 Z M914.415191,84.222 L914.415191,75.332 L912.581191,75.332 L912.581191,78.454 L909.893191,78.454 L909.893191,75.332 L908.059191,75.332 L908.059191,84.222 L914.415191,84.222 Z M912.581191,82.752 L909.893191,82.752 L909.893191,79.896 L912.581191,79.896 L912.581191,82.752 Z M930.795191,81.926 L931.579191,80.386 C928.667191,79.882 927.071191,77.88 927.071191,75.99 L927.071191,75.066 L925.097191,75.066 L925.097191,75.99 C925.097191,77.838 923.487191,79.882 920.589191,80.386 L921.373191,81.926 C923.613191,81.492 925.251191,80.232 926.077191,78.594 C926.903191,80.232 928.555191,81.478 930.795191,81.926 Z M931.985191,85.636 L931.985191,84.138 L920.309191,84.138 L920.309191,85.636 L931.985191,85.636 Z" id="더좋은서비스" fill="#FFFFFF" fill-rule="nonzero"></path>
                    <path d="M1107.593,71.87 L1107.593,64.31 L1105.745,64.31 L1105.745,66.662 L1103.393,66.662 L1103.393,68.16 L1105.745,68.16 L1105.745,71.87 L1107.593,71.87 Z M1097.667,71.842 C1099.193,71.324 1100.215,70.288 1100.789,68.972 C1101.335,70.12 1102.245,71.002 1103.603,71.464 L1104.569,70.008 C1102.525,69.35 1101.685,67.782 1101.685,66.046 L1101.685,64.982 L1099.809,64.982 L1099.809,66.13 C1099.809,67.908 1098.899,69.658 1096.701,70.358 L1097.667,71.842 Z M1103.239,77.204 C1105.969,77.204 1107.649,76.28 1107.649,74.712 C1107.649,73.116 1105.969,72.192 1103.239,72.192 C1100.495,72.192 1098.815,73.116 1098.815,74.712 C1098.815,76.28 1100.495,77.204 1103.239,77.204 Z M1103.239,75.79 C1101.545,75.79 1100.663,75.44 1100.663,74.712 C1100.663,73.97 1101.545,73.62 1103.239,73.62 C1104.919,73.62 1105.801,73.97 1105.801,74.712 C1105.801,75.44 1104.919,75.79 1103.239,75.79 Z M1119.843,71.968 L1119.843,68.79 L1121.551,68.79 L1121.551,67.278 L1119.843,67.278 L1119.843,64.31 L1117.995,64.31 L1117.995,71.968 L1119.843,71.968 Z M1110.435,72.038 C1111.947,71.548 1112.969,70.526 1113.543,69.252 C1114.103,70.316 1115.083,71.17 1116.497,71.59 L1117.379,70.162 C1115.349,69.56 1114.467,68.118 1114.439,66.648 L1116.959,66.648 L1116.959,65.164 L1109.987,65.164 L1109.987,66.648 L1112.549,66.648 C1112.521,68.258 1111.597,69.896 1109.511,70.596 L1110.435,72.038 Z M1115.629,77.204 C1118.303,77.204 1119.983,76.28 1119.983,74.712 C1119.983,73.13 1118.303,72.192 1115.629,72.192 C1112.941,72.192 1111.261,73.13 1111.261,74.712 C1111.261,76.28 1112.941,77.204 1115.629,77.204 Z M1115.629,75.79 C1113.977,75.79 1113.095,75.44 1113.095,74.712 C1113.095,73.97 1113.977,73.62 1115.629,73.62 C1117.267,73.62 1118.149,73.97 1118.149,74.712 C1118.149,75.44 1117.267,75.79 1115.629,75.79 Z M1133.325,77.232 L1133.325,64.296 L1131.477,64.296 L1131.477,77.232 L1133.325,77.232 Z M1126.717,71.52 C1128.733,71.52 1130.273,70.204 1130.273,68.342 C1130.273,66.494 1128.733,65.164 1126.717,65.164 C1124.701,65.164 1123.175,66.494 1123.175,68.342 C1123.175,70.204 1124.701,71.52 1126.717,71.52 Z M1126.717,69.938 C1125.723,69.938 1124.967,69.35 1124.967,68.342 C1124.967,67.334 1125.723,66.746 1126.717,66.746 C1127.711,66.746 1128.467,67.334 1128.467,68.342 C1128.467,69.35 1127.711,69.938 1126.717,69.938 Z M1130.889,74.026 L1130.777,72.696 C1128.061,73.102 1124.897,73.116 1122.629,73.116 L1122.867,74.614 C1125.093,74.614 1128.117,74.586 1130.889,74.026 Z M1149.369,77.19 L1149.369,64.296 L1147.507,64.296 L1147.507,77.19 L1149.369,77.19 Z M1139.625,75.02 C1144.203,72.808 1145.533,69.588 1145.533,65.64 L1139.345,65.64 L1139.345,67.11 L1143.643,67.11 C1143.377,69.966 1141.949,71.982 1138.659,73.564 L1139.625,75.02 Z M1162.263,77.204 L1162.263,64.31 L1160.415,64.31 L1160.415,77.204 L1162.263,77.204 Z M1159.575,67.18 L1159.575,65.738 L1156.635,65.738 L1156.635,64.352 L1154.787,64.352 L1154.787,65.738 L1151.833,65.738 L1151.833,67.18 L1159.575,67.18 Z M1159.883,74.53 L1159.743,73.2 C1158.735,73.34 1157.685,73.41 1156.635,73.466 L1156.635,72.444 C1158.007,72.178 1158.903,71.31 1158.903,70.12 C1158.903,68.664 1157.587,67.684 1155.711,67.684 C1153.821,67.684 1152.505,68.664 1152.505,70.12 C1152.505,71.31 1153.401,72.178 1154.787,72.444 L1154.787,73.536 C1153.639,73.564 1152.547,73.564 1151.581,73.564 L1151.805,75.062 C1154.087,75.062 1157.069,75.048 1159.883,74.53 Z M1155.711,71.142 C1154.857,71.142 1154.269,70.778 1154.269,70.12 C1154.269,69.448 1154.857,69.084 1155.711,69.084 C1156.579,69.084 1157.153,69.448 1157.153,70.12 C1157.153,70.778 1156.579,71.142 1155.711,71.142 Z" id="성장의기회" fill="#FFFFFF" fill-rule="nonzero"></path>
                    <path d="M36.137,81.196 C37.481,81.196 38.587,80.664 39.441,79.67 L38.349,78.382 C37.789,78.984 37.089,79.404 36.207,79.404 C34.569,79.404 33.505,78.046 33.505,75.792 C33.505,73.566 34.681,72.222 36.249,72.222 C37.033,72.222 37.635,72.586 38.153,73.09 L39.245,71.774 C38.573,71.074 37.523,70.444 36.207,70.444 C33.589,70.444 31.391,72.446 31.391,75.862 C31.391,79.32 33.519,81.196 36.137,81.196 Z M44.215,81.196 C46.175,81.196 47.981,79.684 47.981,77.094 C47.981,74.476 46.175,72.964 44.215,72.964 C42.255,72.964 40.449,74.476 40.449,77.094 C40.449,79.684 42.255,81.196 44.215,81.196 Z M44.215,79.516 C43.151,79.516 42.549,78.564 42.549,77.094 C42.549,75.61 43.151,74.644 44.215,74.644 C45.279,74.644 45.881,75.61 45.881,77.094 C45.881,78.564 45.279,79.516 44.215,79.516 Z M53.105,77.724 L53.105,76.254 L49.283,76.254 L49.283,77.724 L53.105,77.724 Z M58.537,81 L59.335,77.584 C59.503,76.856 59.615,76.128 59.769,75.302 L59.839,75.302 C59.993,76.128 60.119,76.842 60.287,77.584 L61.113,81 L63.535,81 L65.467,73.16 L63.563,73.16 L62.709,77.038 C62.555,77.794 62.457,78.55 62.317,79.32 L62.247,79.32 C62.079,78.55 61.939,77.794 61.757,77.038 L60.777,73.16 L58.943,73.16 L58.005,77.038 C57.809,77.78 57.669,78.55 57.515,79.32 L57.459,79.32 C57.319,78.55 57.221,77.794 57.067,77.038 L56.213,73.16 L54.155,73.16 L56.185,81 L58.537,81 Z M70.241,81.196 C72.201,81.196 74.007,79.684 74.007,77.094 C74.007,74.476 72.201,72.964 70.241,72.964 C68.281,72.964 66.475,74.476 66.475,77.094 C66.475,79.684 68.281,81.196 70.241,81.196 Z M70.241,79.516 C69.177,79.516 68.575,78.564 68.575,77.094 C68.575,75.61 69.177,74.644 70.241,74.644 C71.305,74.644 71.907,75.61 71.907,77.094 C71.907,78.564 71.305,79.516 70.241,79.516 Z M77.773,81 L77.773,76.324 C78.221,75.19 78.963,74.784 79.579,74.784 C79.901,74.784 80.125,74.826 80.391,74.91 L80.755,73.132 C80.517,73.034 80.265,72.964 79.831,72.964 C79.019,72.964 78.179,73.524 77.605,74.546 L77.549,74.546 L77.409,73.16 L75.729,73.16 L75.729,81 L77.773,81 Z M83.835,81 L83.835,79.04 L84.969,77.752 L86.873,81 L89.099,81 L86.131,76.366 L88.847,73.16 L86.607,73.16 L83.891,76.548 L83.835,76.548 L83.835,69.828 L81.833,69.828 L81.833,81 L83.835,81 Z M93.705,81.196 C94.685,81.196 95.679,80.86 96.449,80.328 L95.749,79.068 C95.189,79.418 94.629,79.614 93.985,79.614 C92.823,79.614 91.983,78.942 91.815,77.654 L96.645,77.654 C96.701,77.472 96.743,77.094 96.743,76.716 C96.743,74.546 95.623,72.964 93.467,72.964 C91.591,72.964 89.813,74.546 89.813,77.094 C89.813,79.67 91.521,81.196 93.705,81.196 Z M94.979,76.296 L91.787,76.296 C91.941,75.148 92.669,74.56 93.495,74.56 C94.503,74.56 94.979,75.232 94.979,76.296 Z M100.481,81 L100.481,76.324 C100.929,75.19 101.671,74.784 102.287,74.784 C102.609,74.784 102.833,74.826 103.099,74.91 L103.463,73.132 C103.225,73.034 102.973,72.964 102.539,72.964 C101.727,72.964 100.887,73.524 100.313,74.546 L100.257,74.546 L100.117,73.16 L98.437,73.16 L98.437,81 L100.481,81 Z M106.781,81.196 C108.825,81.196 109.903,80.09 109.903,78.718 C109.903,77.262 108.755,76.744 107.719,76.352 C106.893,76.044 106.123,75.834 106.123,75.26 C106.123,74.812 106.459,74.504 107.159,74.504 C107.747,74.504 108.293,74.784 108.853,75.176 L109.777,73.93 C109.119,73.44 108.251,72.964 107.103,72.964 C105.339,72.964 104.191,73.958 104.191,75.372 C104.191,76.674 105.339,77.276 106.333,77.654 C107.159,77.976 107.971,78.242 107.971,78.83 C107.971,79.32 107.621,79.656 106.837,79.656 C106.109,79.656 105.437,79.348 104.737,78.802 L103.799,80.09 C104.569,80.734 105.731,81.196 106.781,81.196 Z" id="Co-workers" fill="#000000" fill-rule="nonzero"></path>
                    <path d="M523.137,81.196 C524.481,81.196 525.587,80.664 526.441,79.67 L525.349,78.382 C524.789,78.984 524.089,79.404 523.207,79.404 C521.569,79.404 520.505,78.046 520.505,75.792 C520.505,73.566 521.681,72.222 523.249,72.222 C524.033,72.222 524.635,72.586 525.153,73.09 L526.245,71.774 C525.573,71.074 524.523,70.444 523.207,70.444 C520.589,70.444 518.391,72.446 518.391,75.862 C518.391,79.32 520.519,81.196 523.137,81.196 Z M531.215,81.196 C533.175,81.196 534.981,79.684 534.981,77.094 C534.981,74.476 533.175,72.964 531.215,72.964 C529.255,72.964 527.449,74.476 527.449,77.094 C527.449,79.684 529.255,81.196 531.215,81.196 Z M531.215,79.516 C530.151,79.516 529.549,78.564 529.549,77.094 C529.549,75.61 530.151,74.644 531.215,74.644 C532.279,74.644 532.881,75.61 532.881,77.094 C532.881,78.564 532.279,79.516 531.215,79.516 Z M540.105,77.724 L540.105,76.254 L536.283,76.254 L536.283,77.724 L540.105,77.724 Z M545.537,81 L546.335,77.584 C546.503,76.856 546.615,76.128 546.769,75.302 L546.839,75.302 C546.993,76.128 547.119,76.842 547.287,77.584 L548.113,81 L550.535,81 L552.467,73.16 L550.563,73.16 L549.709,77.038 C549.555,77.794 549.457,78.55 549.317,79.32 L549.247,79.32 C549.079,78.55 548.939,77.794 548.757,77.038 L547.777,73.16 L545.943,73.16 L545.005,77.038 C544.809,77.78 544.669,78.55 544.515,79.32 L544.459,79.32 C544.319,78.55 544.221,77.794 544.067,77.038 L543.213,73.16 L541.155,73.16 L543.185,81 L545.537,81 Z M557.241,81.196 C559.201,81.196 561.007,79.684 561.007,77.094 C561.007,74.476 559.201,72.964 557.241,72.964 C555.281,72.964 553.475,74.476 553.475,77.094 C553.475,79.684 555.281,81.196 557.241,81.196 Z M557.241,79.516 C556.177,79.516 555.575,78.564 555.575,77.094 C555.575,75.61 556.177,74.644 557.241,74.644 C558.305,74.644 558.907,75.61 558.907,77.094 C558.907,78.564 558.305,79.516 557.241,79.516 Z M564.773,81 L564.773,76.324 C565.221,75.19 565.963,74.784 566.579,74.784 C566.901,74.784 567.125,74.826 567.391,74.91 L567.755,73.132 C567.517,73.034 567.265,72.964 566.831,72.964 C566.019,72.964 565.179,73.524 564.605,74.546 L564.549,74.546 L564.409,73.16 L562.729,73.16 L562.729,81 L564.773,81 Z M570.835,81 L570.835,79.04 L571.969,77.752 L573.873,81 L576.099,81 L573.131,76.366 L575.847,73.16 L573.607,73.16 L570.891,76.548 L570.835,76.548 L570.835,69.828 L568.833,69.828 L568.833,81 L570.835,81 Z M580.705,81.196 C581.685,81.196 582.679,80.86 583.449,80.328 L582.749,79.068 C582.189,79.418 581.629,79.614 580.985,79.614 C579.823,79.614 578.983,78.942 578.815,77.654 L583.645,77.654 C583.701,77.472 583.743,77.094 583.743,76.716 C583.743,74.546 582.623,72.964 580.467,72.964 C578.591,72.964 576.813,74.546 576.813,77.094 C576.813,79.67 578.521,81.196 580.705,81.196 Z M581.979,76.296 L578.787,76.296 C578.941,75.148 579.669,74.56 580.495,74.56 C581.503,74.56 581.979,75.232 581.979,76.296 Z M587.481,81 L587.481,76.324 C587.929,75.19 588.671,74.784 589.287,74.784 C589.609,74.784 589.833,74.826 590.099,74.91 L590.463,73.132 C590.225,73.034 589.973,72.964 589.539,72.964 C588.727,72.964 587.887,73.524 587.313,74.546 L587.257,74.546 L587.117,73.16 L585.437,73.16 L585.437,81 L587.481,81 Z M593.781,81.196 C595.825,81.196 596.903,80.09 596.903,78.718 C596.903,77.262 595.755,76.744 594.719,76.352 C593.893,76.044 593.123,75.834 593.123,75.26 C593.123,74.812 593.459,74.504 594.159,74.504 C594.747,74.504 595.293,74.784 595.853,75.176 L596.777,73.93 C596.119,73.44 595.251,72.964 594.103,72.964 C592.339,72.964 591.191,73.958 591.191,75.372 C591.191,76.674 592.339,77.276 593.333,77.654 C594.159,77.976 594.971,78.242 594.971,78.83 C594.971,79.32 594.621,79.656 593.837,79.656 C593.109,79.656 592.437,79.348 591.737,78.802 L590.799,80.09 C591.569,80.734 592.731,81.196 593.781,81.196 Z" id="Co-workers" fill="#000000" fill-rule="nonzero"></path>
                    <rect id="Rectangle" stroke="#979797" fill="#9C99C3" x="1006.5" y="67.5" width="24" height="1"></rect>
                    <rect id="Rectangle" stroke="#979797" fill="#9C99C3" transform="translate(1018.500000, 68.000000) rotate(-270.000000) translate(-1018.500000, -68.000000) " x="1006.5" y="67.5" width="24" height="1"></rect>
                    <rect id="Rectangle" stroke="#918DBC" fill="#9C99C3" x="244.5" y="47.5" width="139" height="52" rx="26"></rect>
                    <path d="M278.426,75.996 L278.426,68.478 L277.278,68.478 L277.278,71.754 L274.828,71.754 L274.828,72.692 L277.278,72.692 L277.278,75.996 L278.426,75.996 Z M268.738,75.8 C270.208,75.254 271.356,74.106 271.888,72.664 C272.448,73.966 273.526,75.002 274.926,75.506 L275.5,74.61 C273.68,73.966 272.448,72.384 272.448,70.774 L272.448,70.27 L275.206,70.27 L275.206,69.332 L268.5,69.332 L268.5,70.27 L271.3,70.27 L271.3,70.774 C271.3,72.552 269.998,74.232 268.136,74.89 L268.738,75.8 Z M278.426,81.05 L278.426,76.682 L270.04,76.682 L270.04,77.606 L277.278,77.606 L277.278,81.05 L278.426,81.05 Z M292.37,74.694 L292.37,73.77 L290.578,73.77 C290.9,72.118 290.9,70.9 290.9,69.934 L290.9,69.08 L282.43,69.08 L282.43,70.018 L289.766,70.018 C289.766,70.97 289.752,72.146 289.43,73.77 L280.974,73.77 L280.974,74.694 L292.37,74.694 Z M290.984,81.078 L290.984,76.57 L282.192,76.57 L282.192,77.508 L289.836,77.508 L289.836,81.078 L290.984,81.078 Z M304.186,75.996 L304.186,68.478 L303.038,68.478 L303.038,71.754 L300.588,71.754 L300.588,72.692 L303.038,72.692 L303.038,75.996 L304.186,75.996 Z M294.498,75.8 C295.968,75.254 297.116,74.106 297.648,72.664 C298.208,73.966 299.286,75.002 300.686,75.506 L301.26,74.61 C299.44,73.966 298.208,72.384 298.208,70.774 L298.208,70.27 L300.966,70.27 L300.966,69.332 L294.26,69.332 L294.26,70.27 L297.06,70.27 L297.06,70.774 C297.06,72.552 295.758,74.232 293.896,74.89 L294.498,75.8 Z M304.186,81.05 L304.186,76.682 L295.8,76.682 L295.8,77.606 L303.038,77.606 L303.038,81.05 L304.186,81.05 Z M317.038,77.662 L317.038,68.492 L315.89,68.492 L315.89,77.662 L317.038,77.662 Z M310.29,75.548 C312.166,75.548 313.58,74.26 313.58,72.44 C313.58,70.634 312.166,69.36 310.29,69.36 C308.428,69.36 307.028,70.634 307.028,72.44 C307.028,74.26 308.428,75.548 310.29,75.548 Z M310.29,74.554 C309.072,74.554 308.148,73.686 308.148,72.44 C308.148,71.222 309.072,70.354 310.29,70.354 C311.536,70.354 312.46,71.222 312.46,72.44 C312.46,73.686 311.536,74.554 310.29,74.554 Z M317.416,80.756 L317.416,79.818 L310.108,79.818 L310.108,76.724 L308.96,76.724 L308.96,80.756 L317.416,80.756 Z M333.054,81.036 L333.054,68.492 L331.906,68.492 L331.906,81.036 L333.054,81.036 Z M322.876,77.928 C325.158,77.914 328.182,77.886 330.884,77.452 L330.814,76.612 C330.156,76.696 329.47,76.766 328.77,76.794 L328.77,70.76 L330.17,70.76 L330.17,69.836 L323.058,69.836 L323.058,70.76 L324.458,70.76 L324.458,76.948 C323.856,76.962 323.282,76.962 322.75,76.962 L322.876,77.928 Z M325.564,76.934 L325.564,70.76 L327.664,70.76 L327.664,76.864 C326.95,76.892 326.25,76.92 325.564,76.934 Z M345.696,75.436 L345.696,74.498 L338.206,74.498 L338.206,70.578 L345.57,70.578 L345.57,69.626 L337.072,69.626 L337.072,75.436 L345.696,75.436 Z M347.012,79.342 L347.012,78.39 L335.616,78.39 L335.616,79.342 L347.012,79.342 Z M359.108,76.01 L359.108,68.492 L358.002,68.492 L358.002,71.754 L356.406,71.754 L356.406,68.716 L355.314,68.716 L355.314,75.954 L356.406,75.954 L356.406,72.692 L358.002,72.692 L358.002,76.01 L359.108,76.01 Z M353.942,75.128 L353.942,69.29 L352.864,69.29 L352.864,71.264 L350.162,71.264 L350.162,69.29 L349.07,69.29 L349.07,75.128 L353.942,75.128 Z M352.864,74.204 L350.162,74.204 L350.162,72.174 L352.864,72.174 L352.864,74.204 Z M359.108,81.036 L359.108,76.78 L350.666,76.78 L350.666,77.704 L357.96,77.704 L357.96,81.036 L359.108,81.036 Z" id="적극적인피드백" fill="#FFFFFF" fill-rule="nonzero"></path>
                </g>
            </g>
        </g>
    </g>
</svg>