<svg width="240" height="88" xmlns="http://www.w3.org/2000/svg">
    <defs>
        <linearGradient x1="0%" y1="50%" x2="100%" y2="50%" id="a">
            <stop stop-color="#DEDDED" stop-opacity="0" offset="0%"/>
            <stop stop-color="#DEDDED" offset="100%"/>
        </linearGradient>
        <linearGradient x1="-10.057%" y1="113.524%" x2="109.092%" y2="-10.695%" id="b">
            <stop stop-color="#36C7FB" offset="0%"/>
            <stop stop-color="#E41A8C" offset="100%"/>
        </linearGradient>
    </defs>
    <g fill="none" fill-rule="evenodd">
        <path d="M129.966 32.686 146.292 44l-16.326 11.314v-5.971H94.067V38.029l35.897-.001v-5.342z" fill="url(#a)" opacity=".9" transform="matrix(1 0 0 -1 0 88)"/>
        <ellipse fill="#FFF" cx="44.146" cy="44" rx="44.146" ry="44"/>
        <path d="M195.854 88C220.235 88 240 68.3 240 44S220.235 0 195.854 0c-24.38 0-44.145 19.7-44.145 44s19.764 44 44.145 44z" fill="url(#b)" opacity=".8"/>
        <path d="M22.543 47.374c.848 0 1.545-.334 2.084-.959l-.689-.81c-.353.379-.794.643-1.35.643-1.034 0-1.705-.854-1.705-2.27 0-1.4.742-2.245 1.73-2.245.495 0 .875.23 1.202.546l.688-.827c-.423-.44-1.086-.836-1.916-.836-1.65 0-3.037 1.258-3.037 3.405 0 2.174 1.342 3.353 2.993 3.353zm5.095 0c1.236 0 2.375-.95 2.375-2.578 0-1.646-1.14-2.596-2.375-2.596-1.236 0-2.375.95-2.375 2.596 0 1.628 1.139 2.578 2.375 2.578zm0-1.056c-.671 0-1.051-.598-1.051-1.522 0-.933.38-1.54 1.05-1.54.672 0 1.051.607 1.051 1.54 0 .924-.38 1.522-1.05 1.522zm5.606-1.126v-.924h-2.41v.924h2.41zm3.426 2.059.503-2.147c.106-.458.177-.915.274-1.435h.044c.097.52.177.968.283 1.435l.52 2.147h1.528l1.218-4.928h-1.2l-.539 2.438c-.097.475-.159.95-.247 1.434h-.044c-.106-.484-.195-.96-.31-1.434l-.617-2.438h-1.157l-.592 2.438c-.123.466-.211.95-.309 1.434h-.035c-.088-.484-.15-.96-.247-1.434l-.539-2.438h-1.298l1.28 4.928h1.484zm7.381.123c1.236 0 2.375-.95 2.375-2.578 0-1.646-1.139-2.596-2.375-2.596s-2.375.95-2.375 2.596c0 1.628 1.139 2.578 2.375 2.578zm0-1.056c-.671 0-1.05-.598-1.05-1.522 0-.933.379-1.54 1.05-1.54s1.05.607 1.05 1.54c0 .924-.379 1.522-1.05 1.522zm4.75.933v-2.94c.283-.712.75-.967 1.14-.967.202 0 .343.026.511.079l.23-1.118a1.403 1.403 0 0 0-.583-.105c-.512 0-1.042.352-1.404.994h-.035l-.088-.871h-1.06v4.928h1.29zm3.823 0v-1.232l.715-.81 1.201 2.042h1.404l-1.872-2.913 1.713-2.015h-1.413l-1.713 2.13h-.035v-4.224h-1.262v7.022h1.262zm6.225.123c.618 0 1.245-.211 1.73-.545l-.441-.792c-.353.22-.707.343-1.113.343-.733 0-1.262-.423-1.368-1.232h3.046c.035-.115.062-.352.062-.59 0-1.364-.707-2.358-2.066-2.358-1.184 0-2.305.994-2.305 2.596 0 1.619 1.077 2.578 2.455 2.578zm.803-3.08H57.64c.097-.721.556-1.091 1.077-1.091.636 0 .936.422.936 1.091zm3.47 2.957v-2.94c.283-.712.75-.967 1.139-.967.203 0 .344.026.512.079l.23-1.118a1.403 1.403 0 0 0-.583-.105c-.512 0-1.042.352-1.404.994h-.035l-.089-.871h-1.06v4.928h1.29zm3.973.123c1.29 0 1.969-.695 1.969-1.557 0-.916-.724-1.241-1.377-1.488-.521-.193-1.007-.325-1.007-.686 0-.282.212-.475.653-.475.371 0 .716.176 1.069.422l.583-.783c-.415-.308-.963-.607-1.687-.607-1.112 0-1.836.625-1.836 1.513 0 .819.724 1.197 1.35 1.435.521.202 1.034.37 1.034.739 0 .308-.221.52-.716.52-.459 0-.883-.194-1.324-.538l-.592.81c.486.405 1.219.695 1.881.695z" fill="#000" fill-rule="nonzero"/>
        <path d="M190.495 47.894c.848 0 1.545-.334 2.084-.96l-.689-.809c-.353.379-.795.643-1.35.643-1.034 0-1.705-.854-1.705-2.27 0-1.4.742-2.244 1.73-2.244.495 0 .875.229 1.201.546l.69-.827c-.425-.44-1.087-.836-1.917-.836-1.65 0-3.037 1.258-3.037 3.405 0 2.173 1.342 3.352 2.993 3.352zm7.24-.123V46.68h-2.799v-1.742h2.296v-1.091h-2.296v-1.505h2.702V41.26h-4.009v6.51h4.106zm3.92.123c1.73 0 2.923-1.293 2.923-3.405s-1.192-3.352-2.923-3.352c-1.73 0-2.922 1.232-2.922 3.352 0 2.112 1.192 3.405 2.922 3.405zm0-1.126c-.971 0-1.59-.889-1.59-2.28 0-1.398.619-2.234 1.59-2.234.971 0 1.59.836 1.59 2.235 0 1.39-.619 2.279-1.59 2.279z" fill="#FFF" fill-rule="nonzero"/>
        <path d="M108.936 28.92c1.925 0 3.16-1.091 3.16-3.282 0-2.2-1.235-3.229-3.23-3.229h-1.793v6.51h1.863zm-.15-1.047h-.406v-4.426h.406c1.218 0 1.978.599 1.978 2.191 0 1.584-.76 2.235-1.978 2.235zm5.139-4.672c.441 0 .768-.3.768-.704 0-.422-.327-.704-.768-.704-.45 0-.777.282-.777.704 0 .405.326.704.777.704zm.635 5.719v-4.927h-1.289v4.927h1.29zm2.684 0V25.98c.283-.713.75-.968 1.14-.968.202 0 .344.027.511.08l.23-1.118a1.403 1.403 0 0 0-.583-.105c-.512 0-1.042.351-1.404.994h-.035l-.088-.871h-1.06v4.927h1.29zm4.706.123c.618 0 1.245-.211 1.73-.546l-.44-.791c-.354.22-.707.343-1.113.343-.733 0-1.263-.423-1.369-1.232h3.046c.036-.114.062-.352.062-.59 0-1.363-.706-2.357-2.066-2.357-1.183 0-2.304.994-2.304 2.595 0 1.619 1.077 2.578 2.454 2.578zm.804-3.08h-2.013c.097-.72.556-1.09 1.077-1.09.636 0 .936.422.936 1.09zm4.282 3.08c.547 0 1.148-.185 1.616-.598l-.513-.854c-.273.229-.609.396-.962.396-.715 0-1.227-.598-1.227-1.522 0-.933.512-1.54 1.262-1.54.283 0 .512.115.76.326l.618-.836a2.166 2.166 0 0 0-1.44-.545c-1.341 0-2.525.95-2.525 2.595 0 1.628 1.042 2.578 2.41 2.578zm4.361 0c.433 0 .777-.097 1.042-.185l-.212-.941a1.449 1.449 0 0 1-.485.105c-.442 0-.671-.264-.671-.827v-2.182h1.218v-1.02h-1.218v-1.32h-1.086l-.15 1.32-.76.061v.96h.698v2.181c0 1.109.45 1.848 1.624 1.848z" fill="#9C99C3" fill-rule="nonzero"/>
    </g>
</svg>
