<?xml version="1.0" encoding="UTF-8"?>
<svg width="300px" height="98px" viewBox="0 0 300 98" version="1.1" xmlns="http://www.w3.org/2000/svg" xmlns:xlink="http://www.w3.org/1999/xlink">
    <title>m_img_feedback</title>
    <defs>
        <linearGradient x1="0%" y1="50%" x2="100%" y2="50%" id="linearGradient-1">
            <stop stop-color="#DEDDED" stop-opacity="0" offset="0%"></stop>
            <stop stop-color="#DEDDED" offset="100%"></stop>
        </linearGradient>
        <linearGradient x1="-10.0566406%" y1="113.945313%" x2="109.091797%" y2="-11.0976563%" id="linearGradient-2">
            <stop stop-color="#36C7FB" offset="0%"></stop>
            <stop stop-color="#E41A8C" offset="100%"></stop>
        </linearGradient>
    </defs>
    <g id="제플린" stroke="none" stroke-width="1" fill="none" fill-rule="evenodd">
        <g id="Herren_m_03Culture" transform="translate(-30.000000, -2206.000000)">
            <g id="04" transform="translate(0.000000, 2002.000000)">
                <g id="m_img_feedback" transform="translate(30.000000, 204.000000)">
                    <line x1="79.5" y1="30.5" x2="60" y2="30.3301232" id="Line-Copy-3" stroke="#9C99C3" stroke-linecap="square"></line>
                    <circle id="Oval-Copy-5" fill="#FFFFFF" cx="30" cy="30" r="30"></circle>
                    <circle id="Oval-Copy-8" fill="#FFFFFF" cx="110" cy="30" r="30"></circle>
                    <path id="Line-Copy-6" d="M71,29.8618593 L71,66.091 L74.5642122,59.7548694 L74.8093429,59.3190816 L75.6809184,59.8093429 L75.4357878,60.2451306 L70.9357878,68.2451306 L70.5,69.0198644 L70.0642122,68.2451306 L65.5642122,60.2451306 L65.3190816,59.8093429 L66.1906571,59.3190816 L66.4357878,59.7548694 L70,66.091 L70,29.8618593 L71,29.8618593 Z" fill="#9C99C3" fill-rule="nonzero"></path>
                    <rect id="Rectangle" stroke="#918DBC" fill="#9C99C3" x="29.5" y="68.5" width="83" height="29" rx="14.5"></rect>
                    <path d="M48.131,84.426 L48.131,79.593 L47.393,79.593 L47.393,81.699 L45.818,81.699 L45.818,82.302 L47.393,82.302 L47.393,84.426 L48.131,84.426 Z M41.903,84.3 C42.848,83.949 43.586,83.211 43.928,82.284 C44.288,83.121 44.981,83.787 45.881,84.111 L46.25,83.535 C45.08,83.121 44.288,82.104 44.288,81.069 L44.288,80.745 L46.061,80.745 L46.061,80.142 L41.75,80.142 L41.75,80.745 L43.55,80.745 L43.55,81.069 C43.55,82.212 42.713,83.292 41.516,83.715 L41.903,84.3 Z M48.131,87.675 L48.131,84.867 L42.74,84.867 L42.74,85.461 L47.393,85.461 L47.393,87.675 L48.131,87.675 Z M57.095,83.589 L57.095,82.995 L55.943,82.995 C56.1293,82.0392 56.14793,81.30939 56.149793,80.720277 L56.15,79.98 L50.705,79.98 L50.705,80.583 L55.421,80.583 C55.421,81.195 55.412,81.951 55.205,82.995 L49.769,82.995 L49.769,83.589 L57.095,83.589 Z M56.204,87.693 L56.204,84.795 L50.552,84.795 L50.552,85.398 L55.466,85.398 L55.466,87.693 L56.204,87.693 Z M64.691,84.426 L64.691,79.593 L63.953,79.593 L63.953,81.699 L62.378,81.699 L62.378,82.302 L63.953,82.302 L63.953,84.426 L64.691,84.426 Z M58.463,84.3 C59.408,83.949 60.146,83.211 60.488,82.284 C60.848,83.121 61.541,83.787 62.441,84.111 L62.81,83.535 C61.64,83.121 60.848,82.104 60.848,81.069 L60.848,80.745 L62.621,80.745 L62.621,80.142 L58.31,80.142 L58.31,80.745 L60.11,80.745 L60.11,81.069 C60.11,82.212 59.273,83.292 58.076,83.715 L58.463,84.3 Z M64.691,87.675 L64.691,84.867 L59.3,84.867 L59.3,85.461 L63.953,85.461 L63.953,87.675 L64.691,87.675 Z M72.953,85.497 L72.953,79.602 L72.215,79.602 L72.215,85.497 L72.953,85.497 Z M68.615,84.138 C69.821,84.138 70.73,83.31 70.73,82.14 C70.73,80.979 69.821,80.16 68.615,80.16 C67.418,80.16 66.518,80.979 66.518,82.14 C66.518,83.31 67.418,84.138 68.615,84.138 Z M68.615,83.499 C67.832,83.499 67.238,82.941 67.238,82.14 C67.238,81.357 67.832,80.799 68.615,80.799 C69.416,80.799 70.01,81.357 70.01,82.14 C70.01,82.941 69.416,83.499 68.615,83.499 Z M73.196,87.486 L73.196,86.883 L68.498,86.883 L68.498,84.894 L67.76,84.894 L67.76,87.486 L73.196,87.486 Z M83.249,87.666 L83.249,79.602 L82.511,79.602 L82.511,87.666 L83.249,87.666 Z M76.706,85.668 C78.173,85.659 80.117,85.641 81.854,85.362 L81.809,84.822 C81.386,84.876 80.945,84.921 80.495,84.939 L80.495,81.06 L81.395,81.06 L81.395,80.466 L76.823,80.466 L76.823,81.06 L77.723,81.06 L77.723,85.038 C77.336,85.047 76.967,85.047 76.625,85.047 L76.706,85.668 Z M78.434,85.029 L78.434,81.06 L79.784,81.06 L79.784,84.984 C79.325,85.002 78.875,85.02 78.434,85.029 Z M91.376,84.066 L91.376,83.463 L86.561,83.463 L86.561,80.943 L91.295,80.943 L91.295,80.331 L85.832,80.331 L85.832,84.066 L91.376,84.066 Z M92.222,86.577 L92.222,85.965 L84.896,85.965 L84.896,86.577 L92.222,86.577 Z M99.998,84.435 L99.998,79.602 L99.287,79.602 L99.287,81.699 L98.261,81.699 L98.261,79.746 L97.559,79.746 L97.559,84.399 L98.261,84.399 L98.261,82.302 L99.287,82.302 L99.287,84.435 L99.998,84.435 Z M96.677,83.868 L96.677,80.115 L95.984,80.115 L95.984,81.384 L94.247,81.384 L94.247,80.115 L93.545,80.115 L93.545,83.868 L96.677,83.868 Z M95.984,83.274 L94.247,83.274 L94.247,81.969 L95.984,81.969 L95.984,83.274 Z M99.998,87.666 L99.998,84.93 L94.571,84.93 L94.571,85.524 L99.26,85.524 L99.26,87.666 L99.998,87.666 Z" id="적극적인피드백" fill="#FFFFFF" fill-rule="nonzero"></path>
                    <path d="M10.864,32.112 C11.632,32.112 12.264,31.808 12.752,31.24 L12.128,30.504 C11.808,30.848 11.408,31.088 10.904,31.088 C9.968,31.088 9.36,30.312 9.36,29.024 C9.36,27.752 10.032,26.984 10.928,26.984 C11.376,26.984 11.72,27.192 12.016,27.48 L12.64,26.728 C12.256,26.328 11.656,25.968 10.904,25.968 C9.408,25.968 8.152,27.112 8.152,29.064 C8.152,31.04 9.368,32.112 10.864,32.112 Z M15.48,32.112 C16.6,32.112 17.632,31.248 17.632,29.768 C17.632,28.272 16.6,27.408 15.48,27.408 C14.36,27.408 13.328,28.272 13.328,29.768 C13.328,31.248 14.36,32.112 15.48,32.112 Z M15.48,31.152 C14.872,31.152 14.528,30.608 14.528,29.768 C14.528,28.92 14.872,28.368 15.48,28.368 C16.088,28.368 16.432,28.92 16.432,29.768 C16.432,30.608 16.088,31.152 15.48,31.152 Z M20.56,30.128 L20.56,29.288 L18.376,29.288 L18.376,30.128 L20.56,30.128 Z M23.664,32 L24.12,30.048 C24.216,29.632 24.28,29.216 24.368,28.744 L24.408,28.744 C24.496,29.216 24.568,29.624 24.664,30.048 L25.136,32 L26.52,32 L27.624,27.52 L26.536,27.52 L26.048,29.736 C25.96,30.168 25.904,30.6 25.824,31.04 L25.784,31.04 C25.688,30.6 25.608,30.168 25.504,29.736 L24.944,27.52 L23.896,27.52 L23.36,29.736 C23.248,30.16 23.168,30.6 23.08,31.04 L23.048,31.04 C22.968,30.6 22.912,30.168 22.824,29.736 L22.336,27.52 L21.16,27.52 L22.32,32 L23.664,32 Z M30.352,32.112 C31.472,32.112 32.504,31.248 32.504,29.768 C32.504,28.272 31.472,27.408 30.352,27.408 C29.232,27.408 28.2,28.272 28.2,29.768 C28.2,31.248 29.232,32.112 30.352,32.112 Z M30.352,31.152 C29.744,31.152 29.4,30.608 29.4,29.768 C29.4,28.92 29.744,28.368 30.352,28.368 C30.96,28.368 31.304,28.92 31.304,29.768 C31.304,30.608 30.96,31.152 30.352,31.152 Z M34.656,32 L34.656,29.328 C34.912,28.68 35.336,28.448 35.688,28.448 C35.872,28.448 36,28.472 36.152,28.52 L36.36,27.504 C36.224,27.448 36.08,27.408 35.832,27.408 C35.368,27.408 34.888,27.728 34.56,28.312 L34.528,28.312 L34.448,27.52 L33.488,27.52 L33.488,32 L34.656,32 Z M38.12,32 L38.12,30.88 L38.768,30.144 L39.856,32 L41.128,32 L39.432,29.352 L40.984,27.52 L39.704,27.52 L38.152,29.456 L38.12,29.456 L38.12,25.616 L36.976,25.616 L36.976,32 L38.12,32 Z M43.76,32.112 C44.32,32.112 44.888,31.92 45.328,31.616 L44.928,30.896 C44.608,31.096 44.288,31.208 43.92,31.208 C43.256,31.208 42.776,30.824 42.68,30.088 L45.44,30.088 C45.472,29.984 45.496,29.768 45.496,29.552 C45.496,28.312 44.856,27.408 43.624,27.408 C42.552,27.408 41.536,28.312 41.536,29.768 C41.536,31.24 42.512,32.112 43.76,32.112 Z M44.488,29.312 L42.664,29.312 C42.752,28.656 43.168,28.32 43.64,28.32 C44.216,28.32 44.488,28.704 44.488,29.312 Z M47.632,32 L47.632,29.328 C47.888,28.68 48.312,28.448 48.664,28.448 C48.848,28.448 48.976,28.472 49.128,28.52 L49.336,27.504 C49.2,27.448 49.056,27.408 48.808,27.408 C48.344,27.408 47.864,27.728 47.536,28.312 L47.504,28.312 L47.424,27.52 L46.464,27.52 L46.464,32 L47.632,32 Z M51.232,32.112 C52.4,32.112 53.016,31.48 53.016,30.696 C53.016,29.864 52.36,29.568 51.768,29.344 C51.296,29.168 50.856,29.048 50.856,28.72 C50.856,28.464 51.048,28.288 51.448,28.288 C51.784,28.288 52.096,28.448 52.416,28.672 L52.944,27.96 C52.568,27.68 52.072,27.408 51.416,27.408 C50.408,27.408 49.752,27.976 49.752,28.784 C49.752,29.528 50.408,29.872 50.976,30.088 C51.448,30.272 51.912,30.424 51.912,30.76 C51.912,31.04 51.712,31.232 51.264,31.232 C50.848,31.232 50.464,31.056 50.064,30.744 L49.528,31.48 C49.968,31.848 50.632,32.112 51.232,32.112 Z" id="Co-workers" fill="#000000" fill-rule="nonzero"></path>
                    <path d="M90.864,32.112 C91.632,32.112 92.264,31.808 92.752,31.24 L92.128,30.504 C91.808,30.848 91.408,31.088 90.904,31.088 C89.968,31.088 89.36,30.312 89.36,29.024 C89.36,27.752 90.032,26.984 90.928,26.984 C91.376,26.984 91.72,27.192 92.016,27.48 L92.64,26.728 C92.256,26.328 91.656,25.968 90.904,25.968 C89.408,25.968 88.152,27.112 88.152,29.064 C88.152,31.04 89.368,32.112 90.864,32.112 Z M95.48,32.112 C96.6,32.112 97.632,31.248 97.632,29.768 C97.632,28.272 96.6,27.408 95.48,27.408 C94.36,27.408 93.328,28.272 93.328,29.768 C93.328,31.248 94.36,32.112 95.48,32.112 Z M95.48,31.152 C94.872,31.152 94.528,30.608 94.528,29.768 C94.528,28.92 94.872,28.368 95.48,28.368 C96.088,28.368 96.432,28.92 96.432,29.768 C96.432,30.608 96.088,31.152 95.48,31.152 Z M100.56,30.128 L100.56,29.288 L98.376,29.288 L98.376,30.128 L100.56,30.128 Z M103.664,32 L104.12,30.048 C104.216,29.632 104.28,29.216 104.368,28.744 L104.408,28.744 C104.496,29.216 104.568,29.624 104.664,30.048 L105.136,32 L106.52,32 L107.624,27.52 L106.536,27.52 L106.048,29.736 C105.96,30.168 105.904,30.6 105.824,31.04 L105.784,31.04 C105.688,30.6 105.608,30.168 105.504,29.736 L104.944,27.52 L103.896,27.52 L103.36,29.736 C103.248,30.16 103.168,30.6 103.08,31.04 L103.048,31.04 C102.968,30.6 102.912,30.168 102.824,29.736 L102.336,27.52 L101.16,27.52 L102.32,32 L103.664,32 Z M110.352,32.112 C111.472,32.112 112.504,31.248 112.504,29.768 C112.504,28.272 111.472,27.408 110.352,27.408 C109.232,27.408 108.2,28.272 108.2,29.768 C108.2,31.248 109.232,32.112 110.352,32.112 Z M110.352,31.152 C109.744,31.152 109.4,30.608 109.4,29.768 C109.4,28.92 109.744,28.368 110.352,28.368 C110.96,28.368 111.304,28.92 111.304,29.768 C111.304,30.608 110.96,31.152 110.352,31.152 Z M114.656,32 L114.656,29.328 C114.912,28.68 115.336,28.448 115.688,28.448 C115.872,28.448 116,28.472 116.152,28.52 L116.36,27.504 C116.224,27.448 116.08,27.408 115.832,27.408 C115.368,27.408 114.888,27.728 114.56,28.312 L114.528,28.312 L114.448,27.52 L113.488,27.52 L113.488,32 L114.656,32 Z M118.12,32 L118.12,30.88 L118.768,30.144 L119.856,32 L121.128,32 L119.432,29.352 L120.984,27.52 L119.704,27.52 L118.152,29.456 L118.12,29.456 L118.12,25.616 L116.976,25.616 L116.976,32 L118.12,32 Z M123.76,32.112 C124.32,32.112 124.888,31.92 125.328,31.616 L124.928,30.896 C124.608,31.096 124.288,31.208 123.92,31.208 C123.256,31.208 122.776,30.824 122.68,30.088 L125.44,30.088 C125.472,29.984 125.496,29.768 125.496,29.552 C125.496,28.312 124.856,27.408 123.624,27.408 C122.552,27.408 121.536,28.312 121.536,29.768 C121.536,31.24 122.512,32.112 123.76,32.112 Z M124.488,29.312 L122.664,29.312 C122.752,28.656 123.168,28.32 123.64,28.32 C124.216,28.32 124.488,28.704 124.488,29.312 Z M127.632,32 L127.632,29.328 C127.888,28.68 128.312,28.448 128.664,28.448 C128.848,28.448 128.976,28.472 129.128,28.52 L129.336,27.504 C129.2,27.448 129.056,27.408 128.808,27.408 C128.344,27.408 127.864,27.728 127.536,28.312 L127.504,28.312 L127.424,27.52 L126.464,27.52 L126.464,32 L127.632,32 Z M131.232,32.112 C132.4,32.112 133.016,31.48 133.016,30.696 C133.016,29.864 132.36,29.568 131.768,29.344 C131.296,29.168 130.856,29.048 130.856,28.72 C130.856,28.464 131.048,28.288 131.448,28.288 C131.784,28.288 132.096,28.448 132.416,28.672 L132.944,27.96 C132.568,27.68 132.072,27.408 131.416,27.408 C130.408,27.408 129.752,27.976 129.752,28.784 C129.752,29.528 130.408,29.872 130.976,30.088 C131.448,30.272 131.912,30.424 131.912,30.76 C131.912,31.04 131.712,31.232 131.264,31.232 C130.848,31.232 130.464,31.056 130.064,30.744 L129.528,31.48 C129.968,31.848 130.632,32.112 131.232,32.112 Z" id="Co-workers" fill="#000000" fill-rule="nonzero"></path>
                    <path d="M169.5,24 L182.5,33 L169.5,42 L169.499,37.5 L151,37.5 L151,28.5 L169.5,28.5 L169.5,24 Z" id="arrow" fill="url(#linearGradient-1)" opacity="0.900000036" transform="translate(166.750000, 33.000000) scale(-1, 1) rotate(-180.000000) translate(-166.750000, -33.000000) "></path>
                    <path d="M220,60 C236.568542,60 250,46.5685425 250,30 C250,13.4314575 236.568542,0 220,0 C203.431458,0 190,13.4314575 190,30 C190,46.5685425 203.431458,60 220,60 Z" id="Oval-Copy-5" fill="url(#linearGradient-2)" opacity="0.800000012"></path>
                    <path d="M214.58,27.712 L214.58,20.32 L213.524,20.32 L213.524,22.864 L211.724,22.864 L211.724,23.712 L213.524,23.712 L213.524,27.712 L214.58,27.712 Z M212.556,25.712 L212.452,24.856 C211.612,25 210.852,25.056 209.796,25.064 L209.796,21.816 L212.076,21.816 L212.076,20.976 L208.74,20.976 L208.74,25.928 L209.34,25.928 C210.684,25.928 211.564,25.896 212.556,25.712 Z M223.628,22.928 L223.956,22.144 C222.628,22.064 221.908,21.704 221.692,21.304 L223.636,21.304 L223.636,20.504 L218.18,20.504 L218.18,21.304 L220.108,21.304 C219.892,21.704 219.172,22.064 217.852,22.144 L218.18,22.928 C219.596,22.832 220.516,22.384 220.9,21.744 C221.284,22.384 222.212,22.832 223.628,22.928 Z M224.252,24.016 L224.252,23.192 L221.42,23.192 L221.42,22.52 L220.364,22.52 L220.364,23.192 L217.572,23.192 L217.572,24.016 L224.252,24.016 Z M223.62,25.552 L223.62,24.768 L221.42,24.768 L221.42,24.248 L220.364,24.248 L220.364,24.768 L218.172,24.768 L218.172,25.552 L223.62,25.552 Z M220.884,27.712 C222.316,27.712 223.14,27.376 223.14,26.744 C223.14,26.112 222.316,25.768 220.884,25.768 C219.468,25.768 218.644,26.112 218.644,26.744 C218.644,27.376 219.468,27.712 220.884,27.712 Z M220.884,27.016 C220.116,27.016 219.732,26.936 219.732,26.744 C219.732,26.544 220.116,26.464 220.884,26.464 C221.66,26.464 222.052,26.544 222.052,26.744 C222.052,26.936 221.66,27.016 220.884,27.016 Z M228.26,23.576 C229.868,23.576 230.932,22.992 230.932,22.056 C230.932,21.12 229.868,20.536 228.26,20.536 C226.66,20.536 225.596,21.12 225.596,22.056 C225.596,22.992 226.66,23.576 228.26,23.576 Z M228.26,22.736 C227.276,22.736 226.684,22.512 226.684,22.056 C226.684,21.608 227.276,21.368 228.26,21.368 C229.252,21.368 229.844,21.608 229.844,22.056 C229.844,22.512 229.252,22.736 228.26,22.736 Z M231.588,24.92 L231.588,24.08 L224.932,24.08 L224.932,24.92 L231.588,24.92 Z M230.844,27.56 L230.844,26.72 L226.796,26.72 L226.796,25.416 L225.74,25.416 L225.74,27.56 L230.844,27.56 Z M215.488,39.704 L215.488,32.312 L214.432,32.312 L214.432,34.624 L213.016,34.624 L213.016,35.472 L214.432,35.472 L214.432,39.704 L215.488,39.704 Z M209.856,38.208 C210.68,37.792 211.232,37.024 211.552,36.08 C211.856,36.968 212.392,37.688 213.2,38.08 L213.824,37.24 C212.608,36.696 212.072,35.344 212.072,33.952 L212.072,32.888 L211.008,32.888 L211.008,33.952 C211.008,35.352 210.448,36.784 209.2,37.36 L209.856,38.208 Z M222.768,39.704 L222.768,32.312 L221.712,32.312 L221.712,39.704 L222.768,39.704 Z M220.656,37.984 L220.656,32.904 L219.608,32.904 L219.608,34.688 L218.072,34.688 L218.072,32.904 L217.024,32.904 L217.024,37.984 L220.656,37.984 Z M219.608,37.144 L218.072,37.144 L218.072,35.512 L219.608,35.512 L219.608,37.144 Z M230.016,36.672 L230.464,35.792 C228.8,35.504 227.888,34.36 227.888,33.28 L227.888,32.752 L226.76,32.752 L226.76,33.28 C226.76,34.336 225.84,35.504 224.184,35.792 L224.632,36.672 C225.912,36.424 226.848,35.704 227.32,34.768 C227.792,35.704 228.736,36.416 230.016,36.672 Z M230.696,38.792 L230.696,37.936 L224.024,37.936 L224.024,38.792 L230.696,38.792 Z" id="더좋은서비스" fill="#FFFFFF" fill-rule="nonzero"></path>
                    <path d="M270,60 C286.568542,60 300,46.5685425 300,30 C300,13.4314575 286.568542,0 270,0 C253.431458,0 240,13.4314575 240,30 C240,46.5685425 253.431458,60 270,60 Z" id="Oval-Copy-9" fill="url(#linearGradient-2)" opacity="0.800000012"></path>
                    <path d="M265.464,24.64 L265.464,20.32 L264.408,20.32 L264.408,21.664 L263.064,21.664 L263.064,22.52 L264.408,22.52 L264.408,24.64 L265.464,24.64 Z M259.792,24.624 C260.664,24.328 261.248,23.736 261.576,22.984 C261.888,23.64 262.408,24.144 263.184,24.408 L263.736,23.576 C262.568,23.2 262.088,22.304 262.088,21.312 L262.088,20.704 L261.016,20.704 L261.016,21.36 C261.016,22.376 260.496,23.376 259.24,23.776 L259.792,24.624 Z M262.976,27.688 C264.536,27.688 265.496,27.16 265.496,26.264 C265.496,25.352 264.536,24.824 262.976,24.824 C261.408,24.824 260.448,25.352 260.448,26.264 C260.448,27.16 261.408,27.688 262.976,27.688 Z M262.976,26.88 C262.008,26.88 261.504,26.68 261.504,26.264 C261.504,25.84 262.008,25.64 262.976,25.64 C263.936,25.64 264.44,25.84 264.44,26.264 C264.44,26.68 263.936,26.88 262.976,26.88 Z M272.464,24.696 L272.464,22.88 L273.44,22.88 L273.44,22.016 L272.464,22.016 L272.464,20.32 L271.408,20.32 L271.408,24.696 L272.464,24.696 Z M267.088,24.736 C267.952,24.456 268.536,23.872 268.864,23.144 C269.184,23.752 269.744,24.24 270.552,24.48 L271.056,23.664 C269.896,23.32 269.392,22.496 269.376,21.656 L270.816,21.656 L270.816,20.808 L266.832,20.808 L266.832,21.656 L268.296,21.656 C268.28,22.576 267.752,23.512 266.56,23.912 L267.088,24.736 Z M270.056,27.688 C271.584,27.688 272.544,27.16 272.544,26.264 C272.544,25.36 271.584,24.824 270.056,24.824 C268.52,24.824 267.56,25.36 267.56,26.264 C267.56,27.16 268.52,27.688 270.056,27.688 Z M270.056,26.88 C269.112,26.88 268.608,26.68 268.608,26.264 C268.608,25.84 269.112,25.64 270.056,25.64 C270.992,25.64 271.496,25.84 271.496,26.264 C271.496,26.68 270.992,26.88 270.056,26.88 Z M280.168,27.704 L280.168,20.312 L279.112,20.312 L279.112,27.704 L280.168,27.704 Z M276.392,24.44 C277.544,24.44 278.424,23.688 278.424,22.624 C278.424,21.568 277.544,20.808 276.392,20.808 C275.24,20.808 274.368,21.568 274.368,22.624 C274.368,23.688 275.24,24.44 276.392,24.44 Z M276.392,23.536 C275.824,23.536 275.392,23.2 275.392,22.624 C275.392,22.048 275.824,21.712 276.392,21.712 C276.96,21.712 277.392,22.048 277.392,22.624 C277.392,23.2 276.96,23.536 276.392,23.536 Z M278.776,25.872 L278.712,25.112 C277.16,25.344 275.352,25.352 274.056,25.352 L274.192,26.208 C275.464,26.208 277.192,26.192 278.776,25.872 Z M269.12,39.68 L269.12,32.312 L268.056,32.312 L268.056,39.68 L269.12,39.68 Z M263.552,38.44 C266.168,37.176 266.928,35.336 266.928,33.08 L263.392,33.08 L263.392,33.92 L265.848,33.92 C265.696,35.552 264.88,36.704 263,37.608 L263.552,38.44 Z M276.488,39.688 L276.488,32.32 L275.432,32.32 L275.432,39.688 L276.488,39.688 Z M274.952,33.96 L274.952,33.136 L273.272,33.136 L273.272,32.344 L272.216,32.344 L272.216,33.136 L270.528,33.136 L270.528,33.96 L274.952,33.96 Z M275.128,38.16 L275.048,37.4 C274.472,37.48 273.872,37.52 273.272,37.552 L273.272,36.968 C274.056,36.816 274.568,36.32 274.568,35.64 C274.568,34.808 273.816,34.248 272.744,34.248 C271.664,34.248 270.912,34.808 270.912,35.64 C270.912,36.32 271.424,36.816 272.216,36.968 L272.216,37.592 C271.56,37.608 270.936,37.608 270.384,37.608 L270.512,38.464 C271.816,38.464 273.52,38.456 275.128,38.16 Z M272.744,36.224 C272.256,36.224 271.92,36.016 271.92,35.64 C271.92,35.256 272.256,35.048 272.744,35.048 C273.24,35.048 273.568,35.256 273.568,35.64 C273.568,36.016 273.24,36.224 272.744,36.224 Z" id="성장의기회" fill="#FFFFFF" fill-rule="nonzero"></path>
                </g>
            </g>
        </g>
    </g>
</svg>