<svg width="305" height="253" xmlns="http://www.w3.org/2000/svg">
    <defs>
        <linearGradient x1="18.902%" y1="88.027%" x2="83.661%" y2="14.135%" id="a">
            <stop stop-color="#817DCC" offset="0%"/>
            <stop stop-color="#5F9EE1" offset="100%"/>
            <stop stop-color="#5E9FE2" offset="100%"/>
        </linearGradient>
        <linearGradient x1="-9.372%" y1="113.945%" x2="108.418%" y2="-11.098%" id="b">
            <stop stop-color="#36C7FB" offset="0%"/>
            <stop stop-color="#E41A8C" offset="100%"/>
        </linearGradient>
        <linearGradient x1="86.755%" y1="17.39%" x2="18.687%" y2="87.804%" id="c">
            <stop stop-color="#8D70C3" offset="0%"/>
            <stop stop-color="#BD40A5" offset="100%"/>
        </linearGradient>
        <linearGradient x1="18.543%" y1="88.027%" x2="84.049%" y2="14.135%" id="d">
            <stop stop-color="#817DCC" offset="0%"/>
            <stop stop-color="#5F9EE1" offset="100%"/>
            <stop stop-color="#5E9FE2" offset="100%"/>
        </linearGradient>
        <linearGradient x1="83.644%" y1="18.195%" x2="18.704%" y2="84.925%" id="e">
            <stop stop-color="#9468BE" offset="0%"/>
            <stop stop-color="#7886D1" offset="100%"/>
        </linearGradient>
    </defs>
    <g fill="none" fill-rule="evenodd">
        <ellipse fill="url(#a)" opacity=".9" cx="87" cy="87.5" rx="87" ry="87.5"/>
        <path d="M206 244c48.049 0 87-39.175 87-87.5S254.049 69 206 69s-87 39.175-87 87.5 38.951 87.5 87 87.5z" fill="url(#b)" opacity=".9"/>
        <path d="M189.97 143.74c.88 0 1.65-.117 2.31-.35.66-.233 1.207-.543 1.64-.93.433-.387.757-.833.97-1.34.213-.507.32-1.033.32-1.58v-.3c0-.827-.227-1.533-.68-2.12-.453-.587-1.16-.967-2.12-1.14.413-.16.753-.367 1.02-.62s.48-.53.64-.83c.16-.3.27-.613.33-.94.06-.327.09-.63.09-.91v-.2c0-.533-.107-1.023-.32-1.47a3.257 3.257 0 0 0-.9-1.14 4.226 4.226 0 0 0-1.4-.73 6.074 6.074 0 0 0-1.84-.26c-1.04 0-1.893.19-2.56.57-.667.38-1.24.883-1.72 1.51l1.74 1.36c.32-.347.67-.633 1.05-.86.38-.227.877-.34 1.49-.34.6 0 1.077.123 1.43.37s.53.643.53 1.19v.16c0 .307-.03.59-.09.85s-.17.48-.33.66c-.16.18-.383.32-.67.42-.287.1-.657.15-1.11.15h-1.72v2.2h1.94c.92 0 1.587.163 2 .49.413.327.62.843.62 1.55v.26c0 .64-.213 1.14-.64 1.5-.427.36-1.093.54-2 .54-.293 0-.567-.02-.82-.06a4 4 0 0 1-.78-.21 5.024 5.024 0 0 1-.83-.41 13.28 13.28 0 0 1-.95-.64l-1.26 2c.68.547 1.41.95 2.19 1.21s1.59.39 2.43.39zm13.14 0c1.747 0 3.053-.54 3.92-1.62s1.3-2.647 1.3-4.7v-2.24c0-2.027-.453-3.583-1.36-4.67-.907-1.087-2.213-1.63-3.92-1.63-1.693 0-3.003.543-3.93 1.63-.927 1.087-1.39 2.643-1.39 4.67v2.24c0 2.027.467 3.587 1.4 4.68.933 1.093 2.26 1.64 3.98 1.64zm0-2.42c-.333 0-.667-.047-1-.14a1.968 1.968 0 0 1-.9-.56c-.267-.28-.483-.673-.65-1.18-.167-.507-.25-1.173-.25-2v-2.28c0-.813.08-1.473.24-1.98.16-.507.37-.9.63-1.18.26-.28.553-.467.88-.56a3.658 3.658 0 0 1 2 0c.327.093.613.277.86.55s.447.663.6 1.17c.153.507.23 1.173.23 2v2.28c0 .84-.073 1.513-.22 2.02-.147.507-.34.897-.58 1.17-.24.273-.52.457-.84.55-.32.093-.653.14-1 .14zm10.7-4.84c1.053 0 1.887-.31 2.5-.93.613-.62.92-1.457.92-2.51v-.78c0-1.053-.307-1.89-.92-2.51-.613-.62-1.447-.93-2.5-.93s-1.887.31-2.5.93c-.613.62-.92 1.457-.92 2.51v.78c0 1.053.307 1.89.92 2.51.613.62 1.447.93 2.5.93zm1.44 7.02 8.6-14.4h-2.3l-8.62 14.4h2.32zm-1.44-8.72c-.56 0-.94-.16-1.14-.48-.2-.32-.3-.753-.3-1.3v-.7c0-.533.1-.963.3-1.29.2-.327.58-.49 1.14-.49.56 0 .94.163 1.14.49.2.327.3.757.3 1.29v.7c0 .547-.1.98-.3 1.3-.2.32-.58.48-1.14.48zm9.18 8.9c1.053 0 1.887-.31 2.5-.93.613-.62.92-1.457.92-2.51v-.78c0-1.053-.307-1.89-.92-2.51-.613-.62-1.447-.93-2.5-.93s-1.887.31-2.5.93c-.613.62-.92 1.457-.92 2.51v.78c0 1.053.307 1.89.92 2.51.613.62 1.447.93 2.5.93zm0-1.7c-.56 0-.94-.16-1.14-.48-.2-.32-.3-.753-.3-1.3v-.7c0-.533.1-.963.3-1.29.2-.327.58-.49 1.14-.49.56 0 .94.163 1.14.49.2.327.3.757.3 1.29v.7c0 .547-.1.98-.3 1.3-.2.32-.58.48-1.14.48zM170 163.496v-6.36h-.996v2.28h-2.34v.804h2.34v3.276H170zm-8.364-.18c1.296-.492 2.268-1.464 2.724-2.736.468 1.116 1.38 1.968 2.556 2.412l.528-.768c-1.572-.552-2.616-1.884-2.616-3.42v-1.068h-.984v1.104c0 1.644-1.068 3.084-2.724 3.672l.516.804zm4.812 4.56c2.208 0 3.576-.744 3.576-2.028 0-1.296-1.368-2.028-3.576-2.028s-3.588.732-3.588 2.028c0 1.284 1.38 2.028 3.588 2.028zm0-.78c-1.62 0-2.604-.468-2.604-1.248 0-.792.984-1.26 2.604-1.26s2.604.468 2.604 1.26c0 .78-.984 1.248-2.604 1.248zm14.076-3.468v-2.952h1.596v-.828h-1.596v-2.712h-.984v6.492h.984zm-7.896-.204c1.284-.456 2.256-1.416 2.712-2.64.456 1.068 1.38 1.92 2.604 2.316l.468-.768c-1.584-.528-2.604-1.788-2.604-3.192v-.42h2.376v-.792h-5.772v.792h2.412v.42c0 1.548-1.08 2.94-2.7 3.504l.504.78zm4.476 4.452c2.184 0 3.54-.732 3.54-1.992 0-1.248-1.356-1.98-3.54-1.98-2.208 0-3.552.732-3.552 1.98 0 1.26 1.344 1.992 3.552 1.992zm0-.78c-1.608 0-2.568-.444-2.568-1.212 0-.756.96-1.2 2.568-1.2 1.584 0 2.556.444 2.556 1.2 0 .768-.972 1.212-2.556 1.212zm10.968-3.348c2.232 0 3.912-1.176 3.912-2.976 0-1.788-1.68-2.976-3.912-2.976s-3.912 1.188-3.912 2.976c0 1.8 1.68 2.976 3.912 2.976zm0-.804c-1.692 0-2.976-.864-2.976-2.172 0-1.296 1.284-2.172 2.976-2.172 1.704 0 2.976.876 2.976 2.172 0 1.308-1.272 2.172-2.976 2.172zm4.908 3.516v-.816h-9.78v.816h9.78zm11.04.096v-.804h-4.404v-2.028h3.444v-.792h-6.624v-1.74h6.372v-3.276h-7.368v.804h6.408v1.68h-6.384v3.324h3.156v2.028h-4.38v.804h9.78zm12.768 1.356v-10.788h-.984v10.788h.984zm-5.676-2.448c1.596 0 2.736-1.464 2.736-3.756s-1.14-3.756-2.736-3.756c-1.596 0-2.736 1.464-2.736 3.756s1.14 3.756 2.736 3.756zm0-.876c-1.056 0-1.8-1.128-1.8-2.88 0-1.74.744-2.868 1.8-2.868 1.044 0 1.788 1.128 1.788 2.868 0 1.752-.744 2.88-1.788 2.88zm16.776 3.324v-10.788h-.984v4.104h-2.34c-.156-2.016-1.212-3.276-2.664-3.276-1.572 0-2.688 1.464-2.688 3.756s1.116 3.756 2.688 3.756c1.5 0 2.568-1.32 2.664-3.432h2.34v5.88h.984zm-5.988-3.324c-1.032 0-1.752-1.128-1.752-2.88 0-1.74.72-2.868 1.752-2.868 1.02 0 1.74 1.128 1.74 2.868 0 1.752-.72 2.88-1.74 2.88zm16.968 3.3v-10.752h-.984v10.752h.984zm-8.232-2.064c1.224-.624 2.28-1.98 2.772-3.552.516 1.476 1.572 2.712 2.82 3.288l.552-.792c-1.584-.672-2.88-2.532-2.88-4.356v-1.368h2.532v-.816h-6.012v.816h2.496v1.368c0 1.86-1.308 3.888-2.856 4.62l.576.792zm19.092-4.656v-.804h-6.336v-2.844h-.984v3.648h7.32zm1.116 2.232v-.792h-9.756v.792h9.756zm-1.056 4.224v-.804h-6.468v-2.34h-.984v3.144h7.452zm-72.15 16.264v-10.764h-.984v10.764h.984zm-8.16-2.004c3.576-1.752 5.004-4.488 5.004-7.596h-5.04v.792h4.044c-.204 2.556-1.644 4.62-4.536 6l.528.804zm19.236-2.976v-5.772h-.996v2.556h-2.196c-.204-1.248-1.284-2.064-2.736-2.064-1.608 0-2.772 1.008-2.772 2.484 0 1.488 1.164 2.496 2.772 2.496 1.476 0 2.556-.84 2.748-2.112h2.184v2.412h.996zm-5.928-1.116c-1.068 0-1.836-.696-1.836-1.68s.768-1.668 1.836-1.668 1.836.684 1.836 1.668c0 .984-.768 1.68-1.836 1.68zm5.928 5.952v-4.308h-.984v1.356h-4.932v-1.356h-.972v4.308h6.888zm-.984-.792h-4.932v-1.392h4.932v1.392zm14.988.924v-10.752h-.948v10.752h.948zm-2.172-.552v-9.948h-.936v3.996h-1.644v.816h1.644v5.136h.936zm-6.48-1.644c1.056-.636 1.812-1.836 2.184-3.204.396 1.296 1.164 2.388 2.208 2.976l.564-.744c-1.452-.78-2.316-2.556-2.316-4.272v-.516h1.992v-.816h-1.98v-1.596h-.948v1.596h-1.992v.816h1.992v.516c0 1.764-.828 3.648-2.28 4.512l.576.732zm19.692 2.196v-10.752h-.936v10.752h.936zm-2.16-.54v-9.924h-.936v2.712h-1.596c.096-.54.144-1.08.144-1.632h-4.128v.804h3.156c-.168 2.256-1.32 4.188-3.636 5.568l.576.696c2.04-1.212 3.204-2.832 3.708-4.644h1.776v1.896h-1.944v.804h1.944v3.72h.936zm6.732-3.864c.432 0 .792-.348.792-.828 0-.504-.36-.852-.792-.852-.432 0-.792.348-.792.852 0 .48.36.828.792.828zm12.54-2.064v-3.78h-7.236v3.78h7.236zm-.972-.792h-5.304v-2.196h5.304v2.196zm-2.076 4.98v-2.172h4.32v-.792h-9.78v.792h4.476v2.172h.984zm3.228 2.052v-.804h-6.456v-2.268h-.984v3.072h7.44zm10.668.24v-5.364h1.68v-.828h-1.68v-4.572h-.984v10.764h.984zm-1.8-8.676v-.78h-2.712v-1.296h-.984v1.296h-2.736v.78h6.432zm.24 6.204-.06-.732c-.924.144-1.92.216-2.892.264v-1.14c1.236-.156 2.052-.9 2.052-1.968 0-1.212-1.044-1.992-2.544-1.992s-2.544.78-2.544 1.992c0 1.068.816 1.812 2.052 1.968v1.176c-1.044.036-2.052.036-2.916.036l.132.828c1.884 0 4.416-.024 6.72-.432zm-3.444-2.352c-.96 0-1.608-.48-1.608-1.224s.648-1.236 1.608-1.236c.96 0 1.608.492 1.608 1.236s-.648 1.224-1.608 1.224z" fill="#FFF" fill-rule="nonzero"/>
        <circle fill="url(#c)" opacity=".9" cx="92.5" cy="201.5" r="51.5"/>
        <circle fill="url(#d)" opacity=".9" cx="261.5" cy="64.5" r="43.5"/>
        <ellipse fill="url(#e)" opacity=".9" cx="176.5" cy="50" rx="28.5" ry="29"/>
        <path d="M168.756 55.629c.68 0 1.281-.088 1.803-.264.52-.175.96-.416 1.317-.722s.626-.669.808-1.088a3.39 3.39 0 0 0 .272-1.36v-.289c0-.34-.054-.66-.162-.96a2.983 2.983 0 0 0-1.071-1.428 2.574 2.574 0 0 0-.757-.383 3.46 3.46 0 0 0 .757-.578 3.64 3.64 0 0 0 .518-.663c.136-.227.236-.453.298-.68.062-.227.094-.442.094-.646v-.204c0-.442-.083-.864-.247-1.267a3.058 3.058 0 0 0-.74-1.07 3.642 3.642 0 0 0-1.232-.748c-.493-.188-1.068-.281-1.725-.281-.67 0-1.25.094-1.743.28a3.548 3.548 0 0 0-1.224.748 2.916 2.916 0 0 0-.714 1.071c-.153.403-.23.825-.23 1.267v.204c0 .204.035.425.103.663.067.238.17.473.305.706.136.232.31.453.519.663.21.21.462.388.756.535-.26.08-.51.204-.748.374-.237.17-.45.377-.637.62a3.169 3.169 0 0 0-.45.817c-.114.3-.17.62-.17.96v.289c0 .487.09.94.272 1.36.18.42.453.782.815 1.088.363.306.814.547 1.352.722.538.176 1.159.264 1.861.264zm-.034-7.395c-.204 0-.407-.031-.612-.093a1.663 1.663 0 0 1-.552-.29 1.488 1.488 0 0 1-.4-.492 1.524 1.524 0 0 1-.152-.706v-.17c0-.533.164-.932.493-1.198.328-.267.73-.4 1.207-.4.51 0 .92.133 1.232.4.312.266.468.665.468 1.198v.17a1.6 1.6 0 0 1-.145.706 1.444 1.444 0 0 1-.382.492c-.16.13-.338.227-.536.29a2.057 2.057 0 0 1-.62.093zm.017 5.491c-.612 0-1.105-.145-1.478-.434-.374-.288-.561-.7-.561-1.232v-.17c0-.306.056-.57.17-.79a1.57 1.57 0 0 1 .45-.544c.187-.142.402-.247.646-.315s.501-.102.773-.102c.273 0 .528.034.766.102.238.068.444.176.62.323.176.147.317.329.425.544.108.215.161.476.161.782v.17c0 .533-.175.944-.526 1.233-.352.288-.834.433-1.446.433zm9.13-4.267c.895 0 1.603-.264 2.125-.79.52-.527.781-1.239.781-2.134v-.663c0-.895-.26-1.607-.781-2.134-.522-.526-1.23-.79-2.125-.79-.896 0-1.604.264-2.125.79-.522.527-.782 1.239-.782 2.134v.663c0 .895.26 1.607.782 2.133.52.527 1.23.791 2.125.791zm1.224 5.967 7.31-12.24h-1.956l-7.327 12.24h1.972zm-1.224-7.412c-.476 0-.8-.136-.97-.408-.17-.272-.255-.64-.255-1.105v-.595c0-.453.085-.819.255-1.096.17-.278.494-.417.97-.417s.798.139.969.416c.17.278.255.644.255 1.097v.595c0 .465-.085.833-.255 1.105-.17.272-.493.408-.97.408zm7.803 7.565c.895 0 1.603-.264 2.125-.79.52-.527.781-1.239.781-2.134v-.663c0-.895-.26-1.606-.781-2.133-.522-.527-1.23-.791-2.125-.791-.896 0-1.604.264-2.125.79-.522.528-.782 1.239-.782 2.134v.663c0 .895.26 1.606.782 2.133.52.528 1.23.791 2.125.791zm0-1.445c-.476 0-.8-.136-.97-.408-.17-.272-.255-.64-.255-1.105v-.595c0-.453.085-.819.255-1.096.17-.278.494-.417.97-.417s.798.139.969.416c.17.278.255.644.255 1.097v.595c0 .465-.085.833-.255 1.105-.17.272-.493.408-.97.408zM71.47 82.74c.88 0 1.65-.117 2.31-.35.66-.233 1.207-.543 1.64-.93.433-.387.757-.833.97-1.34.213-.507.32-1.033.32-1.58v-.3c0-.827-.227-1.533-.68-2.12-.453-.587-1.16-.967-2.12-1.14.413-.16.753-.367 1.02-.62s.48-.53.64-.83c.16-.3.27-.613.33-.94.06-.327.09-.63.09-.91v-.2c0-.533-.107-1.023-.32-1.47a3.257 3.257 0 0 0-.9-1.14 4.226 4.226 0 0 0-1.4-.73 6.074 6.074 0 0 0-1.84-.26c-1.04 0-1.893.19-2.56.57-.667.38-1.24.883-1.72 1.51l1.74 1.36c.32-.347.67-.633 1.05-.86.38-.227.877-.34 1.49-.34.6 0 1.077.123 1.43.37s.53.643.53 1.19v.16c0 .307-.03.59-.09.85s-.17.48-.33.66c-.16.18-.383.32-.67.42-.287.1-.657.15-1.11.15h-1.72v2.2h1.94c.92 0 1.587.163 2 .49.413.327.62.843.62 1.55v.26c0 .64-.213 1.14-.64 1.5-.427.36-1.093.54-2 .54-.293 0-.567-.02-.82-.06a4 4 0 0 1-.78-.21 5.024 5.024 0 0 1-.83-.41 13.28 13.28 0 0 1-.95-.64l-1.26 2c.68.547 1.41.95 2.19 1.21s1.59.39 2.43.39zm13.14 0c1.747 0 3.053-.54 3.92-1.62s1.3-2.647 1.3-4.7v-2.24c0-2.027-.453-3.583-1.36-4.67-.907-1.087-2.213-1.63-3.92-1.63-1.693 0-3.003.543-3.93 1.63-.927 1.087-1.39 2.643-1.39 4.67v2.24c0 2.027.467 3.587 1.4 4.68.933 1.093 2.26 1.64 3.98 1.64zm0-2.42c-.333 0-.667-.047-1-.14a1.968 1.968 0 0 1-.9-.56c-.267-.28-.483-.673-.65-1.18-.167-.507-.25-1.173-.25-2v-2.28c0-.813.08-1.473.24-1.98.16-.507.37-.9.63-1.18.26-.28.553-.467.88-.56a3.658 3.658 0 0 1 2 0c.327.093.613.277.86.55s.447.663.6 1.17c.153.507.23 1.173.23 2v2.28c0 .84-.073 1.513-.22 2.02-.147.507-.34.897-.58 1.17-.24.273-.52.457-.84.55-.32.093-.653.14-1 .14zm10.7-4.84c1.053 0 1.887-.31 2.5-.93.613-.62.92-1.457.92-2.51v-.78c0-1.053-.307-1.89-.92-2.51-.613-.62-1.447-.93-2.5-.93s-1.887.31-2.5.93c-.613.62-.92 1.457-.92 2.51v.78c0 1.053.307 1.89.92 2.51.613.62 1.447.93 2.5.93zm1.44 7.02 8.6-14.4h-2.3l-8.62 14.4h2.32zm-1.44-8.72c-.56 0-.94-.16-1.14-.48-.2-.32-.3-.753-.3-1.3v-.7c0-.533.1-.963.3-1.29.2-.327.58-.49 1.14-.49.56 0 .94.163 1.14.49.2.327.3.757.3 1.29v.7c0 .547-.1.98-.3 1.3-.2.32-.58.48-1.14.48zm9.18 8.9c1.053 0 1.887-.31 2.5-.93.613-.62.92-1.457.92-2.51v-.78c0-1.053-.307-1.89-.92-2.51-.613-.62-1.447-.93-2.5-.93s-1.887.31-2.5.93c-.613.62-.92 1.457-.92 2.51v.78c0 1.053.307 1.89.92 2.51.613.62 1.447.93 2.5.93zm0-1.7c-.56 0-.94-.16-1.14-.48-.2-.32-.3-.753-.3-1.3v-.7c0-.533.1-.963.3-1.29.2-.327.58-.49 1.14-.49.56 0 .94.163 1.14.49.2.327.3.757.3 1.29v.7c0 .547-.1.98-.3 1.3-.2.32-.58.48-1.14.48zM60.696 101.908v-5.772H59.7v2.556h-2.196c-.204-1.248-1.284-2.064-2.736-2.064-1.608 0-2.772 1.008-2.772 2.484 0 1.488 1.164 2.496 2.772 2.496 1.476 0 2.556-.84 2.748-2.112H59.7v2.412h.996zm-5.928-1.116c-1.068 0-1.836-.696-1.836-1.68s.768-1.668 1.836-1.668 1.836.684 1.836 1.668c0 .984-.768 1.68-1.836 1.68zm5.928 5.952v-4.308h-.984v1.356H54.78v-1.356h-.972v4.308h6.888zm-.984-.792H54.78v-1.392h4.932v1.392zm11.664-5.04v-4.188h-7.272v4.188h7.272zm-.972-.78h-5.34v-2.616h5.34v2.616zm-2.196 6.744v-3.696h4.416v-.804h-9.768v.804h4.368v3.696h.984zm17.22-4.92v-5.832h-.984v5.832h.984zm-8.196.024c1.284-.444 2.28-1.38 2.748-2.568.492 1.116 1.488 1.98 2.724 2.376l.48-.756c-1.584-.492-2.712-1.752-2.712-3.168v-.24h2.436v-.804h-5.904v.804h2.46v.24c0 1.476-1.104 2.82-2.736 3.336l.504.78zm8.196 4.764v-4.272h-.972v1.308h-4.992v-1.308h-.972v4.272h6.936zm-.972-.804h-4.992v-1.392h4.992v1.392zm12.024-5.424.348-.78c-1.884-.216-3.6-1.14-3.684-2.328h3.348v-.792h-7.956v.792h3.336c-.084 1.188-1.8 2.112-3.684 2.328l.348.78c1.764-.216 3.384-1.008 3.972-2.196.6 1.188 2.208 1.98 3.972 2.196zm-3.972 6.36c2.292 0 3.672-.672 3.672-1.896 0-1.116-1.176-1.776-3.18-1.872v-1.152h4.368v-.792h-9.732v.792h4.368v1.152c-2.004.096-3.192.756-3.192 1.872 0 1.224 1.392 1.896 3.696 1.896zm-.012-.756c-1.692 0-2.688-.42-2.688-1.14s.996-1.128 2.688-1.128c1.68 0 2.688.408 2.688 1.128s-1.008 1.14-2.688 1.14zm15.264-8.208v-.732h-2.592v-1.092h-.984v1.092h-2.604v.732h6.18zm1.944 6.636v-3.852h1.584v-.816h-1.584v-3.756h-.984v8.424h.984zm-8.28-1.236c1.872-.012 4.452-.048 6.732-.468l-.072-.708c-.924.156-1.932.24-2.916.288v-.768c1.236-.132 2.016-.72 2.016-1.644 0-1.02-1.008-1.644-2.508-1.644-1.512 0-2.52.624-2.52 1.644 0 .924.792 1.524 2.028 1.644v.816a83.455 83.455 0 0 1-2.868.048l.108.792zm3.252-2.34c-.972 0-1.584-.36-1.584-.96 0-.576.612-.948 1.584-.948.948 0 1.572.372 1.572.948 0 .6-.624.96-1.572.96zm5.412 5.676v-.804h-6.204v-1.848h-.984v2.652h7.188zm11.184-4.08v-6.432h-.996v1.968h-2.436c.072-.372.12-.768.12-1.164h-4.86v.792h3.792c-.18 1.86-1.776 3.288-4.344 4.056l.396.78c2.316-.672 3.948-1.932 4.644-3.66h2.688v1.44h-2.82v.804h2.82v1.416h.996zm-3.516 4.272c2.172 0 3.564-.78 3.564-2.076s-1.392-2.076-3.564-2.076-3.564.78-3.564 2.076 1.392 2.076 3.564 2.076zm0-.768c-1.584 0-2.592-.492-2.592-1.308 0-.804 1.008-1.296 2.592-1.296s2.592.492 2.592 1.296c0 .816-1.008 1.308-2.592 1.308zM80.2 219.876v-10.752h-.936v4.26h-1.452v-4.02h-.924v9.984h.924v-5.16h1.452v5.688h.936zm-4.668-2.88v-6.624H71.44v6.624h4.092zm-.912-.78h-2.256v-5.064h2.256v5.064zm16.332-.468v-6.612h-.984v1.584h-2.1v.804h2.1v1.44h-2.1v.792h2.1v1.992h.984zm-3.072-.756-.096-.792c-1.248.204-2.28.252-4.272.252v-1.632h3.648v-3.048h-4.644v.804H86.2v1.488h-3.648v3.192h.768c2.148 0 3.24-.036 4.56-.264zm3.072 4.908v-3.576h-7.2v.804h6.216v2.772h.984zm11.04-4.332v-6.444h-.984v2.808h-2.1v.804h2.1v2.832h.984zm-8.304-.168a4.561 4.561 0 0 0 2.7-2.688 4.46 4.46 0 0 0 2.604 2.436l.492-.768c-1.56-.552-2.616-1.908-2.616-3.288v-.432h2.364v-.804h-5.748v.804h2.4v.432c0 1.524-1.116 2.964-2.712 3.528l.516.78zm8.304 4.5v-3.744h-7.188v.792h6.204v2.952h.984zm11.016-2.904v-7.86h-.984v7.86h.984zm-5.784-1.812c1.608 0 2.82-1.104 2.82-2.664 0-1.548-1.212-2.64-2.82-2.64-1.596 0-2.796 1.092-2.796 2.64 0 1.56 1.2 2.664 2.796 2.664zm0-.852c-1.044 0-1.836-.744-1.836-1.812 0-1.044.792-1.788 1.836-1.788 1.068 0 1.86.744 1.86 1.788 0 1.068-.792 1.812-1.86 1.812zm6.108 5.316v-.804h-6.264v-2.652h-.984v3.456h7.248zM79.924 235.9v-10.776h-.984v3.648h-2.496v.804h2.496v6.324h.984zm-8.268-2.292c1.212-.648 2.208-2.004 2.676-3.6.492 1.512 1.476 2.796 2.7 3.408l.576-.78c-1.56-.744-2.784-2.7-2.784-4.656v-1.932h-.984v1.932c0 1.992-1.224 4.068-2.784 4.848l.6.78zm19.248 2.292v-10.776h-.984V235.9h.984zm-3.132-2.604v-7.26H86.8v2.844h-3.12v-2.844h-.972v7.26h5.064zm-.972-.804h-3.12v-2.832h3.12v2.832zm15.168-1.14.444-.816c-1.884-.36-3.924-1.992-3.924-3.828v-.828h-1.032v.828c0 1.836-2.028 3.456-3.912 3.828l.444.816c1.62-.384 3.3-1.536 3.984-3.108.684 1.584 2.364 2.736 3.996 3.108zm.924 3.096v-.816h-9.756v.816h9.756zm9.864-5.7v-.792h-6.3v-1.68h6.192v-.792h-7.176v3.264h7.284zm1.164 1.668v-.804h-9.744v.804h9.744zm-.936 5.34v-.768h-6.648v-1.104h6.324v-2.532h-7.32v.768h6.348v1.032h-6.312v2.604h7.608zM84.203 194.442v-1.802H78.37l3.605-3.638c.578-.578 1.017-1.17 1.317-1.776.3-.607.45-1.244.45-1.913v-.17c0-.42-.076-.819-.229-1.198a2.68 2.68 0 0 0-.714-1.004c-.323-.288-.734-.518-1.233-.688-.498-.17-1.093-.255-1.784-.255-.624 0-1.165.085-1.624.255-.459.17-.856.383-1.19.638a4.033 4.033 0 0 0-.833.841 9.22 9.22 0 0 0-.552.85l1.632 1.071c.204-.351.41-.64.62-.867a2.78 2.78 0 0 1 .638-.527c.215-.125.433-.21.654-.255.221-.045.445-.068.671-.068.635 0 1.086.133 1.352.4.266.266.4.563.4.892v.136c0 .17-.012.346-.035.527-.022.181-.085.38-.187.595a4.391 4.391 0 0 1-.458.731c-.204.272-.482.59-.834.952l-4.505 4.641v1.632h8.67zm6.34.187c1.485 0 2.596-.459 3.332-1.377.737-.918 1.106-2.25 1.106-3.995v-1.904c0-1.723-.386-3.046-1.156-3.97-.771-.923-1.882-1.385-3.332-1.385-1.44 0-2.553.462-3.341 1.386-.788.923-1.181 2.246-1.181 3.969v1.904c0 1.723.396 3.049 1.19 3.978.793.93 1.92 1.394 3.382 1.394zm0-2.057a3.14 3.14 0 0 1-.85-.119 1.673 1.673 0 0 1-.764-.476c-.227-.238-.411-.572-.553-1.003-.142-.43-.213-.997-.213-1.7v-1.938c0-.691.069-1.252.205-1.683.136-.43.314-.765.535-1.003.221-.238.47-.397.748-.476a3.11 3.11 0 0 1 1.7 0c.278.08.521.235.731.468.21.232.38.563.51.994.13.43.195.997.195 1.7v1.938c0 .714-.062 1.286-.187 1.717-.124.43-.288.762-.492.994a1.5 1.5 0 0 1-.715.468 3.02 3.02 0 0 1-.85.119zm9.095-4.114c.896 0 1.604-.263 2.125-.79.522-.528.782-1.239.782-2.134v-.663c0-.895-.26-1.607-.782-2.133-.52-.528-1.23-.791-2.125-.791s-1.603.263-2.125.79c-.52.528-.782 1.239-.782 2.134v.663c0 .895.261 1.607.782 2.133.522.528 1.23.791 2.125.791zm1.224 5.967 7.31-12.24h-1.954l-7.328 12.24h1.972zm-1.224-7.412c-.476 0-.799-.136-.969-.408-.17-.272-.254-.64-.254-1.105v-.595c0-.453.084-.819.254-1.096.17-.278.493-.417.97-.417.476 0 .799.139.969.417.17.277.254.643.254 1.096v.595c0 .465-.084.833-.254 1.105-.17.272-.493.408-.97.408zm7.803 7.565c.896 0 1.604-.263 2.126-.79.52-.528.782-1.239.782-2.134v-.663c0-.895-.261-1.607-.782-2.134-.522-.526-1.23-.79-2.125-.79-.896 0-1.604.263-2.125.79-.522.528-.782 1.239-.782 2.134v.663c0 .895.26 1.607.782 2.133.52.528 1.23.791 2.125.791zm0-1.445c-.475 0-.799-.136-.969-.408-.17-.272-.254-.64-.254-1.105v-.595c0-.453.084-.819.254-1.096.17-.278.494-.417.97-.417s.799.139.969.417c.17.277.254.643.254 1.096v.595c0 .465-.085.833-.255 1.105-.17.272-.492.408-.968.408zM241.93 81.156c2.208 0 3.756-1.764 3.756-4.584 0-2.82-1.548-4.536-3.756-4.536-2.208 0-3.756 1.716-3.756 4.536 0 2.82 1.548 4.584 3.756 4.584zm0-.972c-1.584 0-2.616-1.416-2.616-3.612 0-2.208 1.032-3.564 2.616-3.564 1.572 0 2.616 1.356 2.616 3.564 0 2.196-1.044 3.612-2.616 3.612zm6.768.816v-2.784l1.512-1.8L252.838 81h1.248l-3.18-5.448 2.748-3.348h-1.248l-3.672 4.416h-.036v-4.416h-1.116V81h1.116zm7.752 0v-3.732h1.584L260.17 81h1.26l-2.256-3.852c1.2-.288 1.992-1.104 1.992-2.472 0-1.836-1.284-2.472-3.072-2.472h-2.76V81h1.116zm1.476-4.632h-1.476v-3.264h1.476c1.38 0 2.136.408 2.136 1.572 0 1.14-.756 1.692-2.136 1.692zm15.504 1.236v-2.952h1.596v-.816h-1.596v-2.712h-.984v6.48h.984zm-2.928-.84v-4.956h-.96v1.62h-3.048v-1.62h-.972v4.956h4.98zm-.96-.792h-3.048v-1.776h3.048v1.776zm.468 5.916c2.184 0 3.54-.732 3.54-2.004s-1.356-2.004-3.54-2.004c-2.196 0-3.552.732-3.552 2.004s1.356 2.004 3.552 2.004zm0-.78c-1.608 0-2.568-.456-2.568-1.224s.96-1.212 2.568-1.212c1.584 0 2.556.444 2.556 1.212s-.972 1.224-2.556 1.224zm14.94-3.504v-6.468h-.984v6.468h.984zm-8.232-.444a4.646 4.646 0 0 0 2.712-2.748 4.525 4.525 0 0 0 2.688 2.556l.492-.78c-1.596-.552-2.7-1.956-2.7-3.504v-1.056h-.984v1.056c0 1.608-1.092 3.108-2.712 3.696l.504.78zm8.232 4.74v-3.744h-7.2v.792h6.216V81.9h.984zM251.088 60.442V48.185h-1.921l-4.097 2.278 1.054 1.768 2.787-1.598v9.809h2.177zm12.155 0V58.64h-5.832l3.604-3.638c.579-.578 1.018-1.17 1.318-1.777.3-.606.45-1.243.45-1.912v-.17c0-.42-.076-.819-.229-1.199a2.68 2.68 0 0 0-.714-1.003c-.323-.288-.734-.518-1.232-.688-.5-.17-1.094-.255-1.786-.255-.623 0-1.164.085-1.623.255-.459.17-.856.383-1.19.638a4.033 4.033 0 0 0-.833.841 9.22 9.22 0 0 0-.552.85l1.631 1.071c.204-.351.411-.64.621-.867a2.78 2.78 0 0 1 .638-.527c.215-.125.433-.21.654-.255.221-.045.445-.068.671-.068.635 0 1.086.133 1.352.4.266.266.4.563.4.892v.136c0 .17-.012.346-.034.527-.023.181-.086.38-.188.595a4.391 4.391 0 0 1-.459.731c-.204.272-.481.59-.833.952l-4.505 4.641v1.632h8.67zm4.896-5.984c.895 0 1.603-.264 2.125-.79.52-.527.781-1.239.781-2.134v-.663c0-.895-.26-1.607-.781-2.134-.522-.526-1.23-.79-2.125-.79-.896 0-1.604.264-2.125.79-.522.527-.783 1.239-.783 2.134v.663c0 .895.261 1.607.783 2.133.52.527 1.23.791 2.125.791zm1.224 5.967 7.31-12.24h-1.956l-7.327 12.24h1.973zm-1.224-7.412c-.476 0-.8-.136-.97-.408-.17-.272-.255-.64-.255-1.105v-.595c0-.453.086-.819.256-1.096.17-.278.493-.417.969-.417s.798.139.969.416c.17.278.255.644.255 1.097v.595c0 .465-.086.833-.255 1.105-.17.272-.493.408-.97.408zm7.803 7.565c.895 0 1.603-.264 2.125-.79.52-.527.781-1.239.781-2.134v-.663c0-.895-.26-1.606-.781-2.133-.522-.527-1.23-.791-2.125-.791-.896 0-1.604.264-2.125.79-.522.528-.783 1.239-.783 2.134v.663c0 .895.261 1.606.783 2.133.52.528 1.23.791 2.125.791zm0-1.445c-.476 0-.8-.136-.97-.408-.17-.272-.255-.64-.255-1.105v-.595c0-.453.086-.819.256-1.096.17-.278.493-.417.969-.417s.798.139.969.416c.17.278.255.644.255 1.097v.595c0 .465-.086.833-.255 1.105-.17.272-.493.408-.97.408z" fill="#FFF" fill-rule="nonzero"/>
    </g>
</svg>
