<svg width="456" height="377" xmlns="http://www.w3.org/2000/svg">
    <defs>
        <linearGradient x1="18.87%" y1="88.027%" x2="83.695%" y2="14.135%" id="a">
            <stop stop-color="#817DCC" offset="0%"/>
            <stop stop-color="#5F9EE1" offset="100%"/>
            <stop stop-color="#5E9FE2" offset="100%"/>
        </linearGradient>
        <linearGradient x1="-9.529%" y1="113.945%" x2="108.572%" y2="-11.098%" id="b">
            <stop stop-color="#36C7FB" offset="0%"/>
            <stop stop-color="#E41A8C" offset="100%"/>
        </linearGradient>
        <linearGradient x1="86.755%" y1="17.39%" x2="18.687%" y2="87.804%" id="c">
            <stop stop-color="#8D70C3" offset="0%"/>
            <stop stop-color="#BD40A5" offset="100%"/>
        </linearGradient>
        <linearGradient x1="18.543%" y1="88.027%" x2="84.049%" y2="14.135%" id="d">
            <stop stop-color="#817DCC" offset="0%"/>
            <stop stop-color="#5F9EE1" offset="100%"/>
            <stop stop-color="#5E9FE2" offset="100%"/>
        </linearGradient>
        <linearGradient x1="84.835%" y1="18.195%" x2="17.596%" y2="84.925%" id="e">
            <stop stop-color="#9468BE" offset="0%"/>
            <stop stop-color="#7886D1" offset="100%"/>
        </linearGradient>
    </defs>
    <g fill="none" fill-rule="evenodd">
        <ellipse fill="url(#a)" opacity=".9" cx="130" cy="130.681" rx="130" ry="130.681"/>
        <path d="M94.928 150.544v-7.696H93.6v3.408h-2.928c-.272-1.664-1.712-2.752-3.648-2.752-2.144 0-3.696 1.344-3.696 3.312 0 1.984 1.552 3.328 3.696 3.328 1.968 0 3.408-1.12 3.664-2.816H93.6v3.216h1.328zm-7.904-1.488c-1.424 0-2.448-.928-2.448-2.24 0-1.312 1.024-2.224 2.448-2.224s2.448.912 2.448 2.224c0 1.312-1.024 2.24-2.448 2.24zm7.904 7.936v-5.744h-1.312v1.808H87.04v-1.808h-1.296v5.744h9.184zm-1.312-1.056H87.04v-1.856h6.576v1.856zm15.552-6.72v-5.584h-9.696v5.584h9.696zm-1.296-1.04h-7.12v-3.488h7.12v3.488zm-2.928 8.992v-4.928h5.888v-1.072H97.808v1.072h5.824v4.928h1.312zm22.96-6.56v-7.776h-1.312v7.776h1.312zm-10.928.032c1.712-.592 3.04-1.84 3.664-3.424.656 1.488 1.984 2.64 3.632 3.168l.64-1.008c-2.112-.656-3.616-2.336-3.616-4.224v-.32h3.248v-1.072h-7.872v1.072h3.28v.32c0 1.968-1.472 3.76-3.648 4.448l.672 1.04zm10.928 6.352v-5.696h-1.296v1.744h-6.656v-1.744h-1.296v5.696h9.248zm-1.296-1.072h-6.656v-1.856h6.656v1.856zm16.032-7.232.464-1.04c-2.512-.288-4.8-1.52-4.912-3.104h4.464v-1.056h-10.608v1.056h4.448c-.112 1.584-2.4 2.816-4.912 3.104l.464 1.04c2.352-.288 4.512-1.344 5.296-2.928.8 1.584 2.944 2.64 5.296 2.928zm-5.296 8.48c3.056 0 4.896-.896 4.896-2.528 0-1.488-1.568-2.368-4.24-2.496v-1.536h5.824v-1.056h-12.976v1.056h5.824v1.536c-2.672.128-4.256 1.008-4.256 2.496 0 1.632 1.856 2.528 4.928 2.528zm-.016-1.008c-2.256 0-3.584-.56-3.584-1.52s1.328-1.504 3.584-1.504c2.24 0 3.584.544 3.584 1.504s-1.344 1.52-3.584 1.52zm20.352-10.944v-.976h-3.456v-1.456h-1.312v1.456h-3.472v.976h8.24zm2.592 8.848v-5.136h2.112v-1.088h-2.112v-5.008h-1.312v11.232h1.312zm-11.04-1.648c2.496-.016 5.936-.064 8.976-.624l-.096-.944c-1.232.208-2.576.32-3.888.384v-1.024c1.648-.176 2.688-.96 2.688-2.192 0-1.36-1.344-2.192-3.344-2.192-2.016 0-3.36.832-3.36 2.192 0 1.232 1.056 2.032 2.704 2.192v1.088c-1.376.048-2.704.064-3.824.064l.144 1.056zm4.336-3.12c-1.296 0-2.112-.48-2.112-1.28 0-.768.816-1.264 2.112-1.264 1.264 0 2.096.496 2.096 1.264 0 .8-.832 1.28-2.096 1.28zm7.216 7.568v-1.072h-8.272v-2.464H151.2v3.536h9.584zm14.912-5.44v-8.576h-1.328v2.624h-3.248c.096-.496.16-1.024.16-1.552h-6.48v1.056h5.056c-.24 2.48-2.368 4.384-5.792 5.408l.528 1.04c3.088-.896 5.264-2.576 6.192-4.88h3.584v1.92h-3.76v1.072h3.76v1.888h1.328zm-4.688 5.696c2.896 0 4.752-1.04 4.752-2.768 0-1.728-1.856-2.768-4.752-2.768s-4.752 1.04-4.752 2.768c0 1.728 1.856 2.768 4.752 2.768zm0-1.024c-2.112 0-3.456-.656-3.456-1.744 0-1.072 1.344-1.728 3.456-1.728s3.456.656 3.456 1.728c0 1.088-1.344 1.744-3.456 1.744z" fill="#FFF" fill-rule="nonzero"/>
        <path d="M308 363.15c71.797 0 130-58.46 130-130.575C438 160.461 379.797 102 308 102s-130 58.46-130 130.575c0 72.115 58.203 130.575 130 130.575z" fill="url(#b)" opacity=".9"/>
        <g fill="#FFF" fill-rule="nonzero">
            <path d="M282.472 224.23c1.32 0 2.475-.175 3.465-.525.99-.35 1.81-.815 2.46-1.395a5.573 5.573 0 0 0 1.455-2.01c.32-.76.48-1.55.48-2.37v-.45c0-1.24-.34-2.3-1.02-3.18-.68-.88-1.74-1.45-3.18-1.71.62-.24 1.13-.55 1.53-.93.4-.38.72-.795.96-1.245.24-.45.405-.92.495-1.41.09-.49.135-.945.135-1.365v-.3c0-.8-.16-1.535-.48-2.205-.32-.67-.77-1.24-1.35-1.71-.58-.47-1.28-.835-2.1-1.095-.82-.26-1.74-.39-2.76-.39-1.56 0-2.84.285-3.84.855-1 .57-1.86 1.325-2.58 2.265l2.61 2.04c.48-.52 1.005-.95 1.575-1.29.57-.34 1.315-.51 2.235-.51.9 0 1.615.185 2.145.555.53.37.795.965.795 1.785v.24c0 .46-.045.885-.135 1.275-.09.39-.255.72-.495.99s-.575.48-1.005.63c-.43.15-.985.225-1.665.225h-2.58v3.3h2.91c1.38 0 2.38.245 3 .735.62.49.93 1.265.93 2.325v.39c0 .96-.32 1.71-.96 2.25-.64.54-1.64.81-3 .81-.44 0-.85-.03-1.23-.09a6 6 0 0 1-1.17-.315c-.4-.15-.815-.355-1.245-.615-.43-.26-.905-.58-1.425-.96l-1.89 3a10.54 10.54 0 0 0 3.285 1.815c1.17.39 2.385.585 3.645.585zm19.71 0c2.62 0 4.58-.81 5.88-2.43 1.3-1.62 1.95-3.97 1.95-7.05v-3.36c0-3.04-.68-5.375-2.04-7.005-1.36-1.63-3.32-2.445-5.88-2.445-2.54 0-4.505.815-5.895 2.445-1.39 1.63-2.085 3.965-2.085 7.005v3.36c0 3.04.7 5.38 2.1 7.02 1.4 1.64 3.39 2.46 5.97 2.46zm0-3.63c-.5 0-1-.07-1.5-.21-.5-.14-.95-.42-1.35-.84-.4-.42-.725-1.01-.975-1.77s-.375-1.76-.375-3v-3.42c0-1.22.12-2.21.36-2.97.24-.76.555-1.35.945-1.77.39-.42.83-.7 1.32-.84a5.488 5.488 0 0 1 3 0c.49.14.92.415 1.29.825s.67.995.9 1.755c.23.76.345 1.76.345 3v3.42c0 1.26-.11 2.27-.33 3.03-.22.76-.51 1.345-.87 1.755-.36.41-.78.685-1.26.825-.48.14-.98.21-1.5.21zm16.05-7.26c1.58 0 2.83-.465 3.75-1.395.92-.93 1.38-2.185 1.38-3.765v-1.17c0-1.58-.46-2.835-1.38-3.765-.92-.93-2.17-1.395-3.75-1.395s-2.83.465-3.75 1.395c-.92.93-1.38 2.185-1.38 3.765v1.17c0 1.58.46 2.835 1.38 3.765.92.93 2.17 1.395 3.75 1.395zm2.16 10.53 12.9-21.6h-3.45l-12.93 21.6h3.48zm-2.16-13.08c-.84 0-1.41-.24-1.71-.72-.3-.48-.45-1.13-.45-1.95v-1.05c0-.8.15-1.445.45-1.935.3-.49.87-.735 1.71-.735s1.41.245 1.71.735c.3.49.45 1.135.45 1.935v1.05c0 .82-.15 1.47-.45 1.95-.3.48-.87.72-1.71.72zm13.77 13.35c1.58 0 2.83-.465 3.75-1.395.92-.93 1.38-2.185 1.38-3.765v-1.17c0-1.58-.46-2.835-1.38-3.765-.92-.93-2.17-1.395-3.75-1.395s-2.83.465-3.75 1.395c-.92.93-1.38 2.185-1.38 3.765v1.17c0 1.58.46 2.835 1.38 3.765.92.93 2.17 1.395 3.75 1.395zm0-2.55c-.84 0-1.41-.24-1.71-.72-.3-.48-.45-1.13-.45-1.95v-1.05c0-.8.15-1.445.45-1.935.3-.49.87-.735 1.71-.735s1.41.245 1.71.735c.3.49.45 1.135.45 1.935v1.05c0 .82-.15 1.47-.45 1.95-.3.48-.87.72-1.71.72zM259.217 252.448v-8.48h-1.328v3.04h-3.12v1.072h3.12v4.368h1.328zm-11.152-.24c1.728-.656 3.024-1.952 3.632-3.648.624 1.488 1.84 2.624 3.408 3.216l.704-1.024c-2.096-.736-3.488-2.512-3.488-4.56v-1.424h-1.312v1.472c0 2.192-1.424 4.112-3.632 4.896l.688 1.072zm6.416 6.08c2.944 0 4.768-.992 4.768-2.704 0-1.728-1.824-2.704-4.768-2.704s-4.784.976-4.784 2.704c0 1.712 1.84 2.704 4.784 2.704zm0-1.04c-2.16 0-3.472-.624-3.472-1.664 0-1.056 1.312-1.68 3.472-1.68s3.472.624 3.472 1.68c0 1.04-1.312 1.664-3.472 1.664zm18.768-4.624v-3.936h2.128v-1.104h-2.128v-3.616h-1.312v8.656h1.312zm-10.528-.272c1.712-.608 3.008-1.888 3.616-3.52.608 1.424 1.84 2.56 3.472 3.088l.624-1.024c-2.112-.704-3.472-2.384-3.472-4.256v-.56h3.168v-1.056h-7.696v1.056h3.216v.56c0 2.064-1.44 3.92-3.6 4.672l.672 1.04zm5.968 5.936c2.912 0 4.72-.976 4.72-2.656 0-1.664-1.808-2.64-4.72-2.64-2.944 0-4.736.976-4.736 2.64 0 1.68 1.792 2.656 4.736 2.656zm0-1.04c-2.144 0-3.424-.592-3.424-1.616 0-1.008 1.28-1.6 3.424-1.6 2.112 0 3.408.592 3.408 1.6 0 1.024-1.296 1.616-3.408 1.616zm14.624-4.464c2.976 0 5.216-1.568 5.216-3.968 0-2.384-2.24-3.968-5.216-3.968s-5.216 1.584-5.216 3.968c0 2.4 2.24 3.968 5.216 3.968zm0-1.072c-2.256 0-3.968-1.152-3.968-2.896 0-1.728 1.712-2.896 3.968-2.896 2.272 0 3.968 1.168 3.968 2.896 0 1.744-1.696 2.896-3.968 2.896zm6.544 4.688v-1.088h-13.04v1.088h13.04zm14.72.128v-1.072h-5.872v-2.704h4.592v-1.056h-8.832v-2.32h8.496v-4.368h-9.824v1.072h8.544v2.24h-8.512v4.432h4.208v2.704h-5.84v1.072h13.04zm17.024 1.808v-14.384h-1.312v14.384h1.312zm-7.568-3.264c2.128 0 3.648-1.952 3.648-5.008s-1.52-5.008-3.648-5.008-3.648 1.952-3.648 5.008 1.52 5.008 3.648 5.008zm0-1.168c-1.408 0-2.4-1.504-2.4-3.84 0-2.32.992-3.824 2.4-3.824 1.392 0 2.384 1.504 2.384 3.824 0 2.336-.992 3.84-2.384 3.84zm22.368 4.432v-14.384h-1.312v5.472h-3.12c-.208-2.688-1.616-4.368-3.552-4.368-2.096 0-3.584 1.952-3.584 5.008s1.488 5.008 3.584 5.008c2 0 3.424-1.76 3.552-4.576h3.12v7.84h1.312zm-7.984-4.432c-1.376 0-2.336-1.504-2.336-3.84 0-2.32.96-3.824 2.336-3.824 1.36 0 2.32 1.504 2.32 3.824 0 2.336-.96 3.84-2.32 3.84zm22.624 4.4v-14.336h-1.312v14.336h1.312zm-10.976-2.752c1.632-.832 3.04-2.64 3.696-4.736.688 1.968 2.096 3.616 3.76 4.384l.736-1.056c-2.112-.896-3.84-3.376-3.84-5.808v-1.824h3.376v-1.088h-8.016v1.088h3.328v1.824c0 2.48-1.744 5.184-3.808 6.16l.768 1.056zm25.456-6.208v-1.072h-8.448v-3.792h-1.312v4.864h9.76zm1.488 2.976v-1.056h-13.008v1.056h13.008zm-1.408 5.632v-1.072h-8.624v-3.12h-1.312v4.192h9.936zm-96.2 22.352v-14.352h-1.312v14.352h1.312zm-10.88-2.672c4.768-2.336 6.672-5.984 6.672-10.128h-6.72v1.056h5.392c-.272 3.408-2.192 6.16-6.048 8l.704 1.072zm25.648-3.968v-7.696h-1.328v3.408h-2.928c-.272-1.664-1.712-2.752-3.648-2.752-2.144 0-3.696 1.344-3.696 3.312 0 1.984 1.552 3.328 3.696 3.328 1.968 0 3.408-1.12 3.664-2.816h2.912v3.216h1.328zm-7.904-1.488c-1.424 0-2.448-.928-2.448-2.24 0-1.312 1.024-2.224 2.448-2.224s2.448.912 2.448 2.224c0 1.312-1.024 2.24-2.448 2.24zm7.904 7.936v-5.744h-1.312v1.808h-6.576v-1.808h-1.296v5.744h9.184zm-1.312-1.056h-6.576V277.2h6.576v1.856zm19.984 1.232v-14.336h-1.264v14.336h1.264zm-2.896-.736v-13.264h-1.248v5.328h-2.192v1.088h2.192v6.848h1.248zm-8.64-2.192c1.408-.848 2.416-2.448 2.912-4.272.528 1.728 1.552 3.184 2.944 3.968l.752-.992c-1.936-1.04-3.088-3.408-3.088-5.696v-.688h2.656v-1.088h-2.64v-2.128h-1.264v2.128h-2.656v1.088h2.656v.688c0 2.352-1.104 4.864-3.04 6.016l.768.976zm26.256 2.928v-14.336h-1.248v14.336h1.248zm-2.88-.72v-13.232h-1.248v3.616h-2.128c.128-.72.192-1.44.192-2.176h-5.504v1.072h4.208c-.224 3.008-1.76 5.584-4.848 7.424l.768.928c2.72-1.616 4.272-3.776 4.944-6.192h2.368v2.528h-2.592v1.072h2.592v4.96h1.248zm8.976-5.152c.576 0 1.056-.464 1.056-1.104 0-.672-.48-1.136-1.056-1.136-.576 0-1.056.464-1.056 1.136 0 .64.48 1.104 1.056 1.104zm16.72-2.752v-5.04h-9.648v5.04h9.648zm-1.296-1.056h-7.072v-2.928h7.072v2.928zm-2.768 6.64v-2.896h5.76v-1.056h-13.04v1.056h5.968v2.896h1.312zm4.304 2.736v-1.072h-8.608v-3.024h-1.312v4.096h9.92zm14.224.32v-7.152h2.24v-1.104h-2.24v-6.096h-1.312v14.352h1.312zm-2.4-11.568v-1.04h-3.616v-1.728h-1.312v1.728h-3.648v1.04h8.576zm.32 8.272-.08-.976c-1.232.192-2.56.288-3.856.352v-1.52c1.648-.208 2.736-1.2 2.736-2.624 0-1.616-1.392-2.656-3.392-2.656s-3.392 1.04-3.392 2.656c0 1.424 1.088 2.416 2.736 2.624v1.568c-1.392.048-2.736.048-3.888.048l.176 1.104c2.512 0 5.888-.032 8.96-.576zm-4.592-3.136c-1.28 0-2.144-.64-2.144-1.632 0-.992.864-1.648 2.144-1.648 1.28 0 2.144.656 2.144 1.648 0 .992-.864 1.632-2.144 1.632z"/>
        </g>
        <circle fill="url(#c)" opacity=".9" cx="139.896" cy="299.896" r="76.896"/>
        <circle fill="url(#d)" opacity=".9" cx="391" cy="96" r="65"/>
        <circle fill="url(#e)" opacity=".9" cx="264.971" cy="73.971" r="42.971"/>
        <path d="M256.291 81.74c.8 0 1.507-.103 2.12-.31.614-.207 1.13-.49 1.55-.85.42-.36.737-.787.95-1.28.214-.493.32-1.027.32-1.6v-.34c0-.4-.063-.777-.19-1.13a3.51 3.51 0 0 0-1.26-1.68 3.028 3.028 0 0 0-.89-.45c.347-.2.644-.427.89-.68.247-.253.45-.513.61-.78.16-.267.277-.533.35-.8.074-.267.11-.52.11-.76v-.24c0-.52-.096-1.017-.29-1.49a3.598 3.598 0 0 0-.87-1.26c-.386-.367-.87-.66-1.45-.88-.58-.22-1.256-.33-2.03-.33-.786 0-1.47.11-2.05.33-.58.22-1.06.513-1.44.88a3.43 3.43 0 0 0-.84 1.26c-.18.473-.27.97-.27 1.49v.24c0 .24.04.5.12.78.08.28.2.557.36.83.16.273.364.533.61.78.247.247.544.457.89.63-.306.093-.6.24-.88.44s-.53.443-.75.73c-.22.287-.396.607-.53.96-.133.353-.2.73-.2 1.13v.34c0 .573.107 1.107.32 1.6.214.493.534.92.96 1.28.427.36.957.643 1.59.85.634.207 1.364.31 2.19.31zm-.04-8.7c-.24 0-.48-.037-.72-.11a1.956 1.956 0 0 1-.65-.34 1.75 1.75 0 0 1-.47-.58c-.12-.233-.18-.51-.18-.83v-.2c0-.627.194-1.097.58-1.41.387-.313.86-.47 1.42-.47.6 0 1.084.157 1.45.47.367.313.55.783.55 1.41v.2c0 .32-.056.597-.17.83a1.699 1.699 0 0 1-.45.58 1.863 1.863 0 0 1-.63.34 2.42 2.42 0 0 1-.73.11zm.02 6.46c-.72 0-1.3-.17-1.74-.51-.44-.34-.66-.823-.66-1.45v-.2c0-.36.067-.67.2-.93.134-.26.31-.473.53-.64.22-.167.474-.29.76-.37.287-.08.59-.12.91-.12.32 0 .62.04.9.12.28.08.524.207.73.38.207.173.374.387.5.64.127.253.19.56.19.92v.2c0 .627-.206 1.11-.62 1.45-.413.34-.98.51-1.7.51zm10.74-5.02c1.054 0 1.887-.31 2.5-.93.614-.62.92-1.457.92-2.51v-.78c0-1.053-.306-1.89-.92-2.51-.613-.62-1.446-.93-2.5-.93-1.053 0-1.886.31-2.5.93-.613.62-.92 1.457-.92 2.51v.78c0 1.053.307 1.89.92 2.51.614.62 1.447.93 2.5.93zm1.44 7.02 8.6-14.4h-2.3l-8.62 14.4h2.32zm-1.44-8.72c-.56 0-.94-.16-1.14-.48-.2-.32-.3-.753-.3-1.3v-.7c0-.533.1-.963.3-1.29.2-.327.58-.49 1.14-.49.56 0 .94.163 1.14.49.2.327.3.757.3 1.29v.7c0 .547-.1.98-.3 1.3-.2.32-.58.48-1.14.48zm9.18 8.9c1.054 0 1.887-.31 2.5-.93.614-.62.92-1.457.92-2.51v-.78c0-1.053-.306-1.89-.92-2.51-.613-.62-1.446-.93-2.5-.93-1.053 0-1.886.31-2.5.93-.613.62-.92 1.457-.92 2.51v.78c0 1.053.307 1.89.92 2.51.614.62 1.447.93 2.5.93zm0-1.7c-.56 0-.94-.16-1.14-.48-.2-.32-.3-.753-.3-1.3v-.7c0-.533.1-.963.3-1.29.2-.327.58-.49 1.14-.49.56 0 .94.163 1.14.49.2.327.3.757.3 1.29v.7c0 .547-.1.98-.3 1.3-.2.32-.58.48-1.14.48zM105.857 122.11c1.32 0 2.475-.175 3.465-.525.99-.35 1.81-.815 2.46-1.395a5.573 5.573 0 0 0 1.455-2.01c.32-.76.48-1.55.48-2.37v-.45c0-1.24-.34-2.3-1.02-3.18-.68-.88-1.74-1.45-3.18-1.71.62-.24 1.13-.55 1.53-.93.4-.38.72-.795.96-1.245.24-.45.405-.92.495-1.41.09-.49.135-.945.135-1.365v-.3c0-.8-.16-1.535-.48-2.205-.32-.67-.77-1.24-1.35-1.71-.58-.47-1.28-.835-2.1-1.095-.82-.26-1.74-.39-2.76-.39-1.56 0-2.84.285-3.84.855-1 .57-1.86 1.325-2.58 2.265l2.61 2.04c.48-.52 1.005-.95 1.575-1.29.57-.34 1.315-.51 2.235-.51.9 0 1.615.185 2.145.555.53.37.795.965.795 1.785v.24c0 .46-.045.885-.135 1.275-.09.39-.255.72-.495.99s-.575.48-1.005.63c-.43.15-.985.225-1.665.225h-2.58v3.3h2.91c1.38 0 2.38.245 3 .735.62.49.93 1.265.93 2.325v.39c0 .96-.32 1.71-.96 2.25-.64.54-1.64.81-3 .81-.44 0-.85-.03-1.23-.09a6 6 0 0 1-1.17-.315c-.4-.15-.815-.355-1.245-.615-.43-.26-.905-.58-1.425-.96l-1.89 3a10.54 10.54 0 0 0 3.285 1.815c1.17.39 2.385.585 3.645.585zm19.71 0c2.62 0 4.58-.81 5.88-2.43 1.3-1.62 1.95-3.97 1.95-7.05v-3.36c0-3.04-.68-5.375-2.04-7.005-1.36-1.63-3.32-2.445-5.88-2.445-2.54 0-4.505.815-5.895 2.445-1.39 1.63-2.085 3.965-2.085 7.005v3.36c0 3.04.7 5.38 2.1 7.02 1.4 1.64 3.39 2.46 5.97 2.46zm0-3.63c-.5 0-1-.07-1.5-.21-.5-.14-.95-.42-1.35-.84-.4-.42-.725-1.01-.975-1.77s-.375-1.76-.375-3v-3.42c0-1.22.12-2.21.36-2.97.24-.76.555-1.35.945-1.77.39-.42.83-.7 1.32-.84a5.488 5.488 0 0 1 3 0c.49.14.92.415 1.29.825s.67.995.9 1.755c.23.76.345 1.76.345 3v3.42c0 1.26-.11 2.27-.33 3.03-.22.76-.51 1.345-.87 1.755-.36.41-.78.685-1.26.825-.48.14-.98.21-1.5.21zm16.05-7.26c1.58 0 2.83-.465 3.75-1.395.92-.93 1.38-2.185 1.38-3.765v-1.17c0-1.58-.46-2.835-1.38-3.765-.92-.93-2.17-1.395-3.75-1.395s-2.83.465-3.75 1.395c-.92.93-1.38 2.185-1.38 3.765v1.17c0 1.58.46 2.835 1.38 3.765.92.93 2.17 1.395 3.75 1.395zm2.16 10.53 12.9-21.6h-3.45l-12.93 21.6h3.48zm-2.16-13.08c-.84 0-1.41-.24-1.71-.72-.3-.48-.45-1.13-.45-1.95v-1.05c0-.8.15-1.445.45-1.935.3-.49.87-.735 1.71-.735s1.41.245 1.71.735c.3.49.45 1.135.45 1.935V106c0 .82-.15 1.47-.45 1.95-.3.48-.87.72-1.71.72zm13.77 13.35c1.58 0 2.83-.465 3.75-1.395.92-.93 1.38-2.185 1.38-3.765v-1.17c0-1.58-.46-2.835-1.38-3.765-.92-.93-2.17-1.395-3.75-1.395s-2.83.465-3.75 1.395c-.92.93-1.38 2.185-1.38 3.765v1.17c0 1.58.46 2.835 1.38 3.765.92.93 2.17 1.395 3.75 1.395zm0-2.55c-.84 0-1.41-.24-1.71-.72-.3-.48-.45-1.13-.45-1.95v-1.05c0-.8.15-1.445.45-1.935.3-.49.87-.735 1.71-.735s1.41.245 1.71.735c.3.49.45 1.135.45 1.935v1.05c0 .82-.15 1.47-.45 1.95-.3.48-.87.72-1.71.72z" fill="#FFF" fill-rule="nonzero"/>
        <g fill="#FFF" fill-rule="nonzero">
            <path d="M91.989 326.168v-14.336H90.74v5.68h-1.936v-5.36h-1.232v13.312h1.232v-6.88h1.936v7.584h1.248zm-6.224-3.84v-8.832h-5.456v8.832h5.456zm-1.216-1.04H81.54v-6.752h3.008v6.752zm21.776-.624v-8.816h-1.312v2.112h-2.8v1.072h2.8v1.92h-2.8v1.056h2.8v2.656h1.312zm-4.096-1.008-.128-1.056c-1.664.272-3.04.336-5.696.336v-2.176h4.864v-4.064h-6.192v1.072h4.912v1.984h-4.864v4.256h1.024c2.864 0 4.32-.048 6.08-.352zm4.096 6.544v-4.768h-9.6v1.072h8.288v3.696h1.312zm14.72-5.776v-8.592h-1.312v3.744h-2.8v1.072h2.8v3.776h1.312zm-11.072-.224a6.082 6.082 0 0 0 3.6-3.584 5.947 5.947 0 0 0 3.472 3.248l.656-1.024c-2.08-.736-3.488-2.544-3.488-4.384v-.576h3.152v-1.072H109.7v1.072h3.2v.576c0 2.032-1.488 3.952-3.616 4.704l.688 1.04zm11.072 6v-4.992h-9.584v1.056h8.272v3.936h1.312zm14.688-3.872v-10.48h-1.312v10.48h1.312zm-7.712-2.416c2.144 0 3.76-1.472 3.76-3.552 0-2.064-1.616-3.52-3.76-3.52-2.128 0-3.728 1.456-3.728 3.52 0 2.08 1.6 3.552 3.728 3.552zm0-1.136c-1.392 0-2.448-.992-2.448-2.416 0-1.392 1.056-2.384 2.448-2.384 1.424 0 2.48.992 2.48 2.384 0 1.424-1.056 2.416-2.48 2.416zm8.144 7.088v-1.072h-8.352v-3.536H126.5v4.608h9.664zm17.92.336v-14.368h-1.312v4.864h-3.328v1.072h3.328v8.432h1.312zm-11.024-3.056c1.616-.864 2.944-2.672 3.568-4.8.656 2.016 1.968 3.728 3.6 4.544l.768-1.04c-2.08-.992-3.712-3.6-3.712-6.208v-2.576h-1.312v2.576c0 2.656-1.632 5.424-3.712 6.464l.8 1.04zm25.664 3.056v-14.368h-1.312V326.2h1.312zm-4.176-3.472v-9.68h-1.296v3.792h-4.16v-3.792h-1.296v9.68h6.752zm-1.296-1.072h-4.16v-3.776h4.16v3.776zm20.224-1.52.592-1.088c-2.512-.48-5.232-2.656-5.232-5.104v-1.104h-1.376v1.104c0 2.448-2.704 4.608-5.216 5.104l.592 1.088c2.16-.512 4.4-2.048 5.312-4.144.912 2.112 3.152 3.648 5.328 4.144zm1.232 4.128v-1.088H171.7v1.088h13.008zm13.152-7.6v-1.056h-8.4v-2.24h8.256v-1.056h-9.568v4.352h9.712zm1.552 2.224v-1.072H186.42v1.072h12.992zm-1.248 7.12v-1.024H189.3v-1.472h8.432v-3.376h-9.76v1.024h8.464v1.376h-8.416v3.472h10.144zM127.981 291.624v-2.544h-8.232l5.088-5.136c.816-.816 1.436-1.652 1.86-2.508a6.006 6.006 0 0 0 .636-2.7v-.24c0-.592-.108-1.156-.324-1.692a3.783 3.783 0 0 0-1.008-1.416c-.456-.408-1.036-.732-1.74-.972s-1.544-.36-2.52-.36c-.88 0-1.644.12-2.292.36-.648.24-1.208.54-1.68.9s-.864.756-1.176 1.188c-.312.432-.572.832-.78 1.2l2.304 1.512a6.92 6.92 0 0 1 .876-1.224c.296-.32.596-.568.9-.744.304-.176.612-.296.924-.36.312-.064.628-.096.948-.096.896 0 1.532.188 1.908.564.376.376.564.796.564 1.26v.192a6 6 0 0 1-.048.744 2.8 2.8 0 0 1-.264.84 6.2 6.2 0 0 1-.648 1.032c-.288.384-.68.832-1.176 1.344l-6.36 6.552v2.304h12.24zm8.952.264c2.096 0 3.664-.648 4.704-1.944 1.04-1.296 1.56-3.176 1.56-5.64v-2.688c0-2.432-.544-4.3-1.632-5.604-1.088-1.304-2.656-1.956-4.704-1.956-2.032 0-3.604.652-4.716 1.956-1.112 1.304-1.668 3.172-1.668 5.604v2.688c0 2.432.56 4.304 1.68 5.616 1.12 1.312 2.712 1.968 4.776 1.968zm0-2.904c-.4 0-.8-.056-1.2-.168-.4-.112-.76-.336-1.08-.672-.32-.336-.58-.808-.78-1.416-.2-.608-.3-1.408-.3-2.4v-2.736c0-.976.096-1.768.288-2.376.192-.608.444-1.08.756-1.416.312-.336.664-.56 1.056-.672a4.39 4.39 0 0 1 2.4 0c.392.112.736.332 1.032.66.296.328.536.796.72 1.404.184.608.276 1.408.276 2.4v2.736c0 1.008-.088 1.816-.264 2.424-.176.608-.408 1.076-.696 1.404a2.117 2.117 0 0 1-1.008.66 4.264 4.264 0 0 1-1.2.168zm12.84-5.808c1.264 0 2.264-.372 3-1.116.736-.744 1.104-1.748 1.104-3.012v-.936c0-1.264-.368-2.268-1.104-3.012-.736-.744-1.736-1.116-3-1.116s-2.264.372-3 1.116c-.736.744-1.104 1.748-1.104 3.012v.936c0 1.264.368 2.268 1.104 3.012.736.744 1.736 1.116 3 1.116zm1.728 8.424 10.32-17.28h-2.76l-10.344 17.28h2.784zm-1.728-10.464c-.672 0-1.128-.192-1.368-.576-.24-.384-.36-.904-.36-1.56v-.84c0-.64.12-1.156.36-1.548.24-.392.696-.588 1.368-.588.672 0 1.128.196 1.368.588.24.392.36.908.36 1.548v.84c0 .656-.12 1.176-.36 1.56-.24.384-.696.576-1.368.576zm11.016 10.68c1.264 0 2.264-.372 3-1.116.736-.744 1.104-1.748 1.104-3.012v-.936c0-1.264-.368-2.268-1.104-3.012-.736-.744-1.736-1.116-3-1.116s-2.264.372-3 1.116c-.736.744-1.104 1.748-1.104 3.012v.936c0 1.264.368 2.268 1.104 3.012.736.744 1.736 1.116 3 1.116zm0-2.04c-.672 0-1.128-.192-1.368-.576-.24-.384-.36-.904-.36-1.56v-.84c0-.64.12-1.156.36-1.548.24-.392.696-.588 1.368-.588.672 0 1.128.196 1.368.588.24.392.36.908.36 1.548v.84c0 .656-.12 1.176-.36 1.56-.24.384-.696.576-1.368.576z"/>
        </g>
        <g fill="#FFF" fill-rule="nonzero">
            <path d="M363.86 121.208c2.945 0 5.009-2.352 5.009-6.112 0-3.76-2.064-6.048-5.008-6.048s-5.008 2.288-5.008 6.048c0 3.76 2.064 6.112 5.008 6.112zm0-1.296c-2.111 0-3.487-1.888-3.487-4.816 0-2.944 1.376-4.752 3.488-4.752 2.096 0 3.488 1.808 3.488 4.752 0 2.928-1.392 4.816-3.488 4.816zm9.025 1.088v-3.712l2.016-2.4 3.504 6.112h1.664l-4.24-7.264 3.664-4.464h-1.664l-4.896 5.888h-.048v-5.888h-1.488V121h1.488zm10.336 0v-4.976h2.112L388.18 121h1.68l-3.008-5.136c1.6-.384 2.656-1.472 2.656-3.296 0-2.448-1.712-3.296-4.096-3.296h-3.68V121h1.488zm1.968-6.176h-1.968v-4.352h1.968c1.84 0 2.848.544 2.848 2.096 0 1.52-1.008 2.256-2.848 2.256zm20.672 1.648v-3.936h2.128v-1.088h-2.128v-3.616h-1.312v8.64h1.312zm-3.904-1.12v-6.608h-1.28v2.16h-4.064v-2.16h-1.296v6.608h6.64zm-1.28-1.056h-4.064v-2.368h4.064v2.368zm.624 7.888c2.912 0 4.72-.976 4.72-2.672 0-1.696-1.808-2.672-4.72-2.672-2.928 0-4.736.976-4.736 2.672 0 1.696 1.808 2.672 4.736 2.672zm0-1.04c-2.144 0-3.424-.608-3.424-1.632s1.28-1.616 3.424-1.616c2.112 0 3.408.592 3.408 1.616s-1.296 1.632-3.408 1.632zm19.92-4.672v-8.624h-1.312v8.624h1.312zm-10.976-.592a6.195 6.195 0 0 0 3.616-3.664c.64 1.584 1.936 2.816 3.584 3.408l.656-1.04c-2.128-.736-3.6-2.608-3.6-4.672v-1.408h-1.312v1.408c0 2.144-1.456 4.144-3.616 4.928l.672 1.04zm10.976 6.32v-4.992h-9.6v1.056h8.288v3.936h1.312zM376.701 87.624V70.32h-2.712l-5.784 3.216 1.488 2.496 3.936-2.256v13.848h3.072zm17.16 0V85.08h-8.232l5.088-5.136c.816-.816 1.436-1.652 1.86-2.508a6.006 6.006 0 0 0 .636-2.7v-.24c0-.592-.108-1.156-.324-1.692a3.783 3.783 0 0 0-1.008-1.416c-.456-.408-1.036-.732-1.74-.972s-1.544-.36-2.52-.36c-.88 0-1.644.12-2.292.36-.648.24-1.208.54-1.68.9s-.864.756-1.176 1.188c-.312.432-.572.832-.78 1.2l2.304 1.512a6.92 6.92 0 0 1 .876-1.224c.296-.32.596-.568.9-.744.304-.176.612-.296.924-.36.312-.064.628-.096.948-.096.896 0 1.532.188 1.908.564.376.376.564.796.564 1.26v.192a6 6 0 0 1-.048.744 2.8 2.8 0 0 1-.264.84 6.2 6.2 0 0 1-.648 1.032c-.288.384-.68.832-1.176 1.344l-6.36 6.552v2.304h12.24zm6.912-8.448c1.264 0 2.264-.372 3-1.116.736-.744 1.104-1.748 1.104-3.012v-.936c0-1.264-.368-2.268-1.104-3.012-.736-.744-1.736-1.116-3-1.116s-2.264.372-3 1.116c-.736.744-1.104 1.748-1.104 3.012v.936c0 1.264.368 2.268 1.104 3.012.736.744 1.736 1.116 3 1.116zm1.728 8.424 10.32-17.28h-2.76L399.717 87.6h2.784zm-1.728-10.464c-.672 0-1.128-.192-1.368-.576-.24-.384-.36-.904-.36-1.56v-.84c0-.64.12-1.156.36-1.548.24-.392.696-.588 1.368-.588.672 0 1.128.196 1.368.588.24.392.36.908.36 1.548V75c0 .656-.12 1.176-.36 1.56-.24.384-.696.576-1.368.576zm11.016 10.68c1.264 0 2.264-.372 3-1.116.736-.744 1.104-1.748 1.104-3.012v-.936c0-1.264-.368-2.268-1.104-3.012-.736-.744-1.736-1.116-3-1.116s-2.264.372-3 1.116c-.736.744-1.104 1.748-1.104 3.012v.936c0 1.264.368 2.268 1.104 3.012.736.744 1.736 1.116 3 1.116zm0-2.04c-.672 0-1.128-.192-1.368-.576-.24-.384-.36-.904-.36-1.56v-.84c0-.64.12-1.156.36-1.548.24-.392.696-.588 1.368-.588.672 0 1.128.196 1.368.588.24.392.36.908.36 1.548v.84c0 .656-.12 1.176-.36 1.56-.24.384-.696.576-1.368.576z"/>
        </g>
    </g>
</svg>
